<svg xmlns="http://www.w3.org/2000/svg" xmlns:xlink="http://www.w3.org/1999/xlink" viewBox="0 0 667.5 810.33"><defs><style>.cls-1{isolation:isolate;}.cls-2{fill:#ebebeb;}.cls-3{opacity:0.9;}.cls-4{fill:url(#Degradado_sin_nombre_38);}.cls-11,.cls-5,.cls-7{fill:none;}.cls-11,.cls-12,.cls-13,.cls-16,.cls-17,.cls-18,.cls-19,.cls-20,.cls-21,.cls-22,.cls-23,.cls-24,.cls-25,.cls-26,.cls-5,.cls-7{stroke:#355e98;}.cls-13,.cls-5,.cls-7{stroke-miterlimit:10;stroke-width:2.77px;}.cls-13,.cls-6{fill:#f9f9f9;}.cls-11,.cls-12,.cls-13,.cls-16,.cls-17,.cls-18,.cls-19,.cls-20,.cls-21,.cls-22,.cls-23,.cls-24,.cls-25,.cls-26,.cls-7{stroke-linecap:round;}.cls-8{fill:#fff;}.cls-9{mix-blend-mode:darken;}.cls-10{fill:url(#Degradado_sin_nombre_38-2);}.cls-11,.cls-12,.cls-16,.cls-17,.cls-18,.cls-19,.cls-20,.cls-21,.cls-22,.cls-23,.cls-24,.cls-25,.cls-26{stroke-linejoin:round;}.cls-11{stroke-width:3.69px;}.cls-12{fill:#4071b7;stroke-width:3px;}.cls-14{fill:url(#Degradado_sin_nombre_38-3);}.cls-15{fill:#355e98;}.cls-16,.cls-17,.cls-18{stroke-width:2.39px;}.cls-16{fill:url(#Degradado_sin_nombre_38-4);}.cls-17{fill:url(#Degradado_sin_nombre_38-5);}.cls-18{fill:url(#Degradado_sin_nombre_38-6);}.cls-19,.cls-20,.cls-21,.cls-22,.cls-23,.cls-24,.cls-25,.cls-26{stroke-width:2px;}.cls-19{fill:url(#Degradado_sin_nombre_38-7);}.cls-20{fill:url(#Degradado_sin_nombre_38-8);}.cls-21{fill:url(#Degradado_sin_nombre_38-9);}.cls-22{fill:url(#Degradado_sin_nombre_38-10);}.cls-23{fill:url(#Degradado_sin_nombre_38-11);}.cls-24{fill:url(#Degradado_sin_nombre_38-12);}.cls-25{fill:url(#Degradado_sin_nombre_38-13);}.cls-26{fill:url(#Degradado_sin_nombre_38-14);}</style><linearGradient id="Degradado_sin_nombre_38" x1="512.61" y1="90.27" x2="142.38" y2="371.04" gradientUnits="userSpaceOnUse"><stop offset="0" stop-color="#4070b7"/><stop offset="0.52" stop-color="#4070b7" stop-opacity="0.91"/><stop offset="1" stop-color="#4070b7" stop-opacity="0.8"/></linearGradient><linearGradient id="Degradado_sin_nombre_38-2" x1="408.78" y1="344" x2="253.57" y2="139.03" xlink:href="#Degradado_sin_nombre_38"/><linearGradient id="Degradado_sin_nombre_38-3" x1="424.04" y1="365.64" x2="464.3" y2="365.64" xlink:href="#Degradado_sin_nombre_38"/><linearGradient id="Degradado_sin_nombre_38-4" x1="177.52" y1="547.48" x2="632.12" y2="682.22" xlink:href="#Degradado_sin_nombre_38"/><linearGradient id="Degradado_sin_nombre_38-5" x1="186.87" y1="515.94" x2="641.47" y2="650.68" xlink:href="#Degradado_sin_nombre_38"/><linearGradient id="Degradado_sin_nombre_38-6" x1="198.89" y1="475.39" x2="653.48" y2="610.13" xlink:href="#Degradado_sin_nombre_38"/><linearGradient id="Degradado_sin_nombre_38-7" x1="443.75" y1="493.5" x2="444.75" y2="493.5" xlink:href="#Degradado_sin_nombre_38"/><linearGradient id="Degradado_sin_nombre_38-8" x1="422.75" y1="493.5" x2="436.75" y2="493.5" xlink:href="#Degradado_sin_nombre_38"/><linearGradient id="Degradado_sin_nombre_38-9" x1="422.75" y1="498.5" x2="449.75" y2="498.5" xlink:href="#Degradado_sin_nombre_38"/><linearGradient id="Degradado_sin_nombre_38-10" x1="422.75" y1="503.5" x2="443.75" y2="503.5" xlink:href="#Degradado_sin_nombre_38"/><linearGradient id="Degradado_sin_nombre_38-11" x1="235.75" y1="585.5" x2="256.75" y2="585.5" xlink:href="#Degradado_sin_nombre_38"/><linearGradient id="Degradado_sin_nombre_38-12" x1="239.75" y1="591.5" x2="256.75" y2="591.5" xlink:href="#Degradado_sin_nombre_38"/><linearGradient id="Degradado_sin_nombre_38-13" x1="232.75" y1="591.5" x2="233.75" y2="591.5" xlink:href="#Degradado_sin_nombre_38"/><linearGradient id="Degradado_sin_nombre_38-14" x1="232.75" y1="596.5" x2="256.75" y2="596.5" xlink:href="#Degradado_sin_nombre_38"/></defs><title>vista-error-svgs</title><g class="cls-1"><g id="Capa_1" data-name="Capa 1"><path class="cls-2" d="M142.15,261H65.84a17.54,17.54,0,1,1,0-35.08H261.16c9.56,0,17.71,7.45,18,17A17.55,17.55,0,0,1,261.58,261H142.15Z"/><path class="cls-2" d="M117,279a18,18,0,0,1,17.78-18H78.45C88.16,261,96,269.3,96,279s-7.87,18-17.58,18h56.32A18,18,0,0,1,117,279Z"/><path class="cls-2" d="M450.4,103.34H374.08a17.58,17.58,0,1,1,0-35.16H569.83a17.58,17.58,0,1,1,0,35.16H450.4Z"/><g class="cls-3"><circle class="cls-4" cx="334.39" cy="225.43" r="181.53"/></g><circle class="cls-5" cx="334.39" cy="225.43" r="181.53"/><path class="cls-6" d="M390.36,64.61a170.11,170.11,0,1,0,100.75,94.24q-1.83-4.3-3.89-8.48a171,171,0,0,0-64.64-70.57"/><path class="cls-7" d="M390.36,64.61a170.11,170.11,0,1,0,100.75,94.24q-1.83-4.3-3.89-8.48a171,171,0,0,0-64.64-70.57"/><path class="cls-8" d="M415.16,75.81a170.64,170.64,0,0,0-18.26-8.75"/><path class="cls-7" d="M415.16,75.81a170.64,170.64,0,0,0-18.26-8.75"/><path class="cls-8" d="M421.77,219.88v87.43a14.51,14.51,0,0,1-14.57,14.57H261.48a14.51,14.51,0,0,1-14.57-14.57V219.88a14.51,14.51,0,0,1,14.57-14.57h4.86V176.17q0-27.93,20-48t48-20q27.93,0,48,20t20,48v29.14h4.86A14.51,14.51,0,0,1,421.77,219.88ZM295.48,205.31H373.2V176.17a38.86,38.86,0,0,0-77.72,0v29.14Z"/><g class="cls-9"><path class="cls-10" d="M421.77,219.88v87.43a14.51,14.51,0,0,1-14.57,14.57H261.48a14.51,14.51,0,0,1-14.57-14.57V219.88a14.51,14.51,0,0,1,14.57-14.57h4.86V176.17q0-27.93,20-48t48-20q27.93,0,48,20t20,48v29.14h4.86A14.51,14.51,0,0,1,421.77,219.88ZM295.48,205.31H373.2V176.17a38.86,38.86,0,0,0-77.72,0v29.14Z"/></g><path class="cls-11" d="M421.77,219.88v87.43a14.51,14.51,0,0,1-14.57,14.57H261.48a14.51,14.51,0,0,1-14.57-14.57V219.88a14.51,14.51,0,0,1,14.57-14.57h4.86V176.17q0-27.93,20-48t48-20q27.93,0,48,20t20,48v29.14h4.86A14.51,14.51,0,0,1,421.77,219.88ZM295.48,205.31H373.2V176.17a38.86,38.86,0,0,0-77.72,0v29.14Z"/><line class="cls-12" x1="273.75" y1="239" x2="272.75" y2="239"/><line class="cls-12" x1="248.75" y1="239" x2="264.75" y2="239"/><line class="cls-12" x1="248.75" y1="249" x2="279.75" y2="249"/><line class="cls-12" x1="248.75" y1="261" x2="272.75" y2="261"/><line class="cls-12" x1="395.75" y1="239" x2="418.75" y2="239"/><line class="cls-12" x1="398.75" y1="249" x2="418.75" y2="249"/><line class="cls-12" x1="391.75" y1="249" x2="392.75" y2="249"/><line class="cls-12" x1="391.75" y1="261" x2="418.75" y2="261"/><circle class="cls-13" cx="444.17" cy="365.64" r="30.02"/><path class="cls-14" d="M457.18,348.8a1,1,0,0,1-.51-0.13,26.19,26.19,0,0,0-24.92,0,1.12,1.12,0,0,1-1.07-2,28.46,28.46,0,0,1,27,0A1.13,1.13,0,0,1,457.18,348.8Zm-32,11.74a1.17,1.17,0,0,1-.65-0.2,1.12,1.12,0,0,1-.27-1.57,23.13,23.13,0,0,1,8.39-7.31,25.82,25.82,0,0,1,23.06,0,23.22,23.22,0,0,1,8.39,7.27,1.12,1.12,0,0,1-1.83,1.3,21,21,0,0,0-7.58-6.58,23.57,23.57,0,0,0-21,0,21.22,21.22,0,0,0-7.61,6.62A1,1,0,0,1,425.16,360.54Zm14,27a1,1,0,0,1-.78-0.34,22.61,22.61,0,0,1-4.5-5.91,19.86,19.86,0,0,1-2.35-9.71c0-6.64,5.68-12.06,12.66-12.06s12.66,5.41,12.66,12.06a1.12,1.12,0,1,1-2.24,0c0-5.41-4.68-9.82-10.42-9.82s-10.42,4.41-10.42,9.82a17.52,17.52,0,0,0,2.08,8.61,21.17,21.17,0,0,0,4.14,5.41,1.15,1.15,0,0,1,0,1.59A1.23,1.23,0,0,1,439.15,387.54Zm16-4.14a12,12,0,0,1-6.93-2,11.91,11.91,0,0,1-5.32-9.82,1.12,1.12,0,1,1,2.24,0,9.62,9.62,0,0,0,4.34,8,9.81,9.81,0,0,0,5.68,1.59,14.78,14.78,0,0,0,2.33-.22,1.12,1.12,0,0,1,.38,2.21A15.28,15.28,0,0,1,455.18,383.4Zm-4.5,4.61a1.31,1.31,0,0,1-.29,0,17.45,17.45,0,0,1-8.32-4.7,16.32,16.32,0,0,1-4.85-11.68,6.9,6.9,0,0,1,13.78,0,4.66,4.66,0,0,0,9.31,0c0-8.43-7.27-15.28-16.22-15.28a16.33,16.33,0,0,0-14.79,9,14.39,14.39,0,0,0-1.32,6.26,22.23,22.23,0,0,0,1.5,8.08,1.09,1.09,0,0,1-.65,1.43,1.11,1.11,0,0,1-1.43-.65,24.92,24.92,0,0,1-1.63-8.86,16.81,16.81,0,0,1,1.52-7.25,18.56,18.56,0,0,1,16.8-10.29c10.18,0,18.45,7.85,18.45,17.52a6.9,6.9,0,0,1-13.78,0,4.66,4.66,0,0,0-9.31,0,14.09,14.09,0,0,0,4.18,10.09A15.21,15.21,0,0,0,451,385.8a1.11,1.11,0,0,1,.78,1.36A1.09,1.09,0,0,1,450.69,388Z"/><path class="cls-2" d="M638.12,208.6H612.88a17.54,17.54,0,1,1,0-35.08h28.68a17.54,17.54,0,1,0,0-35.08H560.62c-9.47-.92-17-8.07-17-17.52a17.67,17.67,0,0,1,17.78-17.56H502a17.56,17.56,0,0,1,17.58,17.56c0,9.46-7.47,16.6-16.84,17.52H445.82a17.54,17.54,0,1,0,0,35.08H532a17.54,17.54,0,1,1,0,35.08H484.86a17.54,17.54,0,1,0,0,35.08H638.12A17.54,17.54,0,1,0,638.12,208.6Z"/><circle class="cls-2" cx="594.56" cy="37.12" r="10.14"/><circle class="cls-2" cx="595.56" cy="651.36" r="10.14"/><circle class="cls-2" cx="137.39" cy="118.31" r="10.14"/><circle class="cls-2" cx="141.82" cy="794.43" r="10.14"/><circle class="cls-2" cx="505.78" cy="351.91" r="10.14"/><path class="cls-2" d="M274.62,368.11H209.89a18,18,0,0,1,0-36h24.95A17.55,17.55,0,0,0,252.41,314c-0.29-9.55-8.44-17-18-17H39.09a17.54,17.54,0,1,0,0,35.08H141.62a18.29,18.29,0,0,1,17.88,13.65c2.81,11.44-5.91,22.36-17.05,22.36H98.77a17.54,17.54,0,1,0,0,35.08H275a17.55,17.55,0,0,0,17.57-18.09C292.33,375.55,284.18,368.11,274.62,368.11Z"/><path class="cls-15" d="M141.68,668.06h5.88l9.37,22.16h-6.54l-1.57-4h-8.52l-1.57,4h-6.38ZM147,681.51l-2.45-6.22-2.48,6.22H147Z"/><path class="cls-15" d="M161.53,679.28v-0.06a11.28,11.28,0,0,1,11.57-11.44,10.83,10.83,0,0,1,9.34,4.56l-4.59,3.55a6,6,0,0,0-4.81-2.58c-3.08,0-5.25,2.64-5.25,5.85v0.06c0,3.3,2.17,5.88,5.25,5.88,2.29,0,3.65-1.07,5-2.67l4.59,3.27A11.57,11.57,0,0,1,161.53,679.28Z"/><path class="cls-15" d="M188.49,679.28v-0.06a11.28,11.28,0,0,1,11.57-11.44,10.83,10.83,0,0,1,9.34,4.56l-4.59,3.55a6,6,0,0,0-4.81-2.58c-3.08,0-5.25,2.64-5.25,5.85v0.06c0,3.3,2.17,5.88,5.25,5.88,2.29,0,3.65-1.07,5-2.67l4.59,3.27A11.57,11.57,0,0,1,188.49,679.28Z"/><path class="cls-15" d="M216,668.22h17.7v5.16H222v3.36h10.56v4.81H222V685h11.82v5.19H216v-22Z"/><path class="cls-15" d="M240.42,687l3.4-4.06a11.4,11.4,0,0,0,7.14,2.64c1.67,0,2.55-.57,2.55-1.51V684c0-.94-0.72-1.41-3.74-2.14-4.68-1.07-8.3-2.39-8.3-6.89v-0.06c0-4.09,3.24-7,8.52-7a13.85,13.85,0,0,1,9.05,2.92l-3,4.31a10.81,10.81,0,0,0-6.16-2.17c-1.48,0-2.2.6-2.2,1.41v0.06c0,1,.75,1.45,3.84,2.14,5,1.1,8.17,2.74,8.17,6.85v0.06c0,4.5-3.55,7.17-8.9,7.17A15.43,15.43,0,0,1,240.42,687Z"/><path class="cls-15" d="M265.94,679.28v-0.06a11.53,11.53,0,0,1,11.88-11.44c6.79,0,11.82,5.06,11.82,11.38v0.06a11.53,11.53,0,0,1-11.88,11.44C271,690.66,265.94,685.6,265.94,679.28Zm17.45,0v-0.06a5.68,5.68,0,0,0-5.63-5.94,5.61,5.61,0,0,0-5.6,5.88v0.06a5.72,5.72,0,0,0,5.66,5.94A5.61,5.61,0,0,0,283.39,679.28Z"/><path class="cls-15" d="M305.06,668.22h8.52c7.83,0,12.39,4.53,12.39,10.88v0.06c0,6.35-4.62,11.07-12.51,11.07h-8.39v-22Zm6.1,5.38v11.22h2.48c3.68,0,6.1-2,6.1-5.56v-0.06c0-3.52-2.42-5.6-6.1-5.6h-2.48Z"/><path class="cls-15" d="M333.25,668.22h17.7v5.16H339.29v3.36h10.56v4.81H339.29V685h11.82v5.19H333.25v-22Z"/><path class="cls-15" d="M358.86,668.22h5.69l9.05,11.63V668.22h6v22h-5.31l-9.43-12.07v12.07h-6v-22Z"/><path class="cls-15" d="M387.3,668.22H405v5.16H393.33v3.36H403.9v4.81H393.33V685h11.82v5.19H387.3v-22Z"/><path class="cls-15" d="M410.34,679.28v-0.06c0-6.41,5-11.44,11.82-11.44a12.82,12.82,0,0,1,8.93,3.18l-3.58,4.34a7.71,7.71,0,0,0-5.31-2.07,5.75,5.75,0,0,0-5.63,6v0.06a5.82,5.82,0,0,0,6,6.13,6.08,6.08,0,0,0,3.52-.91v-2.67h-4.31v-4.46h10.09v9.87a14.66,14.66,0,0,1-9.56,3.43C415.43,690.66,410.34,685.95,410.34,679.28Z"/><path class="cls-15" d="M447.45,668.06h5.88l9.37,22.16h-6.54l-1.57-4h-8.52l-1.57,4h-6.38Zm5.34,13.46-2.45-6.22-2.48,6.22h4.94Z"/><path class="cls-15" d="M469.44,668.22H478c7.83,0,12.39,4.53,12.39,10.88v0.06c0,6.35-4.62,11.07-12.51,11.07h-8.39v-22Zm6.1,5.38v11.22H478c3.68,0,6.1-2,6.1-5.56v-0.06c0-3.52-2.42-5.6-6.1-5.6h-2.48Z"/><path class="cls-15" d="M496.56,679.28v-0.06a11.53,11.53,0,0,1,11.88-11.44c6.79,0,11.82,5.06,11.82,11.38v0.06a11.53,11.53,0,0,1-11.88,11.44C501.59,690.66,496.56,685.6,496.56,679.28Zm17.45,0v-0.06a5.68,5.68,0,0,0-5.63-5.94,5.61,5.61,0,0,0-5.6,5.88v0.06a5.72,5.72,0,0,0,5.66,5.94A5.61,5.61,0,0,0,514,679.28Z"/><path class="cls-15" d="M271.08,14.62h7.36v3.73h-7.36V14.62Z"/><path class="cls-15" d="M285.22,7.8h12.63v3.68h-8.33v2.4h7.54v3.43h-7.54v2.49H298v3.7H285.22V7.8Z"/><path class="cls-15" d="M304.69,7.8h7.43a7,7,0,0,1,5.12,1.68,4.91,4.91,0,0,1,1.39,3.66v0A5,5,0,0,1,315.4,18l3.75,5.48h-5L311,18.75H309v4.76h-4.35V7.8Zm7.25,7.54c1.46,0,2.33-.72,2.33-1.86v0c0-1.26-.92-1.88-2.36-1.88H309v3.79h2.89Z"/><path class="cls-15" d="M325.31,7.8h7.43a7,7,0,0,1,5.12,1.68,4.91,4.91,0,0,1,1.39,3.66v0A5,5,0,0,1,336,18l3.75,5.48h-5l-3.16-4.76h-1.93v4.76h-4.35V7.8Zm7.25,7.54c1.46,0,2.33-.72,2.33-1.86v0c0-1.26-.92-1.88-2.36-1.88h-2.87v3.79h2.89Z"/><path class="cls-15" d="M345.42,15.7v0a8.47,8.47,0,0,1,16.92,0v0A8.47,8.47,0,0,1,345.42,15.7Zm12.46,0v0a4.05,4.05,0,0,0-4-4.24,4,4,0,0,0-4,4.2v0a4.08,4.08,0,0,0,4,4.24A4,4,0,0,0,357.87,15.7Z"/><path class="cls-15" d="M369.07,7.8h7.43a7,7,0,0,1,5.12,1.68A4.91,4.91,0,0,1,383,13.14v0A5,5,0,0,1,379.77,18l3.75,5.48h-5l-3.16-4.76h-1.93v4.76h-4.35V7.8Zm7.25,7.54c1.46,0,2.33-.72,2.33-1.86v0c0-1.26-.92-1.88-2.36-1.88h-2.87v3.79h2.89Z"/><path class="cls-15" d="M389.19,14.62h7.36v3.73h-7.36V14.62Z"/><path class="cls-16" d="M205.11,619.84v-16H131.27l-5.4-23.53,82.9-96.07h28.07v92.62h20.29v27H236.84v32.6H205.11v-10m0-49.63V529.81L165,576.88h40.16Z"/><path class="cls-17" d="M271.51,561.33V560.9c0-43.83,27.2-78.15,67.36-78.15,39.94,0,66.93,33.89,66.93,77.72v0.43c0,43.83-27,78.15-67.36,78.15S271.51,605.16,271.51,561.33Zm100.17,0V560.9c0-27.42-13.39-48.14-33.25-48.14s-32.82,20.08-32.82,47.71v0.43c0,27.63,13.17,48.14,33.25,48.14S371.68,588.75,371.68,561.33Z"/><path class="cls-18" d="M524.36,498.38v12l-38.21,36.49c20.51,3.45,40.59,14.25,40.59,42.31v0.43c0,23.84-14.51,42.39-39,47.82q-1.3.29-2.63,0.53a72.9,72.9,0,0,1-12.81,1.09c-27.2,0-46-10.79-58.94-26.12l22.88-21.8c10.36,11.66,21.16,18.13,36.49,18.13,12.52,0,21.37-7.13,21.37-18.35v-0.43c0-12.31-11-19.21-29.58-19.21H450.74l-5.18-21.16,36.05-36.27H422.24v-28.5H524.36v5.61"/><line class="cls-19" x1="444.75" y1="493.5" x2="443.75" y2="493.5"/><line class="cls-20" x1="422.75" y1="493.5" x2="436.75" y2="493.5"/><line class="cls-21" x1="422.75" y1="498.5" x2="449.75" y2="498.5"/><line class="cls-22" x1="422.75" y1="503.5" x2="443.75" y2="503.5"/><line class="cls-23" x1="235.75" y1="585.5" x2="256.75" y2="585.5"/><line class="cls-24" x1="239.75" y1="591.5" x2="256.75" y2="591.5"/><line class="cls-25" x1="232.75" y1="591.5" x2="233.75" y2="591.5"/><line class="cls-26" x1="232.75" y1="596.5" x2="256.75" y2="596.5"/></g></g></svg>