<svg id="Capa_1" data-name="Capa 1" xmlns="http://www.w3.org/2000/svg" xmlns:xlink="http://www.w3.org/1999/xlink" viewBox="0 0 1133.71 756.07"><defs><style>.cls-1{fill:#355e98;}.cls-2{fill:#ebebeb;}.cls-10,.cls-11,.cls-12,.cls-13,.cls-14,.cls-3,.cls-4,.cls-5,.cls-6,.cls-7,.cls-8,.cls-9{stroke:#355e98;stroke-linecap:round;stroke-linejoin:round;}.cls-13,.cls-14,.cls-3,.cls-8{stroke-width:3.22px;}.cls-3{fill:url(#Degradado_sin_nombre_38);}.cls-10,.cls-11,.cls-12,.cls-4,.cls-5,.cls-6,.cls-7,.cls-9{stroke-width:3px;}.cls-4{fill:url(#Degradado_sin_nombre_38-2);}.cls-5{fill:url(#Degradado_sin_nombre_38-3);}.cls-6{fill:url(#Degradado_sin_nombre_38-4);}.cls-7{fill:url(#Degradado_sin_nombre_38-5);}.cls-8{fill:url(#Degradado_sin_nombre_38-6);}.cls-9{fill:url(#Degradado_sin_nombre_38-7);}.cls-10{fill:url(#Degradado_sin_nombre_38-8);}.cls-11{fill:url(#Degradado_sin_nombre_38-9);}.cls-12{fill:url(#Degradado_sin_nombre_38-10);}.cls-13{fill:url(#Degradado_sin_nombre_38-11);}.cls-14{fill:url(#Degradado_sin_nombre_38-12);}</style><linearGradient id="Degradado_sin_nombre_38" x1="286.43" y1="240.03" x2="1021.97" y2="458.05" gradientUnits="userSpaceOnUse"><stop offset="0" stop-color="#4070b7"/><stop offset="0.52" stop-color="#4070b7" stop-opacity="0.91"/><stop offset="1" stop-color="#4070b7" stop-opacity="0.8"/></linearGradient><linearGradient id="Degradado_sin_nombre_38-2" x1="381.85" y1="300.62" x2="414.85" y2="300.62" xlink:href="#Degradado_sin_nombre_38"/><linearGradient id="Degradado_sin_nombre_38-3" x1="386.85" y1="309.12" x2="414.85" y2="309.12" xlink:href="#Degradado_sin_nombre_38"/><linearGradient id="Degradado_sin_nombre_38-4" x1="375.85" y1="309.12" x2="376.85" y2="309.12" xlink:href="#Degradado_sin_nombre_38"/><linearGradient id="Degradado_sin_nombre_38-5" x1="375.85" y1="317.62" x2="414.85" y2="317.62" xlink:href="#Degradado_sin_nombre_38"/><linearGradient id="Degradado_sin_nombre_38-6" x1="796.74" y1="240.03" x2="1532.28" y2="458.05" xlink:href="#Degradado_sin_nombre_38"/><linearGradient id="Degradado_sin_nombre_38-7" x1="890.85" y1="300.62" x2="923.85" y2="300.62" xlink:href="#Degradado_sin_nombre_38"/><linearGradient id="Degradado_sin_nombre_38-8" x1="896.85" y1="310.12" x2="923.85" y2="310.12" xlink:href="#Degradado_sin_nombre_38"/><linearGradient id="Degradado_sin_nombre_38-9" x1="886.85" y1="310.12" x2="887.85" y2="310.12" xlink:href="#Degradado_sin_nombre_38"/><linearGradient id="Degradado_sin_nombre_38-10" x1="886.85" y1="319.62" x2="923.85" y2="319.62" xlink:href="#Degradado_sin_nombre_38"/><linearGradient id="Degradado_sin_nombre_38-11" x1="457.93" y1="255.52" x2="702.53" y2="255.52" gradientTransform="translate(-17.9 -5.06)" xlink:href="#Degradado_sin_nombre_38"/><linearGradient id="Degradado_sin_nombre_38-12" x1="669.86" y1="392.01" x2="763.82" y2="392.01" gradientTransform="translate(-17.9 -5.06)" xlink:href="#Degradado_sin_nombre_38"/></defs><title>vista-error-svgs</title><path class="cls-1" d="M270.57,501h8.14v22.25h14.23v7.14H270.57V501Z"/><path class="cls-1" d="M312.77,500.79h7.85l12.51,29.6H324.4l-2.1-5.29H310.92l-2.1,5.29H300.3Zm7.14,18-3.27-8.31-3.32,8.31h6.59Z"/><path class="cls-1" d="M353.24,501h12.64c7.39,0,12.17,3.82,12.17,10.28v0.08c0,7-5.33,10.62-12.59,10.62h-4.07v8.4h-8.14V501Zm12,14.61c2.85,0,4.66-1.55,4.66-3.86v-0.08c0-2.52-1.8-3.82-4.7-3.82h-3.86v7.77h3.9Z"/><path class="cls-1" d="M393.72,500.79h7.85l12.51,29.6h-8.73l-2.1-5.29H391.87l-2.1,5.29h-8.52Zm7.14,18-3.27-8.31-3.32,8.31h6.59Zm-1.8-27,7.6,2.31-6.21,4.49h-5.92Z"/><path class="cls-1" d="M419.09,515.78V515.7c0-8.56,6.72-15.28,15.78-15.28a17.12,17.12,0,0,1,11.92,4.24L442,510.45a10.29,10.29,0,0,0-7.09-2.77c-4.24,0-7.52,3.53-7.52,8v0.08c0,4.78,3.32,8.19,8,8.19a8.12,8.12,0,0,0,4.7-1.22v-3.57h-5.75v-6h13.48V526.4A19.57,19.57,0,0,1,435,531C425.89,531,419.09,524.68,419.09,515.78Z"/><path class="cls-1" d="M458.69,501h8.14v29.39h-8.14V501Z"/><path class="cls-1" d="M478.35,501h7.6L498,516.53V501h8.06v29.39H499l-12.59-16.12v16.12h-8.06V501Z"/><path class="cls-1" d="M525.35,500.79h7.85l12.51,29.6H537l-2.1-5.29H523.5l-2.1,5.29h-8.52Zm7.14,18-3.27-8.31-3.32,8.31h6.59Z"/><path class="cls-1" d="M594.47,531.27l-3.23-2.9a16,16,0,0,1-8.94,2.6c-9.07,0-15.78-6.76-15.78-15.2V515.7c0-8.44,6.8-15.28,15.87-15.28s15.78,6.76,15.78,15.2v0.08a15.07,15.07,0,0,1-2.6,8.44l3,2.56Zm-9.15-8.06-4.07-3.48,4.11-4.62,4,3.65a8.47,8.47,0,0,0,.5-2.94v-0.08c0-4.24-3.06-8-7.56-8s-7.47,3.69-7.47,7.93v0.08c0,4.24,3,8,7.56,8A8.32,8.32,0,0,0,585.32,523.21Z"/><path class="cls-1" d="M608.17,517.5V501h8.23v16.33c0,4.24,2.14,6.25,5.41,6.25s5.46-1.93,5.46-6V501h8.23v16.29c0,9.45-5.42,13.64-13.77,13.64S608.17,526.69,608.17,517.5Z"/><path class="cls-1" d="M645.34,501H669v6.89H653.4v4.49h14.1v6.42H653.4v4.66h15.78v6.93H645.34V501Z"/><path class="cls-1" d="M695,501h23.63v6.89H703.09v4.49h14.1v6.42h-14.1v4.66h15.78v6.93H695V501Z"/><path class="cls-1" d="M728.12,526l4.53-5.41a15.23,15.23,0,0,0,9.53,3.53c2.23,0,3.4-.76,3.4-2V522c0-1.26-1-1.89-5-2.85-6.26-1.43-11.08-3.19-11.08-9.19V509.9c0-5.46,4.32-9.4,11.38-9.4A18.49,18.49,0,0,1,753,504.4l-4.07,5.75a14.43,14.43,0,0,0-8.23-2.9c-2,0-2.94.8-2.94,1.89v0.08c0,1.34,1,1.93,5.12,2.85,6.72,1.47,10.91,3.65,10.91,9.15v0.08c0,6-4.74,9.57-11.88,9.57A20.6,20.6,0,0,1,728.12,526Z"/><path class="cls-1" d="M771.32,508.14h-8.77V501h25.73v7.14h-8.82v22.25h-8.14V508.14Z"/><path class="cls-1" d="M804.37,500.79h7.85l12.51,29.6H816l-2.1-5.29H802.53l-2.1,5.29h-8.52Zm7.14,18-3.27-8.31-3.32,8.31h6.59Zm-1.8-27,7.6,2.31-6.21,4.49h-5.92Z"/><path class="cls-1" d="M832.22,526l4.53-5.41a15.23,15.23,0,0,0,9.53,3.53c2.23,0,3.4-.76,3.4-2V522c0-1.26-1-1.89-5-2.85-6.26-1.43-11.08-3.19-11.08-9.19V509.9c0-5.46,4.32-9.4,11.38-9.4a18.49,18.49,0,0,1,12.09,3.9L853,510.15a14.43,14.43,0,0,0-8.23-2.9c-2,0-2.94.8-2.94,1.89v0.08c0,1.34,1,1.93,5.12,2.85,6.72,1.47,10.91,3.65,10.91,9.15v0.08c0,6-4.74,9.57-11.88,9.57A20.6,20.6,0,0,1,832.22,526Z"/><path class="cls-1" d="M273,551.38H288c3.69,0,6.3.92,8,2.6a6.62,6.62,0,0,1,1.89,4.79v0.08a6.8,6.8,0,0,1-4.53,6.55c3.57,1.18,5.84,3.19,5.84,7.18v0.08c0,5-4.11,8.1-11.12,8.1H273V551.38Zm17,9.07c0-1.64-1.3-2.52-3.69-2.52h-5.33v5.16H286c2.48,0,3.9-.84,3.9-2.56v-0.08Zm-2.81,8.35h-6.21v5.42h6.3c2.52,0,3.9-1,3.9-2.69v-0.08C291.09,569.85,289.83,568.8,287.1,568.8Z"/><path class="cls-1" d="M306.51,567.88v-16.5h8.23v16.33c0,4.24,2.14,6.25,5.41,6.25s5.46-1.93,5.46-6V551.38h8.23v16.29c0,9.45-5.42,13.64-13.77,13.64S306.51,577.08,306.51,567.88Z"/><path class="cls-1" d="M344.85,576.4l4.53-5.41a15.23,15.23,0,0,0,9.53,3.53c2.23,0,3.4-.76,3.4-2v-0.08c0-1.26-1-1.89-5-2.85-6.26-1.43-11.08-3.19-11.08-9.19v-0.08c0-5.46,4.32-9.4,11.38-9.4a18.49,18.49,0,0,1,12.09,3.9l-4.07,5.75a14.43,14.43,0,0,0-8.23-2.9c-2,0-2.94.8-2.94,1.89v0.08c0,1.34,1,1.93,5.12,2.85,6.72,1.47,10.91,3.65,10.91,9.15v0.08c0,6-4.74,9.57-11.88,9.57A20.6,20.6,0,0,1,344.85,576.4Z"/><path class="cls-1" d="M380.75,566.16v-0.08A15.06,15.06,0,0,1,396.2,550.8c6,0,9.86,2.52,12.47,6.09l-6.13,4.74c-1.68-2.06-3.61-3.44-6.42-3.44-4.11,0-7,3.53-7,7.81v0.09c0,4.41,2.9,7.85,7,7.85,3.06,0,4.87-1.43,6.63-3.57l6.13,4.37A15.44,15.44,0,0,1,380.75,566.16Z"/><path class="cls-1" d="M429.58,551.17h7.85l12.51,29.6h-8.73l-2.1-5.29H427.73l-2.1,5.29h-8.52Zm7.14,18-3.27-8.31-3.32,8.31h6.59Z"/><path class="cls-1" d="M460.07,551.38h7.6l12.09,15.53V551.38h8.06v29.39h-7.09l-12.59-16.12v16.12h-8.06V551.38Z"/><path class="cls-1" d="M498,551.38h11.38c10.45,0,16.54,6,16.54,14.52V566c0,8.48-6.17,14.78-16.71,14.78H498V551.38Zm8.14,7.18v15h3.32c4.91,0,8.14-2.69,8.14-7.43V566c0-4.7-3.23-7.47-8.14-7.47h-3.32Z"/><path class="cls-1" d="M534.22,566.16v-0.08c0-8.44,6.8-15.28,15.87-15.28s15.78,6.76,15.78,15.2v0.09c0,8.44-6.8,15.28-15.87,15.28S534.22,574.6,534.22,566.16Zm23.3,0v-0.08c0-4.28-3-7.93-7.51-7.93s-7.47,3.61-7.47,7.85v0.09a7.64,7.64,0,0,0,7.56,7.93C554.54,574,557.52,570.4,557.52,566.16Z"/><path class="cls-1" d="M585.2,551.38h7.6l12.09,15.53V551.38H613v29.39h-7.09l-12.59-16.12v16.12H585.2V551.38Z"/><path class="cls-1" d="M622.2,566.16v-0.08c0-8.44,6.8-15.28,15.87-15.28s15.78,6.76,15.78,15.2v0.09c0,8.44-6.8,15.28-15.87,15.28S622.2,574.6,622.2,566.16Zm23.3,0v-0.08c0-4.28-3-7.93-7.51-7.93s-7.47,3.61-7.47,7.85v0.09a7.64,7.64,0,0,0,7.56,7.93C642.52,574,645.5,570.4,645.5,566.16Z"/><path class="cls-1" d="M675.49,551.38h23.63v6.89H683.55v4.49h14.1v6.42h-14.1v4.66h15.78v6.93H675.49V551.38Z"/><path class="cls-1" d="M737.63,551.38L728,565.7l10.08,15.07h-9.36l-5.63-8.9-5.67,8.9h-9.15l10.07-14.95-9.65-14.44H718l5.16,8.27,5.29-8.27h9.15Z"/><path class="cls-1" d="M747.47,551.38h8.14v29.39h-8.14V551.38Z"/><path class="cls-1" d="M766,576.4l4.53-5.41a15.23,15.23,0,0,0,9.53,3.53c2.23,0,3.4-.76,3.4-2v-0.08c0-1.26-1-1.89-5-2.85-6.26-1.43-11.08-3.19-11.08-9.19v-0.08c0-5.46,4.32-9.4,11.38-9.4a18.49,18.49,0,0,1,12.09,3.9l-4.07,5.75a14.43,14.43,0,0,0-8.23-2.9c-2,0-2.94.8-2.94,1.89v0.08c0,1.34,1,1.93,5.12,2.85,6.72,1.47,10.91,3.65,10.91,9.15v0.08c0,6-4.74,9.57-11.88,9.57A20.6,20.6,0,0,1,766,576.4Z"/><path class="cls-1" d="M808.11,558.52h-8.77v-7.14h25.73v7.14h-8.82v22.25h-8.14V558.52Z"/><path class="cls-1" d="M833.65,551.38h23.63v6.89H841.71v4.49h14.1v6.42h-14.1v4.66h15.78v6.93H833.65V551.38Z"/><path class="cls-2" d="M217,246.38H106.58a25.38,25.38,0,1,1,0-50.76H389.2c13.83,0,25.62,10.78,26,24.6a25.39,25.39,0,0,1-25.43,26.17H217Z"/><path class="cls-2" d="M180.59,272.43c0-14,11.52-26.05,25.73-26.05H124.83c14,0,25.44,12,25.44,26.05s-11.39,26-25.44,26h81.49C192.11,298.48,180.59,286.48,180.59,272.43Z"/><path class="cls-2" d="M822.41,150.79H712a25.44,25.44,0,1,1,0-50.88H995.21a25.44,25.44,0,0,1,0,50.88H822.41Z"/><path class="cls-2" d="M1094,303.08H1057.5a25.38,25.38,0,1,1,0-50.76H1099a25.38,25.38,0,1,0,0-50.76H981.88c-13.7-1.34-24.64-11.67-24.64-25.35A25.56,25.56,0,0,1,983,150.79H897.09a25.41,25.41,0,0,1,25.44,25.41c0,13.69-10.82,24-24.36,25.35H815.78a25.38,25.38,0,1,0,0,50.76H940.5a25.38,25.38,0,1,1,0,50.76H872.27a25.38,25.38,0,1,0,0,50.76H1094A25.38,25.38,0,1,0,1094,303.08Z"/><circle class="cls-2" cx="856.14" cy="29.31" r="11.36"/><circle class="cls-2" cx="817.1" cy="731.84" r="9.67"/><circle class="cls-2" cx="347.68" cy="63.28" r="11.36"/><circle class="cls-2" cx="361.38" cy="731.41" r="9.67"/><circle class="cls-2" cx="934.25" cy="440.39" r="14.67"/><path class="cls-2" d="M408.67,401.34H315c-14.21,0-25.73-12-25.73-26s11.52-26,25.73-26h36.1a25.39,25.39,0,0,0,25.43-26.17c-0.42-13.82-12.21-24.6-26-24.6H67.88a25.38,25.38,0,1,0,0,50.76H216.23c12.09,0,23,8,25.87,19.75,4.06,16.56-8.56,32.35-24.67,32.35H154.22a25.38,25.38,0,1,0,0,50.76H409.28a25.39,25.39,0,0,0,25.43-26.17C434.29,412.12,422.49,401.34,408.67,401.34Z"/><path class="cls-3" d="M382.42,159V287.6h32.84v43.66H382.42V384H331.07V331.26H211.6l-8.73-38.08L337,137.74h45.41v11.09M331.07,287.6V211.45l-65,76.15h65Z"/><line class="cls-4" x1="381.85" y1="300.62" x2="414.85" y2="300.62"/><line class="cls-5" x1="386.85" y1="309.12" x2="414.85" y2="309.12"/><line class="cls-6" x1="375.85" y1="309.12" x2="376.85" y2="309.12"/><line class="cls-7" x1="375.85" y1="317.62" x2="414.85" y2="317.62"/><path class="cls-8" d="M841.38,357.11V331.26H721.91l-8.73-38.08L847.32,137.74h45.41V287.6h32.84v43.66H892.73V384H841.38v-16.1m0-80.31V211.45l-65,76.15h65Z"/><line class="cls-9" x1="890.85" y1="300.62" x2="923.85" y2="300.62"/><line class="cls-10" x1="896.85" y1="310.12" x2="923.85" y2="310.12"/><line class="cls-11" x1="886.85" y1="310.12" x2="887.85" y2="310.12"/><line class="cls-12" x1="886.85" y1="319.62" x2="923.85" y2="319.62"/><path class="cls-13" d="M648.76,164.08a122.18,122.18,0,1,0-8.4,180.65l15,15,16.26-16.26-15-15A122.28,122.28,0,0,0,648.76,164.08Zm-142,142A78.66,78.66,0,1,1,618,306,78.66,78.66,0,0,1,506.79,306Z"/><path class="cls-14" d="M702.3,419.26l-49.38-53.07a3.29,3.29,0,0,1,0-4.65l20.61-20.61a3.29,3.29,0,0,1,4.65,0L745,403.07a3.29,3.29,0,0,1,0,4.65L719.7,433a3.29,3.29,0,0,1-4.65,0l-9.49-10.2"/><path class="cls-1" d="M479.12,92.93h9.79v5h-9.79v-5Z"/><path class="cls-1" d="M497.92,83.86h16.8v4.89H503.65v3.19h10v4.57h-10v3.31h11.22v4.92H497.92V83.86Z"/><path class="cls-1" d="M523.81,83.86h9.88c3.19,0,5.4.84,6.8,2.24A6.52,6.52,0,0,1,542.35,91V91a6.62,6.62,0,0,1-4.3,6.44l5,7.28h-6.65l-4.21-6.33H529.6v6.33h-5.79V83.86Zm9.64,10c1.94,0,3.1-1,3.1-2.48V91.35c0-1.67-1.22-2.51-3.13-2.51H529.6v5h3.85Z"/><path class="cls-1" d="M551.23,83.86h9.88c3.19,0,5.4.84,6.8,2.24A6.52,6.52,0,0,1,569.77,91V91a6.62,6.62,0,0,1-4.3,6.44l5,7.28H563.8l-4.21-6.33H557v6.33h-5.79V83.86Zm9.64,10c1.94,0,3.1-1,3.1-2.48V91.35c0-1.67-1.22-2.51-3.13-2.51H557v5h3.85Z"/><path class="cls-1" d="M578,94.36V94.3a11.26,11.26,0,0,1,22.5-.06V94.3A11.26,11.26,0,0,1,578,94.36Zm16.56,0V94.3a5.39,5.39,0,0,0-5.34-5.64,5.33,5.33,0,0,0-5.31,5.58V94.3a5.43,5.43,0,0,0,5.37,5.64A5.32,5.32,0,0,0,594.53,94.36Z"/><path class="cls-1" d="M609.42,83.86h9.88c3.19,0,5.4.84,6.8,2.24A6.52,6.52,0,0,1,627.95,91V91a6.62,6.62,0,0,1-4.3,6.44l5,7.28H622l-4.21-6.33h-2.57v6.33h-5.79V83.86Zm9.64,10c1.94,0,3.1-1,3.1-2.48V91.35c0-1.67-1.22-2.51-3.13-2.51h-3.82v5h3.85Z"/><path class="cls-1" d="M636.18,92.93H646v5h-9.79v-5Z"/></svg>