<svg id="Capa_1" data-name="Capa 1" xmlns="http://www.w3.org/2000/svg" xmlns:xlink="http://www.w3.org/1999/xlink" viewBox="0 0 720.35 708.17"><defs><style>.cls-1{fill:#355e98;}.cls-2{fill:url(#Degradado_sin_nombre_7);}.cls-3,.cls-5,.cls-8{fill:none;stroke:#005e9c;stroke-miterlimit:10;}.cls-3{stroke-width:4.54px;}.cls-4{fill:#fafafa;}.cls-11,.cls-5,.cls-8,.cls-9{stroke-linecap:round;}.cls-5{stroke-width:2.99px;}.cls-11,.cls-6,.cls-9{fill:#fff;}.cls-7{fill:url(#Degradado_sin_nombre_55);}.cls-8{stroke-width:3px;}.cls-11,.cls-9{stroke:#ccc;stroke-linejoin:round;}.cls-9{stroke-width:2.39px;}.cls-10{fill:#ccc;}.cls-11{stroke-width:2.12px;}</style><linearGradient id="Degradado_sin_nombre_7" x1="537.89" y1="95.51" x2="166.94" y2="376.82" gradientUnits="userSpaceOnUse"><stop offset="0.13" stop-color="#f7931e"/><stop offset="0.4" stop-color="#f39b2e"/><stop offset="1" stop-color="#eaab4e"/></linearGradient><linearGradient id="Degradado_sin_nombre_55" x1="398.25" y1="221" x2="246.1" y2="324.12" gradientUnits="userSpaceOnUse"><stop offset="0.21" stop-color="#f7931e" stop-opacity="0.8"/><stop offset="0.54" stop-color="#f39b2e" stop-opacity="0.8"/><stop offset="1" stop-color="#eaab4e" stop-opacity="0.8"/></linearGradient></defs><title>vista-error-svgs</title><path class="cls-1" d="M135.9,284.21H59.59a17.54,17.54,0,1,1,0-35.08H254.91c9.56,0,17.71,7.45,18,17a17.55,17.55,0,0,1-17.57,18.08H135.9Z"/><path class="cls-1" d="M110.74,302.21a18,18,0,0,1,17.78-18H72.2c9.71,0,17.58,8.29,17.58,18s-7.87,18-17.58,18h56.32A18,18,0,0,1,110.74,302.21Z"/><path class="cls-1" d="M497.85,116.84H421.54a17.58,17.58,0,1,1,0-35.16H617.28a17.58,17.58,0,0,1,0,35.16H497.85Z"/><circle class="cls-2" cx="359.32" cy="230.93" r="181.89"/><circle class="cls-3" cx="359.32" cy="230.93" r="181.89"/><path class="cls-4" d="M414.73,71.72A168.4,168.4,0,1,0,514.47,165q-1.81-4.26-3.85-8.4a169.28,169.28,0,0,0-64-69.87"/><path class="cls-5" d="M414.73,71.72A168.4,168.4,0,1,0,514.47,165q-1.81-4.26-3.85-8.4a169.28,169.28,0,0,0-64-69.87"/><path class="cls-6" d="M439.28,82.81a168.93,168.93,0,0,0-18.08-8.66"/><path class="cls-5" d="M439.28,82.81a168.93,168.93,0,0,0-18.08-8.66"/><path class="cls-4" d="M373,121.62l93.79,172A14.57,14.57,0,0,1,466.5,309a15.62,15.62,0,0,1-13.43,7.69H265.48A15.62,15.62,0,0,1,252,309a14.57,14.57,0,0,1-.24-15.39l93.79-172a15.61,15.61,0,0,1,5.74-6,15.43,15.43,0,0,1,15.88,0A15.62,15.62,0,0,1,373,121.62Z"/><path class="cls-7" d="M364.94,127.63l93.79,172a14.57,14.57,0,0,1-.24,15.39,15.62,15.62,0,0,1-13.43,7.69H257.47A15.62,15.62,0,0,1,244,315a14.57,14.57,0,0,1-.24-15.39l93.79-172a15.61,15.61,0,0,1,5.74-6,15.43,15.43,0,0,1,15.88,0A15.62,15.62,0,0,1,364.94,127.63Z"/><circle class="cls-4" cx="359.27" cy="272.32" r="13.98"/><path class="cls-4" d="M370.85,232.51c0,6.83-5.19,12.36-11.59,12.36s-11.59-5.53-11.59-12.36L344.8,194s-1.2-15.42,14.46-15.42c16.07,0,14.46,15.42,14.46,15.42Z"/><path class="cls-8" d="M267.18,265.38l78.42-143.76a15.61,15.61,0,0,1,5.74-6,15.43,15.43,0,0,1,15.88,0,15.62,15.62,0,0,1,5.74,6l93.79,172A14.57,14.57,0,0,1,466.5,309a15.62,15.62,0,0,1-13.43,7.69H265.48A15.62,15.62,0,0,1,252,309a14.57,14.57,0,0,1-.24-15.39l6.2-11.37,5.39-9.89"/><circle class="cls-1" cx="594.09" cy="390.48" r="11.83"/><circle class="cls-1" cx="646.69" cy="659.74" r="11.83"/><circle class="cls-1" cx="72.2" cy="636.04" r="11.83"/><circle class="cls-1" cx="59.2" cy="180.44" r="15.33"/><path class="cls-6" d="M216.69,673H234v5H222.58v3.28h10.31V686H222.58v3.4h11.53v5.06H216.69V673Z"/><path class="cls-6" d="M239.48,673h10.15c3.28,0,5.55.86,7,2.3a6.71,6.71,0,0,1,1.9,5v0.06a6.8,6.8,0,0,1-4.42,6.63l5.12,7.48h-6.84l-4.32-6.5h-2.64v6.5h-6V673Zm9.91,10.31c2,0,3.19-1,3.19-2.55v-0.06c0-1.72-1.26-2.58-3.22-2.58h-3.93v5.18h4Z"/><path class="cls-6" d="M263.83,673H274c3.28,0,5.55.86,7,2.3a6.71,6.71,0,0,1,1.9,5v0.06a6.8,6.8,0,0,1-4.42,6.63l5.12,7.48h-6.84l-4.32-6.5h-2.64v6.5h-6V673Zm9.91,10.31c2,0,3.19-1,3.19-2.55v-0.06c0-1.72-1.26-2.58-3.22-2.58h-3.93v5.18h4Z"/><path class="cls-6" d="M287.48,683.75v-0.06a11.25,11.25,0,0,1,11.59-11.16c6.62,0,11.53,4.94,11.53,11.1v0.06A11.25,11.25,0,0,1,299,694.85C292.39,694.85,287.48,689.92,287.48,683.75Zm17,0v-0.06a5.54,5.54,0,0,0-5.49-5.8,5.48,5.48,0,0,0-5.46,5.73v0.06a5.58,5.58,0,0,0,5.52,5.8A5.47,5.47,0,0,0,304.5,683.75Z"/><path class="cls-6" d="M316,673h10.15c3.28,0,5.55.86,7,2.3a6.71,6.71,0,0,1,1.9,5v0.06a6.8,6.8,0,0,1-4.42,6.63l5.12,7.48h-6.84l-4.32-6.5h-2.64v6.5h-6V673Zm9.91,10.31c2,0,3.19-1,3.19-2.55v-0.06c0-1.72-1.26-2.58-3.22-2.58h-3.93v5.18h4Z"/><path class="cls-6" d="M351.28,673h6v21.47h-6V673Z"/><path class="cls-6" d="M363.46,673H369l8.83,11.35V673h5.89v21.47h-5.18l-9.2-11.78v11.78h-5.89V673Z"/><path class="cls-6" d="M395.08,678.17h-6.41V673h18.8v5.21H401v16.26h-6V678.17Z"/><path class="cls-6" d="M412.38,673h17.27v5H418.27v3.28h10.31V686H418.27v3.4H429.8v5.06H412.38V673Z"/><path class="cls-6" d="M435.17,673h10.15c3.28,0,5.55.86,7,2.3a6.71,6.71,0,0,1,1.9,5v0.06a6.8,6.8,0,0,1-4.42,6.63l5.12,7.48h-6.84l-4.32-6.5h-2.64v6.5h-6V673Zm9.91,10.31c2,0,3.19-1,3.19-2.55v-0.06c0-1.72-1.26-2.58-3.22-2.58h-3.93v5.18h4Z"/><path class="cls-6" d="M459.52,673h5.55l8.83,11.35V673h5.89v21.47h-5.18l-9.2-11.78v11.78h-5.89V673Z"/><path class="cls-6" d="M485.2,683.75v-0.06a11.25,11.25,0,0,1,11.59-11.16c6.62,0,11.53,4.94,11.53,11.1v0.06a11.25,11.25,0,0,1-11.59,11.16C490.1,694.85,485.2,689.92,485.2,683.75Zm17,0v-0.06a5.54,5.54,0,0,0-5.49-5.8,5.48,5.48,0,0,0-5.46,5.73v0.06a5.58,5.58,0,0,0,5.52,5.8A5.47,5.47,0,0,0,502.22,683.75Z"/><path class="cls-1" d="M685.57,222.09H660.33a17.54,17.54,0,1,1,0-35.08H689a17.54,17.54,0,1,0,0-35.08H608.07c-9.47-.92-17-8.07-17-17.52a17.67,17.67,0,0,1,17.78-17.56H549.47A17.56,17.56,0,0,1,567,134.4c0,9.46-7.47,16.6-16.84,17.52H493.27a17.54,17.54,0,1,0,0,35.08h86.2a17.54,17.54,0,1,1,0,35.08H532.31a17.54,17.54,0,1,0,0,35.08H685.57A17.54,17.54,0,1,0,685.57,222.09Z"/><path class="cls-1" d="M268.37,391.31H203.64a18,18,0,0,1,0-36h24.95a17.55,17.55,0,0,0,17.57-18.09c-0.29-9.55-8.44-17-18-17H32.84a17.54,17.54,0,1,0,0,35.08H135.37A18.29,18.29,0,0,1,153.25,369c2.81,11.44-5.91,22.36-17.05,22.36H92.52a17.54,17.54,0,1,0,0,35.08H268.79a17.55,17.55,0,0,0,17.57-18.09C286.08,398.76,277.93,391.31,268.37,391.31Z"/><circle class="cls-8" cx="363.28" cy="269.32" r="13.98"/><path class="cls-8" d="M374.85,229.51c0,6.83-5.19,12.36-11.59,12.36s-11.59-5.53-11.59-12.36L348.8,191s-1.2-15.42,14.46-15.42c16.07,0,14.46,15.42,14.46,15.42Z"/><path class="cls-6" d="M289.12,22.59h10.56v5.34H289.12V22.59Z"/><path class="cls-6" d="M322.81,33.43a10.92,10.92,0,0,1-6.69,2.28c-4.57,0-8-2.45-8-6.53V29.12c0-2.77,1.48-4.89,4.57-6.28a7.15,7.15,0,0,1-1.48-4.34V18.44c0-3.25,2.64-6.08,7-6.08,4.09,0,6.69,2.51,6.69,5.76v0.06c0,2.8-1.77,4.67-4.41,5.86L323,26.51a33.78,33.78,0,0,0,2.12-3.57L329.28,25a42.76,42.76,0,0,1-3,4.76l3,3-4.22,3Zm-3.15-3.28-3.73-3.8a2.9,2.9,0,0,0-1.61,2.48v0.06c0,1.32,1.09,2.22,2.64,2.22A5,5,0,0,0,319.66,30.15ZM320,18.5V18.44a1.66,1.66,0,0,0-1.74-1.8,1.81,1.81,0,0,0-1.8,2v0.06a4.08,4.08,0,0,0,1.16,2.57C319.21,20.56,320,19.69,320,18.5Z"/><path class="cls-6" d="M337.42,18.6V18.53a5.81,5.81,0,1,1,11.62,0v0.06A5.81,5.81,0,1,1,337.42,18.6Zm19.86-5.79h4.34L352,25.07l-7.79,10.27H339.9l9.49-12.13Zm-15.93,5.7v0.06c0,1.42.84,2.51,1.9,2.51s1.87-1.06,1.87-2.48V18.53c0-1.45-.8-2.54-1.9-2.54S341.35,17.05,341.35,18.5Zm11.13,11.13V29.57a5.81,5.81,0,1,1,11.62,0V29.6A5.81,5.81,0,1,1,352.48,29.64Zm7.69,0V29.57c0-1.45-.8-2.54-1.9-2.54s-1.87,1.06-1.87,2.51V29.6c0,1.42.84,2.51,1.9,2.51S360.17,31.05,360.17,29.64Z"/><path class="cls-6" d="M392.36,31h-3.86l-0.74,4.34h-4.63L383.86,31h-4.09L379,35.33h-4.67L375.11,31h-2.48V25.81H376l0.64-3.64h-2.93V17h3.8l0.74-4.22h4.67L382.15,17h4.09L387,12.8h4.63L390.88,17h2.54v5.15H390l-0.64,3.64h3V31Zm-11.87-5h4.38l0.71-4h-4.41Z"/><path class="cls-6" d="M402.56,15.54V12.8h7v2.74L407.64,28h-3.19Zm0.32,14.32h6.34v5.47h-6.34V29.86Z"/><path class="cls-6" d="M419,22.59h10.56v5.34H419V22.59Z"/><path class="cls-9" d="M164.17,508.34l1-17.73h92.35v29h-64l-1.72,26A73.54,73.54,0,0,1,211.58,543c29.21,0,52.62,14.17,52.62,48.11v0.43c0,31.78-22.55,52-57.13,52-24.05,0-41.66-8.59-56.27-22.55l20-23.84c11.38,10.31,22.55,16.32,35.87,16.32,15.46,0,25.13-7.52,25.13-20.83v-0.43c0-12.89-11-20.4-26.63-20.4A64.56,64.56,0,0,0,180,577.37L160.9,564.7l2.71-46.82"/><path class="cls-6" d="M354,644.71A63.14,63.14,0,0,1,304.78,622c-11.94-14.25-18.51-34.06-18.51-55.77v-0.43c0-45.74,28.68-78.94,68.2-78.94,39.27,0,67.77,33,67.77,78.51v0.43C422.25,611.51,393.57,644.71,354,644.71Zm0-125.63c-18.52,0-31.45,19-31.45,46.26v0.43c0,27.49,13.11,46.69,31.88,46.69s31.45-18.59,31.45-46.26v-0.43C385.93,538.71,372.52,519.08,354,519.08Z"/><path class="cls-10" d="M354.48,488c39.73,0,66.58,33.72,66.58,77.31v0.43c0,43.6-26.85,77.74-67,77.74s-66.58-33.72-66.58-77.31v-0.43c0-43.6,27.06-77.74,67-77.74m0,125.64c20,0,32.64-20.19,32.64-47.46v-0.43c0-27.27-13.32-47.89-33.07-47.89s-32.64,20-32.64,47.46v0.43c0,27.49,13.1,47.89,33.07,47.89m0-128A64.7,64.7,0,0,0,304.16,509c-12.31,14.64-19.08,34.8-19.08,56.76v0.43c0,22,6.67,42.08,18.79,56.54A64.32,64.32,0,0,0,354,645.91c40.21,0,69.4-33.7,69.4-80.14v-0.43c0-46.19-29-79.71-69-79.71h0Zm0,125.64c-18.06,0-30.68-18.71-30.68-45.5v-0.43c0-13,3-24.58,8.5-32.7s13-12.37,21.75-12.37,16.35,4.38,22,12.67,8.72,20,8.72,32.83v0.43c0,12.93-3,24.51-8.43,32.63s-13,12.44-21.82,12.44h0Z"/><path class="cls-6" d="M508.84,644.71A63.14,63.14,0,0,1,459.57,622c-11.93-14.25-18.51-34.06-18.51-55.77v-0.43c0-45.74,28.68-78.94,68.2-78.94,39.27,0,67.77,33,67.77,78.51v0.43C577,611.51,548.36,644.71,508.84,644.71Zm0-125.63c-18.52,0-31.45,19-31.45,46.26v0.43c0,27.49,13.11,46.69,31.88,46.69s31.45-18.59,31.45-46.26v-0.43C540.72,538.71,527.31,519.08,508.84,519.08Z"/><path class="cls-10" d="M509.27,488c39.73,0,66.58,33.72,66.58,77.31v0.43c0,43.6-26.85,77.74-67,77.74s-66.58-33.72-66.58-77.31v-0.43c0-43.6,27.06-77.74,67-77.74m0,125.64c20,0,32.64-20.19,32.64-47.46v-0.43c0-27.27-13.32-47.89-33.07-47.89s-32.64,20-32.64,47.46v0.43c0,27.49,13.1,47.89,33.07,47.89m0-128A64.7,64.7,0,0,0,459,509c-12.31,14.64-19.08,34.8-19.08,56.76v0.43c0,22,6.67,42.08,18.79,56.54a64.32,64.32,0,0,0,50.18,23.17c40.21,0,69.4-33.7,69.4-80.14v-0.43c0-46.19-29-79.71-69-79.71h0Zm0,125.64c-18.06,0-30.68-18.71-30.68-45.5v-0.43c0-13,3-24.58,8.5-32.7s13-12.37,21.75-12.37,16.35,4.38,22,12.67,8.72,20,8.72,32.83v0.43c0,12.93-3,24.51-8.43,32.63s-13,12.44-21.82,12.44h0Z"/><line class="cls-11" x1="235.14" y1="498.75" x2="257.36" y2="498.75"/><line class="cls-11" x1="239.37" y1="504.57" x2="257.36" y2="504.57"/><line class="cls-11" x1="233.02" y1="504.57" x2="234.08" y2="504.57"/><line class="cls-11" x1="231.96" y1="510.39" x2="257.36" y2="510.39"/><line class="cls-11" x1="400.2" y1="555.42" x2="421.36" y2="555.42"/><line class="cls-11" x1="404.43" y1="561.24" x2="422.42" y2="561.24"/><line class="cls-11" x1="401.26" y1="561.24" x2="401.26" y2="561.24"/><line class="cls-11" x1="399.14" y1="567.06" x2="421.36" y2="567.06"/><line class="cls-11" x1="479.47" y1="619.48" x2="457.25" y2="619.48"/><line class="cls-11" x1="468.88" y1="613.66" x2="454.07" y2="613.66"/><line class="cls-11" x1="476.29" y1="613.66" x2="475.23" y2="613.66"/><line class="cls-11" x1="471" y1="607.84" x2="450.9" y2="607.84"/><line class="cls-11" x1="545.09" y1="520.53" x2="566.25" y2="520.53"/><line class="cls-11" x1="549.32" y1="526.35" x2="567.31" y2="526.35"/><line class="cls-11" x1="545.09" y1="526.35" x2="545.09" y2="526.35"/><line class="cls-11" x1="549.33" y1="532.17" x2="571.54" y2="532.17"/></svg>