<svg id="Capa_1" data-name="Capa 1" xmlns="http://www.w3.org/2000/svg" viewBox="0 0 60.88 70.85"><defs><style>.cls-1{fill:none;}.cls-2{fill:#3949ab;}</style></defs><title>icon-formato-xlsx</title><polygon class="cls-1" points="35.61 21.28 52.85 21.28 35.61 4.04 35.61 21.28"/><path class="cls-2" d="M36.24,1.84H11.17A6.26,6.26,0,0,0,4.93,8.11l0,50.15a6.26,6.26,0,0,0,6.24,6.27H48.78A6.29,6.29,0,0,0,55,58.26V20.65Zm-16,43.26-1.94-3.32-1.93,3.32H13.91L17,40.18l-3-4.79h2.41l1.81,3.2,1.85-3.2h2.42l-3,4.79,3.07,4.93H20.2Zm6.11,0H24.13V31.32h2.18V45.11Zm8.88-.63a4.63,4.63,0,0,1-2.85.81,5,5,0,0,1-2.13-.43,3.5,3.5,0,0,1-1.45-1.19A2.81,2.81,0,0,1,28.25,42h2.12a1.54,1.54,0,0,0,.58,1.19,2.27,2.27,0,0,0,1.43.42,2.2,2.2,0,0,0,1.31-.33,1,1,0,0,0,.45-0.86,1,1,0,0,0-.48-0.89A5.11,5.11,0,0,0,32.06,41a8.13,8.13,0,0,1-1.86-.59,2.48,2.48,0,0,1-1.63-2.29,2.59,2.59,0,0,1,1.06-2.1,4.19,4.19,0,0,1,2.69-.84,4.36,4.36,0,0,1,2.81.86,2.73,2.73,0,0,1,1.07,2.24H34a1.35,1.35,0,0,0-.47-1,1.79,1.79,0,0,0-1.24-.42,1.93,1.93,0,0,0-1.17.33,1,1,0,0,0-.45.89,0.88,0.88,0,0,0,.42.78,5.81,5.81,0,0,0,1.71.56,8.05,8.05,0,0,1,2,.67,2.86,2.86,0,0,1,1.09.94,2.39,2.39,0,0,1,.35,1.33A2.53,2.53,0,0,1,35.2,44.47Zm8.44,0.63L41.7,41.78l-1.93,3.32H37.34l3.07-4.93-3-4.79h2.41l1.81,3.2,1.85-3.2h2.42l-3,4.79L46,45.11H43.64Zm-8-23.83V4L52.85,21.28H35.61Z"/></svg>