<?xml version="1.0" encoding="utf-8"?>
<!-- Generator: Adobe Illustrator 19.2.1, SVG Export Plug-In . SVG Version: 6.00 Build 0)  -->
<svg version="1.1" id="Capa_1" xmlns="http://www.w3.org/2000/svg" xmlns:xlink="http://www.w3.org/1999/xlink" x="0px" y="0px"
	 viewBox="0 0 21 32.8" style="enable-background:new 0 0 21 32.8;" xml:space="preserve">
<style type="text/css">
	.st0{fill:#767676;}
</style>
<title>icon-volver</title>
<path class="st0" d="M9.9,16.3l10.8,10.8c0.5,0.5,0.5,1.3,0,1.8c0,0,0,0,0,0l-3.4,3.4c-0.5,0.5-1.3,0.5-1.8,0c0,0,0,0,0,0L0.4,17.3
	c-0.5-0.5-0.5-1.3,0-1.8c0,0,0,0,0,0L15.5,0.3c0.5-0.5,1.3-0.5,1.8,0c0,0,0,0,0,0l3.4,3.4c0.5,0.5,0.5,1.3,0,1.8c0,0,0,0,0,0
	L9.9,16.3z"/>
</svg>
