<svg id="Capa_1" data-name="Capa 1" xmlns="http://www.w3.org/2000/svg" viewBox="0 0 60.88 70.85"><defs><style>.cls-1{fill:none;}.cls-2{fill:#3949ab;}</style></defs><title>icon-formato-xlsx-hover</title><path class="cls-1" d="M45.64,61.87a6.2,6.2,0,1,0,6.21-6.21A6.16,6.16,0,0,0,45.64,61.87Zm10.05,0.65-3.84,3.84L48,62.52h2.19V59.23H53.5v3.29h2.19Z"/><polygon class="cls-2" points="50.21 59.23 50.21 62.52 48.02 62.52 51.85 66.36 55.69 62.52 53.5 62.52 53.5 59.23 50.21 59.23"/><polygon class="cls-1" points="34.61 4.04 34.61 21.28 51.85 21.28 34.61 4.04"/><path class="cls-2" d="M51.85,54.73a7.1,7.1,0,0,1,2.19.35V20.65L35.24,1.84H10.16A6.26,6.26,0,0,0,3.93,8.11l0,50.15a6.26,6.26,0,0,0,6.24,6.27h35.1A7.13,7.13,0,0,1,51.85,54.73ZM34.61,4L51.85,21.28H34.61V4ZM19.2,45.11l-1.94-3.32-1.93,3.32H12.91L16,40.18l-3-4.79h2.41l1.81,3.2,1.85-3.2h2.42l-3,4.79,3.07,4.93H19.2Zm6.11,0H23.13V31.32h2.18V45.11Zm8.88-.63a4.63,4.63,0,0,1-2.85.81,5,5,0,0,1-2.13-.43,3.5,3.5,0,0,1-1.45-1.19A2.81,2.81,0,0,1,27.25,42h2.12a1.54,1.54,0,0,0,.58,1.19,2.27,2.27,0,0,0,1.43.42,2.2,2.2,0,0,0,1.31-.33,1,1,0,0,0,.45-0.86,1,1,0,0,0-.48-0.89A5.11,5.11,0,0,0,31.06,41a8.13,8.13,0,0,1-1.86-.59,2.48,2.48,0,0,1-1.63-2.29,2.59,2.59,0,0,1,1.06-2.1,4.19,4.19,0,0,1,2.69-.84,4.36,4.36,0,0,1,2.81.86,2.73,2.73,0,0,1,1.07,2.24H33a1.35,1.35,0,0,0-.47-1,1.79,1.79,0,0,0-1.24-.42,1.93,1.93,0,0,0-1.17.33,1,1,0,0,0-.45.89,0.88,0.88,0,0,0,.42.78,5.81,5.81,0,0,0,1.71.56,8.05,8.05,0,0,1,2,.67,2.86,2.86,0,0,1,1.09.94,2.39,2.39,0,0,1,.35,1.33A2.53,2.53,0,0,1,34.2,44.47Zm6.5-2.69-1.93,3.32H36.34l3.07-4.93-3-4.79h2.41l1.81,3.2,1.85-3.2h2.42l-3,4.79L45,45.11H42.64Z"/><path class="cls-2" d="M54,55.08v1a6.21,6.21,0,1,1-7.8,8.47h-1A7.13,7.13,0,1,0,54,55.08Z"/><path class="cls-2" d="M45.64,61.87A6.2,6.2,0,0,1,54,56.07v-1a7.13,7.13,0,0,0-8.81,9.45h1A6.16,6.16,0,0,1,45.64,61.87Z"/></svg>