<?xml version="1.0" encoding="utf-8"?>
<!-- Generator: Adobe Illustrator 19.2.1, SVG Export Plug-In . SVG Version: 6.00 Build 0)  -->
<svg version="1.1" id="Capa_1" xmlns="http://www.w3.org/2000/svg" xmlns:xlink="http://www.w3.org/1999/xlink" x="0px" y="0px"
   viewBox="0 0 43.4 40" style="enable-background:new 0 0 43.4 40;" xml:space="preserve">
<style type="text/css">
  .st0{fill:#ffffff;}
</style>
<title>icon-search</title>
<path class="st0" d="M29.2,24h-1.6l-0.6-0.3c2-2.3,3.2-5.3,3.1-8.3c-0.1-7.2-6-12.9-13.1-12.8S4.1,8.5,4.2,15.7
  c0.1,7.1,5.9,12.8,13,12.9c3.2,0,6.3-1.1,8.7-3.1l0.8,0.6v1.6l9.8,10l2.9-3.3L29.2,24z M17.2,24.6c-5,0-9-4-9-9s4-9,9-9s9,4,9,9l0,0
  C26.2,20.5,22.2,24.6,17.2,24.6C17.2,24.6,17.2,24.6,17.2,24.6L17.2,24.6z"/>
</svg>
