<?xml version="1.0" encoding="utf-8"?>
<!-- Generator: Adobe Illustrator 19.2.1, SVG Export Plug-In . SVG Version: 6.00 Build 0)  -->
<svg version="1.1" id="Capa_1" xmlns="http://www.w3.org/2000/svg" xmlns:xlink="http://www.w3.org/1999/xlink" x="0px" y="0px"
	 viewBox="0 0 70.1 47.4" style="enable-background:new 0 0 70.1 47.4;" xml:space="preserve">
<style type="text/css">
	.st0{fill:#CCCCCC;}
</style>
<title>icon-configurar</title>
<polygon class="st0" points="51.4,22.7 59.6,22.7 55.5,26.8 "/>
<path class="st0" d="M45.2,21.5v4.9c0.1,0.2,0.1,0.3,0,0.5c-0.1,0.1-0.2,0.3-0.4,0.3l-4.1,0.6c-0.2,0.7-0.5,1.4-0.8,2
	c0.5,0.7,1.3,1.8,2.4,3.1c0.1,0.2,0.2,0.4,0.2,0.6c0,0.2-0.1,0.4-0.2,0.5c-0.7,0.9-1.4,1.7-2.2,2.4c-1.1,1.1-1.8,1.6-2.1,1.6
	c-0.2,0-0.4-0.1-0.6-0.2l-3.1-2.4c-0.6,0.3-1.3,0.6-2,0.8c-0.1,1.3-0.3,2.7-0.6,4c-0.1,0.4-0.4,0.6-0.8,0.5c0,0,0,0,0,0h-5
	c-0.2,0-0.4,0-0.5,0c-0.1-0.1-0.2-0.2-0.3-0.4l-0.6-4.1c-0.7-0.2-1.4-0.5-2-0.8l-3.1,2.4c-0.2,0.1-0.4,0.2-0.6,0.2
	c-0.2,0-0.4-0.1-0.6-0.2c-1.3-1.1-2.6-2.4-3.7-3.7c-0.1-0.1-0.2-0.3-0.2-0.5c0-0.2,0.1-0.4,0.2-0.5c0.2-0.3,0.6-0.8,1.1-1.5
	c0.5-0.7,0.9-1.2,1.2-1.6c-0.4-0.7-0.7-1.5-0.9-2.2l-4.1-0.6c-0.3,0-0.7-0.1-1-0.3c-0.3-0.1-0.5-0.3-0.7-0.5v-4.9
	c0.2-0.2,0.5-0.4,0.7-0.5c0.2-0.2,0.4-0.3,0.7-0.3l4.3-0.6c0.2-0.7,0.6-1.4,0.9-2c-0.7-0.9-1.4-1.9-2.4-3.1
	c-0.1-0.1-0.2-0.3-0.2-0.5c0-0.2,0.1-0.4,0.2-0.5c0.7-0.8,1.4-1.6,2.2-2.4c1.1-1.1,1.8-1.6,2.1-1.6c0.2,0,0.4,0.1,0.6,0.2l3.1,2.4
	c0.6-0.3,1.3-0.6,2-0.9c0.1-1.4,0.4-2.8,0.6-4.2c0.1-0.4,0.4-0.7,0.8-0.7h5c0.2,0,0.4,0.1,0.5,0.2c0.2,0.1,0.2,0.3,0.3,0.5l0.6,4.1
	c0.7,0.2,1.4,0.5,2,0.8l3.2-2.4c0.1-0.1,0.3-0.2,0.5-0.2c0.2,0,0.4,0.1,0.6,0.2c1.3,1.2,2.6,2.4,3.7,3.8c0.1,0.1,0.2,0.3,0.2,0.5
	c0,0.2-0.1,0.4-0.2,0.5c-0.2,0.3-0.6,0.8-1.1,1.5c-0.5,0.7-0.9,1.2-1.2,1.6c0.4,0.7,0.7,1.4,0.9,2.1l4.1,0.6c0.2,0,0.3,0.1,0.3,0.3
	C45.2,21.1,45.2,21.3,45.2,21.5z M32.3,27.9c2.2-2.2,2.2-5.8,0-8c-2.2-2.2-5.8-2.2-8,0c0,0,0,0,0,0c-2.2,2.2-2.2,5.8,0,8
	C26.5,30.1,30.1,30.1,32.3,27.9C32.3,27.9,32.3,27.9,32.3,27.9z"/>
</svg>
