<svg id="Capa_1" data-name="Capa 1" xmlns="http://www.w3.org/2000/svg" viewBox="0 0 70.13 47.37"><defs><style>.cls-1{fill:#c8c8c8;}</style></defs><title>icon-configurar</title><polygon class="cls-1" points="51.36 22.68 59.56 22.68 55.46 26.78 51.36 22.68"/><path class="cls-1" d="M45.15,21.45v4.94a0.76,0.76,0,0,1,0,.51,0.56,0.56,0,0,1-.38.29l-4.08.62a14.46,14.46,0,0,1-.85,2c0.52,0.74,1.32,1.76,2.39,3.07a0.87,0.87,0,0,1,.23.56,0.74,0.74,0,0,1-.2.51,22.52,22.52,0,0,1-2.2,2.4q-1.6,1.58-2.09,1.58a1.09,1.09,0,0,1-.58-0.2l-3.07-2.4a12.63,12.63,0,0,1-2,.85,32.64,32.64,0,0,1-.64,4,0.66,0.66,0,0,1-.8.49H25.86a0.79,0.79,0,0,1-.54-0.05,0.53,0.53,0,0,1-.26-0.41l-0.62-4.06a13.79,13.79,0,0,1-2-.81L19.3,37.74a0.8,0.8,0,0,1-.56.2,0.76,0.76,0,0,1-.56-0.24A29.3,29.3,0,0,1,14.52,34a0.87,0.87,0,0,1-.16-0.51,0.86,0.86,0,0,1,.18-0.51q0.33-.47,1.13-1.48t1.2-1.57A11,11,0,0,1,16,27.7l-4.07-.6a2.65,2.65,0,0,1-1-.28,2.71,2.71,0,0,1-.73-0.52V21.36a3.3,3.3,0,0,1,.73-0.51,1.39,1.39,0,0,1,.7-0.29l4.28-.62a11.41,11.41,0,0,1,.94-2C16.19,17,15.43,16,14.44,14.82a0.81,0.81,0,0,1-.21-0.53,1,1,0,0,1,.21-0.51,22.2,22.2,0,0,1,2.2-2.39q1.61-1.59,2.1-1.59a1,1,0,0,1,.58.22l3.07,2.38a12.76,12.76,0,0,1,2-.85,38,38,0,0,1,.65-4.19,0.79,0.79,0,0,1,.8-0.68H30.8a0.9,0.9,0,0,1,.54.24,0.72,0.72,0,0,1,.26.51l0.62,4.11a13.74,13.74,0,0,1,2,.83L37.38,10a0.72,0.72,0,0,1,.53-0.2,0.86,0.86,0,0,1,.56.22,30.39,30.39,0,0,1,3.67,3.78,0.72,0.72,0,0,1,.16.49,0.85,0.85,0,0,1-.18.51q-0.33.47-1.13,1.48t-1.2,1.57A13.39,13.39,0,0,1,40.69,20l4.07,0.62a0.47,0.47,0,0,1,.34.28A0.78,0.78,0,0,1,45.15,21.45ZM32.35,27.9a5.69,5.69,0,0,0,0-8,5.69,5.69,0,0,0-8.05,0,5.69,5.69,0,0,0,0,8A5.69,5.69,0,0,0,32.35,27.9Z"/></svg>