<?xml version="1.0" encoding="utf-8"?>
<!-- Generator: Adobe Illustrator 19.2.1, SVG Export Plug-In . SVG Version: 6.00 Build 0)  -->
<svg version="1.1" id="Capa_1" xmlns="http://www.w3.org/2000/svg" xmlns:xlink="http://www.w3.org/1999/xlink" x="0px" y="0px"
   viewBox="0 0 35.4 32.6" style="enable-background:new 0 0 35.4 32.6;" xml:space="preserve">
<style type="text/css">
  .st0{fill:#767676;}
</style>
<path class="st0" d="M14,15.1h-2.5v2.5H14V15.1z M19,15.1h-2.5v2.5H19V15.1z M24,15.1h-2.5v2.5H24V15.1z M14,19.7h-2.5v2.5H14V19.7z
   M19,19.7h-2.5v2.5H19V19.7z M24,19.7h-2.5v2.5H24V19.7z M26.5,6.3h-1.2V3.8h-2.5v2.5h-10V3.8h-2.5v2.5H9c-1.4,0-2.5,1.1-2.5,2.5
  l0,17.5c0,1.4,1.1,2.5,2.5,2.5h17.5c1.4,0,2.5-1.1,2.5-2.5V8.8C29,7.4,27.8,6.3,26.5,6.3z M26.5,26.3H9V12.6h17.5V26.3z"/>
</svg>
