<svg id="Capa_1" data-name="Capa 1" xmlns="http://www.w3.org/2000/svg" viewBox="0 0 60.88 70.85"><defs><style>.cls-1{fill:none;}.cls-2{fill:#fb8c00;}</style></defs><title>icon-formato-json-hover</title><path class="cls-1" d="M45.64,61.87a6.2,6.2,0,1,0,6.21-6.21A6.16,6.16,0,0,0,45.64,61.87Zm10.05,0.65-3.84,3.84L48,62.52h2.19V59.23H53.5v3.29h2.19Z"/><polygon class="cls-2" points="50.21 59.23 50.21 62.52 48.02 62.52 51.85 66.36 55.69 62.52 53.5 62.52 53.5 59.23 50.21 59.23"/><polygon class="cls-1" points="34.61 4.04 34.61 21.28 51.85 21.28 34.61 4.04"/><path class="cls-2" d="M30.89,37a2,2,0,0,0-1.7.85,4.24,4.24,0,0,0-.63,2.54,3.92,3.92,0,0,0,.62,2.35,2,2,0,0,0,1.72.85,2,2,0,0,0,1.72-.86,4.33,4.33,0,0,0,.62-2.52,3.86,3.86,0,0,0-.63-2.33A2,2,0,0,0,30.89,37Z"/><path class="cls-2" d="M51.85,54.73a7.1,7.1,0,0,1,2.19.35V20.65L35.24,1.84H10.16A6.26,6.26,0,0,0,3.93,8.11l0,50.15a6.26,6.26,0,0,0,6.24,6.27h35.1A7.13,7.13,0,0,1,51.85,54.73ZM34.61,4L51.85,21.28H34.61V4ZM15,46a3.2,3.2,0,0,1-.74,2.28,2.84,2.84,0,0,1-2.17.79,4.33,4.33,0,0,1-1.16-.15V47.15a3.37,3.37,0,0,0,.77.08A1,1,0,0,0,12.79,46V35.39H15V46ZM14.74,33.69a1.22,1.22,0,0,1-.92.33,1.21,1.21,0,0,1-.91-0.33,1.14,1.14,0,0,1-.32-0.83A1.17,1.17,0,0,1,12.92,32a1.2,1.2,0,0,1,.91-0.33,1.21,1.21,0,0,1,.92.33,1.16,1.16,0,0,1,.32.84A1.13,1.13,0,0,1,14.74,33.69ZM23.8,44.47a4.63,4.63,0,0,1-2.85.81,5,5,0,0,1-2.13-.43,3.51,3.51,0,0,1-1.45-1.19A2.81,2.81,0,0,1,16.85,42H19a1.54,1.54,0,0,0,.58,1.19,2.27,2.27,0,0,0,1.43.42,2.2,2.2,0,0,0,1.31-.33,1,1,0,0,0,.45-0.86,1,1,0,0,0-.48-0.89A5.11,5.11,0,0,0,20.67,41a8.13,8.13,0,0,1-1.86-.59,2.48,2.48,0,0,1-1.63-2.29,2.59,2.59,0,0,1,1.06-2.1,4.19,4.19,0,0,1,2.69-.84,4.35,4.35,0,0,1,2.81.86,2.73,2.73,0,0,1,1.07,2.24H22.64a1.34,1.34,0,0,0-.47-1,1.79,1.79,0,0,0-1.24-.42,1.93,1.93,0,0,0-1.17.33,1,1,0,0,0-.45.89,0.88,0.88,0,0,0,.42.78,5.8,5.8,0,0,0,1.71.56,8.07,8.07,0,0,1,2,.67,2.86,2.86,0,0,1,1.09.94,2.39,2.39,0,0,1,.35,1.33A2.53,2.53,0,0,1,23.8,44.47Zm11.06-1.56a4.08,4.08,0,0,1-1.58,1.75,4.51,4.51,0,0,1-2.37.62,4.21,4.21,0,0,1-3.29-1.37,5.25,5.25,0,0,1-1.23-3.65V40.16a5.73,5.73,0,0,1,.57-2.57,4.13,4.13,0,0,1,1.59-1.76,4.48,4.48,0,0,1,2.35-.62,4.24,4.24,0,0,1,3.19,1.27,5,5,0,0,1,1.32,3.36v0.51A5.78,5.78,0,0,1,34.86,42.92Zm7.82-5.47A1.68,1.68,0,0,0,41.37,37a2.1,2.1,0,0,0-2,1.19v6.91H37.23V35.39h2.06l0.06,1.12a3.49,3.49,0,0,1,2.83-1.3q3,0,3.09,3.47v6.42H43.08V38.81A2,2,0,0,0,42.68,37.44Z"/><path class="cls-2" d="M54,55.08v1a6.21,6.21,0,1,1-7.8,8.47h-1A7.13,7.13,0,1,0,54,55.08Z"/><path class="cls-2" d="M45.64,61.87A6.2,6.2,0,0,1,54,56.07v-1a7.13,7.13,0,0,0-8.81,9.45h1A6.16,6.16,0,0,1,45.64,61.87Z"/></svg>