<svg id="Capa_1" data-name="Capa 1" xmlns="http://www.w3.org/2000/svg" viewBox="0 0 60.88 70.85"><defs><style>.cls-1{fill:none;}.cls-2{fill:#f2cb00;}</style></defs><title>icon-formato-csv-hover</title><path class="cls-1" d="M45.64,61.87a6.2,6.2,0,1,0,6.21-6.21A6.16,6.16,0,0,0,45.64,61.87Zm10.05,0.65-3.84,3.84L48,62.52h2.19V59.23H53.5v3.29h2.19Z"/><polygon class="cls-2" points="50.21 59.23 50.21 62.52 48.02 62.52 51.85 66.36 55.69 62.52 53.5 62.52 53.5 59.23 50.21 59.23"/><polygon class="cls-1" points="34.61 4.04 34.61 21.28 51.85 21.28 34.61 4.04"/><path class="cls-2" d="M51.85,54.73a7.1,7.1,0,0,1,2.19.35V20.65L35.24,1.84H10.16A6.26,6.26,0,0,0,3.93,8.11l0,50.15a6.26,6.26,0,0,0,6.24,6.27h35.1A7.13,7.13,0,0,1,51.85,54.73ZM34.61,4L51.85,21.28H34.61V4ZM18.33,42.77a1.92,1.92,0,0,0,1.65.78,2,2,0,0,0,1.36-.48,1.63,1.63,0,0,0,.57-1.18H24a3.21,3.21,0,0,1-.57,1.69A3.71,3.71,0,0,1,22,44.83a4.28,4.28,0,0,1-2,.46A4.14,4.14,0,0,1,16.77,44a5.23,5.23,0,0,1-1.19-3.64V40.1a5.15,5.15,0,0,1,1.19-3.55A4.11,4.11,0,0,1,20,35.21a4,4,0,0,1,2.82,1A3.62,3.62,0,0,1,24,38.87H21.9a2,2,0,0,0-.57-1.37A1.83,1.83,0,0,0,20,37a1.92,1.92,0,0,0-1.63.77,3.91,3.91,0,0,0-.58,2.33v0.35A4,4,0,0,0,18.33,42.77Zm13.79,1.71a4.63,4.63,0,0,1-2.85.81,5,5,0,0,1-2.13-.43,3.51,3.51,0,0,1-1.45-1.19A2.81,2.81,0,0,1,25.16,42h2.12a1.54,1.54,0,0,0,.58,1.19,2.27,2.27,0,0,0,1.43.42,2.2,2.2,0,0,0,1.31-.33,1,1,0,0,0,.45-0.86,1,1,0,0,0-.48-0.89A5.11,5.11,0,0,0,29,41a8.13,8.13,0,0,1-1.86-.59,2.48,2.48,0,0,1-1.63-2.29,2.59,2.59,0,0,1,1.06-2.1,4.19,4.19,0,0,1,2.69-.84,4.35,4.35,0,0,1,2.81.86,2.73,2.73,0,0,1,1.07,2.24H30.95a1.35,1.35,0,0,0-.47-1,1.79,1.79,0,0,0-1.24-.42,1.93,1.93,0,0,0-1.17.33,1,1,0,0,0-.45.89,0.88,0.88,0,0,0,.42.78,5.8,5.8,0,0,0,1.71.56,8.07,8.07,0,0,1,2,.67,2.86,2.86,0,0,1,1.09.94,2.39,2.39,0,0,1,.35,1.33A2.53,2.53,0,0,1,32.11,44.47Zm7.35,0.63H37.57l-3.39-9.71h2.26l2.08,6.95,2.06-6.95h2.25Z"/><path class="cls-2" d="M54,55.08v1a6.21,6.21,0,1,1-7.8,8.47h-1A7.13,7.13,0,1,0,54,55.08Z"/><path class="cls-2" d="M45.64,61.87A6.2,6.2,0,0,1,54,56.07v-1a7.13,7.13,0,0,0-8.81,9.45h1A6.16,6.16,0,0,1,45.64,61.87Z"/></svg>