<svg id="Capa_1" data-name="Capa 1" xmlns="http://www.w3.org/2000/svg" viewBox="0 0 400 118.31"><defs><style>.cls-1{fill:#59595b;}.cls-2{fill:#4272b4;}.cls-3{fill:#fff;}.cls-4{fill:#272425;}.cls-5{fill:#edca6a;}.cls-6{fill:#599c60;}.cls-7{fill:#dfb581;}.cls-8{fill:#538db6;}.cls-9{fill:#bb402c;}</style></defs><title>logo-ministerio</title><path class="cls-1" d="M72,28.9h3l3.36,5.41,3.36-5.41h3V41.68H82V33.34l-3.6,5.46H78.31l-3.56-5.41v8.29H72V28.9Z"/><path class="cls-1" d="M87.62,28.35h2.92v2.47H87.62V28.35Zm0.07,3.54h2.78v9.79H87.69V31.89Z"/><path class="cls-1" d="M93.08,31.89h2.78v1.39a3.46,3.46,0,0,1,2.87-1.57c2.1,0,3.32,1.39,3.32,3.63v6.34H99.27V36.22c0-1.32-.62-2-1.68-2a1.7,1.7,0,0,0-1.74,2v5.46H93.08V31.89Z"/><path class="cls-1" d="M104.52,28.35h2.92v2.47h-2.92V28.35Zm0.07,3.54h2.78v9.79h-2.78V31.89Z"/><path class="cls-1" d="M109.21,40.39l1.19-1.83a5.54,5.54,0,0,0,3.09,1.17c0.8,0,1.17-.29,1.17-0.73v0c0-.6-0.95-0.8-2-1.13-1.37-.4-2.92-1-2.92-2.94v0c0-2,1.61-3.1,3.58-3.1a6.77,6.77,0,0,1,3.65,1.13l-1.06,1.92a5.8,5.8,0,0,0-2.65-.91c-0.68,0-1,.29-1,0.68v0c0,0.55.93,0.8,2,1.17,1.37,0.46,3,1.11,3,2.9v0c0,2.17-1.63,3.16-3.74,3.16A6.86,6.86,0,0,1,109.21,40.39Z"/><path class="cls-1" d="M119.43,38.91V34.27h-1.17V31.89h1.17v-2.5h2.78v2.5h2.3v2.37h-2.3v4.18a0.8,0.8,0,0,0,.89.95,2.83,2.83,0,0,0,1.37-.35v2.23a4.09,4.09,0,0,1-2.19.57C120.58,41.85,119.43,41.17,119.43,38.91Z"/><path class="cls-1" d="M125.8,36.84v0a4.87,4.87,0,0,1,4.84-5.1c3.27,0,4.77,2.54,4.77,5.31,0,0.22,0,.48,0,0.73h-6.81A2.27,2.27,0,0,0,131,39.67a3.21,3.21,0,0,0,2.37-1l1.59,1.41A5.17,5.17,0,0,1,125.8,36.84Zm6.9-.82a2.1,2.1,0,0,0-2.06-2.08A2.18,2.18,0,0,0,128.52,36h4.18Z"/><path class="cls-1" d="M137.48,31.89h2.78v2a3,3,0,0,1,3.12-2.16v2.9h-0.15c-1.84,0-3,1.11-3,3.45v3.62h-2.78V31.89Z"/><path class="cls-1" d="M145.17,28.35h2.92v2.47h-2.92V28.35Zm0.07,3.54H148v9.79h-2.78V31.89Z"/><path class="cls-1" d="M150.16,36.84v0a5.3,5.3,0,0,1,10.59,0v0A5.3,5.3,0,0,1,150.16,36.84Zm7.85,0v0a2.6,2.6,0,0,0-2.58-2.7,2.51,2.51,0,0,0-2.54,2.67v0a2.6,2.6,0,0,0,2.58,2.7A2.51,2.51,0,0,0,158,36.84Z"/><path class="cls-1" d="M167.81,36.81v0c0-3.27,2.14-5.06,4.46-5.06a3.76,3.76,0,0,1,3.05,1.46V28.35h2.78V41.68h-2.78V40.28a3.6,3.6,0,0,1-3.05,1.59C170,41.86,167.81,40.07,167.81,36.81Zm7.54,0v0a2.4,2.4,0,1,0-4.77,0v0A2.4,2.4,0,1,0,175.35,36.81Z"/><path class="cls-1" d="M180.1,36.84v0a4.87,4.87,0,0,1,4.84-5.1c3.27,0,4.77,2.54,4.77,5.31,0,0.22,0,.48,0,0.73h-6.81a2.27,2.27,0,0,0,2.39,1.92,3.21,3.21,0,0,0,2.37-1l1.59,1.41A5.17,5.17,0,0,1,180.1,36.84ZM187,36a2.1,2.1,0,0,0-2.06-2.08A2.18,2.18,0,0,0,182.83,36H187Z"/><path class="cls-1" d="M191.91,28.35h2.78V41.68h-2.78V28.35Z"/><path class="cls-1" d="M203.2,28.9H206V41.68H203.2V28.9Z"/><path class="cls-1" d="M208.92,31.89h2.78v1.39a3.46,3.46,0,0,1,2.87-1.57c2.1,0,3.32,1.39,3.32,3.63v6.34h-2.78V36.22c0-1.32-.62-2-1.68-2a1.7,1.7,0,0,0-1.74,2v5.46h-2.78V31.89Z"/><path class="cls-1" d="M220.76,38.91V34.27h-1.17V31.89h1.17v-2.5h2.78v2.5h2.3v2.37h-2.3v4.18a0.8,0.8,0,0,0,.89.95,2.83,2.83,0,0,0,1.37-.35v2.23a4.09,4.09,0,0,1-2.19.57C221.91,41.85,220.76,41.17,220.76,38.91Z"/><path class="cls-1" d="M227.13,36.84v0a4.87,4.87,0,0,1,4.84-5.1c3.27,0,4.77,2.54,4.77,5.31,0,0.22,0,.48,0,0.73h-6.81a2.27,2.27,0,0,0,2.39,1.92,3.21,3.21,0,0,0,2.37-1l1.59,1.41A5.17,5.17,0,0,1,227.13,36.84ZM234,36A2.1,2.1,0,0,0,232,33.94,2.18,2.18,0,0,0,229.86,36H234Z"/><path class="cls-1" d="M238.81,31.89h2.78v2a3,3,0,0,1,3.12-2.16v2.9h-0.15c-1.84,0-3,1.11-3,3.45v3.62h-2.78V31.89Z"/><path class="cls-1" d="M246.5,28.35h2.92v2.47H246.5V28.35Zm0.07,3.54h2.78v9.79h-2.78V31.89Z"/><path class="cls-1" d="M251.49,36.84v0a5.3,5.3,0,0,1,10.59,0v0A5.3,5.3,0,0,1,251.49,36.84Zm7.85,0v0a2.6,2.6,0,0,0-2.58-2.7,2.51,2.51,0,0,0-2.54,2.67v0a2.6,2.6,0,0,0,2.58,2.7A2.51,2.51,0,0,0,259.34,36.84Z"/><path class="cls-1" d="M264.1,31.89h2.78v2A3,3,0,0,1,270,31.71v2.9h-0.15c-1.84,0-3,1.11-3,3.45v3.62H264.1V31.89Z"/><path class="cls-1" d="M269.32,43.49c1.26-.13,1.88-0.77,1.79-1.81H270V38.76h3v2.47c0,2.41-1.21,3.38-3.38,3.42Z"/><path class="cls-1" d="M71.43,57.25v0a6.8,6.8,0,0,1,13.59,0v0A6.8,6.8,0,0,1,71.43,57.25Zm10.65,0v0a3.88,3.88,0,0,0-3.87-4,3.82,3.82,0,0,0-3.84,4v0a3.88,3.88,0,0,0,3.87,4A3.82,3.82,0,0,0,82.07,57.25Z"/><path class="cls-1" d="M90,62.33v1.28H87.23V50.28H90v5a3.59,3.59,0,0,1,3.05-1.59c2.28,0,4.46,1.79,4.46,5.06v0c0,3.27-2.14,5.06-4.46,5.06A3.76,3.76,0,0,1,90,62.33Zm4.73-3.6v0a2.4,2.4,0,1,0-4.77,0v0A2.4,2.4,0,1,0,94.74,58.73Z"/><path class="cls-1" d="M99.56,53.82h2.78v2a3,3,0,0,1,3.12-2.16v2.9h-0.15c-1.84,0-3,1.11-3,3.45v3.62H99.56V53.82Z"/><path class="cls-1" d="M106.16,60.8v0c0-2.14,1.63-3.12,3.94-3.12a7,7,0,0,1,2.39.4V57.87c0-1.15-.71-1.79-2.1-1.79a7.2,7.2,0,0,0-2.7.53L107,54.49a8.64,8.64,0,0,1,3.8-.79,4.52,4.52,0,0,1,3.31,1.1,4.27,4.27,0,0,1,1.06,3.12v5.68h-2.69V62.55a3.76,3.76,0,0,1-3,1.24C107.68,63.79,106.16,62.73,106.16,60.8Zm6.37-.64V59.66a4.3,4.3,0,0,0-1.77-.37c-1.19,0-1.92.48-1.92,1.35v0a1.29,1.29,0,0,0,1.52,1.19C111.66,61.87,112.54,61.16,112.54,60.16Z"/><path class="cls-1" d="M116.79,62.31L118,60.49a5.54,5.54,0,0,0,3.09,1.17c0.8,0,1.17-.29,1.17-0.73v0c0-.6-0.95-0.8-2-1.13-1.37-.4-2.92-1-2.92-2.94v0c0-2,1.61-3.1,3.58-3.1a6.77,6.77,0,0,1,3.65,1.13l-1.06,1.92a5.8,5.8,0,0,0-2.65-.91c-0.68,0-1,.29-1,0.68v0c0,0.55.93,0.8,2,1.17,1.37,0.46,3,1.11,3,2.9v0c0,2.17-1.63,3.16-3.74,3.16A6.86,6.86,0,0,1,116.79,62.31Z"/><path class="cls-1" d="M132.51,50.82h5.22c3.05,0,4.9,1.81,4.9,4.42v0c0,3-2.3,4.49-5.17,4.49h-2.14v3.84h-2.81V50.82Zm5,6.45a2,2,0,0,0,2.23-1.94v0c0-1.26-.88-1.94-2.28-1.94h-2.17v3.91h2.23Z"/><path class="cls-1" d="M144.35,60.16V53.82h2.78v5.46c0,1.31.62,2,1.68,2a1.7,1.7,0,0,0,1.74-2V53.82h2.78v9.79h-2.78V62.22a3.46,3.46,0,0,1-2.87,1.57C145.57,63.79,144.35,62.4,144.35,60.16Zm5.41-10.65,2.39,1-2.37,2.19h-2Z"/><path class="cls-1" d="M158.58,62.33v1.28H155.8V50.28h2.78v5a3.59,3.59,0,0,1,3.05-1.59c2.28,0,4.46,1.79,4.46,5.06v0c0,3.27-2.14,5.06-4.46,5.06A3.76,3.76,0,0,1,158.58,62.33Zm4.73-3.6v0a2.4,2.4,0,1,0-4.77,0v0A2.4,2.4,0,1,0,163.31,58.73Z"/><path class="cls-1" d="M168.27,50.28H171V63.61h-2.78V50.28Z"/><path class="cls-1" d="M173.71,50.28h2.92v2.47h-2.92V50.28Zm0.07,3.54h2.78v9.79h-2.78V53.82Z"/><path class="cls-1" d="M178.7,58.77v0a5,5,0,0,1,5.13-5.1,4.81,4.81,0,0,1,3.91,1.64L186,57.11A2.86,2.86,0,0,0,183.81,56a2.5,2.5,0,0,0-2.37,2.67v0a2.51,2.51,0,0,0,2.48,2.7,3.1,3.1,0,0,0,2.25-1L187.79,62a4.93,4.93,0,0,1-4,1.79A5,5,0,0,1,178.7,58.77Z"/><path class="cls-1" d="M189,60.8v0c0-2.14,1.63-3.12,3.94-3.12a7,7,0,0,1,2.39.4V57.87c0-1.15-.71-1.79-2.1-1.79a7.2,7.2,0,0,0-2.7.53l-0.69-2.12a8.64,8.64,0,0,1,3.8-.79A4.52,4.52,0,0,1,197,54.8,4.27,4.27,0,0,1,198,57.93v5.68h-2.69V62.55a3.76,3.76,0,0,1-3,1.24C190.54,63.79,189,62.73,189,60.8Zm6.37-.64V59.66a4.3,4.3,0,0,0-1.77-.37c-1.19,0-1.92.48-1.92,1.35v0a1.29,1.29,0,0,0,1.52,1.19C194.52,61.87,195.4,61.16,195.4,60.16Z"/><path class="cls-1" d="M199.66,62.31l1.19-1.83a5.54,5.54,0,0,0,3.09,1.17c0.8,0,1.17-.29,1.17-0.73v0c0-.6-1-0.8-2-1.13-1.37-.4-2.92-1-2.92-2.94v0c0-2,1.61-3.1,3.58-3.1a6.77,6.77,0,0,1,3.65,1.13l-1.06,1.92a5.8,5.8,0,0,0-2.65-.91c-0.68,0-1,.29-1,0.68v0c0,0.55.93,0.8,2,1.17,1.37,0.46,3,1.11,3,2.9v0c0,2.17-1.63,3.16-3.74,3.16A6.86,6.86,0,0,1,199.66,62.31Z"/><path class="cls-1" d="M221.51,53.82h2.89l-3.76,10c-0.75,2-1.55,2.74-3.21,2.74a4.59,4.59,0,0,1-2.47-.68l0.93-2a2.53,2.53,0,0,0,1.19.38,0.93,0.93,0,0,0,1-.64l-3.84-9.83h2.94l2.23,6.67Z"/><path class="cls-1" d="M230.72,50.82h3.1l3.34,9,3.34-9h3L238.37,63.7h-2.48Z"/><path class="cls-1" d="M244.91,50.28h2.92v2.47h-2.92V50.28ZM245,53.82h2.78v9.79H245V53.82Z"/><path class="cls-1" d="M249.5,53.82h2.94l2.19,6.56,2.21-6.56h2.89l-3.85,9.86h-2.52Z"/><path class="cls-1" d="M261.39,50.28h2.92v2.47h-2.92V50.28Zm0.07,3.54h2.78v9.79h-2.78V53.82Z"/><path class="cls-1" d="M266.38,58.77v0a4.87,4.87,0,0,1,4.84-5.1c3.27,0,4.77,2.54,4.77,5.31,0,0.22,0,.48,0,0.73h-6.81a2.27,2.27,0,0,0,2.39,1.92,3.21,3.21,0,0,0,2.37-1L275.5,62A5.17,5.17,0,0,1,266.38,58.77Zm6.9-.82a2.1,2.1,0,0,0-2.06-2.08,2.18,2.18,0,0,0-2.12,2.08h4.18Z"/><path class="cls-1" d="M278.06,53.82h2.78v1.39a3.46,3.46,0,0,1,2.87-1.57c2.1,0,3.32,1.39,3.32,3.63v6.34h-2.78V58.15c0-1.32-.62-2-1.68-2a1.7,1.7,0,0,0-1.74,2v5.46h-2.78V53.82Z"/><path class="cls-1" d="M289,58.73v0c0-3.27,2.14-5.06,4.46-5.06a3.76,3.76,0,0,1,3.05,1.46V50.28h2.78V63.61h-2.78V62.2a3.6,3.6,0,0,1-3.05,1.59C291.18,63.79,289,62,289,58.73Zm7.54,0v0a2.4,2.4,0,1,0-4.77,0v0A2.4,2.4,0,1,0,296.55,58.73Z"/><path class="cls-1" d="M301.19,60.8v0c0-2.14,1.63-3.12,3.94-3.12a7,7,0,0,1,2.39.4V57.87c0-1.15-.71-1.79-2.1-1.79a7.2,7.2,0,0,0-2.7.53L302,54.49a8.64,8.64,0,0,1,3.8-.79,4.52,4.52,0,0,1,3.31,1.1,4.27,4.27,0,0,1,1.06,3.12v5.68h-2.69V62.55a3.76,3.76,0,0,1-3,1.24C302.71,63.79,301.19,62.73,301.19,60.8Zm6.37-.64V59.66a4.3,4.3,0,0,0-1.77-.37c-1.19,0-1.92.48-1.92,1.35v0a1.29,1.29,0,0,0,1.52,1.19C306.69,61.87,307.56,61.16,307.56,60.16Z"/><path class="cls-2" d="M72.78,73.88h7.08c4.18,0,6.83,2.39,6.83,6v0.05c0,4-3.23,6.13-7.19,6.13H75.94v5.77H72.78v-18Zm6.83,9.34c2.39,0,3.87-1.33,3.87-3.21V80c0-2.11-1.51-3.21-3.87-3.21H75.94v6.47h3.67Z"/><path class="cls-2" d="M89.57,78.3h3.11v3.05A4.8,4.8,0,0,1,97.47,78v3.28H97.29c-2.72,0-4.62,1.77-4.62,5.36v5.16H89.57V78.3Z"/><path class="cls-2" d="M99.42,85.12V85.07c0-3.87,2.75-7.06,6.62-7.06,4.31,0,6.49,3.39,6.49,7.29,0,0.28,0,.56-0.05.87h-10a3.78,3.78,0,0,0,3.9,3.44A4.92,4.92,0,0,0,110.1,88l1.82,1.62a6.85,6.85,0,0,1-5.54,2.54A6.76,6.76,0,0,1,99.42,85.12Zm10-1c-0.21-2-1.39-3.57-3.44-3.57-1.9,0-3.23,1.46-3.52,3.57h7Z"/><path class="cls-2" d="M114.57,90.08L116,88a7.6,7.6,0,0,0,4.44,1.67c1.33,0,2.1-.56,2.1-1.46V88.13c0-1.05-1.44-1.41-3-1.9-2-.56-4.23-1.39-4.23-4V82.2c0-2.57,2.13-4.13,4.83-4.13a9.39,9.39,0,0,1,5,1.54l-1.23,2.21A7.87,7.87,0,0,0,120,80.53c-1.21,0-1.9.56-1.9,1.36v0.05c0,1,1.46,1.39,3.05,1.9,2,0.61,4.21,1.51,4.21,4v0.05c0,2.85-2.21,4.26-5,4.26A9.52,9.52,0,0,1,114.57,90.08Z"/><path class="cls-2" d="M128.56,73.27h3.34v3h-3.34v-3Zm0.13,5h3.11V91.85h-3.11V78.3Z"/><path class="cls-2" d="M135.16,85.1V85c0-4.49,3.05-7,6.29-7a5.61,5.61,0,0,1,4.62,2.39V73.11h3.11V91.85h-3.11V89.59a5.43,5.43,0,0,1-4.62,2.54C138.26,92.13,135.16,89.59,135.16,85.1Zm11,0V85a4.07,4.07,0,0,0-3.93-4.34c-2.13,0-3.9,1.64-3.9,4.34V85.1a4,4,0,0,0,3.9,4.34A4.08,4.08,0,0,0,146.11,85.1Z"/><path class="cls-2" d="M152.3,85.12V85.07c0-3.87,2.75-7.06,6.62-7.06,4.31,0,6.49,3.39,6.49,7.29,0,0.28,0,.56-0.05.87h-10a3.78,3.78,0,0,0,3.9,3.44A4.92,4.92,0,0,0,163,88l1.82,1.62a6.85,6.85,0,0,1-5.54,2.54A6.76,6.76,0,0,1,152.3,85.12Zm10-1c-0.21-2-1.39-3.57-3.44-3.57-1.9,0-3.23,1.46-3.52,3.57h7Z"/><path class="cls-2" d="M168.55,78.3h3.11v2.1A4.88,4.88,0,0,1,175.89,78c3.05,0,4.82,2.05,4.82,5.21v8.62h-3.11v-7.7c0-2.11-1.05-3.31-2.9-3.31s-3.05,1.26-3.05,3.36v7.65h-3.11V78.3Z"/><path class="cls-2" d="M183.72,85.15V85.1a7,7,0,0,1,7-7.08,6.77,6.77,0,0,1,5.41,2.34l-1.92,2.08a4.56,4.56,0,0,0-3.52-1.69,4.07,4.07,0,0,0-3.9,4.31V85.1a4.12,4.12,0,0,0,4.05,4.36,4.77,4.77,0,0,0,3.52-1.69l1.87,1.85A7.1,7.1,0,0,1,183.72,85.15Z"/><path class="cls-2" d="M199.17,73.27h3.34v3h-3.34v-3Zm0.13,5h3.11V91.85H199.3V78.3Z"/><path class="cls-2" d="M214.75,91.85V90.18a5.48,5.48,0,0,1-4.39,2c-2.57,0-4.83-1.46-4.83-4.18V87.9c0-3,2.34-4.44,5.49-4.44a11.4,11.4,0,0,1,3.75.56V83.76c0-1.87-1.18-2.9-3.34-2.9a9.44,9.44,0,0,0-3.87.85l-0.85-2.49a11.62,11.62,0,0,1,5.16-1.13c4,0,6,2.11,6,5.72v8h-3.08Zm0.08-5.67a8.87,8.87,0,0,0-3.11-.54c-2,0-3.11.8-3.11,2.1v0.05c0,1.28,1.15,2,2.62,2,2.05,0,3.59-1.16,3.59-2.85V86.18Z"/><path class="cls-2" d="M228.54,85.1V85c0-4.49,3.05-7,6.29-7a5.61,5.61,0,0,1,4.62,2.39V73.11h3.11V91.85h-3.11V89.59a5.43,5.43,0,0,1-4.62,2.54C231.64,92.13,228.54,89.59,228.54,85.1Zm11,0V85a4.07,4.07,0,0,0-3.93-4.34c-2.13,0-3.9,1.64-3.9,4.34V85.1a4,4,0,0,0,3.9,4.34A4.08,4.08,0,0,0,239.49,85.1Z"/><path class="cls-2" d="M245.68,85.12V85.07c0-3.87,2.75-7.06,6.62-7.06,4.31,0,6.49,3.39,6.49,7.29,0,0.28,0,.56-0.05.87h-10a3.78,3.78,0,0,0,3.9,3.44A4.92,4.92,0,0,0,256.36,88l1.82,1.62a6.85,6.85,0,0,1-5.54,2.54A6.76,6.76,0,0,1,245.68,85.12Zm10-1c-0.21-2-1.39-3.57-3.44-3.57-1.9,0-3.23,1.46-3.52,3.57h7Z"/><path class="cls-2" d="M269.81,73.11h3.11V91.85h-3.11V73.11Z"/><path class="cls-2" d="M285.26,91.85V90.18a5.48,5.48,0,0,1-4.39,2c-2.57,0-4.83-1.46-4.83-4.18V87.9c0-3,2.34-4.44,5.49-4.44a11.4,11.4,0,0,1,3.75.56V83.76c0-1.87-1.18-2.9-3.34-2.9a9.44,9.44,0,0,0-3.88.85l-0.85-2.49a11.62,11.62,0,0,1,5.16-1.13c4,0,6,2.11,6,5.72v8h-3.08Zm0.08-5.67a8.86,8.86,0,0,0-3.1-.54c-2,0-3.1.8-3.1,2.1v0.05c0,1.28,1.15,2,2.62,2,2.05,0,3.59-1.16,3.59-2.85V86.18Z"/><path class="cls-2" d="M300.1,73.88H303l9.62,12.42V73.88h3.11v18h-2.64L303.2,79.07V91.85h-3.1v-18Z"/><path class="cls-2" d="M328.31,91.85V90.18a5.48,5.48,0,0,1-4.39,2c-2.57,0-4.83-1.46-4.83-4.18V87.9c0-3,2.34-4.44,5.49-4.44a11.4,11.4,0,0,1,3.75.56V83.76c0-1.87-1.18-2.9-3.34-2.9a9.44,9.44,0,0,0-3.88.85l-0.85-2.49a11.62,11.62,0,0,1,5.16-1.13c4,0,6,2.11,6,5.72v8h-3.08Zm0.08-5.67a8.86,8.86,0,0,0-3.1-.54c-2,0-3.11.8-3.11,2.1v0.05c0,1.28,1.16,2,2.62,2,2.05,0,3.59-1.16,3.59-2.85V86.18Z"/><path class="cls-2" d="M334.34,85.15V85.1a7,7,0,0,1,7-7.08,6.77,6.77,0,0,1,5.42,2.34l-1.92,2.08a4.56,4.56,0,0,0-3.52-1.69,4.07,4.07,0,0,0-3.9,4.31V85.1a4.12,4.12,0,0,0,4.05,4.36A4.77,4.77,0,0,0,345,87.77l1.87,1.85A7.1,7.1,0,0,1,334.34,85.15Z"/><path class="cls-2" d="M349.79,73.27h3.34v3h-3.34v-3Zm0.13,5H353V91.85h-3.11V78.3Z"/><path class="cls-2" d="M356.34,85.15V85.1A7.23,7.23,0,0,1,370.79,85V85.1a7.09,7.09,0,0,1-7.26,7.06A7,7,0,0,1,356.34,85.15Zm11.34,0V85.1a4.19,4.19,0,0,0-4.16-4.36A4.07,4.07,0,0,0,359.45,85V85.1a4.2,4.2,0,0,0,4.13,4.36A4.09,4.09,0,0,0,367.68,85.15Zm-2.62-12.78,2.82,1.26-3.13,3h-2.41Z"/><path class="cls-2" d="M373.95,78.3h3.1v2.1A4.88,4.88,0,0,1,381.29,78c3.05,0,4.83,2.05,4.83,5.21v8.62H383v-7.7c0-2.11-1.05-3.31-2.9-3.31s-3.05,1.26-3.05,3.36v7.65h-3.1V78.3Z"/><path class="cls-3" d="M34.69,84.69C25.3,84.69,18,74.43,18,62.33h33.3c0,12.14-7.23,22.36-16.65,22.36"/><path class="cls-4" d="M38.36,34.42h0.27s-0.17-1.22-2.35-1.08H35.77L35.54,34,37,33.93a1.52,1.52,0,0,1,1.34.49"/><path class="cls-4" d="M36,35.23a2.7,2.7,0,0,1,.34-0.37h0.07a0.53,0.53,0,0,0-.06.15,0.56,0.56,0,0,0,.37.53,2.17,2.17,0,0,0,.37,0A0.55,0.55,0,0,0,37.41,35c0-.06,0-0.1,0-0.15a0.77,0.77,0,0,1,.54.37l0.46,0s-0.27-1.15-2.34-.84c0,0-.51.73-0.53,0.8a1.12,1.12,0,0,0,.47,0"/><path class="cls-4" d="M31.23,35.23l0.48-.05a0.68,0.68,0,0,1,.52-0.35,0.37,0.37,0,0,0,0,.14,0.54,0.54,0,0,0,.35.53,1,1,0,0,0,.36,0A0.55,0.55,0,0,0,33.29,35a0.42,0.42,0,0,0,0-.07l0.1,0,0.29,0.3a0.69,0.69,0,0,0,.47,0c0-.05-0.51-0.77-0.51-0.77-2.09-.37-2.37.84-2.37,0.84"/><path class="cls-4" d="M32.49,33.9L34,34s-0.18-.62-0.18-0.65h-0.4c-2.33-.14-2.53,1-2.53,1l0.28,0a1.4,1.4,0,0,1,1.29-.46"/><path class="cls-4" d="M36.94,50l-0.1,0c0.05,0,.08.07,0.1,0"/><path class="cls-4" d="M36.56,87.66a24,24,0,0,0,8-3.6c1.83,0.15,2.54-1.26,3.85-1.95A0.81,0.81,0,0,0,48,81.87a22.87,22.87,0,0,0,2-1.74,1,1,0,0,0-.65-0.2c1.23-.43.39-0.93,1.58-1.8A0.57,0.57,0,0,0,50.76,78c0.79-.52.74-1.24,1.45-2a1.16,1.16,0,0,0-.71-0.18c1.36-.43,1.23-1.37,2.08-2.25L53,73.49c0.73-.61.51-1.41,1.1-2.29a1.2,1.2,0,0,0-.82-0.1c1.21-.54,1-1.65,1.71-2.73a0.81,0.81,0,0,0-.53-0.14c1-.95-0.25-0.61.5-2.58a0.89,0.89,0,0,0-.78.06c1-.81.79-1.8,1.34-3-0.66-.12-2.12.91-2.54,1.74V64.29a2.1,2.1,0,0,1,.86-0.94c1.47-1.06.91-2,1.32-3.44a3.27,3.27,0,0,0-2.27,1.94c0-.1,0-0.18-0.06-0.26a2.15,2.15,0,0,1,1.05-1.26c1.26-.69.88-1.94,1.28-3.34a1.21,1.21,0,0,0-.71.17c0.28-.89-0.3-1.52-0.19-2.6-0.71,0-1.58,1.29-1.66,2.17a0.88,0.88,0,0,0-.22-0.35,1.85,1.85,0,0,1,.77-1.18c1.23-1.44.19-2.25,0.34-3.67a0.71,0.71,0,0,0-.39.11c-0.06-.71-0.58-1.17-0.65-2.08-0.73.08-1.38,1.41-1.28,2.28a1.52,1.52,0,0,0-.33-0.35,2,2,0,0,1,.65-1.23c0.68-1.39,0-2.08-.1-3.46a1.11,1.11,0,0,0-.65.32c0-.9-0.51-1.33-0.8-2.35a1.79,1.79,0,0,0-1.06,1.36,3,3,0,0,1,.17-1c0-1.82-.72-2-1.31-3.4a2,2,0,0,0-.56,1.05c-0.21-1.22-.71-1.53-1.36-2.67a3.1,3.1,0,0,0-.47,2.39,1.77,1.77,0,0,1-.05-1.12c-0.16-1.46-.88-1.91-1.57-2.78a2.21,2.21,0,0,0,1.12-.43,2.32,2.32,0,0,1-1-.12c-0.37-.16-0.6-0.57-1-0.73A4.37,4.37,0,0,1,41.54,37l3.58-.75-3.53-.69a1,1,0,0,1,.6-0.27,1.4,1.4,0,0,0,1.11-.35,1.73,1.73,0,0,1,1.62-.63,1.87,1.87,0,0,0-2-.06c-0.5.31-.74,0.05-1.55,0.07,0,0,3-1.86,3-1.9l-3.54.74c0.56-.87,1.11-0.46,1.44-1.51a2.36,2.36,0,0,1,1.12-1c-0.65-.19-1.33.24-2.05,1a8.21,8.21,0,0,1-1.21.44s2-3,2-3-2.05,1.44-3,2v0c0.13-.8.67-0.69,0.8-1.56a2,2,0,0,1,.65-1.66,2.13,2.13,0,0,0-1.5,1.66,8.07,8.07,0,0,1-1,.91s0.7-3.52.7-3.52l-2,3a0.46,0.46,0,0,1-.11-0.44,2,2,0,0,0,.23-1.2,1.86,1.86,0,0,1,0-1.87C35.75,27,36.29,28,36,28.71a8.85,8.85,0,0,1-.52.93l-0.54-3.49L34.2,29.64a3.27,3.27,0,0,1-.4-1.34c-0.33-.66-0.89-0.53-0.92-2-0.24.53-.51,0.85,0.11,2.29,0.1,0.15-.09.8,0,1.26l-2-3,0.72,3.52c-0.44,0-.57-0.8-0.92-1.11S29.57,29,29.2,27.84a1.88,1.88,0,0,0,.87,1.94,3.89,3.89,0,0,1,.54,1.32l-3-2,2,3c-0.69.09-.71-0.81-2-0.77a1.92,1.92,0,0,1-1.27-.63c0.41,1.53,1.5,1.08,1.9,1.71a9,9,0,0,1,.65.74l-3.49-.74,3,1.91c-0.53.29-1.18-.41-1.81-0.06a1.71,1.71,0,0,1-1.8,0,1.83,1.83,0,0,0,1.85.73,3.43,3.43,0,0,1,1.51.54l-3.55.7,3.51,0.66c-0.42.4-1.1,0.11-1.58,0.53a2,2,0,0,1-1.74.75,1.77,1.77,0,0,0,1.93.26,5.12,5.12,0,0,0-.9.86,1.07,1.07,0,0,0-.3-0.62c-0.65,1-1.51,1.08-1.78,2.34a1.49,1.49,0,0,0-.35-0.78c-0.6,1.08-1.26,1.25-1.51,2.42A1.09,1.09,0,0,0,21.54,42C21,43.39,20,43.68,20.29,45.5a1.93,1.93,0,0,1,.11,1A1.68,1.68,0,0,0,19.48,45a5.64,5.64,0,0,0-1,2.22A1,1,0,0,0,18,47c-0.11,1.36-1.19,1.83-.17,3.44a1.68,1.68,0,0,1,.53,1.29,0.57,0.57,0,0,0-.18.21c0.07-.84-0.67-2.14-1.38-2.21-0.09,1-.58,1.47-0.5,2.3a1,1,0,0,0-.48-0.15c0.15,1.39-.88,2,0.41,3.36A1.76,1.76,0,0,1,17,56.36a0.91,0.91,0,0,0-.22.35c-0.08-.86-1-2.06-1.64-2.06,0.14,1.53-.62,1.47-0.16,2.52A1.42,1.42,0,0,0,14.24,57c0.39,1.38-.05,2.5,1.28,3.29a2.26,2.26,0,0,1,1,1.21,0.57,0.57,0,0,0-.08.27,3.2,3.2,0,0,0-2.24-1.92c0.38,1.2.14,2.32,0.85,3a1.75,1.75,0,0,0-1.2-.29c0.64,1.37.29,2.1,1.54,3.26a1.31,1.31,0,0,0-1.08-.15c0.35,0.94.24,1.65,0.58,2.31a1.43,1.43,0,0,0-.53.11c0.69,1.12.46,2,1.56,2.68a1,1,0,0,0-.65.11c0.5,0.8.53,1.5,0.92,2.13a0.77,0.77,0,0,0-.42.18c0.85,0.82.87,1.7,1.83,2.2a1,1,0,0,0-.62.17c0.67,0.69.92,1.35,1.54,1.85a1,1,0,0,0-.66.26c1,0.71,1.06,1.49,2.13,1.87a1.14,1.14,0,0,0-.67.19c1.24,1,.43,1.35,1.59,1.8a0.48,0.48,0,0,0-.21.17C22.05,82.42,22.19,84,25.07,84h0c1.37,1.49,5.09,3.25,7.83,3.6ZM54.21,66.4c-0.33.9,0,1.46-.78,2.11a0.81,0.81,0,0,0-.67.44,2.31,2.31,0,0,1,.41-0.88,1.44,1.44,0,0,0-.56.56A1.34,1.34,0,0,1,52,68c-0.4-.77-0.13-1.06-0.23-1.83a8.93,8.93,0,0,1,1.08,1.75,2.33,2.33,0,0,1,1.4-1.49m-1.48.47a2.14,2.14,0,0,1,.79-0.72,2.59,2.59,0,0,0-.76,1,2,2,0,0,0,0-.29m1.87-3.54c-0.43,1-.11,1.41-1,2.22a1.26,1.26,0,0,0-.73.58,3,3,0,0,1,.5-0.93,2.54,2.54,0,0,0-.65.67,0.84,0.84,0,0,1-.61-0.49c-0.35-.64,0-1-0.09-1.71a5.21,5.21,0,0,1,1,1.44,3.81,3.81,0,0,1,1.62-1.78m-1.6-.8a3.47,3.47,0,0,1,1.33-1.95c-0.26,1,.14,1.39-0.65,2.28a1.12,1.12,0,0,0-.63.68,2.66,2.66,0,0,1,.33-1,2.67,2.67,0,0,0-.53.74,0.89,0.89,0,0,1-.73-0.39c-0.44-.57-0.21-1-0.37-1.62A5,5,0,0,1,53,62.53m-1-2.09a2.91,2.91,0,0,1,.71.89,4.5,4.5,0,0,0-.7-0.58c0-.09,0-0.2,0-0.31m2.37-2.79c-0.24,1,.16,1.37-0.64,2.21a1.18,1.18,0,0,0-.64.62,2.42,2.42,0,0,1,.33-0.92,2,2,0,0,0-.53.69,1.13,1.13,0,0,1-.73-0.44c-0.48-.59-0.22-0.93-0.4-1.62A5.6,5.6,0,0,1,53,59.48a3.17,3.17,0,0,1,1.33-1.83m-1.47-.24a3,3,0,0,1,1-2c-0.08,1,.42,1.31-0.22,2.24a1.18,1.18,0,0,0-.54.69,2.31,2.31,0,0,1,.18-1,1.67,1.67,0,0,0-.42.75,1.08,1.08,0,0,1-.81-0.34c-0.6-.49-0.41-0.86-0.72-1.5a6.09,6.09,0,0,1,1.53,1.09m-2,13c0-.15.1-0.34,0.14-0.52A0.15,0.15,0,0,0,51,70c0.37,1.17.67,1.23,0.57,2a0.46,0.46,0,0,0-.06.11,3,3,0,0,0-.67-1.72m-1.41,5.83A3.29,3.29,0,0,0,49,75a3.49,3.49,0,0,1,.2-0.36,4.81,4.81,0,0,1,.23,1.53m1.17-.27a2.9,2.9,0,0,0-1.22.66s0-.08,0-0.12a2.82,2.82,0,0,1,1.17-.53M48.34,74.3a10,10,0,0,1-6.6-1.93A2.76,2.76,0,0,0,42,70.45c-0.09-.47-0.09-0.07-0.22.21a2.23,2.23,0,0,1-1,1.23A8.46,8.46,0,0,0,38.2,70a12.44,12.44,0,0,1-1.63-1.24c-1,.46-2.47,1.33-3.22.8-0.64-.31.72-0.68,1.27-1.53a1.59,1.59,0,0,1,1.82-.65,24.63,24.63,0,0,1,4.45,1.82c2.7,0.2,4.7,1,7.44,1.6a8,8,0,0,0,1.45.22,19.82,19.82,0,0,1-1.44,3.29M36.48,71.35c0.82,0.91,1.54,1.08,2,2.18a0.53,0.53,0,0,1-.8.21c-1.21-1.37-2.34-1.57-1.89-2.2a0.43,0.43,0,0,0-.39.51c0.21,1,1.31,1.34,1.61,2.17-0.14.67-1.44,0.08-2.06-1.61l0-.08c-0.24.48-.45,0.66,0.42,1.69,0.2,0.38.32,0.81-.34,0.73,0.12,0.11-.32,0-0.12,0H35a0.19,0.19,0,0,0-.13-0.07,1,1,0,0,0-1.18-1.34c0.23-.61-0.64-1.21-1.52-0.82,0.13-.45-0.8-1.16-2.09-0.66-0.19-.45-1.33-0.91-2.43.45-1.95.18-5.13,1.9-7.06,1-0.07.07-1.21-3.15-1.26-3.23,2.26-.22,7.34-0.57,9.15-1.32,1.42-.92,4.07-1.38,4.69-1,0,0.49-1.19,1.41-.59,1.89,1,0.94,2.58.5,3.67-.13,1.12,1.14,2.93,1.3,3.63,2.84L39.72,73c-0.38.27-.41,0.27-0.84-0.35-1.08-1.43-2.1-1.11-2.28-2.09-0.38.12-.12,0.55-0.12,0.78m-5.21,2.92c-0.4.18,0.18-.23,0.31-0.32l0.17-.21c0.34-.32.8-0.73,1.12-0.1,0.18,0.4-1.16,1.16-1.37,1.23a0.28,0.28,0,0,1-.42-0.13,0.3,0.3,0,0,1,.19-0.47m-1.17-.12A0.43,0.43,0,0,1,29.55,74,1.3,1.3,0,0,1,30,73.16a0.63,0.63,0,0,1,.31-0.2l0.24-.23c0.51-.07.45,0,0.55,0.23a2.17,2.17,0,0,1-1,1.19m3.24,0.21s0.53-.58.77,0.23c0.09,0.32-.5.69-1,0.84-0.31-.15-0.94-0.12.25-1.06m-4.59-1.12c-0.2.08-.55-0.29-0.36-0.38l0.22-.42c0.36-.14.59-0.31,0.72-0.14a1.26,1.26,0,0,1-.58.93m-8.56,1.39L20,75a3.05,3.05,0,0,0,.12-0.51,0.4,0.4,0,0,1,.07.14m-0.38,1.53a2.3,2.3,0,0,0-.75-0.48,3.77,3.77,0,0,1,.7.3,1.77,1.77,0,0,0,0,.19m-1.93-4.4a0.25,0.25,0,0,0,0-.07c-0.11-.82.17-0.87,0.53-2,0,0.15.08,0.29,0.12,0.44a2.7,2.7,0,0,0-.6,1.61m0.17-16.05L17.5,56c0.14-.14.34-0.24,0.61-0.47a0.85,0.85,0,0,1-.05.2m0.15,6.82H33.83v4.59a9.86,9.86,0,0,0-3,0C28,67.65,28.93,69.06,19,69.2a25.54,25.54,0,0,1-.82-6.67m9.68-22.72A1.08,1.08,0,0,0,28.32,39c0.39-1.24,1.07-1.09,1.93-1.67,0.29,0.38-.75,1.76-1.4,2.18a5.11,5.11,0,0,1,1.57.66c-0.69.11-1,.47-1.66,0.25a0.91,0.91,0,0,1-.59-0.54,2.72,2.72,0,0,0,.55-0.73,2.78,2.78,0,0,1-.82.63m11.95-.4A2,2,0,0,1,39,39.22a4.35,4.35,0,0,0,1.07-.45,1.35,1.35,0,0,1,1.29,1c-0.57-.17-0.68.2-1.53,0.35S38.7,39.88,38,39.72a0.56,0.56,0,0,1-.28-0.42,2.88,2.88,0,0,0,1,0l0,0.1a1.77,1.77,0,0,0,1.09,0m-2.51-1a1.89,1.89,0,0,0,1-.22,2.62,2.62,0,0,1-.75,0,2.43,2.43,0,0,1,1.45-.67c0.88,0,.88.52,1.4,0.25,0.06,0.47-2.48,1.61-3.13.63m-1.23-.15a6.31,6.31,0,0,1,1.3,1.32c-0.66-.21-1,0-1.61-0.49a1.07,1.07,0,0,1-.42-0.74A1.62,1.62,0,0,0,36,37.86a2.26,2.26,0,0,1-.92.29,1,1,0,0,0,.59-0.6c0.8-.76,1.21-0.34,2.15-0.54a2.91,2.91,0,0,1-1.78,1.25m-2,.18a5.27,5.27,0,0,1,1.46,1,2.78,2.78,0,0,1-1.61-.14,1,1,0,0,1-.55-0.64A2,2,0,0,0,34,38.05a2.19,2.19,0,0,1-.86.45,1.09,1.09,0,0,0,.51-0.71c0.69-.9,1-0.54,1.91-1a2.82,2.82,0,0,1-1.46,1.58m-1.4,1.24c-0.68,0-1,.33-1.63,0a1,1,0,0,1-.56-0.56A1.8,1.8,0,0,0,31,38.43a2.37,2.37,0,0,1-.84.55,1.12,1.12,0,0,0,.49-0.75c0.67-1,1.14-.68,2-1.16a3.53,3.53,0,0,1-1.54,1.71,5,5,0,0,1,1.51.89m11.29,3.26a1.84,1.84,0,0,0,.26,0C44.12,43,44.07,43,44,43a0.16,0.16,0,0,1-.06-0.06m5.77,7.95a4.41,4.41,0,0,0,.42.26c-0.13,0-.25-0.1-0.37-0.13a1.07,1.07,0,0,1-.05-0.14M41.47,68.35c-1.54-.3-3.57-2-5.86-1.91V62.53H51.16a36,36,0,0,1-1.1,7.5c-3.13,0-6.06-1.77-8.6-1.68m9.78-12.81c0.25,0.21.48,0.34,0.64,0.5a4.45,4.45,0,0,0-.58-0.3c0-.08,0-0.13-0.06-0.2m1.82-3c-0.06,1,.44,1.31-0.2,2.22a1.08,1.08,0,0,0-.53.65,2.38,2.38,0,0,1,.15-0.94,2.26,2.26,0,0,0-.4.72,1,1,0,0,1-.82-0.33c-0.61-.54-0.4-0.89-0.7-1.55a7.22,7.22,0,0,1,1.52,1.15,2.86,2.86,0,0,1,1-1.92m-1.52-.09a2.6,2.6,0,0,1,.59-2c0.13,1,.69,1.25.23,2.21a0.93,0.93,0,0,0-.39.72,2.4,2.4,0,0,1,0-1,1.63,1.63,0,0,0-.26.79A1.09,1.09,0,0,1,50.81,53c-0.71-.44-0.59-0.84-1-1.44a7.92,7.92,0,0,1,1.75,1M50.8,47.7c0.1,1,.67,1.26.2,2.22a0.78,0.78,0,0,0-.39.7,2.45,2.45,0,0,1,0-1,1.62,1.62,0,0,0-.26.76,1.17,1.17,0,0,1-.88-0.28c-0.69-.44-0.58-0.83-1-1.44a7.37,7.37,0,0,1,1.74,1,2.5,2.5,0,0,1,.62-2m-1.3-2c0.3,0.94.89,1.18,0.63,2.18a0.85,0.85,0,0,0-.27.75,2.39,2.39,0,0,1-.2-0.95,1.34,1.34,0,0,0-.1.79,1.14,1.14,0,0,1-.91-0.14A3.93,3.93,0,0,1,47.35,47a8.86,8.86,0,0,1,1.91.77,2.47,2.47,0,0,1,.24-2.06m-0.69,1.5a1.26,1.26,0,0,0-.49-0.36,1.54,1.54,0,0,1,.47.27,0.48,0.48,0,0,0,0,.09M47.69,43c0.42,0.94.75,0.84,0.72,2a1.25,1.25,0,0,0-.05.94A2.75,2.75,0,0,1,48,45a2.56,2.56,0,0,0,.06.93,0.84,0.84,0,0,1-.78.11C46.56,45.86,46.51,45.4,46,45a4.84,4.84,0,0,1,1.75.26,3.16,3.16,0,0,1,0-2.24m-1.6.49a3.14,3.14,0,0,1-.23-2.14c0.52,0.86.85,0.68,0.94,1.85a1.23,1.23,0,0,0,0,.94,2.47,2.47,0,0,1-.45-0.94,2.34,2.34,0,0,0,.15.92,1,1,0,0,1-.78.22c-0.75-.05-0.85-0.51-1.44-0.85a4.52,4.52,0,0,1,1.78,0m-2.52-4.17c0.55,0.84,1.15.78,1.24,1.94a1.11,1.11,0,0,0,.05.88,2.51,2.51,0,0,1-.49-0.88,2.29,2.29,0,0,0,.18.88,1.09,1.09,0,0,1-.81.26c-0.76,0-.85-0.44-1.49-0.75a5.78,5.78,0,0,1,1.84-.08,3.24,3.24,0,0,1-.53-2.25m-0.4-.68c0,0.1-.06.23-0.08,0.36a1.61,1.61,0,0,0-.36-0.41c0.16,0,.31,0,0.43,0m-0.22.84a1.13,1.13,0,0,0,.2.93,0.79,0.79,0,0,0-.18,0,4.1,4.1,0,0,1-.55-0.72,1.85,1.85,0,0,0,.32.95,0.63,0.63,0,0,1-.53.21,1.83,1.83,0,0,1-1.45-.34,1.93,1.93,0,0,1,1.51-.4,0.76,0.76,0,0,0-.06-0.18l0,0,0,0a1.89,1.89,0,0,0-.52-0.67,2.1,2.1,0,0,1-.39-1.2c0.71,0.68,1.37.4,1.66,1.47m-0.59-1.62H41.6a2.89,2.89,0,0,1-.26-0.26,10.27,10.27,0,0,1,1,.26m-13.42-.63a2.4,2.4,0,0,0,.84-0.52l-2.16-.55,2.22-.46a4.24,4.24,0,0,0-1.36-.53,1.68,1.68,0,0,0-1.12-.56,2.89,2.89,0,0,1,1,.22A5.36,5.36,0,0,0,30,34.77a20.54,20.54,0,0,0-2.18-1.47s1.44,0.38,2.58.65c0-.12-0.91-0.81-1.51-1.54A3.65,3.65,0,0,0,28.55,32a3.25,3.25,0,0,1,1,.63,6,6,0,0,0,1.39.53c-0.65-.91-1.55-2.22-1.55-2.22l2.26,1.54a6.37,6.37,0,0,0-.55-1.26,4.44,4.44,0,0,0-.4-1.24,5,5,0,0,0,1.77,2L32,29.11l1.36,2.48a4.93,4.93,0,0,0,0-1.28,2.43,2.43,0,0,0,0-1.47,4.46,4.46,0,0,1,.23,1.1,12.13,12.13,0,0,0,.73,1.46l0.56-2.63s0.43,2.63.36,2.65c0.29-.55.25-0.86,0.54-1.28a5,5,0,0,0,.55-1.29c-0.21,1.09-.18.72-0.28,1.29a3.51,3.51,0,0,0,.15,1.44l1.62-2.34L37.15,32c0.18-.06.85-0.91,1.45-1.36A7.16,7.16,0,0,0,39.08,30a7.34,7.34,0,0,0-.68,1.17,11.14,11.14,0,0,0-.5,1.35l2.32-1.59L38.64,33.2a2.72,2.72,0,0,0,1.16-.52,4.59,4.59,0,0,0,1.45-.63A8.71,8.71,0,0,0,39.15,34l2.61-.54-2.28,1.37c0.12,0.14,1-.12,1.71,0a3.15,3.15,0,0,0,1.17-.06c-0.68.24-.87,0.11-1.62,0.4a5.38,5.38,0,0,0-1.05.58l2.62,0.48s-2.59.59-3,.76l-0.47,0a2,2,0,0,0-.34,0,0.93,0.93,0,0,0,.13-0.57c-0.88.22-1.7,0-2.39,0.15a0.68,0.68,0,0,0,0-.5c-1.09.49-2,.25-2.88,1a1.44,1.44,0,0,0-.14-0.72c-0.93.51-1.75,0.19-2.41,0.77a0.8,0.8,0,0,0,0-.48,6.12,6.12,0,0,0-2.48,1.23l-0.59-.08a0.33,0.33,0,0,0-.07-0.1,0.61,0.61,0,0,0-.09.1,2.06,2.06,0,0,0-.46,0,11.76,11.76,0,0,0,1.85-.57m-3.1,3.11c0.29-1,.86-0.91,1.52-1.57a2.83,2.83,0,0,1-.84,2,6.81,6.81,0,0,1,1.81.41c-0.66.18-.82,0.55-1.59,0.45A1.19,1.19,0,0,1,26,41.25a1.73,1.73,0,0,0,.29-0.79,2.08,2.08,0,0,1-.61.72,1,1,0,0,0,.17-0.84m1.41,0.14a0.18,0.18,0,0,0-.08,0,0,0,0,0,1,0,0h0.06Zm-3.06,1.23c0.12-1.14.66-1.07,1.23-1.9A3.21,3.21,0,0,1,24.89,42a4.85,4.85,0,0,1,1.8.11c-0.61.28-.71,0.71-1.46,0.73a1,1,0,0,1-.78-0.26,2.53,2.53,0,0,0,.18-0.86,2.94,2.94,0,0,1-.47.86,1.17,1.17,0,0,0,0-.88m-0.46.94a3.11,3.11,0,0,1-.13.43,0.06,0.06,0,0,1,0,0,2.32,2.32,0,0,0,.16-0.46m-1.44.61c0.11-1.18.43-1.07,0.95-1.91A3.13,3.13,0,0,1,23,43.52a4.73,4.73,0,0,1,1.74,0c-0.58.36-.67,0.8-1.4,0.85a1.12,1.12,0,0,1-.78-0.19,2.62,2.62,0,0,0,.15-0.9,2.25,2.25,0,0,1-.44.9,1.2,1.2,0,0,0,0-.9m-0.8-.1a3.41,3.41,0,0,1-.07,2.26,4.82,4.82,0,0,1,1.72-.26c-0.54.43-.61,0.89-1.29,1a0.9,0.9,0,0,1-.77-0.1,2.43,2.43,0,0,0,.07-0.91,3.05,3.05,0,0,1-.35,1,1.21,1.21,0,0,0-.06-0.9c0-1.2.32-1.15,0.75-2.1m-1.14,4.08A2.84,2.84,0,0,1,20.69,47a1.13,1.13,0,0,0-.35.28s0,0,0-.06m-0.71-1.37a2.29,2.29,0,0,1,.23,2,7.72,7.72,0,0,1,1.87-.78,3.85,3.85,0,0,1-1.24,1.31,1.26,1.26,0,0,1-.9.15,1.8,1.8,0,0,0-.12-0.78,2,2,0,0,1-.21.92A0.7,0.7,0,0,0,19,48c-0.28-1,.34-1.22.61-2.12M18.18,50c-0.47-.95.08-1.24,0.19-2.18A2.45,2.45,0,0,1,19,49.77a9.94,9.94,0,0,1,1.7-1c-0.41.61-.29,1-1,1.47a1.4,1.4,0,0,1-.86.27,1.53,1.53,0,0,0-.25-0.75,2.11,2.11,0,0,1,0,.93A0.75,0.75,0,0,0,18.18,50m1.43,0.87a1.58,1.58,0,0,1-.09.24,4.35,4.35,0,0,0-.77.32,5.9,5.9,0,0,1,.87-0.56m-2.39-.35a2.52,2.52,0,0,1,.6,2,7,7,0,0,1,1.7-.92c-0.41.57-.3,1-1,1.4a1.4,1.4,0,0,1-.86.24,2,2,0,0,0-.24-0.78,2.17,2.17,0,0,1,0,.93A0.84,0.84,0,0,0,17,52.69c-0.46-.94.11-1.21,0.21-2.16m-0.71,4.26c-0.61-.88-0.13-1.24-0.2-2.18a2.73,2.73,0,0,1,1,1.88,6.63,6.63,0,0,1,1.49-1.15c-0.29.66-.12,1-0.71,1.54a1,1,0,0,1-.8.33,1.69,1.69,0,0,0-.39-0.72,2.19,2.19,0,0,1,.16.94,0.85,0.85,0,0,0-.52-0.65m-1,.63a2.77,2.77,0,0,1,1,1.93A7.4,7.4,0,0,1,18,56.27c-0.29.64-.11,1-0.69,1.51a1,1,0,0,1-.81.3,1.76,1.76,0,0,0-.4-0.73,2.49,2.49,0,0,1,.18.94,1,1,0,0,0-.53-0.67c-0.62-.91-0.14-1.26-0.23-2.2m1,4.71a2.21,2.21,0,0,0-.53-0.7,2.41,2.41,0,0,1,.34.93,1.37,1.37,0,0,0-.63-0.6c-0.78-.84-0.46-1-0.71-2a3.09,3.09,0,0,1,1.4,1.65,5.48,5.48,0,0,1,1.24-1.3c-0.18.68,0.09,1-.39,1.59a1,1,0,0,1-.73.42m0.9,0.17v0.33a3.37,3.37,0,0,0-.71.58,3.4,3.4,0,0,1,.71-0.91M15,60.63a3.43,3.43,0,0,1,1.4,1.75,5.19,5.19,0,0,1,1.21-1.25c-0.15.65,0.09,1-.36,1.6a1,1,0,0,1-.7.39A2.34,2.34,0,0,0,16,62.41a2.88,2.88,0,0,1,.34.94,1.25,1.25,0,0,0-.63-0.66C15,61.85,15.27,61.62,15,60.63m1.4,3.48v0.11a3.88,3.88,0,0,0-.87-1,1.86,1.86,0,0,1,.87.93m-1.51-.69a3.18,3.18,0,0,1,1.54,1.5,4.9,4.9,0,0,1,1-1.42c0,0.71.27,1.06-.09,1.68a0.83,0.83,0,0,1-.59.48A3,3,0,0,0,16.07,65a2.83,2.83,0,0,1,.48.93,1.24,1.24,0,0,0-.71-0.57c-1.37-1.2.08,0.4-1-1.92m1.78,3.28c0,0.06,0,.14,0,0.22a2.64,2.64,0,0,0-.89-1,4,4,0,0,1,.92.75m-0.07.94a8.31,8.31,0,0,1,1-1.73,3.73,3.73,0,0,1-.22,1.78,1.46,1.46,0,0,1-.63.68,1.52,1.52,0,0,0-.57-0.56,2.16,2.16,0,0,1,.42.87A0.85,0.85,0,0,0,16,68.22c-0.81-.62-0.44-0.92-0.78-1.81a2,2,0,0,1,1.37,1.23m-1.23.86a2.47,2.47,0,0,1,1.68,1.2,6.84,6.84,0,0,1,.76-1.82c0,0.73.35,1,.07,1.72a1.25,1.25,0,0,1-.53.77,1.42,1.42,0,0,0-.66-0.46,2.26,2.26,0,0,1,.56.75,0.87,0.87,0,0,0-.75-0.29c-0.92-.51-0.66-1.05-1.14-1.87M18,72.44a7,7,0,0,1,.73-1.8c0,0.71.37,0.94,0.1,1.72a1.2,1.2,0,0,1-.51.71,2.06,2.06,0,0,0-.67-0.44,2.57,2.57,0,0,1,.57.75,0.93,0.93,0,0,0-.76-0.29c-1-.46-0.68-1-1.19-1.83A2.55,2.55,0,0,1,18,72.44m-1.13,1a2.79,2.79,0,0,1,2,.89,6.57,6.57,0,0,1,.45-1.86c0.17,0.7.54,0.87,0.4,1.64a1.06,1.06,0,0,1-.4.78,1.33,1.33,0,0,0-.75-0.32,2.17,2.17,0,0,1,.7.63A0.93,0.93,0,0,0,18.41,75c-1-.29-0.89-0.87-1.54-1.57m1.2,2.42a2.93,2.93,0,0,1,2,1,5.71,5.71,0,0,1,.51-1.8c0.13,0.69.51,0.86,0.35,1.62a1.08,1.08,0,0,1-.44.74A2,2,0,0,0,19.7,77a2.33,2.33,0,0,1,.71.65,0.94,0.94,0,0,0-.83-0.2c-1.05-.35-0.85-0.91-1.51-1.63m0.94,2a3.26,3.26,0,0,1,2.18.63,5.11,5.11,0,0,1,.19-1.78c0.27,0.64.68,0.78,0.67,1.5a1.05,1.05,0,0,1-.33.77,2,2,0,0,0-.83-0.21,1.92,1.92,0,0,1,.8.51,1,1,0,0,0-.86-0.09c-1.12-.17-1-0.73-1.82-1.33m3.06,2a1.91,1.91,0,0,0,.1.31,2.57,2.57,0,0,0-1.1-.51,2.86,2.86,0,0,1,1,.2M20.3,80a3.41,3.41,0,0,1,2.19.79,4.83,4.83,0,0,1,.26-1.75c0.26,0.64.68,0.8,0.62,1.53a0.9,0.9,0,0,1-.33.74A2.06,2.06,0,0,0,22.19,81a2.3,2.3,0,0,1,.83.58,1.19,1.19,0,0,0-.89-0.16c-1.13-.26-1-0.81-1.83-1.44m4.93,3.5a0.9,0.9,0,0,0-.92-0.28c-1.2-.12-1.51-0.88-2.41-1.38a3.83,3.83,0,0,1,2.34.46,4.77,4.77,0,0,1-.07-1.69c0.38,0.58.83,0.67,0.91,1.39a8.75,8.75,0,0,0,.22,1.27,2.33,2.33,0,0,0-.64-0.43,2.57,2.57,0,0,1,.57.67M23.8,81.76v0h0Zm7.72,4.84c-2.61-.79-4.88-2-5.47-2.93a8.14,8.14,0,0,1-.41-1.8s0,0,0-.06a14.88,14.88,0,0,0,6.05,3.24H31.48c-0.73.9-.34,1.35,0,1.54m3.09-2.12c-7.18-.15-11.42-6-13-8.84-0.26-.33,4.08-1.7,5.06-2l1.2-.3c0,0.54,1,.71.9,0.5,0.22,0.12-.07.45,0.47,0.86s0.94,0.17,1,.06c-0.35.38,0.89,1,1.62,0.59-0.1.36,0.51,0.5,0.64,0.5a1.49,1.49,0,0,0,1.37,0v4c0.07,0.74.11,0.92,0.45,1C35.87,81,35.54,80.51,35.7,80c-0.05-1.7-.09-4.15-0.09-4.15a2.12,2.12,0,0,0,1.23-.5,0.93,0.93,0,0,0,1.11-.49,1.09,1.09,0,0,0,1.25-.6c0.48,0.17,1.17-.3,1.56-1.18,1.06,0.34,4.93,2.39,6.71,3-0.81,1.33-5.27,8.41-12.87,8.41m12.47-4.16a1.59,1.59,0,0,1,.62-0.15,3.27,3.27,0,0,0-.7.35,0.72,0.72,0,0,0,.08-0.2M45.3,82.11a0,0,0,0,0,0,0,0,0,0,0,1,0,0m-1.87.08c-0.13.68-.19,1.17-0.32,1.63-0.66,1.23-4,2.31-5.35,2.76a1,1,0,0,0,.07-1.53H37.72a15.33,15.33,0,0,0,5.75-2.94,0.09,0.09,0,0,0,0,.08m1.64,1.19a1.28,1.28,0,0,0-1.14.4A3.6,3.6,0,0,1,44.61,83a2.45,2.45,0,0,0-.7.33,8.07,8.07,0,0,1,.06-1c0.09-.71.57-0.8,1-1.41a4.5,4.5,0,0,1-.11,1.76,4,4,0,0,1,2.41-.45c-0.93.5-.94,1.08-2.15,1.15M47,81.81a1.3,1.3,0,0,0-.9.16,3.75,3.75,0,0,1,.85-0.58,2.25,2.25,0,0,0-.86.3,1,1,0,0,1-.32-0.77c0-.74.39-0.89,0.66-1.52a5.18,5.18,0,0,1,.22,1.78,3.56,3.56,0,0,1,2.25-.79c-0.81.65-.73,1.21-1.9,1.43m1.34-2.12a1.1,1.1,0,0,0-.89.12,2.61,2.61,0,0,1,.84-0.55,2,2,0,0,0-.85.24,1.14,1.14,0,0,1-.31-0.8c0-.77.39-0.88,0.68-1.52A6.16,6.16,0,0,1,48,79a2.94,2.94,0,0,1,2.18-.64c-0.79.59-.69,1.16-1.85,1.34m1.27-1.77a1,1,0,0,0-.83.23,2.13,2.13,0,0,1,.71-0.66,1.81,1.81,0,0,0-.77.34,1.15,1.15,0,0,1-.46-0.75c-0.17-.78.22-1,0.38-1.65a6.91,6.91,0,0,1,.51,1.84,2.82,2.82,0,0,1,2-1c-0.64.72-.47,1.3-1.54,1.64M51,75.42a0.91,0.91,0,0,0-.82.2A2.47,2.47,0,0,1,50.87,75a2,2,0,0,0-.78.34,1.27,1.27,0,0,1-.41-0.81c-0.14-.79.26-1,0.41-1.66a6.24,6.24,0,0,1,.46,1.88,2.7,2.7,0,0,1,2-.88c-0.66.7-.5,1.3-1.55,1.58m1-2a0.83,0.83,0,0,0-.75.3A2.15,2.15,0,0,1,51.73,73a1.55,1.55,0,0,0-.67.45,1.28,1.28,0,0,1-.52-0.73c-0.28-.78.07-1,0.1-1.77a8.31,8.31,0,0,1,.76,1.83,2.83,2.83,0,0,1,1.75-1.2c-0.52.82-.25,1.43-1.23,1.88m0.21-1.92a1,1,0,0,1,.44-0.23,1.77,1.77,0,0,0-.44.23m0.76-.87a1,1,0,0,0-.75.31,2.21,2.21,0,0,1,.57-0.75,1.62,1.62,0,0,0-.67.43,1.21,1.21,0,0,1-.55-0.72c-0.28-.8.06-1.05,0.08-1.78A8.66,8.66,0,0,1,52.36,70a2.42,2.42,0,0,1,1.7-1.24c-0.49.83-.22,1.42-1.17,1.89"/><path class="cls-5" d="M28.93,37.23a2.76,2.76,0,0,0,.86-0.52l-2.18-.55,2.22-.46a4.27,4.27,0,0,0-1.36-.53,1.68,1.68,0,0,0-1.12-.55,2.88,2.88,0,0,1,1,.22A5.39,5.39,0,0,0,30,34.77a20.36,20.36,0,0,0-2.18-1.48s1.44,0.38,2.58.65c0-.12-0.91-0.81-1.51-1.54A3.51,3.51,0,0,0,28.55,32a3.25,3.25,0,0,1,1,.63,6,6,0,0,0,1.39.53c-0.65-.91-1.55-2.22-1.55-2.22l2.27,1.54a6.41,6.41,0,0,0-.55-1.26,4,4,0,0,0-.4-1.24,5,5,0,0,0,1.79,2L32,29.11l1.36,2.48a3.81,3.81,0,0,0,0-1.28,2.35,2.35,0,0,0,0-1.47,4.47,4.47,0,0,1,.23,1.1,12.15,12.15,0,0,0,.74,1.46l0.56-2.63s0.43,2.63.37,2.65c0.29-.55.25-0.86,0.53-1.28a4.78,4.78,0,0,0,.55-1.29c-0.21,1.09-.18.72-0.28,1.29a3.84,3.84,0,0,0,.15,1.44l1.62-2.34L37.15,32c0.18-.06.85-0.91,1.45-1.36,0.17-.18.5-0.63,0.5-0.63a6.09,6.09,0,0,0-.7,1.17,11.1,11.1,0,0,0-.5,1.35l2.32-1.59L38.64,33.2a2.72,2.72,0,0,0,1.16-.52,4.59,4.59,0,0,0,1.45-.63A8.68,8.68,0,0,0,39.15,34l2.61-.54-2.28,1.37c0.12,0.14,1-.12,1.71,0a3.17,3.17,0,0,0,1.17-.06c-0.68.24-.87,0.11-1.6,0.4a5.14,5.14,0,0,0-1.06.58l2.63,0.48s-2.59.59-3,.76a4.33,4.33,0,0,0-.47,0,1.91,1.91,0,0,0-.34,0,1,1,0,0,0,.13-0.57c-0.88.22-1.7,0-2.39,0.15a0.68,0.68,0,0,0,0-.5c-1.09.49-2,.26-2.88,1a1.52,1.52,0,0,0-.13-0.72c-0.94.51-1.76,0.19-2.42,0.77a0.89,0.89,0,0,0,0-.5,6.49,6.49,0,0,0-2.49,1.25l-0.59-.08a0.65,0.65,0,0,0-.07-0.1,0.56,0.56,0,0,0-.09.1,2.12,2.12,0,0,0-.46,0,11.61,11.61,0,0,0,1.85-.57"/><path class="cls-4" d="M38.36,34.42h0.27s-0.17-1.22-2.35-1.08H35.77S35.54,34,35.54,34L37,33.93a1.52,1.52,0,0,1,1.34.49"/><path class="cls-4" d="M36,35.23a2.7,2.7,0,0,1,.34-0.37h0.07a0.47,0.47,0,0,0,0,.15,0.54,0.54,0,0,0,.34.53,2.31,2.31,0,0,0,.38,0A0.56,0.56,0,0,0,37.41,35a0.46,0.46,0,0,0,0-.15,0.77,0.77,0,0,1,.54.37l0.46,0S38.1,34.12,36,34.43a8.9,8.9,0,0,0-.51.8,1,1,0,0,0,.45,0"/><path class="cls-4" d="M31.23,35.23l0.48-.05a0.72,0.72,0,0,1,.52-0.35,0.37,0.37,0,0,0,0,.14,0.54,0.54,0,0,0,.35.53,1.08,1.08,0,0,0,.37,0A0.56,0.56,0,0,0,33.29,35a0.42,0.42,0,0,0,0-.07l0.1,0s0.29,0.28.29,0.3a0.69,0.69,0,0,0,.47,0c0-.05-0.5-0.77-0.5-0.77-2.1-.37-2.38.84-2.38,0.84"/><path class="cls-4" d="M32.49,33.9L34,34s-0.18-.62-0.18-0.65h-0.4c-2.33-.14-2.53,1-2.53,1h0.28a1.34,1.34,0,0,1,1.28-.46"/><path class="cls-6" d="M54.24,66.4c-0.34.91,0,1.48-.81,2.11a0.81,0.81,0,0,0-.65.44,2.09,2.09,0,0,1,.4-0.88,1.53,1.53,0,0,0-.56.56A1.28,1.28,0,0,1,52,68a4.12,4.12,0,0,1-.25-1.82,10.11,10.11,0,0,1,1.09,1.74,2.37,2.37,0,0,1,1.42-1.49"/><path class="cls-6" d="M54.6,63.34c-0.4,1-.11,1.41-1,2.22a1.24,1.24,0,0,0-.72.6,2.77,2.77,0,0,1,.49-0.95,2.82,2.82,0,0,0-.64.67,0.82,0.82,0,0,1-.63-0.48c-0.35-.65,0-1-0.09-1.72a5.63,5.63,0,0,1,1,1.46,3.76,3.76,0,0,1,1.6-1.8"/><path class="cls-6" d="M53,62.53a3.66,3.66,0,0,1,1.35-1.95c-0.26,1,.12,1.39-0.66,2.28a1.23,1.23,0,0,0-.64.68,2.57,2.57,0,0,1,.35-1,2.49,2.49,0,0,0-.54.71,0.89,0.89,0,0,1-.71-0.39c-0.46-.57-0.2-1-0.38-1.62A4.94,4.94,0,0,1,53,62.53"/><path class="cls-6" d="M54.35,57.66c-0.26,1,.14,1.36-0.65,2.21a1.16,1.16,0,0,0-.64.62,2.46,2.46,0,0,1,.33-0.92,2.2,2.2,0,0,0-.54.69,1,1,0,0,1-.74-0.44c-0.46-.59-0.2-0.93-0.39-1.62A7.5,7.5,0,0,1,53,59.49a3.19,3.19,0,0,1,1.33-1.83"/><path class="cls-6" d="M52.88,57.41a3,3,0,0,1,1-2c-0.06,1,.42,1.31-0.21,2.24a1.06,1.06,0,0,0-.54.69,2.17,2.17,0,0,1,.18-1,1.73,1.73,0,0,0-.42.75,1,1,0,0,1-.81-0.34c-0.59-.48-0.39-0.86-0.71-1.5a6.48,6.48,0,0,1,1.53,1.09"/><path class="cls-6" d="M27.9,39.82A1.17,1.17,0,0,0,28.32,39c0.38-1.23,1.06-1.09,1.93-1.67,0.3,0.38-.75,1.76-1.42,2.18a4.75,4.75,0,0,1,1.59.69c-0.71.08-1,.45-1.66,0.22a1.05,1.05,0,0,1-.6-0.52,2.93,2.93,0,0,0,.55-0.75,2.45,2.45,0,0,1-.82.64"/><path class="cls-6" d="M39.84,39.41a2.3,2.3,0,0,1-.78-0.17,4.25,4.25,0,0,0,1.05-.47,1.39,1.39,0,0,1,1.3,1c-0.57-.17-0.68.2-1.53,0.34s-1.19-.27-1.87-0.4a0.66,0.66,0,0,1-.3-0.45,2.89,2.89,0,0,0,1,0l0,0.1a1.77,1.77,0,0,0,1.09,0"/><path class="cls-6" d="M37.34,38.43a2.12,2.12,0,0,0,1-.23,2.33,2.33,0,0,1-.73,0,2.33,2.33,0,0,1,1.43-.67c0.87,0,.88.52,1.42,0.26,0,0.45-2.48,1.61-3.15.63"/><path class="cls-6" d="M36.1,38.25a5.69,5.69,0,0,1,1.31,1.32c-0.65-.21-1,0-1.59-0.46a1.08,1.08,0,0,1-.43-0.75,1.9,1.9,0,0,0,.67-0.51,2.1,2.1,0,0,1-.92.29,0.92,0.92,0,0,0,.59-0.6c0.8-.76,1.21-0.34,2.15-0.54a2.89,2.89,0,0,1-1.78,1.25"/><path class="cls-6" d="M34.07,38.43a5.56,5.56,0,0,1,1.46,1c-0.69-.06-1,0.23-1.63-0.15a1.14,1.14,0,0,1-.53-0.64,2,2,0,0,0,.6-0.64,2.78,2.78,0,0,1-.86.48,1.32,1.32,0,0,0,.51-0.73c0.7-.89,1-0.54,1.92-1a2.93,2.93,0,0,1-1.47,1.59"/><path class="cls-6" d="M32.67,39.68c-0.69,0-1,.33-1.66,0a0.92,0.92,0,0,1-.56-0.56,2.06,2.06,0,0,0,.6-0.69,2.48,2.48,0,0,1-.86.55,1.12,1.12,0,0,0,.5-0.75c0.66-1,1.12-.68,2-1.16a3.39,3.39,0,0,1-1.55,1.71,6.68,6.68,0,0,1,1.52.89"/><path class="cls-6" d="M53.09,52.57c-0.06,1,.43,1.32-0.21,2.22a1,1,0,0,0-.53.66,2.35,2.35,0,0,1,.16-1,1.74,1.74,0,0,0-.39.77,1.25,1.25,0,0,1-.81-0.38c-0.63-.53-0.43-0.88-0.74-1.55a7.54,7.54,0,0,1,1.55,1.16,2.7,2.7,0,0,1,1-1.92"/><path class="cls-6" d="M51.56,52.48a2.58,2.58,0,0,1,.61-2c0.11,1,.68,1.25.2,2.22a0.87,0.87,0,0,0-.37.71,2.1,2.1,0,0,1,0-.94,1.79,1.79,0,0,0-.25.76A1.08,1.08,0,0,1,50.83,53c-0.7-.43-0.59-0.83-1-1.43a7.38,7.38,0,0,1,1.74.94"/><path class="cls-6" d="M50.8,47.71c0.12,1,.68,1.26.19,2.22a0.9,0.9,0,0,0-.39.7,2.25,2.25,0,0,1,0-.94,1.68,1.68,0,0,0-.26.75,1.32,1.32,0,0,1-.87-0.27c-0.7-.47-0.57-0.86-1-1.46a7.91,7.91,0,0,1,1.75,1,2.45,2.45,0,0,1,.61-2"/><path class="cls-6" d="M49.5,45.69c0.3,0.92.9,1.16,0.63,2.17a0.79,0.79,0,0,0-.25.74,2.2,2.2,0,0,1-.22-0.95,1.66,1.66,0,0,0-.11.82,1.42,1.42,0,0,1-.91-0.17c-0.79-.38-0.74-0.77-1.26-1.34a7.22,7.22,0,0,1,1.89.8,2.47,2.47,0,0,1,.22-2.07"/><path class="cls-6" d="M47.7,43c0.43,0.94.75,0.84,0.71,2.07a1.36,1.36,0,0,0-.05.94A3.6,3.6,0,0,1,48,45a2.21,2.21,0,0,0,.08.93,0.89,0.89,0,0,1-.79.11C46.57,45.88,46.52,45.4,46,45a5.45,5.45,0,0,1,1.75.26,3.27,3.27,0,0,1,0-2.24"/><path class="cls-6" d="M46.11,43.48a3,3,0,0,1-.23-2.14c0.51,0.86.85,0.68,0.92,1.87a1.26,1.26,0,0,0,0,.92,2.41,2.41,0,0,1-.46-0.92,2.27,2.27,0,0,0,.16.89,0.94,0.94,0,0,1-.79.22c-0.74-.05-0.84-0.51-1.43-0.84a5,5,0,0,1,1.79,0"/><path class="cls-6" d="M43.59,39.33c0.57,0.83,1.13.77,1.25,1.93a1.1,1.1,0,0,0,0,.88,2.88,2.88,0,0,1-.5-0.86,2.27,2.27,0,0,0,.19.86,1,1,0,0,1-.81.26c-0.76,0-.88-0.43-1.49-0.75a5.44,5.44,0,0,1,1.83-.07,3.25,3.25,0,0,1-.53-2.24"/><path class="cls-6" d="M43,39.51a1.08,1.08,0,0,0,.2.9,1.18,1.18,0,0,0-.17,0,4.92,4.92,0,0,1-.56-0.72,2.13,2.13,0,0,0,.32,1,0.66,0.66,0,0,1-.51.22,2,2,0,0,1-1.47-.36,1.91,1.91,0,0,1,1.51-.39,0.3,0.3,0,0,0-.06-0.17h0l0,0a1.67,1.67,0,0,0-.52-0.66A1.73,1.73,0,0,1,41.33,38c0.67,0.68,1.33.4,1.62,1.5"/><path class="cls-6" d="M25.85,40.36c0.29-1.06.85-.92,1.51-1.59a2.74,2.74,0,0,1-.83,2,5.52,5.52,0,0,1,1.81.4c-0.65.19-.83,0.59-1.58,0.46A1.09,1.09,0,0,1,26,41.25a2,2,0,0,0,.3-0.79,2.2,2.2,0,0,1-.62.73,1,1,0,0,0,.18-0.83"/><path class="cls-6" d="M24.2,41.71c0.12-1.12.68-1.07,1.24-1.89a3.45,3.45,0,0,1-.53,2.2,4.65,4.65,0,0,1,1.78.1c-0.61.28-.71,0.71-1.46,0.73a1,1,0,0,1-.79-0.27,2,2,0,0,0,.18-0.86,2.47,2.47,0,0,1-.47.87,1.16,1.16,0,0,0,0-.88"/><path class="cls-6" d="M22.33,43.27c0.09-1.2.4-1.07,0.93-1.93A3.24,3.24,0,0,1,23,43.53a5.31,5.31,0,0,1,1.76,0c-0.59.37-.69,0.81-1.41,0.87a1.17,1.17,0,0,1-.77-0.22,2.4,2.4,0,0,0,.14-0.9,2.05,2.05,0,0,1-.45.9,1.17,1.17,0,0,0,0-.88"/><path class="cls-6" d="M21.49,43.15a3.27,3.27,0,0,1-.07,2.26,5.11,5.11,0,0,1,1.74-.26c-0.55.44-.6,0.89-1.3,1.06a0.91,0.91,0,0,1-.79-0.12,2.1,2.1,0,0,0,.08-0.9,3.06,3.06,0,0,1-.34,1,1.28,1.28,0,0,0-.07-0.9c0-1.21.32-1.15,0.75-2.1"/><path class="cls-6" d="M19.66,45.86a2.31,2.31,0,0,1,.22,2,9.1,9.1,0,0,1,1.89-.78,4.09,4.09,0,0,1-1.25,1.32,1.63,1.63,0,0,1-.91.18,1.52,1.52,0,0,0-.11-0.81,2.13,2.13,0,0,1-.21,1A0.73,0.73,0,0,0,19,48c-0.26-1,.34-1.24.62-2.14"/><path class="cls-6" d="M18.18,50c-0.46-.95.09-1.24,0.19-2.17A2.44,2.44,0,0,1,19,49.79a6.83,6.83,0,0,1,1.72-1c-0.43.57-.3,1-1,1.44a1.41,1.41,0,0,1-.86.27,1.65,1.65,0,0,0-.27-0.74,2,2,0,0,1,0,.92A0.82,0.82,0,0,0,18.18,50"/><path class="cls-6" d="M17.24,50.55a2.54,2.54,0,0,1,.58,2,6.74,6.74,0,0,1,1.73-.92c-0.44.57-.32,1-1,1.39a1.34,1.34,0,0,1-.84.24,1.77,1.77,0,0,0-.26-0.76,2,2,0,0,1,0,.93A0.82,0.82,0,0,0,17,52.7c-0.46-.94.09-1.22,0.22-2.15"/><path class="cls-6" d="M16.53,54.79c-0.63-.87-0.13-1.23-0.2-2.17a2.62,2.62,0,0,1,1,1.89,6.41,6.41,0,0,1,1.51-1.15c-0.31.64-.12,1-0.7,1.52a1,1,0,0,1-.81.33,1.91,1.91,0,0,0-.39-0.7,2.21,2.21,0,0,1,.16.92,1,1,0,0,0-.52-0.64"/><path class="cls-6" d="M15.56,55.43a2.86,2.86,0,0,1,1,1.93,6.92,6.92,0,0,1,1.5-1.1c-0.31.64-.12,1-0.7,1.51a1.14,1.14,0,0,1-.81.31,1.93,1.93,0,0,0-.39-0.74,2.2,2.2,0,0,1,.16,1,1,1,0,0,0-.52-0.68c-0.62-.92-0.14-1.24-0.22-2.19"/><path class="cls-6" d="M16.55,60.13A2,2,0,0,0,16,59.45a2.24,2.24,0,0,1,.32.92,1,1,0,0,0-.62-0.61c-0.79-.85-0.46-1.05-0.72-2a3.16,3.16,0,0,1,1.4,1.65,6.09,6.09,0,0,1,1.25-1.3c-0.16.68,0.09,1-.4,1.59a1,1,0,0,1-.7.43"/><path class="cls-6" d="M15,60.63a3.38,3.38,0,0,1,1.4,1.75,6.18,6.18,0,0,1,1.21-1.24c-0.15.67,0.11,1-.36,1.6a1,1,0,0,1-.69.4A2,2,0,0,0,16,62.43a2.77,2.77,0,0,1,.34.93,1.29,1.29,0,0,0-.63-0.63c-0.78-.87-0.48-1.09-0.74-2.1"/><path class="cls-6" d="M14.9,63.42a3.14,3.14,0,0,1,1.54,1.5,5.77,5.77,0,0,1,1-1.43c0,0.71.28,1.06-.09,1.69a0.78,0.78,0,0,1-.59.47A2.7,2.7,0,0,0,16.07,65a2.5,2.5,0,0,1,.5.91,1.28,1.28,0,0,0-.72-0.58c-1.37-1.2.08,0.41-.95-1.92"/><path class="cls-6" d="M16.62,67.65a7.68,7.68,0,0,1,1-1.73,3.54,3.54,0,0,1-.2,1.77,1.51,1.51,0,0,1-.63.68,1.67,1.67,0,0,0-.58-0.56,2.35,2.35,0,0,1,.43.87A0.87,0.87,0,0,0,16,68.23c-0.8-.61-0.44-0.93-0.75-1.81a2,2,0,0,1,1.37,1.22"/><path class="cls-6" d="M15.38,68.51a2.46,2.46,0,0,1,1.67,1.22,7.55,7.55,0,0,1,.76-1.85c0,0.73.36,1,.07,1.74a1.34,1.34,0,0,1-.52.75,1.45,1.45,0,0,0-.66-0.46,2.09,2.09,0,0,1,.54.76,0.8,0.8,0,0,0-.73-0.3c-0.92-.48-0.68-1.05-1.15-1.87"/><path class="cls-6" d="M18,72.46a7.29,7.29,0,0,1,.74-1.82c0,0.71.37,0.94,0.11,1.72a1.18,1.18,0,0,1-.53.74,1.75,1.75,0,0,0-.66-0.45,2.52,2.52,0,0,1,.57.76,0.86,0.86,0,0,0-.74-0.31c-1-.47-0.71-1-1.2-1.83A2.5,2.5,0,0,1,18,72.46"/><path class="cls-6" d="M16.89,73.46a2.7,2.7,0,0,1,1.94.86,7.55,7.55,0,0,1,.44-1.86c0.18,0.7.55,0.88,0.42,1.65a1.17,1.17,0,0,1-.4.77,1.66,1.66,0,0,0-.77-0.32,2.5,2.5,0,0,1,.72.63A1.09,1.09,0,0,0,18.43,75c-1-.26-0.88-0.87-1.53-1.55"/><path class="cls-6" d="M18.09,75.89a2.77,2.77,0,0,1,1.95.94,6.56,6.56,0,0,1,.51-1.77c0.14,0.67.53,0.86,0.36,1.62a1.05,1.05,0,0,1-.42.73A2,2,0,0,0,19.72,77a2,2,0,0,1,.69.65,0.88,0.88,0,0,0-.8-0.2c-1.07-.35-0.88-0.91-1.51-1.61"/><path class="cls-6" d="M19,77.88a3.17,3.17,0,0,1,2.17.62,5.31,5.31,0,0,1,.19-1.78c0.27,0.64.69,0.79,0.67,1.53a0.93,0.93,0,0,1-.31.75,2.06,2.06,0,0,0-.83-0.22,2.36,2.36,0,0,1,.81.52,1.06,1.06,0,0,0-.87-0.09C19.74,79,19.79,78.47,19,77.88"/><path class="cls-6" d="M20.32,80a3.58,3.58,0,0,1,2.2.8,4.92,4.92,0,0,1,.26-1.75c0.24,0.67.67,0.81,0.61,1.53a0.93,0.93,0,0,1-.32.74A2.44,2.44,0,0,0,22.21,81a2.72,2.72,0,0,1,.83.59,1.13,1.13,0,0,0-.89-0.18c-1.15-.25-1-0.81-1.83-1.44"/><path class="cls-6" d="M25.24,83.51a1,1,0,0,0-.92-0.28c-1.2-.12-1.51-0.86-2.39-1.38a3.78,3.78,0,0,1,2.34.49,4.45,4.45,0,0,1-.07-1.71C24.56,81.2,25,81.3,25.11,82a7.28,7.28,0,0,0,.21,1.29,2.15,2.15,0,0,0-.65-0.45,2.76,2.76,0,0,1,.57.66"/><path class="cls-6" d="M45.08,83.39A1.27,1.27,0,0,0,44,83.8a2.77,2.77,0,0,1,.65-0.74,1.75,1.75,0,0,0-.68.31,6.38,6.38,0,0,1,.06-1c0.09-.7.57-0.8,1-1.41a5.34,5.34,0,0,1-.11,1.76,3.89,3.89,0,0,1,2.39-.45c-0.93.52-.94,1.08-2.15,1.15"/><path class="cls-6" d="M47,81.81a1.31,1.31,0,0,0-.9.16A3.45,3.45,0,0,1,47,81.39a2.75,2.75,0,0,0-.88.3,1.08,1.08,0,0,1-.33-0.77c0-.73.4-0.89,0.68-1.52a5.74,5.74,0,0,1,.22,1.78,3.49,3.49,0,0,1,2.24-.79c-0.8.65-.71,1.22-1.9,1.43"/><path class="cls-6" d="M48.34,79.72a1.07,1.07,0,0,0-.88.09,2.61,2.61,0,0,1,.84-0.55,2.32,2.32,0,0,0-.84.24,1.09,1.09,0,0,1-.33-0.79c0-.75.39-0.9,0.68-1.54A6.07,6.07,0,0,1,48,79a3.18,3.18,0,0,1,2.19-.65c-0.8.59-.69,1.16-1.86,1.36"/><path class="cls-6" d="M49.62,77.95a0.93,0.93,0,0,0-.82.22,2.33,2.33,0,0,1,.7-0.66,1.86,1.86,0,0,0-.77.34,1.15,1.15,0,0,1-.45-0.75c-0.16-.77.23-1,0.37-1.65a6.35,6.35,0,0,1,.53,1.84,2.89,2.89,0,0,1,2-1c-0.65.72-.49,1.29-1.55,1.65"/><path class="cls-6" d="M51,75.43a0.91,0.91,0,0,0-.82.19A2.93,2.93,0,0,1,50.87,75a2,2,0,0,0-.77.34,1.16,1.16,0,0,1-.41-0.8c-0.14-.79.24-1,0.41-1.66a6.1,6.1,0,0,1,.45,1.9,2.68,2.68,0,0,1,2-.91c-0.65.71-.49,1.3-1.57,1.59"/><path class="cls-6" d="M51.94,73.47a1,1,0,0,0-.76.3A2.2,2.2,0,0,1,51.73,73a1.8,1.8,0,0,0-.67.45,1.24,1.24,0,0,1-.52-0.73c-0.27-.78.06-1,0.1-1.75a7.4,7.4,0,0,1,.75,1.81,2.87,2.87,0,0,1,1.76-1.2c-0.53.85-.27,1.43-1.22,1.88"/><path class="cls-6" d="M52.91,70.68a0.86,0.86,0,0,0-.74.33,1.87,1.87,0,0,1,.56-0.77,1.67,1.67,0,0,0-.68.44,1.3,1.3,0,0,1-.55-0.74c-0.26-.79.06-1,0.08-1.78A7.33,7.33,0,0,1,52.36,70a2.37,2.37,0,0,1,1.7-1.22c-0.49.81-.22,1.4-1.16,1.88"/><path class="cls-7" d="M48.34,74.3a10.06,10.06,0,0,1-6.6-1.93A2.78,2.78,0,0,0,42,70.45c-0.08-.46-0.11-0.07-0.21.21a2.13,2.13,0,0,1-1,1.23A8.44,8.44,0,0,0,38.2,70a11.11,11.11,0,0,1-1.63-1.23c-1,.45-2.48,1.32-3.23.81-0.63-.31.74-0.67,1.27-1.51a1.55,1.55,0,0,1,1.82-.67c1.48,0.31,2.24.85,4.45,1.8,2.7,0.21,4.7,1,7.44,1.61a8.53,8.53,0,0,0,1.44.21,19.42,19.42,0,0,1-1.43,3.29"/><path class="cls-7" d="M36.48,71.35c0.81,0.91,1.54,1.08,2,2.18a0.55,0.55,0,0,1-.83.21c-1.21-1.36-2.32-1.57-1.86-2.2a0.45,0.45,0,0,0-.41.53c0.2,0.94,1.31,1.34,1.62,2.18-0.15.64-1.47,0.06-2.06-1.64l0-.08c-0.25.48-.45,0.66,0.42,1.72,0.17,0.38.3,0.78-.34,0.7,0.12,0.1-.32,0-0.13,0H35a0.61,0.61,0,0,1-.13-0.07,1,1,0,0,0-1.19-1.34C34,73,33.06,72.32,32.2,72.71c0.13-.45-0.8-1.16-2.08-0.65-0.19-.46-1.34-0.92-2.43.46-2,.16-5.13,1.87-7.07,1-0.08.08-1.21-3.15-1.25-3.23,2.25-.22,7.34-0.57,9.13-1.32,1.44-.92,4.08-1.38,4.72-1-0.06.49-1.2,1.41-.62,1.89,1,0.94,2.6.52,3.7-.13,1.12,1.16,2.92,1.32,3.63,2.84L39.72,73c-0.39.24-.41,0.24-0.86-0.36-1.07-1.44-2.09-1.12-2.26-2.1-0.39.13-.12,0.55-0.12,0.78"/><path class="cls-7" d="M31.27,74.3c-0.41.17,0.18-.25,0.31-0.35l0.17-.21c0.33-.32.8-0.73,1.11-0.07C33,74,31.71,74.8,31.48,74.87a0.28,0.28,0,0,1-.41-0.13,0.29,0.29,0,0,1,.2-0.44"/><path class="cls-7" d="M30.1,74.16A0.46,0.46,0,0,1,29.53,74,1.35,1.35,0,0,1,30,73.17a0.68,0.68,0,0,1,.31-0.2l0.25-.23c0.5-.06.44,0,0.54,0.23a2.2,2.2,0,0,1-1,1.19"/><path class="cls-7" d="M33.33,74.38a0.42,0.42,0,0,1,.78.21c0.09,0.32-.5.69-1,0.84-0.29-.15-0.91-0.12.27-1"/><path class="cls-7" d="M28.75,73.25c-0.22.1-.55-0.29-0.36-0.38l0.22-.42c0.36-.14.6-0.31,0.71-0.14a1.22,1.22,0,0,1-.56.93"/><path class="cls-8" d="M34.69,40.41c-8.89,0-16.13,9.41-16.47,21.21H51.14c-0.34-11.8-7.56-21.21-16.45-21.21"/><path class="cls-4" d="M35.61,66.44l0-9.34s3.2,0.06,3.9-.06a2.26,2.26,0,0,0,1.35-1.47,13.56,13.56,0,0,0-.51-3.16,1.71,1.71,0,0,1-.63-0.89S39.43,48,38.7,47a4.51,4.51,0,0,0-4.16-2.14,3.53,3.53,0,0,0-3.69,2.67,1.19,1.19,0,0,0,1.3,1.36,10,10,0,0,0-.88.84,11.59,11.59,0,0,0-1.45,2.09A6.63,6.63,0,0,0,29,55.54,3.58,3.58,0,0,0,31.7,57.1,7,7,0,0,0,33.83,57v9.31Z"/><path class="cls-9" d="M32.15,53.63c-0.94,0-1.33.52-2.16,0.56a8,8,0,0,1,1.9-3.81,12.07,12.07,0,0,1,3.19-2.08l0-.19c-0.75.11-2.72,0.48-3.27-.39-0.1-.88,1.09-1.85,2.72-2a4.31,4.31,0,0,1,2.52.77,3.7,3.7,0,0,1,1.45,2.66,10.28,10.28,0,0,0-1.52.78,5.93,5.93,0,0,0,.74.08A3.37,3.37,0,0,0,38.52,50v0.63a0.83,0.83,0,0,1,.2.25c-2,.86-3,1.25-3.1,1.14a5.87,5.87,0,0,0,.82.11,8.63,8.63,0,0,0,2.33-.49,0.78,0.78,0,0,0,.58.93l0,0,0,0c-2,1.08-2.78,1-2.93.87L35,53.19a7.87,7.87,0,0,0,1.89.93,8.5,8.5,0,0,0,2.74-.73l0.26,0.91c-1.21,0-2.52,1.75-4.35,1.11-0.93-.7-2.06-1.78-3.35-1.78"/><path class="cls-9" d="M33.83,56.11c-0.93,0-2.34,0-2.39-.06C31,56,29.8,55.31,30,55.13a3.89,3.89,0,0,0,1.51-.41c1.21-.49,2.27,1.08,2.35,1.4"/><path class="cls-9" d="M40,55.18a1.25,1.25,0,0,1-.69.93c-0.25,0-1.41,0-2.08,0a2.23,2.23,0,0,0,1.07-.3c1.92-1,1.7-.66,1.7-0.66"/><path class="cls-3" d="M33.69,89.67a1.21,1.21,0,0,0,0-.72,6.37,6.37,0,0,1-1.54,1.48,9.7,9.7,0,0,1-2.38.82,3.69,3.69,0,0,0,.57.53A5.44,5.44,0,0,0,32.56,91a3.79,3.79,0,0,0,1.13-1.34"/><path class="cls-8" d="M35.76,89.67a1.43,1.43,0,0,1,0-.72,6.29,6.29,0,0,0,1.54,1.48,9.54,9.54,0,0,0,2.39.82,4.91,4.91,0,0,0,.64-0.72A17.3,17.3,0,0,1,37.95,90a3,3,0,0,1-1.82-1.34,1.1,1.1,0,0,1,.28-0.91c0.17-.16,2.16-0.3,2.09-2-0.08-2-3.36-1.42-3.78-1.34C34.32,84.35,31,83.8,31,85.77c-0.07,1.68,1.93,1.82,2.1,2a1.14,1.14,0,0,1,.27.91A3,3,0,0,1,31.52,90a18,18,0,0,1-2.43.52,5.42,5.42,0,0,0,.63.72,9.69,9.69,0,0,0,2.39-.82,6.39,6.39,0,0,0,1.54-1.48,1.22,1.22,0,0,1,0,.72A3.8,3.8,0,0,1,32.56,91a5.44,5.44,0,0,1-2.26.77,1.65,1.65,0,0,0,1,.38c2.08-.08,2.86-2.38,2.86-2.38a1.33,1.33,0,0,0,.59.23h0a1.21,1.21,0,0,0,.58-0.23s0.81,2.31,2.88,2.38a1.58,1.58,0,0,0,1-.38A5.6,5.6,0,0,1,36.89,91a3.93,3.93,0,0,1-1.13-1.34"/><path class="cls-3" d="M39.72,91.24a9.54,9.54,0,0,1-2.39-.82,6.29,6.29,0,0,1-1.54-1.48,1.43,1.43,0,0,0,0,.72A3.93,3.93,0,0,0,36.89,91a5.6,5.6,0,0,0,2.25.77h0a3.19,3.19,0,0,0,.57-0.53"/><path class="cls-3" d="M33.18,85.06a1.68,1.68,0,0,0-.59.88,2.33,2.33,0,0,0,.14,1,1.45,1.45,0,0,1-1-1.08c0.07-1,1.5-.75,1.5-0.75"/><path class="cls-3" d="M36.29,85.06a1.66,1.66,0,0,1,.56.88,2.23,2.23,0,0,1-.11,1s1.09-.36,1-1.08c-0.07-1-1.48-.75-1.48-0.75"/><path class="cls-3" d="M34.81,85.44H34.64c-1.82,0-.78,1.68-0.78,1.68a1.4,1.4,0,0,1,.77-0.23h0.2a1.5,1.5,0,0,1,.78.23s1-1.69-.8-1.68"/><path class="cls-3" d="M34.82,87.7H34.64c-0.51,0-.47.25-0.47,0.49s0.12,1.25.52,1.25h0.07c0.41,0,.51-1,0.51-1.25s0-.49-0.44-0.49"/></svg>