<svg id="Capa_1" data-name="Capa 1" xmlns="http://www.w3.org/2000/svg" viewBox="0 0 517.08 79.36"><defs><style>.cls-1{fill:#4272b4;}</style></defs><title>logo-subsecretaria</title><path class="cls-1" d="M14.7,29.51l1.86-2.22a8.16,8.16,0,0,0,5.56,2.29c1.91,0,3.12-.91,3.12-2.22V27.32c0-1.26-.7-1.94-4-2.69-3.75-.91-5.87-2-5.87-5.26V19.32c0-3,2.52-5.11,6-5.11a9.77,9.77,0,0,1,6.4,2.22l-1.66,2.34A8,8,0,0,0,21.37,17c-1.81,0-2.87.93-2.87,2.09v0c0,1.36.81,2,4.2,2.77,3.73,0.91,5.64,2.24,5.64,5.16v0.05c0,3.3-2.59,5.26-6.29,5.26A10.86,10.86,0,0,1,14.7,29.51Z"/><path class="cls-1" d="M31.49,27.25V18.79h3v7.55c0,2.06,1,3.22,2.85,3.22s3-1.21,3-3.27v-7.5h3.07V32.08H40.38V30a4.78,4.78,0,0,1-4.15,2.34C33.23,32.36,31.49,30.34,31.49,27.25Z"/><path class="cls-1" d="M50.29,30v2.06h-3V13.7h3V21a5.32,5.32,0,0,1,4.53-2.49c3.12,0,6.17,2.47,6.17,6.9v0.05c0,4.41-3,6.9-6.17,6.9A5.43,5.43,0,0,1,50.29,30Zm7.6-4.56V25.41a3.94,3.94,0,0,0-3.8-4.25,4,4,0,0,0-3.88,4.25v0.05a4,4,0,0,0,3.88,4.25C56.18,29.72,57.9,28.08,57.9,25.46Z"/><path class="cls-1" d="M63.05,30.34l1.36-2.06a7.52,7.52,0,0,0,4.36,1.64c1.31,0,2.06-.55,2.06-1.44V28.43c0-1-1.41-1.38-3-1.86-2-.55-4.15-1.36-4.15-3.9V22.62c0-2.52,2.09-4.05,4.73-4.05a9.22,9.22,0,0,1,4.88,1.51l-1.21,2.17A7.72,7.72,0,0,0,68.36,21c-1.18,0-1.86.55-1.86,1.31v0c0,1,1.44,1.38,3,1.89,1.94,0.6,4.13,1.49,4.13,3.88v0c0,2.79-2.17,4.18-4.93,4.18A9.34,9.34,0,0,1,63.05,30.34Z"/><path class="cls-1" d="M76,25.49V25.43c0-3.8,2.69-6.92,6.5-6.92,4.23,0,6.37,3.32,6.37,7.15,0,0.28,0,.55-0.05.86H79.06a3.71,3.71,0,0,0,3.83,3.37,4.83,4.83,0,0,0,3.6-1.59l1.79,1.59a6.72,6.72,0,0,1-5.44,2.49A6.63,6.63,0,0,1,76,25.49Zm9.84-1c-0.2-2-1.36-3.5-3.37-3.5-1.86,0-3.17,1.44-3.45,3.5h6.82Z"/><path class="cls-1" d="M91.22,25.51V25.46a6.86,6.86,0,0,1,6.92-6.95,6.71,6.71,0,0,1,5.31,2.29l-1.91,2a4.46,4.46,0,0,0-3.42-1.66,4,4,0,0,0-3.85,4.23v0.05a4,4,0,0,0,4,4.25,4.65,4.65,0,0,0,3.45-1.64l1.84,1.81A7,7,0,0,1,91.22,25.51Z"/><path class="cls-1" d="M106.32,18.79h3v3a4.71,4.71,0,0,1,4.71-3.25v3.22H113.9c-2.67,0-4.53,1.74-4.53,5.26v5.06h-3V18.79Z"/><path class="cls-1" d="M115.53,25.49V25.43c0-3.8,2.69-6.92,6.5-6.92,4.23,0,6.37,3.32,6.37,7.15,0,0.28,0,.55,0,0.86h-9.77a3.71,3.71,0,0,0,3.83,3.37,4.83,4.83,0,0,0,3.6-1.59l1.79,1.59a6.72,6.72,0,0,1-5.44,2.49A6.63,6.63,0,0,1,115.53,25.49Zm9.84-1c-0.2-2-1.36-3.5-3.37-3.5-1.86,0-3.17,1.44-3.45,3.5h6.82Z"/><path class="cls-1" d="M132.09,28.41v-7H130.4V18.79h1.69V15.14h3v3.65h3.57v2.62h-3.57v6.52a1.45,1.45,0,0,0,1.64,1.66,4.1,4.1,0,0,0,1.89-.45v2.49a5.27,5.27,0,0,1-2.74.68C133.68,32.31,132.09,31.33,132.09,28.41Z"/><path class="cls-1" d="M140.93,28.25V28.2c0-2.87,2.24-4.28,5.49-4.28a11.09,11.09,0,0,1,3.57.55V24.15c0-1.89-1.16-2.89-3.3-2.89a9.26,9.26,0,0,0-3.8.83l-0.81-2.39a11.35,11.35,0,0,1,5-1.08,6,6,0,0,1,4.41,1.49,5.52,5.52,0,0,1,1.44,4.1v7.88h-3V30.42a5.4,5.4,0,0,1-4.33,1.94C143.14,32.36,140.93,30.92,140.93,28.25Zm9.11-1V26.39a8.46,8.46,0,0,0-3-.53c-2,0-3.12.83-3.12,2.22v0c0,1.28,1.13,2,2.59,2C148.5,30.14,150,29,150,27.3Z"/><path class="cls-1" d="M156.58,18.79h3v3a4.71,4.71,0,0,1,4.71-3.25v3.22h-0.18c-2.67,0-4.53,1.74-4.53,5.26v5.06h-3V18.79Z"/><path class="cls-1" d="M167.15,18.79h3V32.08h-3V18.79ZM170.07,13l2.77,1.23-3.1,2.89h-2.29Z"/><path class="cls-1" d="M173.29,28.25V28.2c0-2.87,2.24-4.28,5.49-4.28a11.09,11.09,0,0,1,3.57.55V24.15c0-1.89-1.16-2.89-3.3-2.89a9.26,9.26,0,0,0-3.8.83l-0.81-2.39a11.35,11.35,0,0,1,5-1.08,6,6,0,0,1,4.41,1.49,5.52,5.52,0,0,1,1.44,4.1v7.88h-3V30.42A5.4,5.4,0,0,1,178,32.36C175.51,32.36,173.29,30.92,173.29,28.25Zm9.11-1V26.39a8.46,8.46,0,0,0-3-.53c-2,0-3.12.83-3.12,2.22v0c0,1.28,1.13,2,2.59,2C180.87,30.14,182.41,29,182.41,27.3Z"/><path class="cls-1" d="M195.82,25.46V25.41c0-4.41,3-6.9,6.17-6.9a5.44,5.44,0,0,1,4.53,2.34V13.7h3V32.08h-3V29.87A5.32,5.32,0,0,1,202,32.36C198.86,32.36,195.82,29.87,195.82,25.46Zm10.75,0V25.41a4,4,0,0,0-3.85-4.25c-2.09,0-3.83,1.61-3.83,4.25v0.05a4,4,0,0,0,3.83,4.25A4,4,0,0,0,206.57,25.46Z"/><path class="cls-1" d="M212.66,25.49V25.43c0-3.8,2.69-6.92,6.5-6.92,4.23,0,6.37,3.32,6.37,7.15,0,0.28,0,.55-0.05.86H215.7a3.71,3.71,0,0,0,3.83,3.37,4.83,4.83,0,0,0,3.6-1.59l1.79,1.59a6.72,6.72,0,0,1-5.44,2.49A6.63,6.63,0,0,1,212.66,25.49Zm9.84-1c-0.2-2-1.36-3.5-3.37-3.5-1.86,0-3.17,1.44-3.45,3.5h6.82Z"/><path class="cls-1" d="M236.49,14.46h7.86a7.1,7.1,0,0,1,5.09,1.76,5.32,5.32,0,0,1,1.46,3.8v0a5.29,5.29,0,0,1-4.18,5.34l4.76,6.67H247.8l-4.33-6.14h-3.88v6.14h-3.1V14.46Zm7.63,8.74c2.22,0,3.63-1.16,3.63-2.95V20.2c0-1.89-1.36-2.92-3.65-2.92h-4.51v5.92h4.53Z"/><path class="cls-1" d="M253.35,25.49V25.43c0-3.8,2.69-6.92,6.5-6.92,4.23,0,6.37,3.32,6.37,7.15,0,0.28,0,.55-0.05.86H256.4a3.71,3.71,0,0,0,3.83,3.37,4.83,4.83,0,0,0,3.6-1.59l1.79,1.59a6.73,6.73,0,0,1-5.44,2.49A6.63,6.63,0,0,1,253.35,25.49Zm9.84-1c-0.2-2-1.36-3.5-3.37-3.5-1.86,0-3.17,1.44-3.45,3.5h6.82Z"/><path class="cls-1" d="M270,21.41h-1.69V18.86H270v-1A4.49,4.49,0,0,1,271,14.61a4,4,0,0,1,3-1.06,8.15,8.15,0,0,1,2.47.35v2.57a5.35,5.35,0,0,0-1.79-.33c-1.16,0-1.76.63-1.76,2v0.73h3.53v2.52H273V32.08h-3V21.41Z"/><path class="cls-1" d="M277.77,25.51V25.46a7.09,7.09,0,0,1,14.17-.05v0.05a7,7,0,0,1-7.13,6.92A6.87,6.87,0,0,1,277.77,25.51Zm11.13,0V25.46a4.11,4.11,0,0,0-4.08-4.28,4,4,0,0,0-4,4.23v0.05a4.1,4.1,0,0,0,4.05,4.25A4,4,0,0,0,288.9,25.51Z"/><path class="cls-1" d="M295,18.79h3v3a4.72,4.72,0,0,1,4.71-3.25v3.22h-0.18c-2.67,0-4.53,1.74-4.53,5.26v5.06h-3V18.79Z"/><path class="cls-1" d="M305.43,18.79h3v2a4.76,4.76,0,0,1,4.05-2.29,4.22,4.22,0,0,1,4,2.34A5.35,5.35,0,0,1,321,18.51c2.89,0,4.66,1.84,4.66,5.09v8.48h-3V24.53c0-2.11-1-3.25-2.69-3.25s-2.84,1.16-2.84,3.3v7.5h-3V24.5c0-2.06-1-3.22-2.69-3.22s-2.85,1.26-2.85,3.3v7.5h-3V18.79Z"/><path class="cls-1" d="M328.46,28.25V28.2c0-2.87,2.24-4.28,5.49-4.28a11.09,11.09,0,0,1,3.57.55V24.15c0-1.89-1.16-2.89-3.3-2.89a9.26,9.26,0,0,0-3.8.83l-0.81-2.39a11.35,11.35,0,0,1,5-1.08A6,6,0,0,1,339,20.1a5.52,5.52,0,0,1,1.44,4.1v7.88h-3V30.42a5.4,5.4,0,0,1-4.33,1.94C330.67,32.36,328.46,30.92,328.46,28.25Zm9.11-1V26.39a8.45,8.45,0,0,0-3-.53c-2,0-3.12.83-3.12,2.22v0c0,1.28,1.13,2,2.59,2C336,30.14,337.57,29,337.57,27.3Z"/><path class="cls-1" d="M352.19,14.46h3.1V32.08h-3.1V14.46Z"/><path class="cls-1" d="M359.64,18.79h3v2a4.82,4.82,0,0,1,4.16-2.32c3,0,4.73,2,4.73,5.09v8.48h-3V24.53c0-2.06-1-3.25-2.85-3.25s-3,1.23-3,3.3v7.5h-3V18.79Z"/><path class="cls-1" d="M374.17,30.34l1.36-2.06a7.52,7.52,0,0,0,4.35,1.64c1.31,0,2.06-.55,2.06-1.44V28.43c0-1-1.41-1.38-3-1.86-2-.55-4.15-1.36-4.15-3.9V22.62c0-2.52,2.09-4.05,4.73-4.05a9.22,9.22,0,0,1,4.88,1.51l-1.21,2.17A7.72,7.72,0,0,0,379.48,21c-1.18,0-1.86.55-1.86,1.31v0c0,1,1.44,1.38,3,1.89,1.94,0.6,4.13,1.49,4.13,3.88v0c0,2.79-2.17,4.18-4.93,4.18A9.34,9.34,0,0,1,374.17,30.34Z"/><path class="cls-1" d="M388.24,28.41v-7h-1.69V18.79h1.69V15.14h3v3.65h3.57v2.62h-3.57v6.52a1.45,1.45,0,0,0,1.64,1.66,4.1,4.1,0,0,0,1.89-.45v2.49a5.26,5.26,0,0,1-2.74.68C389.82,32.31,388.24,31.33,388.24,28.41Z"/><path class="cls-1" d="M398,13.85h3.27v2.9H398v-2.9Zm0.13,4.93h3V32.08h-3V18.79Z"/><path class="cls-1" d="M405.78,28.41v-7h-1.69V18.79h1.69V15.14h3v3.65h3.57v2.62h-3.57v6.52a1.45,1.45,0,0,0,1.64,1.66,4.1,4.1,0,0,0,1.89-.45v2.49a5.26,5.26,0,0,1-2.74.68C407.36,32.31,405.78,31.33,405.78,28.41Z"/><path class="cls-1" d="M415.34,27.25V18.79h3v7.55c0,2.06,1,3.22,2.84,3.22s3-1.21,3-3.27v-7.5h3.07V32.08h-3.07V30a4.78,4.78,0,0,1-4.15,2.34C417.08,32.36,415.34,30.34,415.34,27.25Z"/><path class="cls-1" d="M430.37,25.51V25.46a6.86,6.86,0,0,1,6.92-6.95,6.71,6.71,0,0,1,5.31,2.29l-1.91,2a4.46,4.46,0,0,0-3.42-1.66,4,4,0,0,0-3.85,4.23v0.05a4,4,0,0,0,4,4.25,4.65,4.65,0,0,0,3.45-1.64l1.84,1.81A7,7,0,0,1,430.37,25.51Z"/><path class="cls-1" d="M445.52,13.85h3.27v2.9h-3.27v-2.9Zm0.13,4.93h3V32.08h-3V18.79Z"/><path class="cls-1" d="M451.94,25.51V25.46a7.09,7.09,0,0,1,14.17-.05v0.05A7,7,0,0,1,459,32.38,6.87,6.87,0,0,1,451.94,25.51Zm11.13,0V25.46A4.11,4.11,0,0,0,459,21.18a4,4,0,0,0-4,4.23v0.05A4.1,4.1,0,0,0,459,29.72,4,4,0,0,0,463.07,25.51Z"/><path class="cls-1" d="M469.2,18.79h3v2a4.82,4.82,0,0,1,4.16-2.32c3,0,4.73,2,4.73,5.09v8.48h-3V24.53c0-2.06-1-3.25-2.85-3.25s-3,1.23-3,3.3v7.5h-3V18.79Z"/><path class="cls-1" d="M483.93,28.25V28.2c0-2.87,2.24-4.28,5.49-4.28a11.09,11.09,0,0,1,3.57.55V24.15c0-1.89-1.16-2.89-3.3-2.89a9.26,9.26,0,0,0-3.8.83l-0.81-2.39a11.35,11.35,0,0,1,5-1.08,6,6,0,0,1,4.41,1.49,5.52,5.52,0,0,1,1.44,4.1v7.88h-3V30.42a5.4,5.4,0,0,1-4.33,1.94C486.14,32.36,483.93,30.92,483.93,28.25Zm9.11-1V26.39a8.45,8.45,0,0,0-3-.53c-2,0-3.12.83-3.12,2.22v0c0,1.28,1.13,2,2.59,2C491.51,30.14,493,29,493,27.3Z"/><path class="cls-1" d="M499.76,13.7h3V32.08h-3V13.7Z"/><path class="cls-1" d="M24.75,49h3.17L22.63,62.66c-1.06,2.72-2.24,3.73-4.38,3.73a6.29,6.29,0,0,1-3.15-.81l1-2.27a3.75,3.75,0,0,0,1.79.5c0.86,0,1.38-.38,1.89-1.51L14.27,49h3.27l3.75,9.87Z"/><path class="cls-1" d="M38.44,44.66H51.55v2.82h-10v4.81h8.89v2.82H41.53v7.17h-3.1V44.66Z"/><path class="cls-1" d="M53.49,55.71V55.66a7.09,7.09,0,0,1,14.17-.05v0.05a7,7,0,0,1-7.13,6.92A6.88,6.88,0,0,1,53.49,55.71Zm11.13,0V55.66a4.11,4.11,0,0,0-4.08-4.28,4,4,0,0,0-4,4.23v0.05a4.1,4.1,0,0,0,4.05,4.25A4,4,0,0,0,64.62,55.71Z"/><path class="cls-1" d="M70.75,49h3v3a4.71,4.71,0,0,1,4.71-3.25V52H78.33c-2.67,0-4.53,1.74-4.53,5.26v5.06h-3V49Z"/><path class="cls-1" d="M81.78,58.61v-7H80.09V49h1.69V45.34h3V49H88.4v2.62H84.82v6.52a1.45,1.45,0,0,0,1.64,1.66,4.1,4.1,0,0,0,1.89-.45v2.49a5.26,5.26,0,0,1-2.74.68C83.36,62.51,81.78,61.53,81.78,58.61Z"/><path class="cls-1" d="M90.61,58.46V58.41c0-2.87,2.24-4.28,5.49-4.28a11.13,11.13,0,0,1,3.57.55V54.35c0-1.89-1.16-2.9-3.3-2.9a9.25,9.25,0,0,0-3.8.83L91.77,49.9a11.35,11.35,0,0,1,5-1.08,6,6,0,0,1,4.41,1.49,5.51,5.51,0,0,1,1.44,4.1v7.88h-3V60.62a5.4,5.4,0,0,1-4.33,1.94C92.83,62.56,90.61,61.13,90.61,58.46Zm9.11-1V56.59a8.45,8.45,0,0,0-3-.53c-2,0-3.12.83-3.12,2.22v0.05c0,1.28,1.13,2,2.59,2C98.19,60.35,99.73,59.19,99.73,57.5Z"/><path class="cls-1" d="M106.44,43.91h3V62.28h-3V43.91Z"/><path class="cls-1" d="M112.74,55.69V55.64c0-3.8,2.69-6.92,6.5-6.92,4.23,0,6.37,3.32,6.37,7.15,0,0.28,0,.55-0.05.86h-9.77a3.71,3.71,0,0,0,3.83,3.37,4.83,4.83,0,0,0,3.6-1.59L125,60.09a6.72,6.72,0,0,1-5.44,2.49A6.63,6.63,0,0,1,112.74,55.69Zm9.84-1c-0.2-2-1.36-3.5-3.37-3.5-1.86,0-3.17,1.44-3.45,3.5h6.82Z"/><path class="cls-1" d="M127.94,55.71V55.66a6.86,6.86,0,0,1,6.92-6.95A6.72,6.72,0,0,1,140.17,51l-1.91,2a4.46,4.46,0,0,0-3.42-1.66A4,4,0,0,0,131,55.61v0.05a4,4,0,0,0,4,4.25,4.65,4.65,0,0,0,3.45-1.64l1.84,1.81A7,7,0,0,1,127.94,55.71Z"/><path class="cls-1" d="M143.09,44.06h3.27V47h-3.27V44.06ZM143.22,49h3V62.28h-3V49Z"/><path class="cls-1" d="M150.24,49h3v2a4.76,4.76,0,0,1,4.05-2.29,4.22,4.22,0,0,1,4,2.34,5.35,5.35,0,0,1,4.48-2.34c2.9,0,4.66,1.84,4.66,5.09v8.48h-3V54.73c0-2.12-1-3.25-2.69-3.25s-2.85,1.16-2.85,3.3v7.5h-3V54.71c0-2.06-1-3.22-2.69-3.22s-2.85,1.26-2.85,3.3v7.5h-3V49Z"/><path class="cls-1" d="M174.2,44.06h3.27V47H174.2V44.06ZM174.32,49h3V62.28h-3V49Z"/><path class="cls-1" d="M180.62,55.69V55.64c0-3.8,2.69-6.92,6.5-6.92,4.23,0,6.37,3.32,6.37,7.15,0,0.28,0,.55,0,0.86h-9.77a3.71,3.71,0,0,0,3.83,3.37,4.83,4.83,0,0,0,3.6-1.59l1.79,1.59a6.72,6.72,0,0,1-5.44,2.49A6.63,6.63,0,0,1,180.62,55.69Zm9.84-1c-0.2-2-1.36-3.5-3.37-3.5-1.86,0-3.17,1.44-3.45,3.5h6.82Z"/><path class="cls-1" d="M196.55,49h3v2a4.82,4.82,0,0,1,4.15-2.32c3,0,4.73,2,4.73,5.09v8.48h-3V54.73c0-2.06-1-3.25-2.84-3.25s-3,1.23-3,3.3v7.5h-3V49Z"/><path class="cls-1" d="M212.78,58.61v-7H211.1V49h1.69V45.34h3V49h3.57v2.62h-3.57v6.52a1.45,1.45,0,0,0,1.64,1.66,4.1,4.1,0,0,0,1.89-.45v2.49a5.26,5.26,0,0,1-2.74.68C214.37,62.51,212.78,61.53,212.78,58.61Z"/><path class="cls-1" d="M221.39,55.71V55.66a7.09,7.09,0,0,1,14.17-.05v0.05a7,7,0,0,1-7.13,6.92A6.88,6.88,0,0,1,221.39,55.71Zm11.13,0V55.66a4.11,4.11,0,0,0-4.08-4.28,4,4,0,0,0-4,4.23v0.05a4.1,4.1,0,0,0,4.05,4.25A4,4,0,0,0,232.52,55.71Z"/><path class="cls-1" d="M245.53,55.66V55.61c0-4.41,3-6.9,6.17-6.9a5.44,5.44,0,0,1,4.53,2.34V43.91h3V62.28h-3V60.07a5.32,5.32,0,0,1-4.53,2.49C248.57,62.56,245.53,60.07,245.53,55.66Zm10.75,0V55.61a4,4,0,0,0-3.85-4.25c-2.09,0-3.83,1.61-3.83,4.25v0.05a4,4,0,0,0,3.83,4.25A4,4,0,0,0,256.28,55.66Z"/><path class="cls-1" d="M262.37,55.69V55.64c0-3.8,2.69-6.92,6.5-6.92,4.23,0,6.37,3.32,6.37,7.15,0,0.28,0,.55-0.05.86h-9.77a3.71,3.71,0,0,0,3.83,3.37,4.83,4.83,0,0,0,3.6-1.59l1.79,1.59a6.72,6.72,0,0,1-5.44,2.49A6.63,6.63,0,0,1,262.37,55.69Zm9.84-1c-0.2-2-1.36-3.5-3.37-3.5-1.86,0-3.17,1.44-3.45,3.5h6.82Z"/><path class="cls-1" d="M286,43.91h3V62.28h-3V43.91Z"/><path class="cls-1" d="M292.17,58.46V58.41c0-2.87,2.24-4.28,5.49-4.28a11.13,11.13,0,0,1,3.57.55V54.35c0-1.89-1.16-2.9-3.3-2.9a9.25,9.25,0,0,0-3.8.83l-0.81-2.39a11.35,11.35,0,0,1,5-1.08,6,6,0,0,1,4.41,1.49,5.52,5.52,0,0,1,1.44,4.1v7.88h-3V60.62a5.4,5.4,0,0,1-4.33,1.94C294.38,62.56,292.17,61.13,292.17,58.46Zm9.11-1V56.59a8.45,8.45,0,0,0-3-.53c-2,0-3.12.83-3.12,2.22v0.05c0,1.28,1.13,2,2.59,2C299.74,60.35,301.28,59.19,301.28,57.5Z"/><path class="cls-1" d="M315.72,44.66h6.57c5.54,0,9.37,3.8,9.37,8.76v0.05c0,5-3.83,8.81-9.37,8.81h-6.57V44.66Zm3.1,2.82v12h3.48a5.74,5.74,0,0,0,6.12-5.94V53.47a5.78,5.78,0,0,0-6.12-6h-3.48Z"/><path class="cls-1" d="M334.32,55.69V55.64c0-3.8,2.69-6.92,6.5-6.92,4.23,0,6.37,3.32,6.37,7.15,0,0.28,0,.55-0.05.86h-9.77a3.71,3.71,0,0,0,3.83,3.37,4.83,4.83,0,0,0,3.6-1.59l1.79,1.59a6.72,6.72,0,0,1-5.44,2.49A6.63,6.63,0,0,1,334.32,55.69Zm9.84-1c-0.2-2-1.36-3.5-3.37-3.5-1.86,0-3.17,1.44-3.45,3.5h6.82Z"/><path class="cls-1" d="M350.25,49h3v2a4.76,4.76,0,0,1,4.05-2.29,4.22,4.22,0,0,1,4,2.34,5.35,5.35,0,0,1,4.48-2.34c2.9,0,4.66,1.84,4.66,5.09v8.48h-3V54.73c0-2.12-1-3.25-2.69-3.25s-2.85,1.16-2.85,3.3v7.5h-3V54.71c0-2.06-1-3.22-2.69-3.22s-2.84,1.26-2.84,3.3v7.5h-3V49Z"/><path class="cls-1" d="M373.44,55.71V55.66a7.09,7.09,0,0,1,14.17-.05v0.05a7,7,0,0,1-7.13,6.92A6.88,6.88,0,0,1,373.44,55.71Zm11.13,0V55.66a4.11,4.11,0,0,0-4.08-4.28,4,4,0,0,0-4,4.23v0.05a4.1,4.1,0,0,0,4.05,4.25A4,4,0,0,0,384.56,55.71Z"/><path class="cls-1" d="M390,55.71V55.66a6.86,6.86,0,0,1,6.92-6.95A6.71,6.71,0,0,1,402.21,51l-1.91,2a4.46,4.46,0,0,0-3.42-1.66A4,4,0,0,0,393,55.61v0.05a4,4,0,0,0,4,4.25,4.65,4.65,0,0,0,3.45-1.64l1.84,1.81A7,7,0,0,1,390,55.71Z"/><path class="cls-1" d="M405.07,49h3v3a4.71,4.71,0,0,1,4.71-3.25V52h-0.18c-2.67,0-4.53,1.74-4.53,5.26v5.06h-3V49Z"/><path class="cls-1" d="M414,58.46V58.41c0-2.87,2.24-4.28,5.49-4.28a11.14,11.14,0,0,1,3.57.55V54.35c0-1.89-1.16-2.9-3.3-2.9a9.25,9.25,0,0,0-3.8.83l-0.81-2.39a11.36,11.36,0,0,1,5-1.08,6,6,0,0,1,4.41,1.49A5.52,5.52,0,0,1,426,54.4v7.88h-3V60.62a5.4,5.4,0,0,1-4.33,1.94C416.17,62.56,414,61.13,414,58.46Zm9.11-1V56.59a8.46,8.46,0,0,0-3-.53c-2,0-3.12.83-3.12,2.22v0.05c0,1.28,1.13,2,2.59,2C421.54,60.35,423.07,59.19,423.07,57.5Z"/><path class="cls-1" d="M428.88,55.71V55.66a6.86,6.86,0,0,1,6.92-6.95A6.72,6.72,0,0,1,441.12,51l-1.91,2a4.47,4.47,0,0,0-3.42-1.66,4,4,0,0,0-3.85,4.23v0.05a4,4,0,0,0,4,4.25,4.65,4.65,0,0,0,3.45-1.64l1.84,1.81A7,7,0,0,1,428.88,55.71Z"/><path class="cls-1" d="M444,44.06h3.27V47H444V44.06ZM444.16,49h3V62.28h-3V49Z"/><path class="cls-1" d="M450.3,58.46V58.41c0-2.87,2.24-4.28,5.49-4.28a11.13,11.13,0,0,1,3.57.55V54.35c0-1.89-1.16-2.9-3.3-2.9a9.25,9.25,0,0,0-3.8.83l-0.81-2.39a11.35,11.35,0,0,1,5-1.08,6,6,0,0,1,4.41,1.49,5.52,5.52,0,0,1,1.44,4.1v7.88h-3V60.62A5.4,5.4,0,0,1,455,62.56C452.52,62.56,450.3,61.13,450.3,58.46Zm9.11-1V56.59a8.45,8.45,0,0,0-3-.53c-2,0-3.12.83-3.12,2.22v0.05c0,1.28,1.13,2,2.59,2C457.88,60.35,459.42,59.19,459.42,57.5Z"/></svg>