<?xml version="1.0" encoding="utf-8"?>
<!-- Generator: Adobe Illustrator 19.2.1, SVG Export Plug-In . SVG Version: 6.00 Build 0)  -->
<svg version="1.1" id="Capa_1" xmlns="http://www.w3.org/2000/svg" xmlns:xlink="http://www.w3.org/1999/xlink" x="0px" y="0px"
	 viewBox="0 0 272 283.1" style="enable-background:new 0 0 272 283.1;" xml:space="preserve">
<style type="text/css">
	.st0{fill:#EAAB4E;}
	.st1{fill:#355E98;}
	.st2{fill:#F9F9F9;}
	.st3{fill:#FFFFFF;}
	.st4{fill:#EBEBEB;}
	.st5{fill:url(#SVGID_1_);}
	.st6{fill:url(#SVGID_2_);}
	.st7{fill:url(#SVGID_3_);}
	.st8{fill:url(#SVGID_4_);}
	.st9{fill:url(#SVGID_5_);}
	.st10{fill:url(#SVGID_6_);}
</style>
<title>logo-alert</title>
<g>
	<g>
		<g>
			<g>
				<circle class="st0" cx="136" cy="140.7" r="126.1"/>
			</g>
			<g>
				<path class="st1" d="M136,268.4c-70.4,0-127.7-57.3-127.7-127.7S65.6,13,136,13s127.7,57.3,127.7,127.7S206.4,268.4,136,268.4z
					 M136,16.2C67.3,16.2,11.5,72,11.5,140.7S67.3,265.3,136,265.3s124.5-55.9,124.5-124.5S204.7,16.2,136,16.2z"/>
			</g>
			<g>
				<g>
					<g>
						<path class="st2" d="M174.4,30.3c-12-4.2-25-6.5-38.4-6.5c-64.5,0-116.9,52.3-116.9,116.9S71.5,257.6,136,257.6
							s116.9-52.3,116.9-116.9c0-16.2-3.3-31.7-9.3-45.7c-0.8-2-1.7-3.9-2.7-5.8c-9.9-20.1-25.3-36.9-44.4-48.4"/>
						<path class="st1" d="M136,258.6c-65,0-117.9-52.9-117.9-117.9S71,22.8,136,22.8c13.3,0,26.3,2.2,38.8,6.5
							c0.5,0.2,0.8,0.8,0.6,1.3c-0.2,0.5-0.8,0.8-1.3,0.6c-12.2-4.3-25-6.4-38.1-6.4c-63.9,0-115.8,52-115.8,115.8
							c0,63.9,52,115.8,115.8,115.8c63.9,0,115.8-52,115.8-115.8c0-15.7-3.1-31-9.2-45.3c-0.8-1.9-1.7-3.9-2.6-5.8
							c-9.8-19.9-25-36.5-44-48c-0.5-0.3-0.6-0.9-0.3-1.4c0.3-0.5,0.9-0.6,1.4-0.3c19.3,11.7,34.8,28.6,44.8,48.9
							c1,1.9,1.9,3.9,2.7,5.9c6.2,14.6,9.4,30.1,9.4,46.1C253.9,205.7,201,258.6,136,258.6z"/>
					</g>
				</g>
				<g>
					<g>
						<path class="st3" d="M191.4,38c-4-2.2-8.2-4.2-12.5-6"/>
						<path class="st1" d="M191.4,39c-0.2,0-0.3,0-0.5-0.1c-4-2.2-8.2-4.2-12.4-5.9c-0.5-0.2-0.8-0.8-0.6-1.4
							c0.2-0.5,0.8-0.8,1.4-0.6c4.3,1.8,8.6,3.8,12.6,6.1c0.5,0.3,0.7,0.9,0.4,1.4C192.2,38.9,191.8,39,191.4,39z"/>
					</g>
				</g>
			</g>
			<circle class="st4" cx="75" cy="105.1" r="7"/>
			<path class="st4" d="M185.8,145.1h-55.7c-7.2,0-13-5.7-13-12.8c0-7.1,5.8-12.8,13-12.8h55.7h1.5h29.3c7.1,0,12.8,5.7,12.8,12.8
				c0,7.1-5.7,12.8-12.8,12.8h-29.3"/>
			<path class="st4" d="M195.6,162h-36.5c-4.7,0-8.5-3.8-8.5-8.4c0-4.6,3.8-8.4,8.5-8.4h36.5h1h10.3c4.6,0,8.4,3.8,8.4,8.4
				c0,4.6-3.8,8.4-8.4,8.4h-10.3"/>
			<path class="st4" d="M83.1,165.1h55.7c7.2,0,13,5.7,13,12.8c0,7.1-5.8,12.8-13,12.8H83.1h-1.5H52.3c-7.1,0-12.8-5.7-12.8-12.8
				c0-7.1,5.7-12.8,12.8-12.8h29.3"/>
			<path class="st4" d="M73.3,148.3h36.5c4.7,0,8.5,3.8,8.5,8.4c0,4.6-3.8,8.4-8.5,8.4H73.3h-1H62c-4.6,0-8.4-3.8-8.4-8.4
				c0-4.6,3.8-8.4,8.4-8.4h10.3"/>
		</g>
		<g>
			<g>
				<path class="st2" d="M145.4,64.9l65,119.2c2,3.6,1.9,7.1-0.2,10.7c-1,1.6-2.3,2.9-3.9,3.9c-1.7,1-3.5,1.4-5.4,1.4H70.9
					c-1.9,0-3.7-0.5-5.4-1.4c-1.7-1-3-2.3-3.9-3.9c-2.1-3.6-2.1-7.1-0.2-10.7l65-119.2c1-1.7,2.3-3.1,4-4.1c1.7-1,3.5-1.5,5.5-1.5
					c2,0,3.8,0.5,5.5,1.5C143.2,61.8,144.5,63.2,145.4,64.9z"/>
			</g>
		</g>
	</g>
	<g>
		<g>
			<path class="st0" d="M145.4,64.9l65,119.2c2,3.6,1.9,7.1-0.2,10.7c-1,1.6-2.3,2.9-3.9,3.9c-1.7,1-3.5,1.4-5.4,1.4H70.9
				c-1.9,0-3.7-0.5-5.4-1.4c-1.7-1-3-2.3-3.9-3.9c-2.1-3.6-2.1-7.1-0.2-10.7l65-119.2c1-1.7,2.3-3.1,4-4.1c1.7-1,3.5-1.5,5.5-1.5
				c2,0,3.8,0.5,5.5,1.5C143.2,61.8,144.5,63.2,145.4,64.9z"/>
		</g>
	</g>
	<g>
		<g>
			<circle class="st3" cx="136" cy="169.4" r="9.7"/>
			<path class="st1" d="M136,180.6c-6.2,0-11.2-5-11.2-11.2s5-11.2,11.2-11.2s11.2,5,11.2,11.2S142.1,180.6,136,180.6z M136,161.2
				c-4.5,0-8.2,3.7-8.2,8.2s3.7,8.2,8.2,8.2s8.2-3.7,8.2-8.2S140.5,161.2,136,161.2z"/>
		</g>
	</g>
	<g>
		<g>
			<path class="st3" d="M144,141.8c0,4.7-3.6,8.6-8,8.6c-4.4,0-8-3.8-8-8.6l-2-26.7c0,0-0.8-10.7,10-10.7c11.1,0,10,10.7,10,10.7
				L144,141.8z"/>
			<path class="st1" d="M136,151.9c-5.2,0-9.5-4.5-9.5-10l-2-26.7c0-0.2-0.4-5.4,3-9c2-2.2,4.9-3.3,8.6-3.3c3.8,0,6.7,1.1,8.8,3.4
				c3.3,3.6,2.8,8.7,2.7,9l-2,26.6C145.5,147.4,141.2,151.9,136,151.9z M136,105.9c-2.8,0-4.9,0.8-6.4,2.3c-2.4,2.6-2.2,6.7-2.2,6.8
				l2,26.8c0,3.9,2.9,7.1,6.5,7.1s6.5-3.2,6.5-7.1l0-0.1l2-26.7c0-0.1,0.4-4.1-2-6.7C141.1,106.7,138.9,105.9,136,105.9z"/>
		</g>
	</g>
	<g>
		<g>
			<path class="st1" d="M201,201.7H70.9c-2.2,0-4.2-0.6-6.1-1.6c-1.9-1.1-3.4-2.6-4.5-4.4c-2.4-4-2.4-8.1-0.2-12.2l8-14.7
				c0.4-0.7,1.3-1,2-0.6c0.7,0.4,1,1.3,0.6,2l-8,14.7c-1.7,3.1-1.7,6.1,0.1,9.2c0.8,1.4,1.9,2.5,3.4,3.4c1.4,0.8,3,1.2,4.6,1.2H201
				c1.7,0,3.2-0.4,4.6-1.2s2.6-1.9,3.4-3.4c1.8-3.1,1.9-6.1,0.2-9.2l-65-119.2c-0.8-1.5-2-2.7-3.4-3.6c-1.5-0.9-3-1.3-4.7-1.3
				c-1.7,0-3.3,0.4-4.7,1.3c-1.5,0.9-2.6,2.1-3.4,3.6l-54.4,99.7c-0.4,0.7-1.3,1-2,0.6c-0.7-0.4-1-1.3-0.6-2l54.4-99.7
				c1.1-2,2.6-3.6,4.5-4.7c1.9-1.2,4-1.7,6.3-1.7s4.4,0.6,6.3,1.7c1.9,1.1,3.4,2.7,4.5,4.7l65,119.2c2.2,4,2.2,8.1-0.2,12.1
				c-1.1,1.9-2.6,3.3-4.5,4.4C205.2,201.1,203.2,201.7,201,201.7z"/>
		</g>
	</g>
	<g>
		<g>
			<circle class="st2" cx="212.3" cy="238.1" r="20.9"/>
			<path class="st1" d="M212.3,260c-12.1,0-21.9-9.8-21.9-21.9c0-12.1,9.8-21.9,21.9-21.9c12.1,0,21.9,9.8,21.9,21.9
				C234.2,250.2,224.3,260,212.3,260z M212.3,218.3c-10.9,0-19.8,8.9-19.8,19.8s8.9,19.8,19.8,19.8s19.8-8.9,19.8-19.8
				S223.2,218.3,212.3,218.3z"/>
		</g>
		<g>
			<linearGradient id="SVGID_1_" gradientUnits="userSpaceOnUse" x1="201.5419" y1="238.1312" x2="222.996" y2="238.1312">
				<stop  offset="0.2097" style="stop-color:#DE912F;stop-opacity:0.8"/>
				<stop  offset="0.5402" style="stop-color:#DC993C;stop-opacity:0.8"/>
				<stop  offset="1" style="stop-color:#D8A855;stop-opacity:0.8"/>
			</linearGradient>
			<path class="st5" d="M219.8,251.4h-15c-1.8,0-3.2-1.5-3.2-3.2l0-20c0-1.8,1.5-3.2,3.2-3.2h10c0.2,0,0.4,0.1,0.5,0.2l7.5,7.5
				c0.1,0.1,0.2,0.3,0.2,0.5v15C223,249.9,221.5,251.4,219.8,251.4z M204.8,226.4c-1,0-1.7,0.8-1.7,1.7l0,20c0,1,0.8,1.7,1.7,1.7h15
				c1,0,1.7-0.8,1.7-1.7v-14.5h-6.4c-0.4,0-0.8-0.3-0.8-0.8v-6.4H204.8z M215.8,232.1h4.3l-4.3-4.3V232.1z"/>
			<linearGradient id="SVGID_2_" gradientUnits="userSpaceOnUse" x1="205.0956" y1="236.4318" x2="219.4423" y2="236.4318">
				<stop  offset="0.2097" style="stop-color:#DE912F;stop-opacity:0.8"/>
				<stop  offset="0.5402" style="stop-color:#DC993C;stop-opacity:0.8"/>
				<stop  offset="1" style="stop-color:#D8A855;stop-opacity:0.8"/>
			</linearGradient>
			<path class="st6" d="M218.7,237.2h-12.8c-0.4,0-0.8-0.3-0.8-0.8s0.3-0.8,0.8-0.8h12.8c0.4,0,0.8,0.3,0.8,0.8
				S219.1,237.2,218.7,237.2z"/>
			<linearGradient id="SVGID_3_" gradientUnits="userSpaceOnUse" x1="205.0956" y1="239.1461" x2="219.4423" y2="239.1461">
				<stop  offset="0.2097" style="stop-color:#DE912F;stop-opacity:0.8"/>
				<stop  offset="0.5402" style="stop-color:#DC993C;stop-opacity:0.8"/>
				<stop  offset="1" style="stop-color:#D8A855;stop-opacity:0.8"/>
			</linearGradient>
			<path class="st7" d="M218.7,239.9h-12.8c-0.4,0-0.8-0.3-0.8-0.8s0.3-0.8,0.8-0.8h12.8c0.4,0,0.8,0.3,0.8,0.8
				S219.1,239.9,218.7,239.9z"/>
			<linearGradient id="SVGID_4_" gradientUnits="userSpaceOnUse" x1="205.0956" y1="241.8605" x2="219.4423" y2="241.8605">
				<stop  offset="0.2097" style="stop-color:#DE912F;stop-opacity:0.8"/>
				<stop  offset="0.5402" style="stop-color:#DC993C;stop-opacity:0.8"/>
				<stop  offset="1" style="stop-color:#D8A855;stop-opacity:0.8"/>
			</linearGradient>
			<path class="st8" d="M218.7,242.6h-12.8c-0.4,0-0.8-0.3-0.8-0.8s0.3-0.8,0.8-0.8h12.8c0.4,0,0.8,0.3,0.8,0.8
				S219.1,242.6,218.7,242.6z"/>
			<linearGradient id="SVGID_5_" gradientUnits="userSpaceOnUse" x1="205.0956" y1="244.5748" x2="219.4423" y2="244.5748">
				<stop  offset="0.2097" style="stop-color:#DE912F;stop-opacity:0.8"/>
				<stop  offset="0.5402" style="stop-color:#DC993C;stop-opacity:0.8"/>
				<stop  offset="1" style="stop-color:#D8A855;stop-opacity:0.8"/>
			</linearGradient>
			<path class="st9" d="M218.7,245.3h-12.8c-0.4,0-0.8-0.3-0.8-0.8s0.3-0.8,0.8-0.8h12.8c0.4,0,0.8,0.3,0.8,0.8
				S219.1,245.3,218.7,245.3z"/>
			<linearGradient id="SVGID_6_" gradientUnits="userSpaceOnUse" x1="205.0956" y1="247.2892" x2="219.4423" y2="247.2892">
				<stop  offset="0.2097" style="stop-color:#DE912F;stop-opacity:0.8"/>
				<stop  offset="0.5402" style="stop-color:#DC993C;stop-opacity:0.8"/>
				<stop  offset="1" style="stop-color:#D8A855;stop-opacity:0.8"/>
			</linearGradient>
			<path class="st10" d="M218.7,248h-12.8c-0.4,0-0.8-0.3-0.8-0.8s0.3-0.8,0.8-0.8h12.8c0.4,0,0.8,0.3,0.8,0.8S219.1,248,218.7,248z
				"/>
		</g>
	</g>
</g>
</svg>
