<svg id="Capa_1" data-name="Capa 1" xmlns="http://www.w3.org/2000/svg" viewBox="0 0 43.42 40.02"><defs><style>.cls-1{fill:#c8c8c8;}</style></defs><title>logo-question</title><path class="cls-1" d="M32.1,14a12.08,12.08,0,0,1,0,12,12,12,0,0,1-4.37,4.37,12.08,12.08,0,0,1-12,0A12,12,0,0,1,11.32,26a12.08,12.08,0,0,1,0-12,12,12,0,0,1,4.37-4.37,12.08,12.08,0,0,1,12,0A12,12,0,0,1,32.1,14Zm-4.39,3a4.19,4.19,0,0,0-.87-2.55A6.08,6.08,0,0,0,22,12a6.38,6.38,0,0,0-5.8,3.33,0.45,0.45,0,0,0,.12.66l2.06,1.56a0.44,0.44,0,0,0,.3.09,0.46,0.46,0,0,0,.39-0.19A7.79,7.79,0,0,1,20.44,16a2.49,2.49,0,0,1,2.68,0,1.14,1.14,0,0,1,.59.92,1.4,1.4,0,0,1-.31,1,3.16,3.16,0,0,1-1.06.7A5.35,5.35,0,0,0,20.53,20a2.89,2.89,0,0,0-.82,2v0.56a0.48,0.48,0,0,0,.5.5h3a0.48,0.48,0,0,0,.5-0.5A1.49,1.49,0,0,1,24,21.74,2.64,2.64,0,0,1,24.9,21l0.77-.45A6.61,6.61,0,0,0,26.38,20a3.64,3.64,0,0,0,.7-0.75,4.14,4.14,0,0,0,.44-0.95A3.94,3.94,0,0,0,27.71,17Zm-4,10.5v-3a0.48,0.48,0,0,0-.5-0.5h-3a0.48,0.48,0,0,0-.5.5v3a0.48,0.48,0,0,0,.5.5h3A0.48,0.48,0,0,0,23.71,27.51Z"/></svg>