<?xml version="1.0" encoding="utf-8"?>
<!-- Generator: Adobe Illustrator 19.2.1, SVG Export Plug-In . SVG Version: 6.00 Build 0)  -->
<svg version="1.1" id="Capa_1" xmlns="http://www.w3.org/2000/svg" xmlns:xlink="http://www.w3.org/1999/xlink" x="0px" y="0px"
	 viewBox="0 0 272 283.1" style="enable-background:new 0 0 272 283.1;" xml:space="preserve">
<style type="text/css">
	.st0{fill:#5371B5;}
	.st1{fill:#355E98;}
	.st2{fill:#F9F9F9;}
	.st3{fill:#EBEBEB;}
	.st4{fill:#FFFFFF;}
	.st5{fill:#4071B7;}
	.st6{fill:url(#SVGID_1_);}
</style>
<title>logo-pass</title>
<g>
	<g>
		<g>
			<circle class="st0" cx="136" cy="141.6" r="126.1"/>
		</g>
		<g>
			<path class="st1" d="M136,269.2C65.6,269.2,8.3,212,8.3,141.5S65.6,13.9,136,13.9s127.7,57.3,127.7,127.7S206.4,269.2,136,269.2z
				 M136,17C67.3,17,11.5,72.9,11.5,141.5S67.3,266.1,136,266.1s124.5-55.9,124.5-124.5S204.7,17,136,17z"/>
		</g>
		<g>
			<g>
				<path class="st2" d="M174.9,29.8c-12.2-4.2-25.3-6.5-38.9-6.5c-65.3,0-118.3,53-118.3,118.3s53,118.3,118.3,118.3
					s118.3-53,118.3-118.3c0-16.4-3.3-32-9.4-46.3c-0.8-2-1.7-4-2.7-5.9c-10-20.3-25.7-37.3-44.9-49"/>
				<path class="st1" d="M136,260.9c-65.8,0-119.3-53.5-119.3-119.3C16.7,75.8,70.2,22.2,136,22.2c13.4,0,26.6,2.2,39.2,6.6
					c0.5,0.2,0.8,0.8,0.6,1.3s-0.8,0.8-1.3,0.6c-12.4-4.3-25.3-6.5-38.5-6.5c-64.6,0-117.2,52.6-117.2,117.2
					c0,64.6,52.6,117.2,117.2,117.2c64.6,0,117.2-52.6,117.2-117.2c0-15.9-3.1-31.3-9.3-45.8c-0.8-2-1.7-3.9-2.7-5.8
					c-9.9-20.1-25.3-36.9-44.5-48.6c-0.5-0.3-0.7-0.9-0.4-1.4c0.3-0.5,0.9-0.7,1.4-0.4c19.6,11.9,35.2,29,45.3,49.5
					c1,2,1.9,4,2.7,5.9c6.3,14.8,9.5,30.5,9.5,46.7C255.3,207.3,201.8,260.9,136,260.9z"/>
			</g>
		</g>
		<circle class="st3" cx="54.2" cy="141.7" r="7"/>
		<circle class="st3" cx="159.7" cy="96.9" r="7"/>
		<path class="st3" d="M119.2,173.9h55.7c7.2,0,13,5.7,13,12.8s-5.8,12.8-13,12.8h-55.7h-1.5H62.6c-7.1,0-12.8-5.7-12.8-12.8
			s5.7-12.8,12.8-12.8h55.1"/>
		<path class="st3" d="M112.3,157.1h36.5c4.7,0,8.5,3.8,8.5,8.4c0,4.6-3.8,8.4-8.5,8.4h-36.5h-1H75.2c-4.6,0-8.4-3.8-8.4-8.4
			c0-4.6,3.8-8.4,8.4-8.4h36.1"/>
		<path class="st3" d="M180.2,154.5h-55.7c-7.2,0-13-5.7-13-12.8s5.8-12.8,13-12.8h55.7h1.5H211c7.1,0,12.8,5.7,12.8,12.8
			s-5.7,12.8-12.8,12.8h-29.3"/>
		<path class="st3" d="M190,171.3h-36.5c-4.7,0-8.5-3.8-8.5-8.4c0-4.6,3.8-8.4,8.5-8.4H190h1h10.3c4.6,0,8.4,3.8,8.4,8.4
			c0,4.6-3.8,8.4-8.4,8.4H191"/>
		<g>
			<g>
				<path class="st4" d="M192.1,37.6c-4.1-2.3-8.3-4.3-12.7-6.1"/>
				<path class="st1" d="M192.1,38.6c-0.2,0-0.3,0-0.5-0.1c-4.1-2.2-8.3-4.3-12.6-6c-0.5-0.2-0.8-0.8-0.6-1.4
					c0.2-0.5,0.8-0.8,1.4-0.6c4.4,1.8,8.7,3.8,12.8,6.1c0.5,0.3,0.7,0.9,0.4,1.4C192.8,38.5,192.5,38.6,192.1,38.6z"/>
			</g>
		</g>
		<g>
			<g>
				<g>
					<path class="st4" d="M196.7,137.7v60.7c0,2.8-1,5.2-3,7.2c-2,2-4.4,3-7.2,3H85.3c-2.8,0-5.2-1-7.2-3c-2-2-3-4.4-3-7.2v-60.7
						c0-2.8,1-5.2,3-7.2c2-2,4.4-3,7.2-3h3.4v-20.2c0-12.9,4.6-24,13.9-33.3S123,60.1,136,60.1c12.9,0,24,4.6,33.3,13.9
						c9.3,9.3,13.9,20.4,13.9,33.3v20.2h3.4c2.8,0,5.2,1,7.2,3C195.7,132.5,196.7,134.9,196.7,137.7z M109,127.6h54v-20.2
						c0-7.5-2.6-13.8-7.9-19.1c-5.3-5.3-11.6-7.9-19.1-7.9c-7.5,0-13.8,2.6-19.1,7.9c-5.3,5.3-7.9,11.6-7.9,19.1V127.6z"/>
				</g>
			</g>
			<g>
				<g>
					<path class="st0" d="M196.7,137.7v60.7c0,2.8-1,5.2-3,7.2c-2,2-4.4,3-7.2,3H85.3c-2.8,0-5.2-1-7.2-3c-2-2-3-4.4-3-7.2v-60.7
						c0-2.8,1-5.2,3-7.2c2-2,4.4-3,7.2-3h3.4v-20.2c0-12.9,4.6-24,13.9-33.3S123,60.1,136,60.1c12.9,0,24,4.6,33.3,13.9
						c9.3,9.3,13.9,20.4,13.9,33.3v20.2h3.4c2.8,0,5.2,1,7.2,3C195.7,132.5,196.7,134.9,196.7,137.7z M109,127.6h54v-20.2
						c0-7.5-2.6-13.8-7.9-19.1c-5.3-5.3-11.6-7.9-19.1-7.9c-7.5,0-13.8,2.6-19.1,7.9c-5.3,5.3-7.9,11.6-7.9,19.1V127.6z"/>
				</g>
			</g>
			<g>
				<g>
					<path class="st1" d="M186.6,210H85.3c-3.2,0-6-1.1-8.2-3.4c-2.2-2.2-3.4-5-3.4-8.2v-60.7c0-3.2,1.1-6,3.4-8.2s5-3.4,8.2-3.4
						h1.9v-18.8c0-13.3,4.8-24.8,14.4-34.4c9.5-9.5,21.1-14.4,34.4-14.4c13.3,0,24.8,4.8,34.4,14.4c9.5,9.5,14.4,21.1,14.4,34.4
						v18.8h1.9c3.2,0,6,1.1,8.2,3.4c2.2,2.2,3.4,5,3.4,8.2v60.7c0,3.2-1.1,6-3.4,8.2C192.5,208.9,189.8,210,186.6,210z M85.3,129
						c-2.4,0-4.4,0.8-6.1,2.5c-1.7,1.7-2.5,3.7-2.5,6.1v60.7c0,2.4,0.8,4.4,2.5,6.1s3.7,2.5,6.1,2.5h101.2c2.4,0,4.4-0.8,6.1-2.5
						c1.7-1.7,2.5-3.7,2.5-6.1v-60.7c0-2.4-0.8-4.4-2.5-6.1c-1.7-1.7-3.7-2.5-6.1-2.5h-3.4c-0.8,0-1.5-0.7-1.5-1.5v-20.2
						c0-12.5-4.5-23.3-13.5-32.3c-9-9-19.8-13.5-32.3-13.5c-12.5,0-23.3,4.5-32.3,13.5c-9,9-13.5,19.8-13.5,32.3v20.2
						c0,0.8-0.7,1.5-1.5,1.5H85.3z M163,129h-54c-0.8,0-1.5-0.7-1.5-1.5v-20.2c0-7.8,2.8-14.6,8.3-20.1c5.5-5.5,12.3-8.3,20.1-8.3
						c7.8,0,14.6,2.8,20.1,8.3c5.5,5.5,8.3,12.3,8.3,20.1v20.2C164.4,128.4,163.8,129,163,129z M110.4,126.1h51.1v-18.8
						c0-7-2.5-13.1-7.5-18c-5-5-11-7.5-18-7.5c-7,0-13.1,2.5-18,7.5c-5,5-7.5,11-7.5,18V126.1z"/>
				</g>
			</g>
			<g>
				<line class="st5" x1="94" y1="149.1" x2="93" y2="149.1"/>
				<path class="st1" d="M94,150.1h-1c-0.8,0-1.5-0.7-1.5-1.5s0.7-1.5,1.5-1.5h1c0.8,0,1.5,0.7,1.5,1.5S94.8,150.1,94,150.1z"/>
			</g>
			<g>
				<line class="st5" x1="76" y1="149.1" x2="88" y2="149.1"/>
				<path class="st1" d="M88,150.1H76c-0.8,0-1.5-0.7-1.5-1.5s0.7-1.5,1.5-1.5h12c0.8,0,1.5,0.7,1.5,1.5S88.8,150.1,88,150.1z"/>
			</g>
			<g>
				<line class="st5" x1="76" y1="157.1" x2="97" y2="157.1"/>
				<path class="st1" d="M97,158.1H76c-0.8,0-1.5-0.7-1.5-1.5s0.7-1.5,1.5-1.5h21c0.8,0,1.5,0.7,1.5,1.5S97.8,158.1,97,158.1z"/>
			</g>
			<g>
				<line class="st5" x1="76" y1="164.1" x2="93" y2="164.1"/>
				<path class="st1" d="M93,165.1H76c-0.8,0-1.5-0.7-1.5-1.5s0.7-1.5,1.5-1.5h17c0.8,0,1.5,0.7,1.5,1.5S93.8,165.1,93,165.1z"/>
			</g>
			<g>
				<g>
					<line class="st5" x1="178" y1="149.1" x2="195" y2="149.1"/>
					<path class="st1" d="M195,150.1h-17c-0.8,0-1.5-0.7-1.5-1.5s0.7-1.5,1.5-1.5h17c0.8,0,1.5,0.7,1.5,1.5S195.8,150.1,195,150.1z"
						/>
				</g>
				<g>
					<line class="st5" x1="181" y1="157.1" x2="195" y2="157.1"/>
					<path class="st1" d="M195,158.1h-14c-0.8,0-1.5-0.7-1.5-1.5s0.7-1.5,1.5-1.5h14c0.8,0,1.5,0.7,1.5,1.5S195.8,158.1,195,158.1z"
						/>
				</g>
				<g>
					<line class="st5" x1="176" y1="157.1" x2="177" y2="157.1"/>
					<path class="st1" d="M177,158.1h-1c-0.8,0-1.5-0.7-1.5-1.5s0.7-1.5,1.5-1.5h1c0.8,0,1.5,0.7,1.5,1.5S177.8,158.1,177,158.1z"/>
				</g>
				<g>
					<line class="st5" x1="176" y1="164.1" x2="195" y2="164.1"/>
					<path class="st1" d="M195,165.1h-19c-0.8,0-1.5-0.7-1.5-1.5s0.7-1.5,1.5-1.5h19c0.8,0,1.5,0.7,1.5,1.5S195.8,165.1,195,165.1z"
						/>
				</g>
			</g>
		</g>
	</g>
	<g>
		<g>
			<circle class="st2" cx="212.3" cy="239" r="20.9"/>
			<path class="st1" d="M212.3,260.9c-12.1,0-21.9-9.8-21.9-21.9c0-12.1,9.8-21.9,21.9-21.9c12.1,0,21.9,9.8,21.9,21.9
				C234.2,251,224.3,260.9,212.3,260.9z M212.3,219.2c-10.9,0-19.8,8.9-19.8,19.8s8.9,19.8,19.8,19.8s19.8-8.9,19.8-19.8
				S223.2,219.2,212.3,219.2z"/>
		</g>
		<linearGradient id="SVGID_1_" gradientUnits="userSpaceOnUse" x1="198.2847" y1="238.9624" x2="226.2531" y2="238.9624">
			<stop  offset="0" style="stop-color:#4070B7"/>
			<stop  offset="0.9958" style="stop-color:#4070B7;stop-opacity:0.8"/>
		</linearGradient>
		<path class="st6" d="M221.3,227.3c-0.1,0-0.2,0-0.4-0.1c-3-1.5-5.6-2.2-8.7-2.2c-3.1,0-6,0.7-8.7,2.2c-0.4,0.2-0.8,0.1-1.1-0.3
			c-0.2-0.4-0.1-0.9,0.3-1.1c2.9-1.6,6.1-2.4,9.4-2.4c3.3,0,6.2,0.7,9.4,2.4c0.4,0.2,0.5,0.7,0.3,1
			C221.9,227.1,221.6,227.3,221.3,227.3z M199.1,235.4c-0.2,0-0.3,0-0.5-0.1c-0.4-0.2-0.4-0.7-0.2-1.1c1.5-2.2,3.5-3.9,5.8-5.1
			c4.9-2.5,11.1-2.5,16,0c2.3,1.2,4.3,2.9,5.8,5.1c0.2,0.3,0.2,0.8-0.2,1.1s-0.8,0.2-1.1-0.2c-1.4-2-3.2-3.5-5.3-4.6
			c-4.5-2.3-10.2-2.3-14.6,0c-2.1,1.1-3.9,2.6-5.3,4.6C199.5,235.3,199.3,235.4,199.1,235.4z M208.8,254.2c-0.2,0-0.4-0.1-0.5-0.2
			c-1.4-1.4-2.1-2.2-3.1-4.1c-1.1-1.9-1.6-4.2-1.6-6.7c0-4.6,3.9-8.4,8.8-8.4c4.8,0,8.8,3.8,8.8,8.4c0,0.4-0.3,0.8-0.8,0.8
			c-0.4,0-0.8-0.3-0.8-0.8c0-3.8-3.2-6.8-7.2-6.8c-4,0-7.2,3.1-7.2,6.8c0,2.2,0.5,4.3,1.4,6c1,1.8,1.7,2.5,2.9,3.8
			c0.3,0.3,0.3,0.8,0,1.1C209.2,254.1,209,254.2,208.8,254.2z M219.9,251.3c-1.8,0-3.5-0.5-4.8-1.4c-2.3-1.6-3.7-4.1-3.7-6.8
			c0-0.4,0.3-0.8,0.8-0.8s0.8,0.3,0.8,0.8c0,2.2,1.1,4.3,3,5.5c1.1,0.7,2.4,1.1,3.9,1.1c0.4,0,1,0,1.6-0.2c0.4-0.1,0.8,0.2,0.9,0.6
			c0.1,0.4-0.2,0.8-0.6,0.9C220.9,251.3,220.1,251.3,219.9,251.3z M216.8,254.5c-0.1,0-0.1,0-0.2,0c-2.5-0.7-4.1-1.6-5.8-3.3
			c-2.2-2.2-3.4-5-3.4-8.1c0-2.5,2.1-4.6,4.8-4.6s4.8,2.1,4.8,4.6c0,1.7,1.4,3,3.2,3s3.2-1.4,3.2-3c0-5.9-5.1-10.6-11.3-10.6
			c-4.4,0-8.5,2.5-10.3,6.3c-0.6,1.3-0.9,2.7-0.9,4.4c0,1.2,0.1,3.1,1,5.6c0.2,0.4,0,0.9-0.5,1c-0.4,0.2-0.9-0.1-1-0.5
			c-0.8-2-1.1-4.1-1.1-6.2c0-1.9,0.4-3.6,1.1-5c2.1-4.3,6.7-7.1,11.7-7.1c7.1,0,12.8,5.5,12.8,12.2c0,2.5-2.1,4.6-4.8,4.6
			s-4.8-2.1-4.8-4.6c0-1.7-1.4-3-3.2-3s-3.2,1.4-3.2,3c0,2.7,1,5.1,2.9,7c1.5,1.5,2.9,2.3,5.1,2.9c0.4,0.1,0.7,0.5,0.5,0.9
			C217.5,254.3,217.1,254.5,216.8,254.5z"/>
	</g>
</g>
</svg>
