<?xml version="1.0" encoding="utf-8"?>
<!-- Generator: Adobe Illustrator 19.2.1, SVG Export Plug-In . SVG Version: 6.00 Build 0)  -->
<svg version="1.1" id="Capa_1" xmlns="http://www.w3.org/2000/svg" xmlns:xlink="http://www.w3.org/1999/xlink" x="0px" y="0px"
	 viewBox="0 0 272 283.1" style="enable-background:new 0 0 272 283.1;" xml:space="preserve">
<style type="text/css">
	.st0{fill:#5FA748;}
	.st1{fill:#355E98;}
	.st2{fill:#F9F9F9;}
	.st3{fill:#FFFFFF;}
	.st4{fill:#EBEBEB;}
	.st5{fill:url(#SVGID_1_);}
	.st6{fill:url(#SVGID_2_);}
	.st7{fill:url(#SVGID_3_);}
	.st8{fill:url(#SVGID_4_);}
	.st9{fill:url(#SVGID_5_);}
	.st10{fill:url(#SVGID_6_);}
</style>
<g>
	<g>
		<g>
			<g>
				<circle class="st0" cx="136" cy="141.6" r="126.1"/>
			</g>
			<g>
				<path class="st1" d="M136,269.3C65.6,269.3,8.3,212,8.3,141.6C8.3,71.2,65.6,13.9,136,13.9s127.7,57.3,127.7,127.7
					C263.7,212,206.4,269.3,136,269.3z M136,17.1c-68.7,0-124.5,55.9-124.5,124.5c0,68.7,55.9,124.5,124.5,124.5
					s124.5-55.9,124.5-124.5C260.5,72.9,204.7,17.1,136,17.1z"/>
			</g>
			<g>
				<g>
					<path class="st2" d="M98,250.8c11.9,4.1,24.7,6.4,38,6.4c63.8,0,115.6-51.8,115.6-115.6S199.8,26,136,26S20.4,77.8,20.4,141.6
						c0,16,3.3,31.3,9.2,45.2c0.8,1.9,1.7,3.9,2.6,5.8c9.8,19.9,25.1,36.5,43.9,47.9"/>
					<path class="st1" d="M136,258.2c-13.1,0-26-2.2-38.3-6.5c-0.5-0.2-0.8-0.8-0.6-1.3c0.2-0.5,0.8-0.8,1.3-0.6
						c12.1,4.2,24.8,6.3,37.7,6.3c63.2,0,114.6-51.4,114.6-114.6C250.6,78.4,199.2,27,136,27S21.4,78.4,21.4,141.6
						c0,15.5,3.1,30.6,9.1,44.8c0.8,1.9,1.7,3.8,2.6,5.7c9.7,19.7,24.7,36.1,43.5,47.5c0.5,0.3,0.6,0.9,0.3,1.4
						c-0.3,0.5-0.9,0.6-1.4,0.3c-19.1-11.6-34.4-28.3-44.3-48.4c-0.9-1.9-1.8-3.9-2.7-5.8c-6.1-14.4-9.3-29.8-9.3-45.6
						C19.4,77.3,71.7,25,136,25c64.3,0,116.6,52.3,116.6,116.6S200.3,258.2,136,258.2z"/>
				</g>
			</g>
			<g>
				<g>
					<path class="st3" d="M81.2,243.2c4,2.2,8.1,4.2,12.4,5.9"/>
					<path class="st1" d="M93.5,250.2c-0.1,0-0.3,0-0.4-0.1c-4.3-1.7-8.5-3.8-12.5-6c-0.5-0.3-0.7-0.9-0.4-1.4
						c0.3-0.5,0.9-0.7,1.4-0.4c4,2.2,8.1,4.2,12.3,5.9c0.5,0.2,0.8,0.8,0.6,1.3C94.3,249.9,94,250.2,93.5,250.2z"/>
				</g>
			</g>
		</g>
	</g>
	<circle class="st4" cx="178.9" cy="168" r="7"/>
	<path class="st4" d="M88.1,174h55.7c7.2,0,13,5.7,13,12.8s-5.8,12.8-13,12.8H88.1h-1.5H57.3c-7.1,0-12.8-5.7-12.8-12.8
		S50.3,174,57.3,174h29.3"/>
	<path class="st4" d="M78.3,157.2h36.5c4.7,0,8.5,3.8,8.5,8.4c0,4.6-3.8,8.4-8.5,8.4H78.3h-1H67c-4.6,0-8.4-3.8-8.4-8.4
		c0-4.6,3.8-8.4,8.4-8.4h10.3"/>
	<path class="st4" d="M159.5,106.2h35.2c7.2,0,13,5.7,13,12.8c0,7.1-5.8,12.8-13,12.8h-35.2H158h-29.3c-7.1,0-12.8-5.7-12.8-12.8
		c0-7.1,5.7-12.8,12.8-12.8H158"/>
	<path class="st4" d="M155.7,89.4h30.5c4.7,0,8.5,3.8,8.5,8.4c0,4.6-3.8,8.4-8.5,8.4h-30.5h-1h-10.3c-4.6,0-8.4-3.8-8.4-8.4
		c0-4.6,3.8-8.4,8.4-8.4h10.3"/>
	<g>
		<path class="st3" d="M108.5,200.4l-44.8-44.8c-1.5-1.5-1.5-3.8,0-5.3l16-16c1.5-1.5,3.8-1.5,5.3,0l23.6,23.6
			c1.5,1.5,3.8,1.5,5.3,0l75.2-75.2c1.5-1.5,3.8-1.5,5.3,0l16,16c1.5,1.5,1.5,3.8,0,5.3l-96.4,96.4
			C112.3,201.9,110,201.9,108.5,200.4z"/>
		<path class="st0" d="M108.5,200.4l-44.8-44.8c-1.5-1.5-1.5-3.8,0-5.3l16-16c1.5-1.5,3.8-1.5,5.3,0l23.6,23.6
			c1.5,1.5,3.8,1.5,5.3,0l75.2-75.2c1.5-1.5,3.8-1.5,5.3,0l16,16c1.5,1.5,1.5,3.8,0,5.3l-96.4,96.4
			C112.3,201.9,110,201.9,108.5,200.4z"/>
		<path class="st1" d="M111.1,203c-1.3,0-2.7-0.5-3.7-1.5l-44.8-44.8c-2-2-2-5.4,0-7.4l16-16c2-2,5.4-2,7.4,0l23.6,23.6
			c0.8,0.8,2.3,0.8,3.2,0l75.2-75.2c2-2,5.4-2,7.4,0l16,16c1,1,1.5,2.3,1.5,3.7c0,1.4-0.5,2.7-1.5,3.7l-35.7,35.7
			c-0.6,0.6-1.5,0.6-2.1,0c-0.6-0.6-0.6-1.5,0-2.1l35.7-35.7c0.4-0.4,0.7-1,0.7-1.6c0-0.6-0.2-1.2-0.7-1.6l-16-16
			c-0.9-0.9-2.3-0.9-3.2,0L114.8,159c-1,1-2.3,1.5-3.7,1.5c-1.4,0-2.7-0.5-3.7-1.5l-23.6-23.6c-0.9-0.9-2.3-0.9-3.2,0l-16,16
			c-0.4,0.4-0.7,1-0.7,1.6c0,0.6,0.2,1.2,0.7,1.6l44.8,44.8c0.9,0.9,2.3,0.9,3.2,0l56.8-56.8c0.6-0.6,1.5-0.6,2.1,0s0.6,1.5,0,2.1
			l-56.8,56.8C113.8,202.5,112.5,203,111.1,203z"/>
	</g>
	<g>
		<g>
			<circle class="st2" cx="207.6" cy="240" r="20.9"/>
			<path class="st1" d="M207.6,261.9c-12.1,0-21.9-9.8-21.9-21.9c0-12.1,9.8-21.9,21.9-21.9c12.1,0,21.9,9.8,21.9,21.9
				C229.5,252.1,219.7,261.9,207.6,261.9z M207.6,220.2c-10.9,0-19.8,8.9-19.8,19.8s8.9,19.8,19.8,19.8s19.8-8.9,19.8-19.8
				S218.5,220.2,207.6,220.2z"/>
		</g>
		<linearGradient id="SVGID_1_" gradientUnits="userSpaceOnUse" x1="196.8913" y1="240.0187" x2="218.3454" y2="240.0187">
			<stop  offset="0.1277" style="stop-color:#78A450"/>
			<stop  offset="1" style="stop-color:#9DC44D;stop-opacity:0.8"/>
		</linearGradient>
		<path class="st5" d="M215.1,253.2h-15c-1.8,0-3.2-1.5-3.2-3.2l0-20c0-1.8,1.5-3.2,3.2-3.2h10c0.2,0,0.4,0.1,0.5,0.2l7.5,7.5
			c0.1,0.1,0.2,0.3,0.2,0.5v15C218.3,251.8,216.9,253.2,215.1,253.2z M200.1,228.3c-1,0-1.7,0.8-1.7,1.7l0,20c0,1,0.8,1.7,1.7,1.7
			h15c1,0,1.7-0.8,1.7-1.7v-14.5h-6.4c-0.4,0-0.8-0.3-0.8-0.8v-6.4H200.1z M211.2,234h4.3l-4.3-4.3V234z"/>
		<linearGradient id="SVGID_2_" gradientUnits="userSpaceOnUse" x1="200.2389" y1="238.3192" x2="214.5856" y2="238.3192">
			<stop  offset="0.1277" style="stop-color:#78A450"/>
			<stop  offset="1" style="stop-color:#9DC44D;stop-opacity:0.8"/>
		</linearGradient>
		<path class="st6" d="M213.8,239.1H201c-0.4,0-0.8-0.3-0.8-0.8s0.3-0.8,0.8-0.8h12.8c0.4,0,0.8,0.3,0.8,0.8
			S214.2,239.1,213.8,239.1z"/>
		<linearGradient id="SVGID_3_" gradientUnits="userSpaceOnUse" x1="200.2389" y1="241.0336" x2="214.5856" y2="241.0336">
			<stop  offset="0.1277" style="stop-color:#78A450"/>
			<stop  offset="1" style="stop-color:#9DC44D;stop-opacity:0.8"/>
		</linearGradient>
		<path class="st7" d="M213.8,241.8H201c-0.4,0-0.8-0.3-0.8-0.8s0.3-0.8,0.8-0.8h12.8c0.4,0,0.8,0.3,0.8,0.8
			S214.2,241.8,213.8,241.8z"/>
		<linearGradient id="SVGID_4_" gradientUnits="userSpaceOnUse" x1="200.2389" y1="243.7479" x2="214.5856" y2="243.7479">
			<stop  offset="0.1277" style="stop-color:#78A450"/>
			<stop  offset="1" style="stop-color:#9DC44D;stop-opacity:0.8"/>
		</linearGradient>
		<path class="st8" d="M213.8,244.5H201c-0.4,0-0.8-0.3-0.8-0.8s0.3-0.8,0.8-0.8h12.8c0.4,0,0.8,0.3,0.8,0.8
			S214.2,244.5,213.8,244.5z"/>
		<linearGradient id="SVGID_5_" gradientUnits="userSpaceOnUse" x1="200.2389" y1="246.4623" x2="214.5856" y2="246.4623">
			<stop  offset="0.1277" style="stop-color:#78A450"/>
			<stop  offset="1" style="stop-color:#9DC44D;stop-opacity:0.8"/>
		</linearGradient>
		<path class="st9" d="M213.8,247.2H201c-0.4,0-0.8-0.3-0.8-0.8s0.3-0.8,0.8-0.8h12.8c0.4,0,0.8,0.3,0.8,0.8
			S214.2,247.2,213.8,247.2z"/>
		<linearGradient id="SVGID_6_" gradientUnits="userSpaceOnUse" x1="200.2389" y1="249.1766" x2="214.5856" y2="249.1766">
			<stop  offset="0.1277" style="stop-color:#78A450"/>
			<stop  offset="1" style="stop-color:#9DC44D;stop-opacity:0.8"/>
		</linearGradient>
		<path class="st10" d="M213.8,249.9H201c-0.4,0-0.8-0.3-0.8-0.8s0.3-0.8,0.8-0.8h12.8c0.4,0,0.8,0.3,0.8,0.8
			S214.2,249.9,213.8,249.9z"/>
	</g>
</g>
</svg>
