<?xml version="1.0" encoding="utf-8"?>
<!-- Generator: Adobe Illustrator 19.2.1, SVG Export Plug-In . SVG Version: 6.00 Build 0)  -->
<svg version="1.1" id="Capa_1" xmlns="http://www.w3.org/2000/svg" xmlns:xlink="http://www.w3.org/1999/xlink" x="0px" y="0px"
	 viewBox="0 0 372.3 66.6" style="enable-background:new 0 0 372.3 66.6;" xml:space="preserve">
<style type="text/css">
	.st0{fill:#59595B;}
	.st1{fill:#4272B4;}
	.st2{fill:#FFFFFF;}
	.st3{fill:#272425;}
	.st4{fill:#EDCA6A;}
	.st5{fill:#599C60;}
	.st6{fill:#DFB581;}
	.st7{fill:#538DB6;}
	.st8{fill:#BB402C;}
</style>
<title>logo-ministerio</title>
<path class="st0" d="M58.1,2.8h3l3.4,5.4l3.4-5.4h3v12.8h-2.7V7.2l-3.6,5.5h-0.1l-3.6-5.4v8.3h-2.8V2.8z"/>
<path class="st0" d="M73.8,2.2h2.9v2.5h-2.9V2.2z M73.8,5.7h2.8v9.8h-2.8V5.7z"/>
<path class="st0" d="M79.2,5.7H82v1.4c0.6-1,1.7-1.6,2.9-1.6c2.1,0,3.3,1.4,3.3,3.6v6.3h-2.8v-5.5c0-1.3-0.6-2-1.7-2
	C82.8,8,82,8.8,82,9.7c0,0.1,0,0.2,0,0.4v5.5h-2.8V5.7z"/>
<path class="st0" d="M90.7,2.2h2.9v2.5h-2.9V2.2z M90.7,5.7h2.8v9.8h-2.8V5.7z"/>
<path class="st0" d="M95.4,14.2l1.2-1.8c0.9,0.7,2,1.1,3.1,1.2c0.8,0,1.2-0.3,1.2-0.7l0,0c0-0.6-0.9-0.8-2-1.1
	c-1.4-0.4-2.9-1-2.9-2.9l0,0c0-2,1.6-3.1,3.6-3.1c1.3,0,2.6,0.4,3.7,1.1l-1.1,1.9c-0.8-0.5-1.7-0.8-2.7-0.9c-0.7,0-1,0.3-1,0.7l0,0
	c0,0.5,0.9,0.8,2,1.2c1.4,0.5,3,1.1,3,2.9l0,0c0,2.2-1.6,3.2-3.7,3.2C98.1,15.7,96.6,15.2,95.4,14.2z"/>
<path class="st0" d="M105.6,12.8V8.1h-1.2V5.7h1.2V3.2h2.8v2.5h2.3v2.4h-2.3v4.2c-0.1,0.4,0.2,0.9,0.6,0.9c0.1,0,0.2,0,0.3,0
	c0.5,0,1-0.1,1.4-0.3v2.2c-0.7,0.4-1.4,0.6-2.2,0.6C106.7,15.7,105.6,15,105.6,12.8z"/>
<path class="st0" d="M112,10.7L112,10.7c-0.1-2.7,1.9-5,4.6-5.1c0.1,0,0.1,0,0.2,0c3.3,0,4.8,2.5,4.8,5.3c0,0.2,0,0.5,0,0.7h-6.8
	c0.2,1.2,1.2,2,2.4,1.9c0.9,0,1.8-0.4,2.4-1l1.6,1.4c-1.8,2.2-5.1,2.5-7.3,0.7C112.7,13.7,112,12.2,112,10.7z M118.8,9.9
	c0-1.1-0.9-2.1-2.1-2.1c-1.1,0-2.1,0.9-2.1,2.1L118.8,9.9L118.8,9.9z"/>
<path class="st0" d="M123.6,5.7h2.8v2c0.4-1.4,1.7-2.3,3.1-2.2v2.9h-0.1c-1.8,0-3,1.1-3,3.5v3.6h-2.8L123.6,5.7L123.6,5.7z"/>
<path class="st0" d="M131.3,2.2h2.9v2.5h-2.9V2.2z M131.4,5.7h2.8v9.8h-2.8L131.4,5.7L131.4,5.7z"/>
<path class="st0" d="M136.3,10.7L136.3,10.7c0.1-2.9,2.6-5.2,5.5-5.1c2.7,0.1,4.9,2.3,5.1,5.1l0,0c-0.1,2.9-2.6,5.2-5.5,5.1
	C138.6,15.6,136.4,13.4,136.3,10.7z M144.2,10.7L144.2,10.7c0.1-1.4-1.1-2.6-2.5-2.7c0,0-0.1,0-0.1,0c-1.4,0-2.5,1.1-2.5,2.5
	c0,0.1,0,0.1,0,0.2l0,0c-0.1,1.4,1.1,2.6,2.5,2.7c0,0,0.1,0,0.1,0c1.4,0,2.5-1.1,2.5-2.5C144.2,10.8,144.2,10.8,144.2,10.7
	L144.2,10.7z"/>
<path class="st0" d="M154,10.7L154,10.7c0-3.3,2.1-5.1,4.5-5.1c1.2,0,2.3,0.5,3.1,1.5V2.2h2.8v13.3h-2.8v-1.4
	c-0.7,1-1.8,1.6-3.1,1.6C156.1,15.7,154,13.9,154,10.7z M161.5,10.7L161.5,10.7c0.1-1.3-0.8-2.5-2.1-2.7c-1.3-0.1-2.5,0.8-2.7,2.1
	c0,0.2,0,0.4,0,0.5l0,0c-0.1,1.3,0.8,2.5,2.1,2.7s2.5-0.8,2.7-2.1C161.5,11,161.5,10.8,161.5,10.7L161.5,10.7z"/>
<path class="st0" d="M166.2,10.7L166.2,10.7c-0.1-2.7,1.9-5,4.6-5.1c0.1,0,0.1,0,0.2,0c3.3,0,4.8,2.5,4.8,5.3c0,0.2,0,0.5,0,0.7
	h-6.8c0.2,1.2,1.2,2,2.4,1.9c0.9,0,1.8-0.4,2.4-1l1.6,1.4c-1.8,2.2-5.1,2.5-7.3,0.7C166.9,13.7,166.3,12.2,166.2,10.7z M173.1,9.9
	c0-1.1-0.9-2.1-2.1-2.1c-1.1,0-2.1,0.9-2.1,2.1H173.1z"/>
<path class="st0" d="M178.1,2.2h2.8v13.3h-2.8V2.2z"/>
<path class="st0" d="M189.3,2.8h2.8v12.8h-2.8V2.8z"/>
<path class="st0" d="M195.1,5.7h2.8v1.4c0.6-1,1.7-1.6,2.9-1.6c2.1,0,3.3,1.4,3.3,3.6v6.3h-2.8v-5.5c0-1.3-0.6-2-1.7-2
	c-0.9,0-1.7,0.7-1.8,1.6c0,0.1,0,0.2,0,0.4v5.5h-2.8L195.1,5.7L195.1,5.7z"/>
<path class="st0" d="M206.9,12.8V8.1h-1.2V5.7h1.2V3.2h2.8v2.5h2.3v2.4h-2.3v4.2c-0.1,0.4,0.2,0.9,0.6,0.9c0.1,0,0.2,0,0.3,0
	c0.5,0,1-0.1,1.4-0.3v2.2c-0.7,0.4-1.4,0.6-2.2,0.6C208.1,15.7,206.9,15,206.9,12.8z"/>
<path class="st0" d="M213.3,10.7L213.3,10.7c-0.1-2.7,1.9-5,4.6-5.1c0.1,0,0.1,0,0.2,0c3.3,0,4.8,2.5,4.8,5.3c0,0.2,0,0.5,0,0.7
	h-6.8c0.2,1.2,1.2,2,2.4,1.9c0.9,0,1.8-0.4,2.4-1l1.6,1.4c-1.8,2.2-5.1,2.5-7.3,0.7C214,13.7,213.3,12.2,213.3,10.7z M220.1,9.9
	c0-1.1-0.9-2-2-2.1c-1.1,0-2.1,0.9-2.1,2.1H220.1z"/>
<path class="st0" d="M225,5.7h2.8v2c0.4-1.4,1.7-2.3,3.1-2.2v2.9h-0.1c-1.8,0-3,1.1-3,3.5v3.6h-2.8L225,5.7L225,5.7z"/>
<path class="st0" d="M232.6,2.2h2.9v2.5h-2.9V2.2z M232.7,5.7h2.8v9.8h-2.8V5.7z"/>
<path class="st0" d="M237.6,10.7L237.6,10.7c0.1-2.9,2.6-5.2,5.5-5.1c2.7,0.1,4.9,2.3,5.1,5.1l0,0c-0.1,2.9-2.6,5.2-5.5,5.1
	C240,15.6,237.8,13.4,237.6,10.7z M245.5,10.7L245.5,10.7c0.1-1.4-1.1-2.6-2.5-2.7c0,0-0.1,0-0.1,0c-1.4,0-2.5,1.1-2.5,2.5
	c0,0.1,0,0.1,0,0.2l0,0c-0.1,1.4,1.1,2.6,2.5,2.7c0,0,0.1,0,0.1,0c1.4,0,2.5-1.1,2.5-2.5C245.5,10.8,245.5,10.8,245.5,10.7z"/>
<path class="st0" d="M250.2,5.7h2.8v2c0.4-1.4,1.7-2.3,3.1-2.2v2.9H256c-1.8,0-3,1.1-3,3.5v3.6h-2.8V5.7z"/>
<path class="st0" d="M255.5,17.3c1.3-0.1,1.9-0.8,1.8-1.8h-1.1v-2.9h3v2.5c0,2.4-1.2,3.4-3.4,3.4L255.5,17.3z"/>
<path class="st0" d="M57.6,31.1L57.6,31.1c0.1-3.8,3.3-6.7,7.1-6.5c3.6,0.1,6.4,3,6.5,6.5l0,0c-0.1,3.8-3.3,6.7-7.1,6.5
	C60.6,37.5,57.7,34.7,57.6,31.1z M68.2,31.1L68.2,31.1c0.1-2.1-1.6-3.9-3.8-4c0,0-0.1,0-0.1,0c-2.1,0-3.8,1.7-3.8,3.8
	c0,0.1,0,0.1,0,0.2l0,0c-0.1,2.1,1.6,3.9,3.8,4c0,0,0.1,0,0.1,0c2.1,0,3.8-1.7,3.8-3.8C68.2,31.2,68.2,31.2,68.2,31.1L68.2,31.1z"/>
<path class="st0" d="M76.2,36.2v1.3h-2.8V24.1h2.8v5c0.7-1,1.8-1.6,3.1-1.6c2.3,0,4.5,1.8,4.5,5.1l0,0c0,3.3-2.1,5.1-4.5,5.1
	C78,37.7,76.9,37.1,76.2,36.2z M80.9,32.6L80.9,32.6c0.1-1.3-0.8-2.5-2.1-2.7c-1.3-0.1-2.5,0.8-2.7,2.1c0,0.2,0,0.4,0,0.5l0,0
	c-0.1,1.3,0.9,2.5,2.2,2.6c1.3,0.1,2.5-0.9,2.6-2.2C80.9,32.9,80.9,32.7,80.9,32.6L80.9,32.6z"/>
<path class="st0" d="M85.7,27.7h2.8v2c0.4-1.4,1.7-2.3,3.1-2.2v2.9h-0.2c-1.8,0-3,1.1-3,3.4v3.6h-2.8V27.7z"/>
<path class="st0" d="M92.3,34.7L92.3,34.7c0-2.1,1.6-3.1,3.9-3.1c0.8,0,1.6,0.1,2.4,0.4v-0.2c0-1.2-0.7-1.8-2.1-1.8
	c-0.9,0-1.8,0.2-2.7,0.5l-0.7-2.1c1.2-0.5,2.5-0.8,3.8-0.8c1.2-0.1,2.4,0.3,3.3,1.1c0.8,0.9,1.1,2,1.1,3.1v5.7h-2.7v-1
	c-0.8,0.8-1.9,1.3-3,1.2C93.8,37.6,92.3,36.6,92.3,34.7z M98.7,34v-0.5c-0.6-0.2-1.2-0.4-1.8-0.4c-1.2,0-1.9,0.5-1.9,1.3l0,0
	c0,0.7,0.7,1.3,1.4,1.2c0.1,0,0.1,0,0.2,0C97.8,35.7,98.7,35,98.7,34L98.7,34z"/>
<path class="st0" d="M102.9,36.2l1.2-1.8c0.9,0.7,2,1.1,3.1,1.2c0.8,0,1.2-0.3,1.2-0.7l0,0c0-0.6-0.9-0.8-2-1.1
	c-1.4-0.4-2.9-1-2.9-2.9l0,0c0-2,1.6-3.1,3.6-3.1c1.3,0,2.6,0.4,3.7,1.1l-1.1,1.9c-0.8-0.5-1.7-0.8-2.7-0.9c-0.7,0-1,0.3-1,0.7l0,0
	c0,0.5,0.9,0.8,2,1.2c1.4,0.5,3,1.1,3,2.9l0,0c0,2.2-1.6,3.2-3.7,3.2C105.7,37.7,104.2,37.1,102.9,36.2z"/>
<path class="st0" d="M118.7,24.7h5.2c3.1,0,4.9,1.8,4.9,4.4l0,0c0,3-2.3,4.5-5.2,4.5h-2.1v3.8h-2.8V24.7z M123.7,31.1
	c1.1,0.1,2.1-0.7,2.2-1.8c0-0.1,0-0.1,0-0.2l0,0c0-1.3-0.9-1.9-2.3-1.9h-2.2v3.9L123.7,31.1L123.7,31.1z"/>
<path class="st0" d="M130.5,34v-6.3h2.8v5.5c0,1.3,0.6,2,1.7,2c0.9,0,1.7-0.7,1.8-1.6c0-0.1,0-0.2,0-0.4v-5.5h2.8v9.8h-2.8v-1.4
	c-0.6,1-1.7,1.6-2.9,1.6C131.7,37.6,130.5,36.2,130.5,34z M135.9,23.4l2.4,1l-2.4,2.2h-2L135.9,23.4z"/>
<path class="st0" d="M144.7,36.2v1.3h-2.8V24.1h2.8v5c0.7-1,1.8-1.6,3.1-1.6c2.3,0,4.5,1.8,4.5,5.1l0,0c0,3.3-2.1,5.1-4.5,5.1
	C146.6,37.7,145.5,37.1,144.7,36.2z M149.5,32.6L149.5,32.6c0.1-1.3-0.8-2.5-2.1-2.7c-1.3-0.1-2.5,0.8-2.7,2.1c0,0.2,0,0.4,0,0.5
	l0,0c-0.1,1.3,0.8,2.5,2.1,2.7s2.5-0.8,2.7-2.1C149.5,32.9,149.5,32.8,149.5,32.6z"/>
<path class="st0" d="M154.4,24.1h2.7v13.3h-2.8L154.4,24.1L154.4,24.1z"/>
<path class="st0" d="M159.9,24.1h2.9v2.5h-2.9V24.1z M159.9,27.7h2.8v9.8h-2.8V27.7z"/>
<path class="st0" d="M164.8,32.6L164.8,32.6c-0.1-2.8,2.1-5,4.9-5.1c0.1,0,0.2,0,0.2,0c1.5-0.1,2.9,0.5,3.9,1.6l-1.7,1.8
	c-0.5-0.7-1.3-1.1-2.2-1.1c-1.4,0.1-2.4,1.2-2.4,2.6c0,0,0,0,0,0l0,0c-0.1,1.4,0.9,2.6,2.3,2.7c0.1,0,0.1,0,0.2,0
	c0.9,0,1.7-0.4,2.2-1l1.6,1.6c-1,1.2-2.5,1.9-4,1.8c-2.8,0-5-2.1-5.1-4.9C164.9,32.7,164.8,32.7,164.8,32.6z"/>
<path class="st0" d="M175.1,34.7L175.1,34.7c0-2.1,1.6-3.1,3.9-3.1c0.8,0,1.6,0.1,2.4,0.4v-0.2c0-1.2-0.7-1.8-2.1-1.8
	c-0.9,0-1.8,0.2-2.7,0.5l-0.7-2.1c1.2-0.5,2.5-0.8,3.8-0.8c1.2-0.1,2.4,0.3,3.4,1.1c0.7,0.9,1.1,2,1,3.1v5.7h-2.7v-1.1
	c-0.8,0.8-1.9,1.3-3,1.2C176.7,37.6,175.1,36.6,175.1,34.7z M181.5,34v-0.5c-0.6-0.2-1.2-0.4-1.8-0.4c-1.2,0-1.9,0.5-1.9,1.3l0,0
	c0,0.7,0.7,1.3,1.4,1.2c0.1,0,0.1,0,0.2,0C180.7,35.7,181.5,35,181.5,34L181.5,34z"/>
<path class="st0" d="M185.8,36.2l1.2-1.8c0.9,0.7,2,1.1,3.1,1.2c0.8,0,1.2-0.3,1.2-0.7l0,0c0-0.6-1-0.8-2-1.1
	c-1.4-0.4-2.9-1-2.9-2.9l0,0c0-2,1.6-3.1,3.6-3.1c1.3,0,2.6,0.4,3.6,1.1l-1.1,1.9c-0.8-0.5-1.7-0.8-2.6-0.9c-0.7,0-1,0.3-1,0.7l0,0
	c0,0.5,0.9,0.8,2,1.2c1.4,0.5,3,1.1,3,2.9l0,0c0,2.2-1.6,3.2-3.7,3.2C188.6,37.7,187,37.1,185.8,36.2z"/>
<path class="st0" d="M207.7,27.7h2.9l-3.8,10c-0.8,2-1.6,2.7-3.2,2.7c-0.9,0-1.7-0.2-2.5-0.7l0.9-2c0.4,0.2,0.8,0.4,1.2,0.4
	c0.4,0.1,0.9-0.2,1-0.6l-3.8-9.8h2.9l2.2,6.7L207.7,27.7z"/>
<path class="st0" d="M216.9,24.7h3.1l3.3,9l3.3-9h3l-5.1,12.9H222L216.9,24.7z"/>
<path class="st0" d="M231.1,24.1h2.9v2.5h-2.9V24.1z M231.1,27.7h2.8v9.8h-2.8V27.7z"/>
<path class="st0" d="M235.6,27.7h2.9l2.2,6.6l2.2-6.6h2.9l-3.9,9.9h-2.5L235.6,27.7z"/>
<path class="st0" d="M247.5,24.1h2.9v2.5h-2.9V24.1z M247.6,27.7h2.8v9.8h-2.8V27.7z"/>
<path class="st0" d="M252.5,32.6L252.5,32.6c-0.1-2.7,1.9-5,4.6-5.1c0.1,0,0.1,0,0.2,0c3.3,0,4.8,2.5,4.8,5.3c0,0.2,0,0.5,0,0.7
	h-6.8c0.2,1.2,1.2,2,2.4,1.9c0.9,0,1.8-0.4,2.4-1l1.6,1.4c-1.8,2.2-5.1,2.5-7.3,0.6C253.2,35.5,252.6,34.1,252.5,32.6z M259.4,31.8
	c0-1.1-0.9-2.1-2.1-2.1c-1.1,0-2.1,0.9-2.1,2.1C255.2,31.8,259.4,31.8,259.4,31.8z"/>
<path class="st0" d="M264.2,27.7h2.8v1.4c0.6-1,1.7-1.6,2.9-1.6c2.1,0,3.3,1.4,3.3,3.6v6.3h-2.8V32c0-1.3-0.6-2-1.7-2
	c-0.9,0-1.7,0.7-1.8,1.6c0,0.1,0,0.2,0,0.4v5.5h-2.8L264.2,27.7L264.2,27.7z"/>
<path class="st0" d="M275.1,32.6L275.1,32.6c0-3.3,2.1-5.1,4.5-5.1c1.2,0,2.3,0.5,3,1.5v-4.8h2.8v13.3h-2.8v-1.4
	c-0.7,1-1.8,1.6-3,1.6C277.3,37.6,275.1,35.8,275.1,32.6z M282.7,32.6L282.7,32.6c0.1-1.3-0.8-2.5-2.1-2.7c-1.3-0.1-2.5,0.8-2.7,2.1
	c0,0.2,0,0.4,0,0.5l0,0c-0.1,1.3,0.9,2.5,2.2,2.6c1.3,0.1,2.5-0.9,2.6-2.2C282.7,32.9,282.7,32.7,282.7,32.6L282.7,32.6z"/>
<path class="st0" d="M287.3,34.7L287.3,34.7c0-2.1,1.6-3.1,3.9-3.1c0.8,0,1.6,0.1,2.4,0.4v-0.2c0-1.2-0.7-1.8-2.1-1.8
	c-0.9,0-1.8,0.2-2.7,0.5l-0.7-2.1c1.2-0.5,2.5-0.8,3.8-0.8c1.2-0.1,2.4,0.3,3.3,1.1c0.8,0.9,1.1,2,1.1,3.1v5.7h-2.7v-1
	c-0.8,0.8-1.9,1.3-3,1.2C288.9,37.6,287.3,36.6,287.3,34.7z M293.7,34v-0.5c-0.6-0.2-1.2-0.4-1.8-0.4c-1.2,0-1.9,0.5-1.9,1.3l0,0
	c0,0.7,0.7,1.3,1.4,1.2c0.1,0,0.1,0,0.2,0C292.8,35.7,293.7,35,293.7,34z"/>
<path class="st1" d="M58.9,47.7H66c4.2,0,6.8,2.4,6.8,6v0.1c0,4-3.2,6.1-7.2,6.1h-3.6v5.8h-3.2V47.7L58.9,47.7z M65.8,57.1
	c2.4,0,3.9-1.3,3.9-3.2v0c0-2.1-1.5-3.2-3.9-3.2h-3.7v6.5L65.8,57.1L65.8,57.1z"/>
<path class="st1" d="M75.7,52.2h3.1v3.1c0.7-2.1,2.6-3.4,4.8-3.4v3.3h-0.2c-2.7,0-4.6,1.8-4.6,5.4v5.2h-3.1V52.2z"/>
<path class="st1" d="M85.6,59L85.6,59c0-3.9,2.8-7.1,6.6-7.1c4.3,0,6.5,3.4,6.5,7.3c0,0.3,0,0.6-0.1,0.9h-10c0.2,2,1.9,3.5,3.9,3.4
	c1.4,0,2.8-0.6,3.7-1.6l1.8,1.6c-1.3,1.7-3.4,2.6-5.5,2.5c-3.7,0.1-6.8-2.8-7-6.6C85.6,59.3,85.6,59.1,85.6,59z M95.6,58
	c-0.2-2-1.4-3.6-3.4-3.6c-1.9,0-3.2,1.5-3.5,3.6H95.6L95.6,58z"/>
<path class="st1" d="M100.7,63.9l1.4-2.1c1.3,1,2.8,1.6,4.4,1.7c1.3,0,2.1-0.6,2.1-1.5V62c0-1.1-1.4-1.4-3-1.9c-2-0.6-4.2-1.4-4.2-4
	v0c0-2.6,2.1-4.1,4.8-4.1c1.8,0,3.5,0.6,5,1.5l-1.2,2.2c-1.2-0.8-2.5-1.2-3.9-1.3c-1.2,0-1.9,0.6-1.9,1.4v0.1c0,1,1.5,1.4,3.1,1.9
	c2,0.6,4.2,1.5,4.2,4v0.1c0,2.8-2.2,4.3-5,4.3C104.4,66,102.4,65.2,100.7,63.9z"/>
<path class="st1" d="M114.7,47.1h3.3v3h-3.3V47.1z M114.8,52.1h3.1v13.6h-3.1V52.1L114.8,52.1z"/>
<path class="st1" d="M121.3,58.9L121.3,58.9c0-4.6,3.1-7.1,6.3-7.1c1.8,0,3.6,0.9,4.6,2.4V47h3.1v18.7h-3.1v-2.3
	c-1,1.6-2.7,2.5-4.6,2.5C124.4,66,121.3,63.4,121.3,58.9z M132.3,58.9L132.3,58.9c0.2-2.3-1.5-4.3-3.8-4.4c0,0-0.1,0-0.1,0
	c-2.1,0-3.9,1.6-3.9,4.3v0.1c-0.2,2.2,1.4,4.1,3.6,4.3c0.1,0,0.2,0,0.3,0C130.6,63.2,132.4,61.3,132.3,58.9
	C132.3,59,132.3,59,132.3,58.9L132.3,58.9z"/>
<path class="st1" d="M138.4,59L138.4,59c0-3.9,2.8-7.1,6.6-7.1c4.3,0,6.5,3.4,6.5,7.3c0,0.3,0,0.6-0.1,0.9h-10
	c0.2,2,1.9,3.5,3.9,3.4c1.4,0,2.8-0.6,3.7-1.6l1.8,1.6c-1.3,1.7-3.4,2.6-5.5,2.5c-3.7,0.1-6.9-2.8-7-6.5
	C138.4,59.3,138.4,59.1,138.4,59z M148.4,58c-0.2-2-1.4-3.6-3.4-3.6c-1.9,0-3.2,1.5-3.5,3.6H148.4L148.4,58z"/>
<path class="st1" d="M154.7,52.2h3.1v2.1c0.9-1.5,2.5-2.4,4.2-2.4c3.1,0,4.8,2.1,4.8,5.2v8.6h-3.1V58c0-2.1-1.1-3.3-2.9-3.3
	s-3.1,1.3-3.1,3.4v7.7h-3.1L154.7,52.2L154.7,52.2z"/>
<path class="st1" d="M169.9,59L169.9,59c0-3.9,3.1-7.1,6.9-7.1c0,0,0.1,0,0.1,0c2.1-0.1,4.1,0.8,5.4,2.3l-1.9,2.1
	c-0.9-1.1-2.2-1.7-3.5-1.7c-2.2,0.1-4,2-3.9,4.2c0,0,0,0.1,0,0.1v0c-0.1,2.3,1.6,4.2,3.9,4.4c0.1,0,0.1,0,0.2,0
	c1.4,0,2.6-0.7,3.5-1.7l1.9,1.8c-2.5,3-7,3.4-10,0.8C170.8,63,169.9,61,169.9,59z"/>
<path class="st1" d="M185.3,47.1h3.3v3h-3.3V47.1z M185.4,52.1h3.1v13.6h-3.1V52.1L185.4,52.1z"/>
<path class="st1" d="M200.9,65.7V64c-1.1,1.3-2.7,2-4.4,2c-2.6,0-4.8-1.5-4.8-4.2v-0.1c0-3,2.3-4.4,5.5-4.4c1.3,0,2.5,0.2,3.8,0.6
	v-0.3c0-1.9-1.2-2.9-3.3-2.9c-1.3,0-2.7,0.3-3.9,0.8l-0.9-2.5c1.6-0.8,3.4-1.2,5.2-1.1c4,0,6,2.1,6,5.7v8L200.9,65.7L200.9,65.7z
	 M201,60c-1-0.4-2-0.5-3.1-0.5c-2,0-3.1,0.8-3.1,2.1v0.1c0,1.3,1.1,2,2.6,2c2.1,0,3.6-1.2,3.6-2.8L201,60L201,60z"/>
<path class="st1" d="M214.7,58.9L214.7,58.9c0-4.6,3.1-7.1,6.3-7.1c1.8,0,3.6,0.9,4.6,2.4V47h3.1v18.7h-3.1v-2.3
	c-1,1.6-2.7,2.5-4.6,2.5C217.8,66,214.7,63.4,214.7,58.9z M225.7,58.9L225.7,58.9c0.2-2.3-1.5-4.3-3.8-4.4c0,0-0.1,0-0.1,0
	c-2.1,0-3.9,1.6-3.9,4.3v0.1c-0.2,2.2,1.4,4.1,3.6,4.3c0.1,0,0.2,0,0.3,0C224,63.2,225.7,61.3,225.7,58.9
	C225.6,59,225.6,59,225.7,58.9L225.7,58.9z"/>
<path class="st1" d="M231.8,59L231.8,59c0-3.9,2.8-7.1,6.6-7.1c4.3,0,6.5,3.4,6.5,7.3c0,0.3,0,0.6,0,0.9h-10c0.2,2,1.9,3.5,3.9,3.4
	c1.4,0,2.8-0.6,3.7-1.6l1.8,1.6c-1.3,1.7-3.4,2.6-5.5,2.5c-3.7,0.1-6.8-2.8-7-6.6C231.8,59.3,231.8,59.1,231.8,59z M241.8,58
	c-0.2-2-1.4-3.6-3.4-3.6c-1.9,0-3.2,1.5-3.5,3.6H241.8L241.8,58z"/>
<path class="st1" d="M256,47h3.1v18.7H256V47z"/>
<path class="st1" d="M271.4,65.7V64c-1.1,1.3-2.7,2-4.4,2c-2.6,0-4.8-1.5-4.8-4.2v-0.1c0-3,2.3-4.4,5.5-4.4c1.3,0,2.5,0.2,3.8,0.6
	v-0.3c0-1.9-1.2-2.9-3.3-2.9c-1.3,0-2.7,0.3-3.9,0.8l-0.9-2.5c1.6-0.8,3.4-1.2,5.2-1.1c4,0,6,2.1,6,5.7v8L271.4,65.7L271.4,65.7z
	 M271.5,60c-1-0.4-2-0.5-3.1-0.5c-2,0-3.1,0.8-3.1,2.1v0.1c0,1.3,1.1,2,2.6,2c2,0,3.6-1.2,3.6-2.8L271.5,60L271.5,60z"/>
<path class="st1" d="M286.2,47.7h2.9l9.6,12.4V47.7h3.1v18h-2.6l-9.9-12.8v12.8h-3.1V47.7L286.2,47.7z"/>
<path class="st1" d="M314.5,65.7V64c-1.1,1.3-2.7,2-4.4,2c-2.6,0-4.8-1.5-4.8-4.2v-0.1c0-3,2.3-4.4,5.5-4.4c1.3,0,2.5,0.2,3.8,0.6
	v-0.3c0-1.9-1.2-2.9-3.3-2.9c-1.3,0-2.7,0.3-3.9,0.8l-0.9-2.5c1.6-0.8,3.4-1.2,5.2-1.1c4,0,6,2.1,6,5.7v8L314.5,65.7L314.5,65.7z
	 M314.5,60c-1-0.4-2-0.5-3.1-0.5c-2,0-3.1,0.8-3.1,2.1v0.1c0,1.3,1.2,2,2.6,2c2,0,3.6-1.2,3.6-2.8V60z"/>
<path class="st1" d="M320.5,59L320.5,59c0-3.9,3.1-7.1,6.9-7.1c0,0,0.1,0,0.1,0c2.1-0.1,4.1,0.8,5.4,2.3l-1.9,2.1
	c-0.9-1.1-2.2-1.7-3.5-1.7c-2.2,0.1-4,2-3.9,4.2c0,0,0,0.1,0,0.1v0c-0.1,2.3,1.6,4.2,3.9,4.4c0.1,0,0.1,0,0.2,0
	c1.4,0,2.6-0.6,3.5-1.7l1.9,1.8c-2.5,3-7,3.4-10,0.9C321.4,63,320.5,61.1,320.5,59z"/>
<path class="st1" d="M335.9,47.1h3.3v3h-3.3V47.1z M336.1,52.1h3.1v13.6H336L336.1,52.1L336.1,52.1z"/>
<path class="st1" d="M342.5,59L342.5,59c0.1-4,3.4-7.2,7.4-7.1c3.8,0.1,6.8,3.1,7,6.9v0.1c0,3.9-3.2,7.1-7.1,7.1c0,0-0.1,0-0.1,0
	c-3.9,0.1-7.1-2.9-7.2-6.8C342.5,59.1,342.5,59.1,342.5,59z M353.8,59L353.8,59c0.1-2.4-1.7-4.3-4-4.4c0,0-0.1,0-0.1,0
	c-2.2,0-4.1,1.8-4.1,4.1c0,0.1,0,0.1,0,0.2v0.1c-0.1,2.3,1.7,4.3,4,4.4c0,0,0.1,0,0.1,0c2.3,0,4.1-1.8,4.1-4.1
	C353.8,59.2,353.8,59.1,353.8,59z M351.2,46.2l2.8,1.3l-3.1,3h-2.4L351.2,46.2z"/>
<path class="st1" d="M360.1,52.2h3.1v2.1c0.9-1.5,2.5-2.4,4.2-2.4c3,0,4.8,2.1,4.8,5.2v8.6h-3.1V58c0-2.1-1-3.3-2.9-3.3
	s-3,1.3-3,3.4v7.7h-3.1V52.2z"/>
<path class="st2" d="M20.8,58.5c-9.4,0-16.7-10.3-16.7-22.4h33.3C37.4,48.3,30.2,58.5,20.8,58.5"/>
<path class="st3" d="M24.5,8.3h0.3c0,0-0.2-1.2-2.3-1.1h-0.5l-0.2,0.7l1.5-0.1C23.7,7.7,24.2,7.9,24.5,8.3"/>
<path class="st3" d="M22.1,9.1c0.1-0.1,0.2-0.3,0.3-0.4h0.1c0,0,0,0.1-0.1,0.2c0,0.2,0.1,0.4,0.4,0.5c0.1,0,0.2,0,0.4,0
	c0.2-0.1,0.3-0.3,0.3-0.5c0-0.1,0-0.1,0-0.2c0.2,0,0.4,0.2,0.5,0.4h0.5c0,0-0.3-1.2-2.3-0.8c0,0-0.5,0.7-0.5,0.8
	C21.8,9.1,22,9.1,22.1,9.1"/>
<path class="st3" d="M17.4,9.1l0.5,0c0.1-0.2,0.3-0.3,0.5-0.3c0,0,0,0.1,0,0.1c0,0.2,0.1,0.4,0.3,0.5c0.1,0,0.2,0,0.4,0
	c0.2-0.1,0.3-0.3,0.4-0.5c0,0,0,0,0-0.1h0.1l0.3,0.3c0.2,0.1,0.3,0.1,0.5,0c0,0-0.5-0.8-0.5-0.8C17.7,7.9,17.4,9.1,17.4,9.1"/>
<path class="st3" d="M18.6,7.8l1.5,0.1c0,0-0.2-0.6-0.2-0.7h-0.4c-2.3-0.1-2.5,1-2.5,1h0.3C17.6,7.8,18.1,7.7,18.6,7.8"/>
<path class="st3" d="M23.1,23.9L23.1,23.9C23,23.9,23.1,23.9,23.1,23.9"/>
<path class="st3" d="M22.7,61.5c2.9-0.7,5.6-1.9,8-3.6c1.8,0.2,2.5-1.3,3.8-1.9c-0.1-0.1-0.3-0.2-0.4-0.2c0.7-0.5,1.4-1.1,2-1.7
	c-0.2-0.1-0.4-0.2-0.7-0.2c1.2-0.4,0.4-0.9,1.6-1.8c0-0.1-0.1-0.1-0.2-0.1c0.8-0.5,0.7-1.2,1.5-2c-0.2-0.1-0.5-0.2-0.7-0.2
	c1.4-0.4,1.2-1.4,2.1-2.2l-0.6-0.1c0.7-0.6,0.5-1.4,1.1-2.3c-0.3-0.1-0.5-0.2-0.8-0.1c1.2-0.5,1-1.7,1.7-2.7
	c-0.2-0.1-0.3-0.2-0.5-0.1c1-0.9-0.2-0.6,0.5-2.6c-0.3-0.1-0.5-0.1-0.8,0.1c1-0.8,0.8-1.8,1.3-3c-0.7-0.1-2.1,0.9-2.5,1.7v-0.2
	c0.2-0.4,0.5-0.7,0.9-0.9c1.5-1.1,0.9-2,1.3-3.4c-1,0.2-1.9,1-2.3,1.9c0-0.1,0-0.2-0.1-0.3c0.2-0.5,0.5-1,1-1.3
	c1.3-0.7,0.9-1.9,1.3-3.3c-0.2,0-0.5,0-0.7,0.2c0.3-0.9-0.3-1.5-0.2-2.6c-0.7,0-1.6,1.3-1.7,2.2c0-0.1-0.1-0.3-0.2-0.3
	c0.1-0.5,0.4-0.9,0.8-1.2c1.2-1.4,0.2-2.2,0.3-3.7c-0.1,0-0.3,0-0.4,0.1c-0.1-0.7-0.6-1.2-0.7-2.1c-0.7,0.1-1.4,1.4-1.3,2.3
	c-0.1-0.1-0.2-0.3-0.3-0.3c0.1-0.5,0.3-0.9,0.7-1.2c0.7-1.4,0-2.1-0.1-3.5c-0.2,0-0.5,0.1-0.7,0.3c0-0.9-0.5-1.3-0.8-2.3
	c-0.6,0.2-1,0.8-1.1,1.4c0-0.3,0.1-0.7,0.2-1c0-1.8-0.7-2-1.3-3.4c-0.3,0.3-0.5,0.7-0.6,1c-0.2-1.2-0.7-1.5-1.4-2.7
	c-0.5,0.7-0.6,1.6-0.5,2.4c-0.1-0.4-0.2-0.8,0-1.1c-0.2-1.5-0.9-1.9-1.6-2.8c0.4,0,0.8-0.2,1.1-0.4c-0.3,0-0.7,0-1-0.1
	c-0.4-0.2-0.6-0.6-1-0.7c-0.5,0-0.9-0.1-1.3-0.3l3.6-0.8l-3.5-0.7c0.2-0.2,0.4-0.3,0.6-0.3c0.4,0,0.8-0.1,1.1-0.3
	c0.4-0.5,1-0.7,1.6-0.6c-0.6-0.4-1.4-0.4-2-0.1c-0.5,0.3-0.7,0-1.5,0.1c0,0,3-1.9,3-1.9L27,7c0.6-0.9,1.1-0.5,1.4-1.5
	c0.3-0.4,0.6-0.8,1.1-1c-0.7-0.2-1.3,0.2-2,1c-0.4,0.2-0.8,0.3-1.2,0.4l2-3c0,0-2,1.4-3,2l0,0c0.1-0.8,0.7-0.7,0.8-1.6
	c-0.1-0.6,0.2-1.2,0.7-1.7c-0.8,0.2-1.4,0.9-1.5,1.7c-0.3,0.3-0.6,0.6-1,0.9l0.7-3.5l-2,3c-0.1-0.1-0.2-0.3-0.1-0.4
	C23,3,23.1,2.5,23,2.1c-0.3-0.6-0.3-1.3,0-1.9c-1.2,0.6-0.6,1.6-0.9,2.3c-0.2,0.3-0.3,0.6-0.5,0.9L21.1,0l-0.7,3.5
	c-0.2-0.4-0.4-0.9-0.4-1.3c-0.3-0.7-0.9-0.5-0.9-2c-0.2,0.5-0.5,0.9,0.1,2.3c0.1,0.1-0.1,0.8,0,1.3l-2-3l0.7,3.5
	c-0.4,0-0.6-0.8-0.9-1.1c-0.3-0.3-1.2-0.3-1.6-1.4c-0.1,0.8,0.2,1.5,0.9,1.9C16.5,4,16.7,4.5,16.8,5l-3-2l2,3
	c-0.7,0.1-0.7-0.8-2-0.8c-0.5,0-0.9-0.3-1.3-0.6c0.4,1.5,1.5,1.1,1.9,1.7C14.6,6.5,14.8,6.7,15,7l-3.5-0.7l3,1.9
	c-0.5,0.3-1.2-0.4-1.8-0.1c-0.6,0.3-1.2,0.3-1.8,0c0.4,0.6,1.1,0.9,1.9,0.7c0.5,0.1,1.1,0.2,1.5,0.5l-3.5,0.7l3.5,0.7
	c-0.4,0.4-1.1,0.1-1.6,0.5c-0.4,0.5-1.1,0.8-1.7,0.8c0.5,0.5,1.3,0.6,1.9,0.3c-0.3,0.2-0.6,0.5-0.9,0.9c0-0.2-0.1-0.5-0.3-0.6
	c-0.6,1-1.5,1.1-1.8,2.3c0-0.3-0.2-0.6-0.4-0.8c-0.6,1.1-1.3,1.2-1.5,2.4c0-0.2-0.2-0.5-0.3-0.7c-0.5,1.4-1.5,1.7-1.2,3.5
	c0.1,0.3,0.2,0.7,0.1,1c0-0.6-0.4-1.2-0.9-1.5c-0.5,0.7-0.8,1.4-1,2.2c-0.1-0.1-0.3-0.2-0.5-0.2C4,22.2,3,22.7,4,24.3
	c0.4,0.3,0.5,0.8,0.5,1.3c-0.1,0.1-0.1,0.1-0.2,0.2c0.1-0.8-0.7-2.1-1.4-2.2c-0.1,1-0.6,1.5-0.5,2.3c-0.1-0.1-0.3-0.1-0.5-0.2
	c0.1,1.4-0.9,2,0.4,3.4c0.4,0.3,0.7,0.7,0.8,1.1c-0.1,0.1-0.2,0.2-0.2,0.3c-0.1-0.9-1-2.1-1.6-2.1C1.4,30,0.7,30,1.1,31
	c-0.2-0.1-0.5-0.2-0.7-0.2c0.4,1.4-0.1,2.5,1.3,3.3c0.5,0.3,0.8,0.7,1,1.2c0,0.1-0.1,0.2-0.1,0.3c-0.4-1-1.2-1.7-2.2-1.9
	c0.4,1.2,0.1,2.3,0.9,3c-0.4-0.2-0.8-0.3-1.2-0.3c0.6,1.4,0.3,2.1,1.5,3.3c-0.3-0.2-0.7-0.3-1.1-0.2c0.4,0.9,0.2,1.7,0.6,2.3
	c-0.2,0-0.4,0-0.5,0.1c0.7,1.1,0.5,2,1.6,2.7c-0.2,0-0.5,0-0.6,0.1c0.5,0.8,0.5,1.5,0.9,2.1c-0.2,0-0.3,0.1-0.4,0.2
	c0.9,0.8,0.9,1.7,1.8,2.2c-0.2,0-0.4,0-0.6,0.2c0.7,0.7,0.9,1.3,1.5,1.8c-0.2,0-0.5,0.1-0.7,0.3c1,0.7,1.1,1.5,2.1,1.9
	c-0.2,0-0.5,0.1-0.7,0.2c1.2,1,0.4,1.3,1.6,1.8c-0.1,0-0.2,0.1-0.2,0.2c1.3,0.7,1.5,2.3,4.4,2.3l0,0c1.4,1.5,5.1,3.2,7.8,3.6
	L22.7,61.5z M40.4,40.2c-0.3,0.9,0,1.5-0.8,2.1c-0.3,0-0.5,0.2-0.7,0.4c0.1-0.3,0.2-0.6,0.4-0.9c-0.2,0.1-0.4,0.3-0.6,0.6
	c-0.3-0.1-0.5-0.4-0.6-0.6c-0.4-0.8-0.1-1.1-0.2-1.8c0.4,0.5,0.8,1.1,1.1,1.8C39.2,41.1,39.7,40.5,40.4,40.2 M38.9,40.8
	c0.2-0.3,0.5-0.6,0.8-0.7c-0.3,0.3-0.6,0.6-0.8,1C39,40.9,39,40.8,38.9,40.8 M40.8,37.2c-0.4,1-0.1,1.4-1,2.2
	c-0.3,0.1-0.6,0.3-0.7,0.6c0.1-0.3,0.3-0.7,0.5-0.9c-0.3,0.2-0.5,0.4-0.7,0.7c-0.3-0.1-0.5-0.2-0.6-0.5c-0.3-0.6,0-1-0.1-1.7
	c0.4,0.4,0.8,0.9,1,1.4C39.6,38.2,40.1,37.6,40.8,37.2 M39.3,36.4c0.2-0.8,0.7-1.5,1.3-2c-0.3,1,0.1,1.4-0.7,2.3
	c-0.3,0.1-0.5,0.4-0.6,0.7c0-0.4,0.2-0.7,0.3-1c-0.2,0.2-0.4,0.5-0.5,0.7c-0.3,0-0.6-0.1-0.7-0.4c-0.4-0.6-0.2-1-0.4-1.6
	c0.4,0.3,0.8,0.8,1.1,1.2 M38.1,34.3c0.3,0.2,0.5,0.5,0.7,0.9c-0.2-0.2-0.4-0.4-0.7-0.6C38.2,34.5,38.2,34.4,38.1,34.3 M40.5,31.5
	c-0.2,1,0.2,1.4-0.6,2.2c-0.3,0.1-0.5,0.3-0.6,0.6c0-0.3,0.2-0.6,0.3-0.9c-0.2,0.2-0.4,0.4-0.5,0.7c-0.3,0-0.6-0.2-0.7-0.4
	c-0.5-0.6-0.2-0.9-0.4-1.6c0.5,0.4,0.9,0.8,1.2,1.3C39.4,32.6,39.8,31.9,40.5,31.5 M39,31.3c0.1-0.8,0.4-1.5,1-2
	c-0.1,1,0.4,1.3-0.2,2.2c-0.3,0.2-0.5,0.4-0.5,0.7c0-0.3,0-0.7,0.2-1c-0.2,0.2-0.3,0.5-0.4,0.8c-0.3,0-0.6-0.1-0.8-0.3
	c-0.6-0.5-0.4-0.9-0.7-1.5C38,30.4,38.6,30.7,39,31.3 M37,44.2c0-0.2,0.1-0.3,0.1-0.5c0,0.1,0,0.1,0,0.2c0.4,1.2,0.7,1.2,0.6,2
	c0,0,0,0.1-0.1,0.1C37.6,45.3,37.4,44.7,37,44.2 M35.6,50.1c-0.1-0.4-0.2-0.8-0.4-1.2c0.1-0.1,0.1-0.2,0.2-0.4
	C35.5,49,35.6,49.5,35.6,50.1 M36.7,49.8c-0.5,0.1-0.9,0.3-1.2,0.7c0,0,0-0.1,0-0.1C35.9,50,36.3,49.8,36.7,49.8 M34.5,48.2
	c-2.4,0.2-4.7-0.5-6.6-1.9c0.3-0.6,0.4-1.3,0.3-1.9c-0.1-0.5-0.1-0.1-0.2,0.2c-0.2,0.5-0.5,1-1,1.2c-0.7-0.8-1.6-1.4-2.6-1.9
	c-0.6-0.4-1.1-0.8-1.6-1.2c-1,0.5-2.5,1.3-3.2,0.8c-0.6-0.3,0.7-0.7,1.3-1.5c0.4-0.6,1.1-0.9,1.8-0.7c1.5,0.5,3,1.1,4.5,1.8
	c2.7,0.2,4.7,1,7.4,1.6c0.5,0.1,1,0.2,1.5,0.2C35.6,46,35.1,47.1,34.5,48.2 M22.6,45.2c0.8,0.9,1.5,1.1,2,2.2
	c-0.1,0.3-0.4,0.4-0.7,0.3c0,0-0.1,0-0.1-0.1c-1.2-1.4-2.3-1.6-1.9-2.2c-0.2,0-0.4,0.2-0.4,0.5c0,0,0,0,0,0c0.2,1,1.3,1.3,1.6,2.2
	c-0.1,0.7-1.4,0.1-2.1-1.6v-0.1c-0.2,0.5-0.5,0.7,0.4,1.7c0.2,0.4,0.3,0.8-0.3,0.7c0.1,0.1-0.3,0-0.1,0h0.1c0,0-0.1-0.1-0.1-0.1
	c0.2-0.5,0-1.1-0.6-1.3c-0.2-0.1-0.4-0.1-0.6,0c0.2-0.6-0.6-1.2-1.5-0.8c0.1-0.4-0.8-1.2-2.1-0.7c-0.2-0.4-1.3-0.9-2.4,0.4
	c-2,0.2-5.1,1.9-7.1,1c-0.1,0.1-1.2-3.2-1.3-3.2c2.3-0.2,7.3-0.6,9.1-1.3c1.4-0.9,4.1-1.4,4.7-1c0,0.5-1.2,1.4-0.6,1.9
	c1,0.9,2.6,0.5,3.7-0.1c1.1,1.1,2.9,1.3,3.6,2.8l-0.2,0.4c-0.4,0.3-0.4,0.3-0.8-0.3c-1.1-1.4-2.1-1.1-2.3-2.1
	C22.4,44.5,22.6,45,22.6,45.2 M17.4,48.1c-0.4,0.2,0.2-0.2,0.3-0.3l0.2-0.2c0.3-0.3,0.8-0.7,1.1-0.1c0.2,0.4-1.2,1.2-1.4,1.2
	c-0.1,0.1-0.3,0.1-0.4-0.1c0,0,0,0,0-0.1c-0.1-0.1-0.1-0.3,0.1-0.4C17.3,48.1,17.4,48.1,17.4,48.1 M16.2,48c-0.2,0.1-0.4,0-0.6-0.1
	c0-0.3,0.2-0.6,0.4-0.8c0.1-0.1,0.2-0.2,0.3-0.2l0.2-0.2c0.5-0.1,0.5,0,0.5,0.2C17.1,47.3,16.7,47.7,16.2,48 M19.5,48.2
	c0,0,0.5-0.6,0.8,0.2c0.1,0.3-0.5,0.7-1,0.8C18.9,49.1,18.3,49.2,19.5,48.2 M14.9,47.1c-0.2,0.1-0.5-0.3-0.4-0.4l0.2-0.4
	c0.4-0.1,0.6-0.3,0.7-0.1C15.5,46.5,15.2,46.9,14.9,47.1 M6.4,48.5l-0.2,0.4c0.1-0.2,0.1-0.3,0.1-0.5C6.3,48.4,6.3,48.4,6.4,48.5
	 M6,50c-0.2-0.2-0.5-0.4-0.8-0.5c0.2,0.1,0.5,0.2,0.7,0.3C5.9,49.9,5.9,50,6,50 M4,45.6C4,45.6,4,45.6,4,45.6
	c-0.1-0.9,0.2-0.9,0.5-2.1c0,0.2,0.1,0.3,0.1,0.4C4.3,44.4,4,45,4,45.6 M4.2,29.6l-0.6,0.3c0.1-0.1,0.3-0.2,0.6-0.5
	C4.3,29.4,4.2,29.5,4.2,29.6 M4.4,36.4H20V41c-1-0.2-2-0.2-3,0c-2.8,0.5-1.9,1.9-11.8,2.1C4.6,40.9,4.3,38.6,4.4,36.4 M14,13.7
	c0.3-0.2,0.4-0.5,0.5-0.8c0.4-1.2,1.1-1.1,1.9-1.7c0.3,0.4-0.7,1.8-1.4,2.2c0.6,0.1,1.1,0.4,1.6,0.7c-0.7,0.1-1,0.5-1.7,0.2
	c-0.3-0.1-0.5-0.3-0.6-0.5c0.2-0.2,0.4-0.5,0.5-0.7C14.6,13.3,14.4,13.5,14,13.7 M26,13.2c-0.3,0-0.6,0-0.8-0.2
	c0.4-0.1,0.7-0.3,1.1-0.5c0.6,0,1.1,0.4,1.3,1c-0.6-0.2-0.7,0.2-1.5,0.3s-1.1-0.2-1.8-0.4c-0.2-0.1-0.3-0.2-0.3-0.4
	c0.3,0.1,0.7,0.1,1,0v0.1C25.2,13.4,25.6,13.4,26,13.2 M23.5,12.3c0.3,0,0.7-0.1,1-0.2c-0.2,0-0.5,0-0.8,0c0.4-0.4,0.9-0.6,1.5-0.7
	c0.9,0,0.9,0.5,1.4,0.2C26.6,12.1,24.1,13.2,23.5,12.3 M22.2,12.1c0.5,0.4,0.9,0.8,1.3,1.3c-0.7-0.2-1,0-1.6-0.5
	c-0.2-0.2-0.4-0.4-0.4-0.7c0.3-0.1,0.5-0.3,0.7-0.5c-0.3,0.2-0.6,0.3-0.9,0.3c0.3-0.1,0.5-0.3,0.6-0.6c0.8-0.8,1.2-0.3,2.2-0.5
	C23.6,11.5,22.9,11.9,22.2,12.1 M20.2,12.3c0.5,0.2,1,0.6,1.5,1c-0.5,0.1-1.1,0.1-1.6-0.1c-0.3-0.1-0.5-0.4-0.5-0.6
	c0.3-0.2,0.5-0.4,0.7-0.6c-0.2,0.2-0.5,0.4-0.9,0.5c0.3-0.2,0.4-0.4,0.5-0.7c0.7-0.9,1-0.5,1.9-1C21.5,11.3,20.9,11.9,20.2,12.3
	 M18.8,13.5c-0.7,0-1,0.3-1.6,0c-0.3-0.1-0.5-0.3-0.6-0.6c0.2-0.2,0.4-0.4,0.5-0.6c-0.2,0.2-0.5,0.4-0.8,0.5
	c0.3-0.2,0.4-0.4,0.5-0.8c0.7-1,1.1-0.7,2-1.2c-0.3,0.7-0.9,1.3-1.5,1.7C17.8,12.8,18.3,13.1,18.8,13.5 M30.1,16.8
	c0.1,0,0.2,0,0.3,0C30.3,16.9,30.2,16.9,30.1,16.8C30.1,16.8,30.1,16.8,30.1,16.8 M35.9,24.7c0.1,0.1,0.3,0.2,0.4,0.3
	c-0.1,0-0.2-0.1-0.4-0.1C35.9,24.8,35.9,24.8,35.9,24.7 M27.6,42.2c-1.5-0.3-3.6-2-5.9-1.9v-3.9h15.5c-0.1,2.5-0.5,5-1.1,7.5
	C33.1,43.9,30.1,42.1,27.6,42.2 M37.4,29.4c0.2,0.2,0.5,0.3,0.6,0.5c-0.2-0.1-0.4-0.2-0.6-0.3C37.4,29.5,37.4,29.5,37.4,29.4
	 M39.2,26.4c-0.1,1,0.4,1.3-0.2,2.2c-0.3,0.1-0.4,0.4-0.5,0.7c0-0.3,0-0.6,0.2-0.9c-0.2,0.2-0.3,0.5-0.4,0.7c-0.3,0-0.6-0.1-0.8-0.3
	c-0.6-0.5-0.4-0.9-0.7-1.5c0.6,0.3,1.1,0.7,1.5,1.2C38.3,27.6,38.7,26.9,39.2,26.4 M37.7,26.3c-0.1-0.7,0.1-1.4,0.6-2
	c0.1,1,0.7,1.2,0.2,2.2c-0.2,0.2-0.4,0.4-0.4,0.7c-0.1-0.3-0.1-0.7,0-1c-0.2,0.2-0.2,0.5-0.3,0.8c-0.3,0.1-0.7,0-0.9-0.2
	c-0.7-0.4-0.6-0.8-1-1.4c0.6,0.3,1.2,0.6,1.8,1 M36.9,21.6c0.1,1,0.7,1.3,0.2,2.2c-0.2,0.1-0.4,0.4-0.4,0.7c-0.1-0.3-0.1-0.7,0-1
	c-0.1,0.2-0.2,0.5-0.3,0.8c-0.3,0-0.6-0.1-0.9-0.3c-0.7-0.4-0.6-0.8-1-1.4c0.6,0.3,1.2,0.6,1.7,1C36.3,22.8,36.5,22.1,36.9,21.6
	 M35.7,19.5c0.3,0.9,0.9,1.2,0.6,2.2c-0.2,0.2-0.3,0.5-0.3,0.8c-0.1-0.3-0.2-0.6-0.2-1c-0.1,0.2-0.1,0.5-0.1,0.8
	c-0.3,0.1-0.6,0-0.9-0.1c-0.5-0.3-1-0.8-1.3-1.3c0.7,0.2,1.3,0.4,1.9,0.8C35.2,20.9,35.3,20.2,35.7,19.5 M35,21.1
	c-0.1-0.2-0.3-0.3-0.5-0.4C34.6,20.8,34.8,20.9,35,21.1C34.9,21,34.9,21,35,21.1 M33.8,16.9c0.4,0.9,0.8,0.8,0.7,2
	c-0.1,0.3-0.2,0.6,0,0.9c-0.2-0.3-0.3-0.6-0.4-0.9c0,0.3,0,0.6,0.1,0.9c-0.2,0.2-0.5,0.2-0.8,0.1c-0.7-0.2-0.8-0.6-1.3-1
	c0.6,0,1.2,0.1,1.8,0.3C33.6,18.4,33.6,17.6,33.8,16.9 M32.3,17.4c-0.3-0.7-0.4-1.4-0.2-2.1c0.5,0.9,0.8,0.7,0.9,1.8
	c-0.1,0.3-0.1,0.6,0,0.9c-0.2-0.3-0.4-0.6-0.5-0.9c0,0.3,0,0.6,0.2,0.9c-0.2,0.2-0.5,0.3-0.8,0.2c-0.8,0-0.8-0.5-1.4-0.8
	C31.1,17.2,31.7,17.2,32.3,17.4 M29.8,13.2c0.5,0.8,1.2,0.8,1.2,1.9c-0.1,0.3-0.1,0.6,0,0.9c-0.2-0.3-0.4-0.6-0.5-0.9
	c0,0.3,0.1,0.6,0.2,0.9c-0.2,0.2-0.5,0.3-0.8,0.3c-0.8,0-0.8-0.4-1.5-0.8c0.6-0.1,1.2-0.2,1.8-0.1C29.8,14.8,29.6,14,29.8,13.2
	 M29.3,12.5c0,0.1-0.1,0.2-0.1,0.4c-0.1-0.2-0.2-0.3-0.4-0.4C29.1,12.5,29.2,12.5,29.3,12.5 M29.1,13.3c-0.1,0.3,0,0.7,0.2,0.9
	c-0.1,0-0.1,0-0.2,0c-0.2-0.2-0.4-0.5-0.5-0.7c0,0.3,0.1,0.7,0.3,1c-0.1,0.2-0.3,0.2-0.5,0.2c-0.5,0.1-1,0-1.5-0.3
	c0.4-0.3,1-0.5,1.5-0.4c0-0.1,0-0.1-0.1-0.2l0,0l0,0c-0.1-0.3-0.3-0.5-0.5-0.7c-0.2-0.4-0.4-0.8-0.4-1.2
	C28.2,12.6,28.8,12.3,29.1,13.3 M28.5,11.7h-0.8c-0.1-0.1-0.2-0.2-0.3-0.3C27.8,11.5,28.2,11.6,28.5,11.7 M15.1,11.1
	c0.3-0.1,0.6-0.3,0.8-0.5L13.7,10L16,9.6c-0.4-0.3-0.9-0.4-1.4-0.5c-0.3-0.3-0.7-0.5-1.1-0.6c0.3,0,0.7,0.1,1,0.2
	c0.6,0.1,1.1,0,1.7-0.1c-0.7-0.5-1.4-1-2.2-1.5c0,0,1.4,0.4,2.6,0.7c0-0.1-0.9-0.8-1.5-1.5c-0.1-0.1-0.2-0.3-0.3-0.4
	c0.4,0.1,0.7,0.4,1,0.6c0.4,0.2,0.9,0.4,1.4,0.5c-0.6-0.9-1.5-2.2-1.5-2.2l2.3,1.5c-0.1-0.4-0.3-0.9-0.5-1.3
	c-0.1-0.4-0.2-0.8-0.4-1.2c0.4,0.8,1,1.5,1.8,2L18.1,3l1.4,2.5c0.1-0.4,0.1-0.9,0-1.3c0.2-0.5,0.2-1,0-1.5c0.1,0.4,0.2,0.7,0.2,1.1
	c0.2,0.5,0.5,1,0.7,1.5L21,2.6c0,0,0.4,2.6,0.4,2.6c0.3-0.5,0.2-0.9,0.5-1.3c0.2-0.4,0.4-0.8,0.5-1.3c-0.2,1.1-0.2,0.7-0.3,1.3
	c-0.1,0.5,0,1,0.2,1.4L24,3.1l-0.7,2.8c0.2-0.1,0.8-0.9,1.5-1.4c0.2-0.2,0.3-0.4,0.5-0.6C25,4.2,24.7,4.6,24.5,5
	c-0.2,0.4-0.4,0.9-0.5,1.4l2.3-1.6l-1.6,2.3c0.4-0.1,0.8-0.3,1.2-0.5c0.5-0.1,1-0.3,1.5-0.6c-0.8,0.5-1.5,1.2-2.1,2l2.6-0.5
	l-2.3,1.4c0.1,0.1,1-0.1,1.7,0c0.4,0.1,0.8,0,1.2-0.1c-0.7,0.2-0.9,0.1-1.6,0.4c-0.4,0.2-0.7,0.3-1,0.6l2.6,0.5c0,0-2.6,0.6-3,0.8
	H25c-0.1,0-0.2,0-0.3,0c0.1-0.2,0.1-0.4,0.1-0.6c-0.9,0.2-1.7,0-2.4,0.2c0.1-0.2,0.1-0.3,0-0.5c-1.1,0.5-2,0.2-2.9,1
	c0-0.2,0-0.5-0.1-0.7c-0.9,0.5-1.8,0.2-2.4,0.8c0-0.2,0-0.3,0-0.5c-0.9,0.2-1.8,0.6-2.5,1.2l-0.6-0.1c0,0,0-0.1-0.1-0.1
	c0,0-0.1,0.1-0.1,0.1c-0.2,0-0.3,0-0.5,0C13.9,11.5,14.5,11.3,15.1,11.1 M12,14.2c0.3-1,0.9-0.9,1.5-1.6c0,0.8-0.3,1.5-0.8,2
	c0.6,0.1,1.2,0.2,1.8,0.4c-0.7,0.2-0.8,0.5-1.6,0.5c-0.3,0-0.6-0.2-0.8-0.4c0.2-0.2,0.3-0.5,0.3-0.8c-0.1,0.3-0.4,0.5-0.6,0.7
	C12,14.8,12.1,14.5,12,14.2 M13.4,14.3C13.4,14.3,13.4,14.3,13.4,14.3L13.4,14.3L13.4,14.3L13.4,14.3z M10.3,15.6
	c0.1-1.1,0.7-1.1,1.2-1.9c0.1,0.8-0.1,1.5-0.5,2.2c0.6-0.1,1.2,0,1.8,0.1c-0.6,0.3-0.7,0.7-1.5,0.7c-0.3,0-0.6-0.1-0.8-0.3
	c0.1-0.3,0.2-0.6,0.2-0.9c-0.1,0.3-0.3,0.6-0.5,0.9C10.4,16.1,10.4,15.8,10.3,15.6 M9.8,16.5c0,0.1-0.1,0.3-0.1,0.4l0,0
	C9.8,16.8,9.8,16.6,9.8,16.5 M8.4,17.1c0.1-1.2,0.4-1.1,1-1.9c0.2,0.7,0.1,1.5-0.2,2.2c0.6-0.1,1.2-0.1,1.7,0
	c-0.6,0.4-0.7,0.8-1.4,0.8c-0.3,0-0.6,0-0.8-0.2c0.1-0.3,0.2-0.6,0.1-0.9c-0.1,0.3-0.2,0.6-0.4,0.9C8.5,17.7,8.5,17.4,8.4,17.1
	 M7.6,17c0.2,0.7,0.2,1.5-0.1,2.3C8.1,19.1,8.7,19,9.3,19c-0.5,0.4-0.6,0.9-1.3,1c-0.3,0.1-0.5,0-0.8-0.1c0.1-0.3,0.1-0.6,0.1-0.9
	c-0.1,0.4-0.2,0.7-0.4,1C7,19.7,7,19.4,6.9,19.1C6.9,17.9,7.2,18,7.6,17 M6.5,21.1c0.1-0.1,0.2-0.2,0.4-0.2
	C6.7,20.9,6.6,21,6.5,21.1C6.5,21.1,6.5,21.1,6.5,21.1 M5.8,19.7c0.4,0.6,0.5,1.3,0.2,2c0.6-0.3,1.2-0.6,1.9-0.8
	c-0.3,0.5-0.7,1-1.2,1.3c-0.3,0.2-0.6,0.2-0.9,0.2c0-0.3,0-0.5-0.1-0.8c0,0.3-0.1,0.6-0.2,0.9c0-0.3-0.1-0.5-0.3-0.7
	C4.9,20.9,5.5,20.6,5.8,19.7 M4.3,23.9c-0.5-1,0.1-1.2,0.2-2.2c0.5,0.5,0.7,1.2,0.6,2c0.5-0.4,1.1-0.7,1.7-1c-0.4,0.6-0.3,1-1,1.5
	c-0.2,0.2-0.6,0.3-0.9,0.3c0-0.3-0.1-0.5-0.2-0.8c0.1,0.3,0.1,0.6,0,0.9C4.7,24.3,4.6,24,4.3,23.9 M5.8,24.7c0,0.1-0.1,0.2-0.1,0.2
	c-0.3,0.1-0.5,0.2-0.8,0.3C5.2,25.1,5.5,24.9,5.8,24.7 M3.4,24.4c0.5,0.5,0.7,1.3,0.6,2c0.5-0.4,1.1-0.7,1.7-0.9
	c-0.4,0.6-0.3,1-1,1.4c-0.3,0.2-0.6,0.3-0.9,0.2c0-0.3-0.1-0.5-0.2-0.8c0.1,0.3,0.1,0.6,0,0.9c0-0.3-0.2-0.6-0.4-0.7
	C2.7,25.6,3.3,25.3,3.4,24.4 M2.6,28.6c-0.6-0.9-0.1-1.2-0.2-2.2c0.6,0.5,0.9,1.1,1,1.9c0.4-0.5,0.9-0.8,1.5-1.2
	c-0.3,0.7-0.1,1-0.7,1.5C4,29,3.7,29.1,3.4,29.1c-0.1-0.3-0.2-0.5-0.4-0.7c0.1,0.3,0.2,0.6,0.2,0.9C3.2,29,3,28.7,2.6,28.6
	 M1.7,29.3c0.6,0.5,0.9,1.2,1,1.9c0.4-0.4,0.9-0.8,1.5-1.1c-0.3,0.6-0.1,1-0.7,1.5C3.2,31.8,3,32,2.6,31.9c-0.1-0.3-0.2-0.5-0.4-0.7
	c0.1,0.3,0.2,0.6,0.2,0.9c-0.1-0.3-0.3-0.5-0.5-0.7C1.3,30.6,1.8,30.2,1.7,29.3 M2.7,34c-0.1-0.3-0.3-0.5-0.5-0.7
	c0.2,0.3,0.3,0.6,0.3,0.9c-0.1-0.3-0.4-0.5-0.6-0.6c-0.8-0.8-0.5-1-0.7-2c0.7,0.4,1.1,0.9,1.4,1.7c0.3-0.5,0.8-0.9,1.2-1.3
	c-0.2,0.7,0.1,1-0.4,1.6C3.2,33.8,3,33.9,2.7,34 M3.6,34.1v0.3c-0.3,0.2-0.5,0.4-0.7,0.6C3,34.7,3.3,34.4,3.6,34.1 M1.1,34.5
	c0.6,0.4,1.1,1,1.4,1.8c0.3-0.5,0.7-0.9,1.2-1.2c-0.1,0.7,0.1,1-0.4,1.6C3.2,36.8,3,36.9,2.7,37c-0.1-0.3-0.3-0.5-0.5-0.7
	c0.2,0.3,0.3,0.6,0.3,0.9c-0.1-0.3-0.3-0.5-0.6-0.7C1.1,35.7,1.4,35.5,1.1,34.5 M2.5,38v0.1c-0.2-0.4-0.5-0.7-0.9-1
	C2.1,37.3,2.4,37.6,2.5,38 M1,37.3c0.7,0.3,1.2,0.8,1.5,1.5c0.2-0.5,0.6-1,1-1.4c0,0.7,0.3,1.1-0.1,1.7c-0.1,0.2-0.3,0.4-0.6,0.5
	c-0.2-0.3-0.4-0.5-0.7-0.7c0.2,0.3,0.4,0.6,0.5,0.9c-0.2-0.3-0.4-0.5-0.7-0.6C0.6,38,2.1,39.6,1,37.3 M2.8,40.6c0,0.1,0,0.1,0,0.2
	c-0.2-0.4-0.5-0.7-0.9-1C2.2,40,2.5,40.2,2.8,40.6 M2.7,41.5c0.3-0.6,0.6-1.2,1-1.7c0.1,0.6,0,1.2-0.2,1.8c-0.1,0.3-0.4,0.5-0.6,0.7
	c-0.1-0.2-0.3-0.4-0.6-0.6c0.2,0.3,0.3,0.6,0.4,0.9c-0.1-0.2-0.3-0.4-0.6-0.5c-0.8-0.6-0.4-0.9-0.8-1.8C2,40.4,2.5,40.9,2.7,41.5
	 M1.5,42.4c0.7,0.1,1.3,0.6,1.7,1.2c0.2-0.6,0.4-1.3,0.8-1.8c0,0.7,0.4,1,0.1,1.7c-0.1,0.3-0.3,0.6-0.5,0.8
	c-0.2-0.2-0.4-0.4-0.7-0.5c0.2,0.2,0.4,0.5,0.6,0.8c-0.2-0.2-0.5-0.3-0.8-0.3C1.7,43.7,2,43.2,1.5,42.4 M4.1,46.3
	c0.2-0.6,0.4-1.2,0.7-1.8c0,0.7,0.4,0.9,0.1,1.7c-0.1,0.3-0.3,0.5-0.5,0.7c-0.2-0.2-0.4-0.3-0.7-0.4c0.2,0.2,0.4,0.5,0.6,0.8
	c-0.2-0.2-0.5-0.3-0.8-0.3c-1-0.5-0.7-1-1.2-1.8C3.1,45.2,3.8,45.7,4.1,46.3 M3,47.3c0.8,0,1.5,0.3,2,0.9c0.1-0.6,0.2-1.3,0.5-1.9
	C5.6,47,6,47.2,5.9,48c0,0.3-0.2,0.6-0.4,0.8c-0.2-0.2-0.5-0.3-0.8-0.3C5,48.6,5.2,48.8,5.4,49c-0.2-0.2-0.6-0.3-0.9-0.2
	C3.6,48.6,3.7,48,3,47.3 M4.2,49.7c0.8,0.1,1.5,0.4,2,1c0.1-0.6,0.2-1.2,0.5-1.8c0.1,0.7,0.5,0.9,0.4,1.6c0,0.3-0.2,0.6-0.4,0.7
	c-0.2-0.2-0.5-0.3-0.8-0.4c0.3,0.2,0.5,0.4,0.7,0.7c-0.2-0.2-0.5-0.3-0.8-0.2C4.7,51,4.9,50.4,4.2,49.7 M5.2,51.7
	c0.8-0.1,1.6,0.2,2.2,0.6c0-0.6,0-1.2,0.2-1.8c0.3,0.6,0.7,0.8,0.7,1.5c0,0.3-0.1,0.6-0.3,0.8c-0.3-0.1-0.5-0.2-0.8-0.2
	c0.3,0.1,0.6,0.3,0.8,0.5C7.6,52.9,7.3,52.9,7,53C5.9,52.8,6,52.3,5.2,51.7 M8.2,53.7c0,0.1,0.1,0.2,0.1,0.3
	c-0.3-0.3-0.7-0.4-1.1-0.5C7.6,53.5,7.9,53.5,8.2,53.7 M6.4,53.8c0.8,0,1.6,0.3,2.2,0.8c0-0.6,0.1-1.2,0.3-1.8
	c0.3,0.6,0.7,0.8,0.6,1.5c0,0.3-0.1,0.6-0.3,0.7c-0.3-0.2-0.5-0.3-0.9-0.3c0.3,0.1,0.6,0.3,0.8,0.6c-0.3-0.2-0.6-0.2-0.9-0.2
	C7.2,55,7.3,54.5,6.4,53.8 M11.4,57.3c-0.2-0.3-0.6-0.4-0.9-0.3c-1.2-0.1-1.5-0.9-2.4-1.4c0.8-0.1,1.6,0.1,2.3,0.5
	c-0.1-0.6-0.1-1.1-0.1-1.7c0.4,0.6,0.8,0.7,0.9,1.4c0,0.4,0.1,0.9,0.2,1.3c-0.2-0.2-0.4-0.3-0.6-0.4C11,56.9,11.2,57.1,11.4,57.3
	 M9.9,55.6L9.9,55.6L9.9,55.6z M17.7,60.5c-2.6-0.8-4.9-2-5.5-2.9c-0.2-0.6-0.3-1.2-0.4-1.8c0,0,0,0,0-0.1c1.7,1.5,3.8,2.6,6,3.2
	h-0.2C16.9,59.8,17.3,60.2,17.7,60.5 M20.7,58.3c-7.2-0.2-11.4-6-13-8.8c-0.3-0.3,4.1-1.7,5.1-2l1.2-0.3c0,0.5,1,0.7,0.9,0.5
	c0.2,0.1-0.1,0.4,0.5,0.9s0.9,0.2,1,0.1c-0.4,0.4,0.9,1,1.6,0.6c-0.1,0.4,0.5,0.5,0.6,0.5c0.4,0.2,0.9,0.2,1.4,0v4
	c0.1,0.7,0.1,0.9,0.5,1c1.6,0.2,1.3-0.3,1.4-0.8c0-1.7-0.1-4.2-0.1-4.2c0.5,0,0.9-0.2,1.2-0.5c0.4,0.1,0.9-0.1,1.1-0.5
	c0.5,0.1,1-0.1,1.2-0.6c0.5,0.2,1.2-0.3,1.6-1.2c1.1,0.3,4.9,2.4,6.7,3C32.8,51.3,28.3,58.3,20.7,58.3 M33.2,54.2
	c0.2-0.1,0.4-0.1,0.6-0.2c-0.2,0.1-0.5,0.2-0.7,0.3C33.2,54.3,33.2,54.3,33.2,54.2 M31.4,56L31.4,56L31.4,56 M29.6,56
	c-0.1,0.7-0.2,1.2-0.3,1.6c-0.7,1.2-4,2.3-5.3,2.8c0.4-0.3,0.5-1,0.2-1.4c0,0-0.1-0.1-0.1-0.1h-0.1C26,58.3,27.9,57.3,29.6,56
	C29.6,56,29.6,56,29.6,56 M31.3,57.2c-0.4-0.1-0.9,0.1-1.1,0.4c0.2-0.3,0.4-0.6,0.6-0.8c-0.2,0.1-0.5,0.2-0.7,0.3c0-0.3,0-0.7,0.1-1
	c0.1-0.7,0.6-0.8,1-1.4c0.1,0.6,0,1.2-0.1,1.8c0.7-0.4,1.6-0.6,2.4-0.4C32.5,56.6,32.5,57.2,31.3,57.2 M33.1,55.7
	c-0.3-0.1-0.6,0-0.9,0.2c0.3-0.2,0.5-0.4,0.8-0.6c-0.3,0-0.6,0.1-0.9,0.3c-0.2-0.2-0.3-0.5-0.3-0.8c0-0.7,0.4-0.9,0.7-1.5
	c0.2,0.6,0.3,1.2,0.2,1.8c0.6-0.5,1.4-0.8,2.2-0.8C34.2,54.9,34.3,55.5,33.1,55.7 M34.5,53.6c-0.3-0.1-0.6,0-0.9,0.1
	c0.2-0.2,0.5-0.4,0.8-0.6c-0.3,0-0.6,0.1-0.8,0.2c-0.2-0.2-0.3-0.5-0.3-0.8c0-0.8,0.4-0.9,0.7-1.5c0.2,0.6,0.2,1.2,0.2,1.8
	c0.6-0.5,1.4-0.7,2.2-0.6C35.5,52.8,35.6,53.4,34.5,53.6 M35.8,51.8c-0.3-0.1-0.6,0-0.8,0.2c0.2-0.3,0.4-0.5,0.7-0.7
	c-0.3,0.1-0.5,0.2-0.8,0.3c-0.2-0.2-0.4-0.4-0.5-0.8c-0.2-0.8,0.2-1,0.4-1.7c0.3,0.6,0.4,1.2,0.5,1.8c0.5-0.6,1.2-1,2-1
	C36.6,50.8,36.8,51.4,35.8,51.8 M37.1,49.3c-0.3-0.1-0.6,0-0.8,0.2c0.2-0.2,0.4-0.5,0.7-0.6c-0.3,0.1-0.5,0.2-0.8,0.3
	c-0.2-0.2-0.4-0.5-0.4-0.8c-0.1-0.8,0.3-1,0.4-1.7c0.3,0.6,0.4,1.2,0.5,1.9c0.5-0.6,1.2-0.9,2-0.9C38,48.4,38.2,49,37.1,49.3
	 M38.1,47.3c-0.3,0-0.6,0.1-0.8,0.3c0.1-0.3,0.3-0.5,0.5-0.8c-0.3,0.1-0.5,0.2-0.7,0.4c-0.3-0.2-0.4-0.4-0.5-0.7
	c-0.3-0.8,0.1-1,0.1-1.8c0.3,0.6,0.6,1.2,0.8,1.8c0.4-0.6,1-1,1.8-1.2C38.8,46.2,39,46.9,38.1,47.3 M38.3,45.4
	c0.1-0.1,0.3-0.2,0.4-0.2C38.6,45.2,38.4,45.3,38.3,45.4 M39,44.5c-0.3,0-0.6,0.1-0.8,0.3c0.1-0.3,0.3-0.5,0.6-0.8
	c-0.3,0.1-0.5,0.2-0.7,0.4c-0.3-0.2-0.5-0.4-0.5-0.7c-0.3-0.8,0.1-1.1,0.1-1.8c0.3,0.6,0.6,1.2,0.8,1.8c0.3-0.7,1-1.1,1.7-1.2
	C39.7,43.4,40,44,39,44.5"/>
<path class="st4" d="M15.1,11.1c0.3-0.1,0.6-0.3,0.9-0.5L13.8,10L16,9.6c-0.4-0.3-0.9-0.4-1.4-0.5c-0.3-0.3-0.7-0.5-1.1-0.5
	c0.3,0,0.7,0.1,1,0.2c0.6,0.1,1.1,0,1.7-0.1c-0.7-0.5-1.4-1-2.2-1.5c0,0,1.4,0.4,2.6,0.7c0-0.1-0.9-0.8-1.5-1.5
	c-0.1-0.1-0.2-0.3-0.3-0.4c0.4,0.1,0.7,0.4,1,0.6c0.4,0.2,0.9,0.4,1.4,0.5c-0.6-0.9-1.5-2.2-1.5-2.2l2.3,1.5
	c-0.1-0.4-0.3-0.9-0.5-1.3c-0.1-0.4-0.2-0.9-0.4-1.2c0.4,0.8,1,1.5,1.8,2L18.1,3l1.4,2.5c0.1-0.4,0.1-0.9,0-1.3c0.2-0.5,0.2-1,0-1.5
	c0.1,0.4,0.2,0.7,0.2,1.1c0.2,0.5,0.5,1,0.7,1.5L21,2.6c0,0,0.4,2.6,0.4,2.6c0.3-0.5,0.2-0.9,0.5-1.3c0.2-0.4,0.4-0.8,0.5-1.3
	c-0.2,1.1-0.2,0.7-0.3,1.3c0,0.5,0,1,0.2,1.4L24,3.1l-0.7,2.8c0.2-0.1,0.8-0.9,1.5-1.4c0.2-0.2,0.5-0.6,0.5-0.6
	C25,4.2,24.7,4.6,24.5,5c-0.2,0.4-0.4,0.9-0.5,1.3l2.3-1.6l-1.6,2.3c0.4-0.1,0.8-0.3,1.2-0.5c0.5-0.1,1-0.3,1.5-0.6
	c-0.8,0.5-1.5,1.2-2.1,2l2.6-0.5l-2.3,1.4c0.1,0.1,1-0.1,1.7,0c0.4,0.1,0.8,0,1.2-0.1c-0.7,0.2-0.9,0.1-1.6,0.4
	c-0.4,0.2-0.7,0.3-1.1,0.6l2.6,0.5c0,0-2.6,0.6-3,0.8c-0.2,0-0.3,0-0.5,0c-0.1,0-0.2,0-0.3,0c0.1-0.2,0.1-0.4,0.1-0.6
	c-0.9,0.2-1.7,0-2.4,0.2c0.1-0.2,0.1-0.3,0-0.5c-1.1,0.5-2,0.3-2.9,1c0-0.2,0-0.5-0.1-0.7c-0.9,0.5-1.8,0.2-2.4,0.8
	c0-0.2,0-0.3,0-0.5c-0.9,0.2-1.8,0.7-2.5,1.2l-0.6-0.1c0,0,0-0.1-0.1-0.1c0,0-0.1,0.1-0.1,0.1c-0.2,0-0.3,0-0.5,0
	C13.9,11.5,14.5,11.3,15.1,11.1"/>
<path class="st3" d="M24.5,8.3h0.3c0,0-0.2-1.2-2.3-1.1h-0.5l-0.2,0.7l1.5-0.1C23.7,7.7,24.2,7.9,24.5,8.3"/>
<path class="st3" d="M22.1,9.1c0.1-0.1,0.2-0.3,0.3-0.4h0.1c0,0,0,0.1,0,0.2c0,0.2,0.1,0.4,0.3,0.5c0.1,0,0.3,0,0.4,0
	c0.2-0.1,0.3-0.3,0.3-0.5c0,0,0-0.1,0-0.2c0.2,0,0.4,0.2,0.5,0.4h0.5c0,0-0.3-1.1-2.4-0.8c-0.2,0.3-0.4,0.5-0.5,0.8
	C21.8,9.1,21.9,9.1,22.1,9.1"/>
<path class="st3" d="M17.4,9.1l0.5,0c0.1-0.2,0.3-0.3,0.5-0.3c0,0,0,0.1,0,0.1c0,0.2,0.1,0.4,0.3,0.5c0.1,0,0.2,0,0.4,0
	c0.2-0.1,0.3-0.3,0.3-0.5c0,0,0,0,0-0.1h0.1c0,0,0.3,0.3,0.3,0.3c0.2,0.1,0.3,0.1,0.5,0c0,0-0.5-0.8-0.5-0.8
	C17.7,7.9,17.4,9.1,17.4,9.1"/>
<path class="st3" d="M18.6,7.8l1.5,0.1c0,0-0.2-0.6-0.2-0.7h-0.4c-2.3-0.1-2.5,1-2.5,1h0.3C17.6,7.8,18.1,7.6,18.6,7.8"/>
<path class="st5" d="M40.4,40.2c-0.3,0.9,0,1.5-0.8,2.1c-0.3,0-0.5,0.2-0.7,0.4c0.1-0.3,0.2-0.6,0.4-0.9c-0.2,0.1-0.4,0.3-0.6,0.6
	c-0.3-0.1-0.5-0.4-0.6-0.6c-0.2-0.6-0.3-1.2-0.2-1.8c0.4,0.5,0.8,1.1,1.1,1.7C39.2,41.1,39.7,40.5,40.4,40.2"/>
<path class="st5" d="M40.7,37.2c-0.4,1-0.1,1.4-1,2.2c-0.3,0.1-0.6,0.3-0.7,0.6c0.1-0.3,0.3-0.7,0.5-0.9c-0.2,0.2-0.5,0.4-0.6,0.7
	c-0.3,0-0.5-0.2-0.6-0.5c-0.3-0.7,0-1-0.1-1.7c0.4,0.4,0.7,0.9,1,1.5C39.5,38.2,40,37.6,40.7,37.2"/>
<path class="st5" d="M39.1,36.4c0.2-0.8,0.7-1.5,1.3-1.9c-0.3,1,0.1,1.4-0.7,2.3c-0.3,0.1-0.5,0.4-0.6,0.7c0-0.4,0.2-0.7,0.3-1
	c-0.2,0.2-0.4,0.4-0.5,0.7c-0.3,0-0.5-0.2-0.7-0.4c-0.5-0.6-0.2-1-0.4-1.6C38.4,35.4,38.8,35.9,39.1,36.4"/>
<path class="st5" d="M40.5,31.5c-0.3,1,0.1,1.4-0.7,2.2c-0.3,0.1-0.5,0.3-0.6,0.6c0-0.3,0.2-0.6,0.3-0.9c-0.2,0.2-0.4,0.4-0.5,0.7
	c-0.3,0-0.6-0.2-0.7-0.4c-0.5-0.6-0.2-0.9-0.4-1.6c0.5,0.4,0.9,0.8,1.3,1.3C39.4,32.6,39.8,31.9,40.5,31.5"/>
<path class="st5" d="M39,31.3c0.1-0.8,0.4-1.5,1-2c-0.1,1,0.4,1.3-0.2,2.2c-0.3,0.1-0.5,0.4-0.5,0.7c0-0.3,0-0.7,0.2-1
	c-0.2,0.2-0.3,0.5-0.4,0.8c-0.3,0-0.6-0.1-0.8-0.3c-0.6-0.5-0.4-0.9-0.7-1.5C38.1,30.4,38.6,30.8,39,31.3"/>
<path class="st5" d="M14,13.7c0.2-0.2,0.4-0.5,0.4-0.8c0.4-1.2,1.1-1.1,1.9-1.7c0.3,0.4-0.7,1.8-1.4,2.2c0.6,0.1,1.1,0.4,1.6,0.7
	c-0.7,0.1-1,0.5-1.7,0.2c-0.3-0.1-0.5-0.3-0.6-0.5c0.2-0.2,0.4-0.5,0.5-0.8C14.6,13.3,14.4,13.5,14,13.7"/>
<path class="st5" d="M26,13.3c-0.3,0-0.5-0.1-0.8-0.2c0.4-0.1,0.7-0.3,1-0.5c0.6,0,1.1,0.4,1.3,1C27,13.5,26.9,13.8,26,14
	s-1.2-0.3-1.9-0.4c-0.2-0.1-0.3-0.3-0.3-0.5c0.3,0.1,0.7,0.1,1,0v0.1C25.2,13.3,25.6,13.3,26,13.3"/>
<path class="st5" d="M23.5,12.3c0.3,0,0.7-0.1,1-0.2c-0.2,0-0.5,0-0.7,0c0.4-0.4,0.9-0.6,1.4-0.7c0.9,0,0.9,0.5,1.4,0.3
	C26.6,12.1,24.1,13.3,23.5,12.3"/>
<path class="st5" d="M22.2,12.1c0.5,0.4,0.9,0.8,1.3,1.3c-0.7-0.2-1,0-1.6-0.5c-0.2-0.2-0.4-0.5-0.4-0.8c0.3-0.1,0.5-0.3,0.7-0.5
	c-0.3,0.2-0.6,0.3-0.9,0.3c0.3-0.1,0.5-0.3,0.6-0.6c0.8-0.8,1.2-0.3,2.2-0.5C23.6,11.5,23,11.9,22.2,12.1"/>
<path class="st5" d="M20.2,12.3c0.5,0.3,1,0.6,1.5,1c-0.7-0.1-1,0.2-1.6-0.2c-0.3-0.1-0.4-0.4-0.5-0.6c0.2-0.2,0.4-0.4,0.6-0.6
	c-0.3,0.2-0.5,0.4-0.9,0.5c0.2-0.2,0.4-0.4,0.5-0.7c0.7-0.9,1-0.5,1.9-1C21.4,11.3,20.9,11.9,20.2,12.3"/>
<path class="st5" d="M18.8,13.5c-0.7,0-1,0.3-1.7,0c-0.3-0.1-0.5-0.3-0.6-0.6c0.2-0.2,0.5-0.4,0.6-0.7c-0.2,0.2-0.5,0.4-0.9,0.5
	c0.3-0.2,0.4-0.4,0.5-0.8c0.7-1,1.1-0.7,2-1.2c-0.3,0.7-0.8,1.3-1.5,1.7C17.8,12.9,18.3,13.2,18.8,13.5"/>
<path class="st5" d="M39.2,26.4c-0.1,1,0.4,1.3-0.2,2.2c-0.3,0.1-0.5,0.4-0.5,0.7c0-0.3,0-0.7,0.2-1c-0.2,0.2-0.3,0.5-0.4,0.8
	c-0.3,0-0.6-0.2-0.8-0.4c-0.6-0.5-0.4-0.9-0.7-1.5c0.6,0.3,1.1,0.7,1.5,1.2C38.3,27.5,38.7,26.9,39.2,26.4"/>
<path class="st5" d="M37.7,26.3c-0.1-0.7,0.1-1.4,0.6-2c0.1,1,0.7,1.2,0.2,2.2c-0.2,0.2-0.4,0.4-0.4,0.7c-0.1-0.3-0.1-0.6,0-0.9
	c-0.1,0.2-0.2,0.5-0.2,0.8c-0.3,0.1-0.7,0-0.9-0.2c-0.7-0.4-0.6-0.8-1-1.4C36.6,25.7,37.2,26,37.7,26.3"/>
<path class="st5" d="M36.9,21.6c0.1,1,0.7,1.3,0.2,2.2c-0.2,0.2-0.4,0.4-0.4,0.7c-0.1-0.3-0.1-0.6,0-0.9c-0.1,0.2-0.2,0.5-0.3,0.8
	c-0.3,0-0.6-0.1-0.9-0.3c-0.7-0.5-0.6-0.9-1-1.5c0.6,0.3,1.2,0.6,1.8,1C36.3,22.8,36.5,22.1,36.9,21.6"/>
<path class="st5" d="M35.6,19.5c0.3,0.9,0.9,1.2,0.6,2.2c-0.2,0.2-0.3,0.5-0.2,0.7c-0.1-0.3-0.2-0.6-0.2-1c-0.1,0.3-0.1,0.5-0.1,0.8
	c-0.3,0-0.6,0-0.9-0.2c-0.8-0.4-0.7-0.8-1.3-1.3c0.7,0.2,1.3,0.4,1.9,0.8C35.2,20.9,35.3,20.2,35.6,19.5"/>
<path class="st5" d="M33.8,16.9c0.4,0.9,0.8,0.8,0.7,2.1c-0.1,0.3-0.1,0.6,0,0.9c-0.2-0.3-0.3-0.7-0.4-1c0,0.3,0,0.6,0.1,0.9
	c-0.2,0.2-0.5,0.2-0.8,0.1c-0.7-0.2-0.8-0.6-1.3-1c0.6,0,1.2,0.1,1.8,0.3C33.6,18.4,33.6,17.6,33.8,16.9"/>
<path class="st5" d="M32.3,17.3c-0.3-0.7-0.4-1.4-0.2-2.1c0.5,0.9,0.8,0.7,0.9,1.9c-0.1,0.3-0.1,0.6,0,0.9c-0.2-0.3-0.4-0.6-0.5-0.9
	c0,0.3,0,0.6,0.2,0.9c-0.2,0.2-0.5,0.3-0.8,0.2c-0.7,0-0.8-0.5-1.4-0.8C31,17.2,31.6,17.2,32.3,17.3"/>
<path class="st5" d="M29.7,13.2c0.6,0.8,1.1,0.8,1.2,1.9c-0.1,0.3-0.1,0.6,0,0.9c-0.2-0.3-0.4-0.5-0.5-0.9c0,0.3,0.1,0.6,0.2,0.9
	c-0.2,0.2-0.5,0.3-0.8,0.3c-0.8,0-0.9-0.4-1.5-0.8c0.6-0.1,1.2-0.2,1.8-0.1C29.8,14.8,29.6,14,29.7,13.2"/>
<path class="st5" d="M29.1,13.4c-0.1,0.3,0,0.6,0.2,0.9c-0.1,0-0.1,0-0.2,0c-0.2-0.2-0.4-0.5-0.6-0.7c0,0.4,0.1,0.7,0.3,1
	c-0.1,0.1-0.3,0.2-0.5,0.2c-0.5,0.1-1-0.1-1.5-0.4c0.4-0.3,1-0.5,1.5-0.4c0-0.1,0-0.1-0.1-0.2l0,0l0,0c-0.1-0.3-0.3-0.5-0.5-0.7
	c-0.3-0.4-0.5-0.8-0.4-1.3C28.1,12.5,28.8,12.3,29.1,13.4"/>
<path class="st5" d="M12,14.2c0.3-1.1,0.9-0.9,1.5-1.6c0,0.8-0.3,1.5-0.8,2c0.6,0,1.2,0.2,1.8,0.4c-0.6,0.2-0.8,0.6-1.6,0.5
	c-0.3,0-0.6-0.2-0.8-0.4c0.2-0.2,0.3-0.5,0.3-0.8c-0.2,0.3-0.4,0.5-0.6,0.7C12,14.8,12.1,14.5,12,14.2"/>
<path class="st5" d="M10.3,15.6c0.1-1.1,0.7-1.1,1.2-1.9c0.1,0.8-0.1,1.5-0.5,2.2c0.6-0.1,1.2,0,1.8,0.1c-0.6,0.3-0.7,0.7-1.5,0.7
	c-0.3,0-0.6-0.1-0.8-0.3c0.1-0.3,0.2-0.6,0.2-0.9c-0.1,0.3-0.3,0.6-0.5,0.9C10.4,16.2,10.4,15.8,10.3,15.6"/>
<path class="st5" d="M8.5,17.1c0.1-1.2,0.4-1.1,0.9-1.9c0.2,0.7,0.1,1.5-0.3,2.2c0.6-0.1,1.2-0.1,1.8,0c-0.6,0.4-0.7,0.8-1.4,0.9
	c-0.3,0-0.5-0.1-0.8-0.2c0.1-0.3,0.2-0.6,0.1-0.9c-0.1,0.3-0.2,0.6-0.5,0.9C8.5,17.7,8.5,17.4,8.5,17.1"/>
<path class="st5" d="M7.6,17c0.2,0.7,0.2,1.5-0.1,2.3C8.1,19.1,8.7,19,9.3,19c-0.5,0.4-0.6,0.9-1.3,1.1c-0.3,0.1-0.6,0-0.8-0.1
	c0.1-0.3,0.1-0.6,0.1-0.9c-0.1,0.4-0.2,0.7-0.3,1C7,19.7,7,19.4,6.9,19.1C6.9,17.9,7.2,18,7.6,17"/>
<path class="st5" d="M5.8,19.7c0.4,0.6,0.5,1.3,0.2,2c0.6-0.3,1.2-0.6,1.9-0.8c-0.3,0.5-0.7,1-1.2,1.3c-0.3,0.1-0.6,0.2-0.9,0.2
	c0-0.3,0-0.6-0.1-0.8c0,0.3-0.1,0.7-0.2,1c0.1-0.3,0-0.6-0.3-0.8C4.9,20.9,5.5,20.6,5.8,19.7"/>
<path class="st5" d="M4.3,23.9c-0.5-1,0.1-1.2,0.2-2.2c0.5,0.5,0.7,1.2,0.6,2c0.5-0.4,1.1-0.8,1.7-1c-0.4,0.6-0.3,1-1,1.4
	c-0.2,0.2-0.6,0.3-0.9,0.3c0-0.3-0.1-0.5-0.3-0.7c0.1,0.3,0.1,0.6,0,0.9C4.7,24.2,4.6,24,4.3,23.9"/>
<path class="st5" d="M3.4,24.4c0.5,0.6,0.7,1.3,0.6,2c0.5-0.4,1.1-0.7,1.7-0.9c-0.4,0.6-0.3,1-1,1.4c-0.2,0.2-0.5,0.3-0.8,0.2
	c0-0.3-0.1-0.5-0.3-0.8c0.1,0.3,0.1,0.6,0,0.9c0-0.3-0.2-0.6-0.4-0.7C2.7,25.6,3.2,25.3,3.4,24.4"/>
<path class="st5" d="M2.7,28.6c-0.6-0.9-0.1-1.2-0.2-2.2c0.6,0.5,1,1.1,1,1.9c0.4-0.5,1-0.8,1.5-1.2c-0.3,0.6-0.1,1-0.7,1.5
	c-0.2,0.2-0.5,0.4-0.8,0.3c-0.1-0.3-0.2-0.5-0.4-0.7c0.1,0.3,0.2,0.6,0.2,0.9C3.2,29,3,28.8,2.7,28.6"/>
<path class="st5" d="M1.7,29.3c0.6,0.5,0.9,1.2,1,1.9c0.4-0.4,1-0.8,1.5-1.1c-0.3,0.6-0.1,1-0.7,1.5c-0.2,0.2-0.5,0.3-0.8,0.3
	c-0.1-0.3-0.2-0.5-0.4-0.7c0.1,0.3,0.2,0.7,0.2,1c-0.1-0.3-0.3-0.5-0.5-0.7C1.3,30.6,1.8,30.3,1.7,29.3"/>
<path class="st5" d="M2.7,34c-0.1-0.3-0.3-0.5-0.5-0.7c0.2,0.3,0.3,0.6,0.3,0.9c-0.1-0.3-0.3-0.5-0.6-0.6c-0.8-0.8-0.5-1.1-0.7-2
	c0.6,0.4,1.1,1,1.4,1.7c0.3-0.5,0.8-0.9,1.2-1.3c-0.2,0.7,0.1,1-0.4,1.6C3.2,33.8,3,33.9,2.7,34"/>
<path class="st5" d="M1.1,34.5c0.7,0.4,1.1,1,1.4,1.8c0.3-0.5,0.8-0.9,1.2-1.2c-0.1,0.7,0.1,1-0.4,1.6C3.2,36.8,3,37,2.7,37
	c-0.1-0.3-0.3-0.5-0.6-0.7c0.2,0.3,0.3,0.6,0.3,0.9c-0.1-0.3-0.4-0.5-0.6-0.6C1.1,35.7,1.4,35.5,1.1,34.5"/>
<path class="st5" d="M1,37.3c0.7,0.3,1.2,0.8,1.5,1.5c0.3-0.5,0.6-1,1-1.4c0,0.7,0.3,1.1-0.1,1.7c-0.1,0.2-0.3,0.4-0.6,0.5
	c-0.2-0.3-0.4-0.5-0.7-0.7c0.2,0.3,0.4,0.6,0.5,0.9c-0.2-0.3-0.4-0.5-0.7-0.6C0.6,38,2.1,39.6,1,37.3"/>
<path class="st5" d="M2.8,41.5c0.3-0.6,0.6-1.2,1-1.7c0.1,0.6,0,1.2-0.2,1.8c-0.1,0.3-0.4,0.5-0.6,0.7c-0.1-0.2-0.3-0.4-0.6-0.6
	c0.2,0.3,0.3,0.6,0.4,0.9c-0.1-0.2-0.4-0.4-0.6-0.4c-0.8-0.6-0.4-0.9-0.8-1.8C2,40.4,2.5,40.9,2.8,41.5"/>
<path class="st5" d="M1.5,42.4c0.7,0.1,1.3,0.6,1.7,1.2c0.2-0.6,0.4-1.3,0.8-1.8c0,0.7,0.4,1,0.1,1.7c-0.1,0.3-0.3,0.6-0.5,0.8
	c-0.2-0.2-0.4-0.4-0.7-0.5c0.2,0.2,0.4,0.5,0.5,0.8c-0.2-0.2-0.5-0.3-0.7-0.3C1.7,43.7,2,43.2,1.5,42.4"/>
<path class="st5" d="M4.1,46.3c0.2-0.6,0.4-1.2,0.7-1.8c0,0.7,0.4,0.9,0.1,1.7c-0.1,0.3-0.3,0.6-0.5,0.7c-0.2-0.2-0.4-0.4-0.7-0.4
	C4,46.7,4.2,47,4.4,47.3C4.2,47,3.9,46.9,3.6,47c-1-0.5-0.7-1-1.2-1.8C3.2,45.2,3.8,45.7,4.1,46.3"/>
<path class="st5" d="M3,47.3c0.7,0,1.4,0.3,1.9,0.9c0.1-0.6,0.2-1.3,0.4-1.9C5.6,47,6,47.2,5.8,48c0,0.3-0.2,0.6-0.4,0.8
	c-0.2-0.2-0.5-0.3-0.8-0.3c0.3,0.2,0.5,0.4,0.7,0.6c-0.2-0.2-0.5-0.2-0.8-0.2C3.6,48.6,3.7,48,3,47.3"/>
<path class="st5" d="M4.2,49.7c0.8,0,1.5,0.4,2,0.9c0.1-0.6,0.3-1.2,0.5-1.8c0.1,0.7,0.5,0.9,0.4,1.6c0,0.3-0.2,0.6-0.4,0.7
	c-0.2-0.2-0.5-0.3-0.8-0.4c0.3,0.2,0.5,0.4,0.7,0.7c-0.2-0.2-0.5-0.3-0.8-0.2C4.7,51,4.9,50.4,4.2,49.7"/>
<path class="st5" d="M5.1,51.7c0.8-0.1,1.5,0.2,2.2,0.6c0-0.6,0-1.2,0.2-1.8c0.3,0.6,0.7,0.8,0.7,1.5c0,0.3-0.1,0.6-0.3,0.8
	c-0.3-0.1-0.5-0.2-0.8-0.2c0.3,0.1,0.6,0.3,0.8,0.5C7.6,53,7.3,53,7,53.1C5.9,52.8,5.9,52.3,5.1,51.7"/>
<path class="st5" d="M6.5,53.8c0.8,0,1.6,0.3,2.2,0.8c0-0.6,0.1-1.2,0.3-1.8c0.2,0.7,0.7,0.8,0.6,1.5c0,0.3-0.1,0.6-0.3,0.7
	C9,55,8.7,54.9,8.4,54.8C8.7,55,9,55.2,9.2,55.4c-0.3-0.2-0.6-0.2-0.9-0.2C7.1,55,7.3,54.4,6.5,53.8"/>
<path class="st5" d="M11.4,57.4c-0.2-0.2-0.6-0.3-0.9-0.3C9.3,57,9,56.2,8.1,55.7c0.8-0.1,1.6,0.1,2.3,0.5c-0.1-0.6-0.2-1.1-0.1-1.7
	c0.4,0.6,0.8,0.7,0.9,1.4c0,0.4,0.1,0.9,0.2,1.3c-0.2-0.2-0.4-0.3-0.6-0.4C11,56.9,11.2,57.1,11.4,57.4"/>
<path class="st5" d="M31.2,57.2c-0.4,0-0.8,0.1-1.1,0.4c0.2-0.3,0.4-0.5,0.7-0.7c-0.2,0.1-0.5,0.2-0.7,0.3c0-0.3,0-0.7,0.1-1
	c0.1-0.7,0.6-0.8,1-1.4c0.1,0.6,0,1.2-0.1,1.8c0.7-0.4,1.6-0.6,2.4-0.4C32.5,56.6,32.5,57.2,31.2,57.2"/>
<path class="st5" d="M33.1,55.7c-0.3-0.1-0.6,0-0.9,0.2c0.3-0.2,0.6-0.4,0.9-0.6c-0.3,0-0.6,0.2-0.9,0.3c-0.2-0.2-0.3-0.5-0.3-0.8
	c0-0.7,0.4-0.9,0.7-1.5c0.2,0.6,0.2,1.2,0.2,1.8c0.6-0.5,1.4-0.8,2.2-0.8C34.3,54.9,34.4,55.5,33.1,55.7"/>
<path class="st5" d="M34.5,53.6c-0.3-0.1-0.6-0.1-0.9,0.1c0.2-0.2,0.5-0.4,0.8-0.6c-0.3,0-0.6,0.1-0.8,0.2c-0.2-0.2-0.3-0.5-0.3-0.8
	c0-0.8,0.4-0.9,0.7-1.5c0.2,0.6,0.2,1.2,0.2,1.8c0.6-0.5,1.4-0.7,2.2-0.7C35.5,52.8,35.6,53.4,34.5,53.6"/>
<path class="st5" d="M35.8,51.8c-0.3-0.1-0.6,0-0.8,0.2c0.2-0.3,0.4-0.5,0.7-0.7c-0.3,0.1-0.5,0.2-0.8,0.3c-0.2-0.2-0.4-0.5-0.5-0.8
	c-0.2-0.8,0.2-1,0.4-1.7c0.3,0.6,0.4,1.2,0.5,1.8c0.5-0.6,1.2-0.9,2-1C36.7,50.9,36.8,51.4,35.8,51.8"/>
<path class="st5" d="M37.1,49.3c-0.3-0.1-0.6,0-0.8,0.2c0.2-0.2,0.4-0.5,0.7-0.6c-0.3,0.1-0.5,0.2-0.8,0.3c-0.2-0.2-0.4-0.5-0.4-0.8
	c-0.1-0.8,0.2-1,0.4-1.7c0.3,0.6,0.4,1.2,0.5,1.9c0.5-0.6,1.2-0.9,2-0.9C38,48.4,38.2,49,37.1,49.3"/>
<path class="st5" d="M38.1,47.3c-0.3,0-0.6,0.1-0.8,0.3c0.1-0.3,0.3-0.6,0.5-0.8c-0.3,0.1-0.5,0.3-0.7,0.4c-0.3-0.2-0.4-0.4-0.5-0.7
	c-0.3-0.8,0.1-1,0.1-1.8c0.3,0.6,0.6,1.2,0.8,1.8c0.4-0.6,1-1,1.8-1.2C38.8,46.3,39,46.9,38.1,47.3"/>
<path class="st5" d="M39.1,44.5c-0.3,0-0.6,0.1-0.7,0.3c0.1-0.3,0.3-0.6,0.6-0.8c-0.3,0.1-0.5,0.2-0.7,0.4c-0.3-0.2-0.5-0.4-0.5-0.7
	c-0.3-0.8,0.1-1,0.1-1.8c0.3,0.6,0.6,1.2,0.8,1.8c0.3-0.6,1-1.1,1.7-1.2C39.7,43.4,40,44,39.1,44.5"/>
<path class="st6" d="M34.5,48.2c-2.4,0.2-4.7-0.5-6.6-1.9c0.3-0.6,0.4-1.3,0.3-1.9c-0.1-0.5-0.1-0.1-0.2,0.2c-0.2,0.5-0.5,1-1,1.2
	c-0.7-0.8-1.6-1.4-2.6-1.9c-0.6-0.4-1.1-0.8-1.6-1.2c-1,0.4-2.5,1.3-3.2,0.8c-0.6-0.3,0.7-0.7,1.3-1.5c0.4-0.6,1.1-0.9,1.8-0.7
	c1.5,0.3,2.2,0.8,4.5,1.8c2.7,0.2,4.7,1,7.4,1.6c0.5,0.1,1,0.2,1.4,0.2C35.5,46,35.1,47.1,34.5,48.2"/>
<path class="st6" d="M22.6,45.2c0.8,0.9,1.5,1.1,2,2.2c-0.1,0.3-0.5,0.4-0.7,0.3c0,0-0.1,0-0.1-0.1c-1.2-1.4-2.3-1.6-1.9-2.2
	c-0.2,0-0.4,0.2-0.4,0.5c0,0,0,0,0,0c0.2,0.9,1.3,1.3,1.6,2.2c-0.2,0.6-1.5,0.1-2.1-1.6v-0.1c-0.2,0.5-0.5,0.7,0.4,1.7
	c0.2,0.4,0.3,0.8-0.3,0.7c0.1,0.1-0.3,0-0.1,0h0.1c0,0-0.1,0-0.1-0.1c0.2-0.5,0-1.1-0.6-1.3c-0.2-0.1-0.4-0.1-0.6,0
	c0.3-0.5-0.6-1.2-1.5-0.8c0.1-0.4-0.8-1.2-2.1-0.7c-0.2-0.5-1.3-0.9-2.4,0.5c-2,0.2-5.1,1.9-7.1,1c-0.1,0.1-1.2-3.2-1.2-3.2
	c2.2-0.2,7.3-0.6,9.1-1.3c1.4-0.9,4.1-1.4,4.7-1c-0.1,0.5-1.2,1.4-0.6,1.9c1,0.9,2.6,0.5,3.7-0.1c1.1,1.2,2.9,1.3,3.6,2.8l-0.2,0.4
	c-0.4,0.2-0.4,0.2-0.9-0.4c-1.1-1.4-2.1-1.1-2.3-2.1C22.4,44.5,22.6,44.9,22.6,45.2"/>
<path class="st6" d="M17.4,48.2c-0.4,0.2,0.2-0.2,0.3-0.3l0.2-0.2c0.3-0.3,0.8-0.7,1.1-0.1c0.1,0.3-1.2,1.1-1.4,1.2
	c-0.1,0.1-0.3,0-0.4-0.1c0,0,0,0,0,0c-0.1-0.1,0-0.3,0.1-0.4C17.3,48.2,17.4,48.2,17.4,48.2"/>
<path class="st6" d="M16.2,48c-0.2,0.1-0.4,0-0.6-0.2c0.1-0.3,0.2-0.6,0.5-0.8c0.1-0.1,0.2-0.2,0.3-0.2l0.2-0.2
	c0.5-0.1,0.4,0,0.5,0.2C17.1,47.3,16.7,47.7,16.2,48"/>
<path class="st6" d="M19.5,48.2c0.1-0.2,0.4-0.3,0.6-0.1c0.1,0.1,0.2,0.2,0.2,0.4c0.1,0.3-0.5,0.7-1,0.8
	C19,49.1,18.3,49.2,19.5,48.2"/>
<path class="st6" d="M14.9,47.1c-0.2,0.1-0.5-0.3-0.4-0.4l0.2-0.4c0.4-0.1,0.6-0.3,0.7-0.1C15.4,46.5,15.2,46.9,14.9,47.1"/>
<path class="st7" d="M20.8,14.3c-8.9,0-16.1,9.4-16.5,21.2h32.9C36.9,23.7,29.7,14.3,20.8,14.3"/>
<path class="st3" d="M21.8,40.3V31c0,0,3.2,0.1,3.9-0.1c0.7-0.3,1.2-0.8,1.3-1.5c0-1.1-0.2-2.1-0.5-3.2c-0.3-0.2-0.5-0.5-0.6-0.9
	c0,0-0.3-3.5-1-4.5c-0.9-1.4-2.5-2.3-4.2-2.1c-1.7-0.1-3.3,1-3.7,2.7c-0.1,0.6,0.4,1.3,1,1.4c0.1,0,0.2,0,0.3,0
	c-0.3,0.3-0.6,0.5-0.9,0.8c-0.6,0.6-1,1.3-1.5,2.1c-0.6,1.1-0.9,2.4-0.8,3.7c0.6,0.9,1.6,1.5,2.7,1.6c0.7,0.1,1.4,0,2.1-0.1v9.3
	L21.8,40.3z"/>
<path class="st8" d="M18.3,27.5c-0.9,0-1.3,0.5-2.2,0.6c0.3-1.4,0.9-2.7,1.9-3.8c0.9-0.9,2-1.6,3.2-2.1V22c-0.8,0.1-2.7,0.5-3.3-0.4
	c-0.1-0.9,1.1-1.8,2.7-2c0.9,0,1.8,0.3,2.5,0.8c0.8,0.6,1.4,1.6,1.5,2.7c-0.5,0.2-1,0.5-1.5,0.8c0.2,0,0.5,0.1,0.7,0.1
	c0.3,0,0.5,0,0.8,0v0.6c0.1,0.1,0.2,0.2,0.2,0.2c-2,0.9-3,1.2-3.1,1.1c0.3,0.1,0.5,0.1,0.8,0.1c0.8-0.1,1.6-0.2,2.3-0.5
	c-0.1,0.4,0.2,0.8,0.6,0.9l0,0l0,0c-2,1.1-2.8,1-2.9,0.9L21.1,27c0.6,0.4,1.2,0.7,1.9,0.9c0.9-0.1,1.9-0.3,2.7-0.7l0.3,0.9
	c-1.2,0-2.5,1.8-4.3,1.1C20.8,28.6,19.6,27.5,18.3,27.5"/>
<path class="st8" d="M20,30c-0.9,0-2.3,0-2.4-0.1c-0.4,0-1.6-0.7-1.4-0.9c0.5,0,1-0.2,1.5-0.4C18.9,28.1,19.9,29.7,20,30"/>
<path class="st8" d="M26.1,29c-0.1,0.4-0.3,0.8-0.7,0.9c-0.2,0-1.4,0-2.1,0c0.4,0,0.7-0.1,1.1-0.3C26.4,28.7,26.2,29,26.1,29"/>
<path class="st2" d="M19.8,63.5c0.1-0.2,0.1-0.5,0-0.7c-0.4,0.6-0.9,1.1-1.5,1.5c-0.8,0.4-1.6,0.7-2.4,0.8c0.2,0.2,0.4,0.4,0.6,0.5
	c0.8-0.1,1.5-0.4,2.2-0.8C19.2,64.5,19.6,64,19.8,63.5"/>
<path class="st7" d="M21.9,63.5c-0.1-0.2-0.1-0.5,0-0.7c0.4,0.6,0.9,1.1,1.5,1.5c0.8,0.4,1.6,0.7,2.4,0.8c0.2-0.2,0.5-0.5,0.6-0.7
	c-0.8-0.1-1.6-0.3-2.4-0.5c-0.8-0.2-1.4-0.7-1.8-1.3c0-0.3,0.1-0.7,0.3-0.9c0.2-0.2,2.2-0.3,2.1-2c-0.1-2-3.4-1.4-3.8-1.3
	c-0.4-0.1-3.7-0.6-3.7,1.4c-0.1,1.7,1.9,1.8,2.1,2c0.2,0.2,0.3,0.6,0.3,0.9c-0.4,0.7-1.1,1.1-1.8,1.3c-0.8,0.2-1.6,0.4-2.4,0.5
	c0.2,0.3,0.4,0.5,0.6,0.7c0.8-0.2,1.6-0.4,2.4-0.8c0.6-0.4,1.1-0.9,1.5-1.5c0.1,0.2,0.1,0.5,0,0.7c-0.3,0.5-0.6,1-1.1,1.3
	c-0.7,0.4-1.5,0.7-2.3,0.8c0.3,0.2,0.6,0.4,1,0.4c2.1-0.1,2.9-2.4,2.9-2.4c0.2,0.1,0.4,0.2,0.6,0.2l0,0c0.2,0,0.4-0.1,0.6-0.2
	c0,0,0.8,2.3,2.9,2.4c0.4,0,0.7-0.1,1-0.4c-0.8-0.1-1.6-0.3-2.3-0.8C22.6,64.5,22.2,64,21.9,63.5"/>
<path class="st2" d="M25.9,65.1c-0.8-0.2-1.6-0.4-2.4-0.8c-0.6-0.4-1.1-0.9-1.5-1.5c-0.1,0.2-0.1,0.5,0,0.7c0.3,0.5,0.6,1,1.1,1.3
	c0.7,0.4,1.5,0.7,2.2,0.8l0,0C25.5,65.5,25.7,65.3,25.9,65.1"/>
<path class="st2" d="M19.3,58.9c-0.3,0.2-0.5,0.5-0.6,0.9c0,0.3,0,0.7,0.1,1c-0.5-0.2-0.9-0.6-1-1.1C17.9,58.7,19.4,59,19.3,58.9"/>
<path class="st2" d="M22.4,58.9c0.3,0.2,0.5,0.5,0.6,0.9c0,0.3,0,0.7-0.1,1c0,0,1.1-0.4,1-1.1C23.8,58.7,22.4,59,22.4,58.9"/>
<path class="st2" d="M21,59.3h-0.2C19,59.3,20,61,20,61c0.2-0.2,0.5-0.2,0.8-0.2H21c0.3,0,0.5,0.1,0.8,0.2
	C21.8,61,22.8,59.3,21,59.3"/>
<path class="st2" d="M21,61.5h-0.2c-0.5,0-0.5,0.2-0.5,0.5s0.1,1.2,0.5,1.2h0.1c0.4,0,0.5-1,0.5-1.2S21.4,61.5,21,61.5"/>
</svg>
