<?xml version="1.0" encoding="utf-8"?>
<!-- Generator: Adobe Illustrator 19.2.1, SVG Export Plug-In . SVG Version: 6.00 Build 0)  -->
<svg version="1.1" id="Capa_1" xmlns="http://www.w3.org/2000/svg" xmlns:xlink="http://www.w3.org/1999/xlink" x="0px" y="0px"
	 viewBox="0 0 43.4 40" style="enable-background:new 0 0 43.4 40;" xml:space="preserve">
<style type="text/css">
	.st0{fill:#CCCCCC;}
</style>
<title>logo-question</title>
<path class="st0" d="M37.9,10.6c3.3,5.8,3.3,12.9,0,18.7c-1.7,2.8-4.1,5.1-6.9,6.9c-5.8,3.3-12.9,3.3-18.7,0
	c-2.8-1.6-5.1-4.1-6.9-6.9c-3.3-5.8-3.3-12.9,0-18.7c1.7-2.8,4.1-5.1,6.9-6.9c5.8-3.3,12.9-3.3,18.7,0C33.9,5.5,36.2,7.8,37.9,10.6z
	 M31.1,15.3c0-1.4-0.5-2.8-1.4-4.1c-1.7-2.3-4.5-3.7-7.5-3.7c-3.7-0.2-7.2,1.9-9,5.1c-0.3,0.3-0.2,0.8,0.2,0.9l0,0l3.3,2.5
	c0.2,0.2,0.3,0.2,0.5,0.2c0.3,0,0.5-0.2,0.6-0.3c0.6-0.8,1.4-1.6,2.2-2.2c1.2-0.8,3-0.8,4.2,0c0.5,0.3,0.9,0.8,0.9,1.4
	s-0.2,1.1-0.5,1.6c-0.5,0.5-1.1,0.8-1.7,1.1c-1.1,0.5-2,1.2-2.8,2.2c-0.8,0.8-1.2,2-1.2,3.1v0.9c0,0.5,0.3,0.8,0.8,0.8l0,0h4.7
	c0.5,0,0.8-0.3,0.8-0.8l0,0c0-0.5,0.2-0.9,0.5-1.2c0.3-0.5,0.8-0.9,1.4-1.1l1.2-0.8c0.3-0.3,0.8-0.6,1.1-0.8
	c0.5-0.3,0.8-0.8,1.1-1.2c0.3-0.5,0.5-0.9,0.6-1.6C31.1,16.7,31.1,15.9,31.1,15.3z M24.8,31.7V27c0-0.5-0.3-0.8-0.8-0.8l0,0h-4.7
	c-0.5,0-0.8,0.3-0.8,0.8l0,0v4.7c0,0.5,0.3,0.8,0.8,0.8l0,0H24C24.5,32.5,24.8,32.2,24.8,31.7L24.8,31.7L24.8,31.7z"/>
</svg>
