<?xml version="1.0" encoding="utf-8"?>
<!-- Generator: Adobe Illustrator 19.2.1, SVG Export Plug-In . SVG Version: 6.00 Build 0)  -->
<svg version="1.1" id="Capa_1" xmlns="http://www.w3.org/2000/svg" xmlns:xlink="http://www.w3.org/1999/xlink" x="0px" y="0px"
	 viewBox="0 0 43.4 40" style="enable-background:new 0 0 43.4 40;" xml:space="preserve">
<style type="text/css">
	.st0{fill:#CCCCCC;}
</style>
<title>logo-question</title>
<path class="st0" d="M32.1,14c2.1,3.7,2.1,8.3,0,12c-1.1,1.8-2.6,3.3-4.4,4.4c-3.7,2.1-8.3,2.1-12,0c-1.8-1-3.3-2.6-4.4-4.4
	c-2.1-3.7-2.1-8.3,0-12c1.1-1.8,2.6-3.3,4.4-4.4c3.7-2.1,8.3-2.1,12,0C29.5,10.7,31,12.2,32.1,14z M27.7,17c0-0.9-0.3-1.8-0.9-2.6
	C25.7,12.9,23.9,12,22,12c-2.4-0.1-4.6,1.2-5.8,3.3c-0.2,0.2-0.1,0.5,0.1,0.6c0,0,0,0,0,0l2.1,1.6c0.1,0.1,0.2,0.1,0.3,0.1
	c0.2,0,0.3-0.1,0.4-0.2c0.4-0.5,0.9-1,1.4-1.4c0.8-0.5,1.9-0.5,2.7,0c0.3,0.2,0.6,0.5,0.6,0.9c0,0.4-0.1,0.7-0.3,1
	c-0.3,0.3-0.7,0.5-1.1,0.7c-0.7,0.3-1.3,0.8-1.8,1.4c-0.5,0.5-0.8,1.3-0.8,2v0.6c0,0.3,0.2,0.5,0.5,0.5c0,0,0,0,0,0h3
	c0.3,0,0.5-0.2,0.5-0.5c0,0,0,0,0,0c0-0.3,0.1-0.6,0.3-0.8c0.2-0.3,0.5-0.6,0.9-0.7l0.8-0.5c0.2-0.2,0.5-0.4,0.7-0.5
	c0.3-0.2,0.5-0.5,0.7-0.8c0.2-0.3,0.3-0.6,0.4-1C27.7,17.9,27.7,17.4,27.7,17z M23.7,27.5v-3c0-0.3-0.2-0.5-0.5-0.5c0,0,0,0,0,0h-3
	c-0.3,0-0.5,0.2-0.5,0.5c0,0,0,0,0,0v3c0,0.3,0.2,0.5,0.5,0.5c0,0,0,0,0,0h3C23.5,28,23.7,27.8,23.7,27.5
	C23.7,27.5,23.7,27.5,23.7,27.5L23.7,27.5z"/>
</svg>
