<?xml version="1.0" encoding="utf-8"?>
<!-- Generator: Adobe Illustrator 19.2.1, SVG Export Plug-In . SVG Version: 6.00 Build 0)  -->
<svg version="1.1" id="Capa_1" xmlns="http://www.w3.org/2000/svg" xmlns:xlink="http://www.w3.org/1999/xlink" x="0px" y="0px"
	 viewBox="0 0 33.6 33.1" style="enable-background:new 0 0 33.6 33.1;" xml:space="preserve">
<style type="text/css">
	.st0{fill:#5A5B5B;}
</style>
<title>logo-alerta</title>
<path class="st0" d="M10,4.7c2.1-1.2,4.5-1.8,6.9-1.8c2.4,0,4.7,0.6,6.8,1.8c2.1,1.2,3.8,2.9,5,5c1.2,2.1,1.8,4.5,1.8,6.9
	c0,2.4-0.6,4.8-1.8,6.9c-1.2,2.1-2.9,3.8-5,5c-2.1,1.2-4.5,1.8-6.9,1.8c-2.4,0-4.8-0.7-6.8-1.9c-2.1-1.2-3.8-2.9-5-5
	c-1.2-2.1-1.8-4.5-1.8-6.9c0-2.4,0.6-4.8,1.8-6.8C6.2,7.6,7.9,5.9,10,4.7z M19.1,18.9l0.3-11c0-0.1-0.1-0.3-0.2-0.3
	c-0.1-0.1-0.3-0.1-0.4-0.1h-3.9c-0.2,0-0.3,0-0.4,0.1c-0.1,0.1-0.2,0.2-0.2,0.3l0.3,11c0,0.1,0.1,0.2,0.2,0.3
	c0.1,0.1,0.3,0.1,0.4,0.1h3.3c0.2,0,0.3,0,0.4-0.1C19,19.2,19,19.1,19.1,18.9L19.1,18.9z M19.1,25v-3.4c0-0.2-0.1-0.3-0.2-0.4
	c-0.1-0.1-0.2-0.2-0.4-0.2h-3.4c-0.2,0-0.3,0.1-0.4,0.2c-0.1,0.1-0.2,0.3-0.2,0.4V25c0,0.2,0.1,0.3,0.2,0.4c0.1,0.1,0.3,0.2,0.4,0.2
	h3.4c0.1,0,0.3-0.1,0.4-0.2C19,25.4,19.1,25.2,19.1,25L19.1,25z"/>
</svg>
