<svg id="Capa_1" data-name="Capa 1" xmlns="http://www.w3.org/2000/svg" viewBox="0 0 33.63 33.07"><defs><style>.cls-1{fill:#5a5b5b;}</style></defs><title>logo-alerta</title><path class="cls-1" d="M10,4.7a13.39,13.39,0,0,1,6.86-1.83A13.39,13.39,0,0,1,23.67,4.7a13.62,13.62,0,0,1,5,5,13.36,13.36,0,0,1,1.83,6.86,13.37,13.37,0,0,1-1.83,6.86,13.59,13.59,0,0,1-5,5,13.37,13.37,0,0,1-6.86,1.83A13.36,13.36,0,0,1,10,28.36a13.58,13.58,0,0,1-5-5,13.36,13.36,0,0,1-1.83-6.86A13.36,13.36,0,0,1,5,9.68,13.61,13.61,0,0,1,10,4.7Zm9.1,14.23,0.32-11a0.35,0.35,0,0,0-.18-0.32,0.67,0.67,0,0,0-.43-0.14H14.86a0.67,0.67,0,0,0-.43.14,0.36,0.36,0,0,0-.18.32l0.3,11a0.38,0.38,0,0,0,.18.31,0.7,0.7,0,0,0,.43.13h3.29a0.66,0.66,0,0,0,.42-0.13A0.44,0.44,0,0,0,19.06,18.93Zm0,6.12V21.67a0.59,0.59,0,0,0-.16-0.42,0.52,0.52,0,0,0-.39-0.17H15.13a0.57,0.57,0,0,0-.41.18,0.56,0.56,0,0,0-.18.41v3.38a0.56,0.56,0,0,0,.18.41,0.57,0.57,0,0,0,.41.18h3.41a0.51,0.51,0,0,0,.39-0.17A0.58,0.58,0,0,0,19.09,25.05Z"/></svg>