<?xml version="1.0" encoding="utf-8"?>
<!-- Generator: Adobe Illustrator 19.2.1, SVG Export Plug-In . SVG Version: 6.00 Build 0)  -->
<svg version="1.1" id="Capa_1" xmlns="http://www.w3.org/2000/svg" xmlns:xlink="http://www.w3.org/1999/xlink" x="0px" y="0px"
	 viewBox="0 0 403.2 66.6" style="enable-background:new 0 0 403.2 66.6;" xml:space="preserve">
<style type="text/css">
	.st0{fill:#4272B2;}
	.st1{fill:#FFFFFF;}
	.st2{fill:#272425;}
	.st3{fill:#EBC86A;}
	.st4{fill:#589A60;}
	.st5{fill:#DDB380;}
	.st6{fill:#528BB4;}
	.st7{fill:#B9402C;}
	.st8{fill:#595959;}
</style>
<g>
	<path class="st0" d="M59.7,42.4h7c4.2,0,6.8,2.4,6.8,6v0c0,4-3.2,6.1-7.2,6.1h-3.5v5.7h-3.1V42.4L59.7,42.4z M66.5,51.7
		c2.4,0,3.9-1.3,3.9-3.2v0c0-2.1-1.5-3.2-3.9-3.2h-3.7v6.4L66.5,51.7L66.5,51.7z"/>
	<path class="st0" d="M76.4,46.8h3.1v3c0.7-2.1,2.6-3.4,4.8-3.3v3.3H84c-2.7,0-4.6,1.8-4.6,5.3v5.1h-3.1V46.8z"/>
	<path class="st0" d="M86.2,53.6L86.2,53.6c0-3.9,2.7-7.1,6.6-7.1c4.3,0,6.5,3.4,6.5,7.3c0,0.3,0,0.6,0,0.9h-10
		c0.2,2,1.9,3.5,3.9,3.4c1.4,0,2.8-0.6,3.7-1.6l1.8,1.6c-1.3,1.7-3.4,2.6-5.5,2.5c-3.7,0.1-6.8-2.8-6.9-6.5
		C86.2,53.9,86.2,53.8,86.2,53.6z M96.1,52.6c-0.2-2-1.4-3.6-3.4-3.6c-1.9,0-3.2,1.5-3.5,3.6H96.1L96.1,52.6z"/>
	<path class="st0" d="M101.2,58.6l1.4-2.1c1.3,1,2.8,1.6,4.4,1.7c1.3,0,2.1-0.6,2.1-1.5v-0.1c0-1-1.4-1.4-3-1.9
		c-2-0.6-4.2-1.4-4.2-4v0c0-2.6,2.1-4.1,4.8-4.1c1.8,0,3.5,0.6,5,1.5l-1.2,2.2c-1.2-0.8-2.5-1.2-3.9-1.3c-1.2,0-1.9,0.6-1.9,1.4v0
		c0,1,1.5,1.4,3,1.9c2,0.6,4.2,1.5,4.2,4v0c0,2.8-2.2,4.2-5,4.2C104.9,60.6,102.9,59.9,101.2,58.6z"/>
	<path class="st0" d="M115.2,41.8h3.3v3h-3.3V41.8z M115.3,46.8h3.1v13.5h-3.1V46.8L115.3,46.8z"/>
	<path class="st0" d="M121.7,53.6L121.7,53.6c0-4.6,3-7.1,6.3-7.1c1.8,0,3.5,0.9,4.6,2.4v-7.2h3.1v18.7h-3.1v-2.2
		c-1,1.6-2.7,2.5-4.6,2.5C124.8,60.6,121.7,58.1,121.7,53.6z M132.7,53.6L132.7,53.6c0.1-2.3-1.5-4.3-3.8-4.4c0,0-0.1,0-0.1,0
		c-2.1,0-3.9,1.6-3.9,4.3v0.1c-0.2,2.2,1.4,4.1,3.6,4.3c0.1,0,0.2,0,0.3,0C131,57.8,132.7,55.9,132.7,53.6
		C132.6,53.6,132.6,53.6,132.7,53.6L132.7,53.6z"/>
	<path class="st0" d="M138.8,53.6L138.8,53.6c0-3.9,2.7-7.1,6.6-7.1c4.3,0,6.5,3.4,6.5,7.3c0,0.3,0,0.6,0,0.9h-10
		c0.2,2,1.9,3.5,3.9,3.4c1.4,0,2.8-0.6,3.7-1.6l1.8,1.6c-1.3,1.7-3.4,2.6-5.5,2.5c-3.7,0.1-6.8-2.8-6.9-6.5
		C138.8,54,138.8,53.8,138.8,53.6z M148.8,52.6c-0.2-2-1.4-3.6-3.4-3.6c-1.9,0-3.2,1.5-3.5,3.6H148.8L148.8,52.6z"/>
	<path class="st0" d="M155,46.8h3.1v2.1c0.9-1.5,2.5-2.4,4.2-2.4c3,0,4.8,2,4.8,5.2v8.6H164v-7.7c0-2.1-1-3.3-2.9-3.3
		c-1.8,0-3,1.3-3,3.3v7.6H155L155,46.8L155,46.8z"/>
	<path class="st0" d="M170.1,53.7L170.1,53.7c0-3.9,3-7.1,6.9-7.1c0,0,0.1,0,0.1,0c2.1-0.1,4,0.8,5.4,2.3l-1.9,2.1
		c-0.9-1.1-2.1-1.7-3.5-1.7c-2.2,0.1-4,2-3.9,4.2c0,0,0,0.1,0,0.1v0c-0.1,2.3,1.6,4.2,3.9,4.3c0.1,0,0.1,0,0.2,0
		c1.4,0,2.6-0.6,3.5-1.7l1.9,1.8c-2.5,3-7,3.3-10,0.8C171,57.6,170.1,55.7,170.1,53.7z"/>
	<path class="st0" d="M185.4,41.8h3.3v3h-3.3V41.8z M185.6,46.8h3.1v13.5h-3.1V46.8L185.6,46.8z"/>
	<path class="st0" d="M201,60.3v-1.7c-1.1,1.3-2.7,2-4.4,2c-2.6,0-4.8-1.5-4.8-4.2v-0.1c0-3,2.3-4.4,5.5-4.4c1.3,0,2.5,0.2,3.7,0.6
		v-0.3c0-1.9-1.2-2.9-3.3-2.9c-1.3,0-2.6,0.3-3.9,0.8l-0.8-2.5c1.6-0.8,3.4-1.1,5.1-1.1c4,0,6,2.1,6,5.7v8L201,60.3L201,60.3z
		 M201,54.7c-1-0.4-2-0.5-3.1-0.5c-2,0-3.1,0.8-3.1,2.1v0c0,1.3,1.1,2,2.6,2c2,0,3.6-1.2,3.6-2.8L201,54.7L201,54.7z"/>
	<path class="st0" d="M214.7,53.6L214.7,53.6c0-4.6,3-7.1,6.3-7.1c1.8,0,3.5,0.9,4.6,2.4v-7.2h3.1v18.7h-3.1v-2.2
		c-1,1.6-2.7,2.5-4.6,2.5C217.8,60.6,214.7,58.1,214.7,53.6z M225.6,53.6L225.6,53.6c0.1-2.3-1.5-4.3-3.8-4.4c0,0-0.1,0-0.1,0
		c-2.1,0-3.9,1.6-3.9,4.3v0.1c-0.2,2.2,1.4,4.1,3.6,4.3c0.1,0,0.2,0,0.3,0C224,57.8,225.7,55.9,225.6,53.6
		C225.6,53.6,225.6,53.6,225.6,53.6L225.6,53.6z"/>
	<path class="st0" d="M231.7,53.6L231.7,53.6c0-3.9,2.7-7.1,6.6-7.1c4.3,0,6.5,3.4,6.5,7.3c0,0.3,0,0.6,0,0.9h-10
		c0.2,2,1.9,3.5,3.9,3.4c1.4,0,2.8-0.6,3.7-1.6l1.8,1.6c-1.3,1.7-3.4,2.6-5.5,2.5c-3.7,0.1-6.8-2.8-6.9-6.5
		C231.7,53.9,231.7,53.8,231.7,53.6z M241.7,52.6c-0.2-2-1.4-3.6-3.4-3.6c-1.9,0-3.2,1.5-3.5,3.6H241.7L241.7,52.6z"/>
	<path class="st0" d="M255.8,41.7h3.1v18.7h-3.1V41.7z"/>
	<path class="st0" d="M271.1,60.3v-1.7c-1.1,1.3-2.7,2-4.4,2c-2.6,0-4.8-1.5-4.8-4.2v-0.1c0-3,2.3-4.4,5.5-4.4
		c1.3,0,2.5,0.2,3.7,0.6v-0.3c0-1.9-1.2-2.9-3.3-2.9c-1.3,0-2.6,0.3-3.9,0.8l-0.8-2.5c1.6-0.8,3.4-1.1,5.1-1.1c4,0,6,2.1,6,5.7v8
		L271.1,60.3L271.1,60.3z M271.2,54.7c-1-0.4-2-0.5-3.1-0.5c-2,0-3.1,0.8-3.1,2.1v0c0,1.3,1.1,2,2.6,2c2,0,3.6-1.2,3.6-2.8
		L271.2,54.7L271.2,54.7z"/>
	<path class="st0" d="M285.9,42.4h2.9l9.6,12.4V42.4h3.1v17.9h-2.6L289,47.6v12.7h-3.1V42.4L285.9,42.4z"/>
	<path class="st0" d="M314,60.3v-1.7c-1.1,1.3-2.7,2-4.4,2c-2.6,0-4.8-1.5-4.8-4.2v-0.1c0-3,2.3-4.4,5.5-4.4c1.3,0,2.5,0.2,3.7,0.6
		v-0.3c0-1.9-1.2-2.9-3.3-2.9c-1.3,0-2.6,0.3-3.9,0.8l-0.8-2.5c1.6-0.8,3.4-1.1,5.1-1.1c4,0,6,2.1,6,5.7v8L314,60.3L314,60.3z
		 M314.1,54.7c-1-0.4-2-0.5-3.1-0.5c-2,0-3.1,0.8-3.1,2.1v0c0,1.3,1.2,2,2.6,2c2,0,3.6-1.2,3.6-2.8V54.7z"/>
	<path class="st0" d="M320,53.7L320,53.7c0-3.9,3-7.1,6.9-7.1c0,0,0.1,0,0.1,0c2.1-0.1,4,0.8,5.4,2.3l-1.9,2.1
		c-0.9-1.1-2.1-1.7-3.5-1.7c-2.2,0.1-4,2-3.9,4.2c0,0,0,0.1,0,0.1v0c-0.1,2.3,1.6,4.2,3.9,4.3c0.1,0,0.1,0,0.2,0
		c1.4,0,2.6-0.6,3.5-1.7l1.9,1.8c-2.5,3-7,3.4-10,0.9C320.9,57.6,320,55.7,320,53.7z"/>
	<path class="st0" d="M335.4,41.8h3.3v3h-3.3V41.8z M335.5,46.8h3.1v13.5h-3.1L335.5,46.8L335.5,46.8z"/>
	<path class="st0" d="M341.9,53.7L341.9,53.7c0.1-4,3.4-7.1,7.4-7c3.8,0.1,6.8,3.1,7,6.9v0.1c0,3.9-3.2,7-7.1,7c0,0-0.1,0-0.1,0
		c-3.8,0.1-7-2.9-7.2-6.8C341.9,53.8,341.9,53.7,341.9,53.7z M353.2,53.7L353.2,53.7c0.1-2.4-1.7-4.3-4-4.4c0,0-0.1,0-0.1,0
		c-2.2,0-4.1,1.8-4.1,4c0,0.1,0,0.1,0,0.2v0.1c-0.1,2.3,1.7,4.2,4,4.3c0,0,0.1,0,0.1,0c2.2,0,4.1-1.8,4.1-4.1
		C353.2,53.8,353.2,53.7,353.2,53.7z M350.6,40.9l2.8,1.3l-3.1,3h-2.4L350.6,40.9z"/>
	<path class="st0" d="M359.4,46.8h3.1v2.1c0.9-1.5,2.5-2.4,4.2-2.4c3,0,4.8,2,4.8,5.2v8.6h-3.1v-7.7c0-2.1-1-3.3-2.9-3.3
		c-1.8,0-3,1.3-3,3.3v7.6h-3.1V46.8z"/>
	<path class="st1" d="M21.7,58.7c-9.3,0-16.6-10.2-16.6-22.3h33.1C38.3,48.5,31.1,58.7,21.7,58.7"/>
	<path class="st2" d="M25.4,8.7h0.3c0,0-0.2-1.2-2.3-1.1h-0.5l-0.2,0.7L24,8.2C24.5,8.1,25,8.3,25.4,8.7"/>
	<path class="st2" d="M23,9.5c0.1-0.1,0.2-0.3,0.3-0.4h0.1c0,0,0,0.1-0.1,0.1c0,0.2,0.1,0.4,0.4,0.5c0.1,0,0.2,0,0.4,0
		c0.2-0.1,0.3-0.3,0.3-0.5c0-0.1,0-0.1,0-0.1c0.2,0,0.4,0.2,0.5,0.4h0.5c0,0-0.3-1.1-2.3-0.8c0,0-0.5,0.7-0.5,0.8
		C22.7,9.5,22.9,9.5,23,9.5"/>
	<path class="st2" d="M18.3,9.5l0.5,0c0.1-0.2,0.3-0.3,0.5-0.3c0,0,0,0.1,0,0.1c0,0.2,0.1,0.4,0.3,0.5c0.1,0,0.2,0,0.4,0
		c0.2-0.1,0.3-0.3,0.3-0.5c0,0,0,0,0-0.1h0.1l0.3,0.3c0.2,0.1,0.3,0.1,0.5,0c0,0-0.5-0.8-0.5-0.8C18.6,8.4,18.3,9.6,18.3,9.5"/>
	<path class="st2" d="M19.6,8.2l1.5,0.1c0,0-0.2-0.6-0.2-0.6h-0.4c-2.3-0.1-2.5,1-2.5,1h0.3C18.6,8.3,19,8.1,19.6,8.2"/>
	<path class="st2" d="M24,24.2L24,24.2C23.9,24.2,24,24.3,24,24.2"/>
	<path class="st2" d="M23.6,61.7c2.9-0.7,5.6-1.9,8-3.6c1.8,0.1,2.5-1.3,3.8-1.9c-0.1-0.1-0.3-0.2-0.4-0.2c0.7-0.5,1.4-1.1,2-1.7
		C36.8,54,36.6,54,36.3,54c1.2-0.4,0.4-0.9,1.6-1.8c0-0.1-0.1-0.1-0.2-0.1c0.8-0.5,0.7-1.2,1.4-2c-0.2-0.1-0.5-0.2-0.7-0.2
		c1.4-0.4,1.2-1.4,2.1-2.2L40,47.6c0.7-0.6,0.5-1.4,1.1-2.3c-0.3-0.1-0.5-0.2-0.8-0.1c1.2-0.5,1-1.6,1.7-2.7
		c-0.2-0.1-0.3-0.2-0.5-0.1c1-0.9-0.2-0.6,0.5-2.6c-0.3-0.1-0.5-0.1-0.8,0.1c1-0.8,0.8-1.8,1.3-3c-0.7-0.1-2.1,0.9-2.5,1.7v-0.2
		c0.2-0.4,0.5-0.7,0.9-0.9c1.5-1.1,0.9-2,1.3-3.4c-1,0.2-1.9,1-2.3,1.9c0-0.1,0-0.2-0.1-0.3c0.2-0.5,0.5-1,1-1.3
		c1.3-0.7,0.9-1.9,1.3-3.3c-0.2,0-0.5,0-0.7,0.2c0.3-0.9-0.3-1.5-0.2-2.6c-0.7,0-1.6,1.3-1.7,2.2c0-0.1-0.1-0.3-0.2-0.3
		c0.1-0.5,0.4-0.9,0.8-1.2c1.2-1.4,0.2-2.2,0.3-3.7c-0.1,0-0.3,0-0.4,0.1c-0.1-0.7-0.6-1.2-0.6-2.1c-0.7,0.1-1.4,1.4-1.3,2.3
		c-0.1-0.1-0.2-0.3-0.3-0.3c0.1-0.5,0.3-0.9,0.6-1.2c0.7-1.4,0-2.1-0.1-3.4c-0.2,0-0.5,0.1-0.6,0.3c0-0.9-0.5-1.3-0.8-2.3
		c-0.6,0.2-1,0.8-1.1,1.4c0-0.3,0.1-0.7,0.2-1c0-1.8-0.7-2-1.3-3.4c-0.3,0.3-0.5,0.6-0.6,1c-0.2-1.2-0.7-1.5-1.4-2.7
		c-0.5,0.7-0.6,1.6-0.5,2.4c-0.1-0.4-0.2-0.7,0-1.1c-0.2-1.5-0.9-1.9-1.6-2.8c0.4,0,0.8-0.2,1.1-0.4c-0.3,0-0.7,0-1-0.1
		c-0.4-0.2-0.6-0.6-1-0.7c-0.4,0-0.9-0.1-1.3-0.3l3.6-0.7l-3.5-0.7c0.2-0.2,0.4-0.2,0.6-0.3c0.4,0,0.8-0.1,1.1-0.3
		c0.4-0.5,1-0.7,1.6-0.6c-0.6-0.4-1.4-0.4-2-0.1c-0.5,0.3-0.7,0-1.5,0.1c0,0,3-1.9,3-1.9l-3.5,0.7C28.4,6.6,29,7,29.3,5.9
		c0.3-0.4,0.6-0.8,1.1-1c-0.6-0.2-1.3,0.2-2,1c-0.4,0.2-0.8,0.3-1.2,0.4l2-3c0,0-2,1.4-3,2l0,0c0.1-0.8,0.7-0.7,0.8-1.6
		c-0.1-0.6,0.2-1.2,0.6-1.7c-0.8,0.2-1.3,0.9-1.5,1.7c-0.3,0.3-0.6,0.6-1,0.9l0.7-3.5l-2,3c-0.1-0.1-0.2-0.3-0.1-0.4
		C23.9,3.4,24,3,23.9,2.6c-0.3-0.6-0.3-1.3,0-1.9C22.8,1.3,23.3,2.3,23,3c-0.2,0.3-0.3,0.6-0.5,0.9L22,0.5l-0.7,3.5
		c-0.2-0.4-0.4-0.9-0.4-1.3c-0.3-0.7-0.9-0.5-0.9-2c-0.2,0.5-0.5,0.8,0.1,2.3c0.1,0.1-0.1,0.8,0,1.3l-2-3l0.7,3.5
		c-0.4,0-0.6-0.8-0.9-1.1c-0.3-0.3-1.2-0.3-1.6-1.4c-0.1,0.8,0.2,1.5,0.9,1.9c0.3,0.4,0.4,0.8,0.5,1.3l-3-2l2,3
		c-0.7,0.1-0.7-0.8-2-0.8c-0.5,0-0.9-0.3-1.3-0.6c0.4,1.5,1.5,1.1,1.9,1.7c0.2,0.2,0.4,0.5,0.6,0.7l-3.5-0.7l3,1.9
		c-0.5,0.3-1.2-0.4-1.8-0.1c-0.5,0.3-1.2,0.3-1.8,0c0.4,0.6,1.1,0.9,1.8,0.7c0.5,0.1,1.1,0.2,1.5,0.5l-3.5,0.7l3.5,0.7
		c-0.4,0.4-1.1,0.1-1.6,0.5c-0.4,0.5-1.1,0.8-1.7,0.7c0.5,0.5,1.3,0.6,1.9,0.3c-0.3,0.2-0.6,0.5-0.9,0.9c0-0.2-0.1-0.4-0.3-0.6
		c-0.6,1-1.5,1.1-1.8,2.3c0-0.3-0.2-0.6-0.3-0.8c-0.6,1.1-1.3,1.2-1.5,2.4c0-0.2-0.2-0.5-0.3-0.6c-0.5,1.4-1.5,1.7-1.2,3.5
		c0.1,0.3,0.2,0.7,0.1,1c0-0.6-0.4-1.2-0.9-1.5c-0.5,0.7-0.8,1.4-1,2.2c-0.1-0.1-0.3-0.2-0.5-0.2C5,22.6,3.9,23,5,24.6
		c0.4,0.3,0.5,0.8,0.5,1.3C5.4,26,5.4,26,5.3,26.1c0.1-0.8-0.7-2.1-1.4-2.2c-0.1,1-0.6,1.5-0.5,2.3c-0.1-0.1-0.3-0.1-0.5-0.1
		c0.1,1.4-0.9,2,0.4,3.3c0.4,0.3,0.7,0.7,0.8,1.1C4,30.6,4,30.7,3.9,30.9c-0.1-0.9-1-2.1-1.6-2.1c0.1,1.5-0.6,1.5-0.2,2.5
		c-0.2-0.1-0.5-0.2-0.7-0.2c0.4,1.4,0,2.5,1.3,3.3c0.5,0.3,0.8,0.7,1,1.2c0,0.1-0.1,0.2-0.1,0.3c-0.4-1-1.2-1.7-2.2-1.9
		c0.4,1.2,0.1,2.3,0.8,3c-0.3-0.2-0.8-0.3-1.2-0.3c0.6,1.4,0.3,2.1,1.5,3.2c-0.3-0.2-0.7-0.3-1.1-0.1c0.3,0.9,0.2,1.6,0.6,2.3
		c-0.2,0-0.4,0-0.5,0.1c0.7,1.1,0.5,2,1.6,2.7c-0.2,0-0.4,0-0.6,0.1c0.5,0.8,0.5,1.5,0.9,2.1c-0.2,0-0.3,0.1-0.4,0.2
		c0.8,0.8,0.9,1.7,1.8,2.2c-0.2,0-0.4,0-0.6,0.2C4.8,50.3,5,51,5.6,51.5c-0.2,0-0.5,0.1-0.7,0.3c1,0.7,1.1,1.5,2.1,1.9
		c-0.2,0-0.5,0.1-0.7,0.2c1.2,1,0.4,1.3,1.6,1.8c-0.1,0-0.2,0.1-0.2,0.2c1.3,0.7,1.5,2.3,4.3,2.3l0,0c1.4,1.5,5.1,3.2,7.8,3.6
		L23.6,61.7z M41.2,40.5c-0.3,0.9,0,1.5-0.8,2.1c-0.3,0-0.5,0.2-0.7,0.4c0.1-0.3,0.2-0.6,0.4-0.9c-0.2,0.1-0.4,0.3-0.6,0.6
		c-0.3-0.1-0.5-0.4-0.6-0.6c-0.4-0.8-0.1-1.1-0.2-1.8c0.4,0.5,0.8,1.1,1.1,1.7C40,41.3,40.5,40.8,41.2,40.5 M39.7,41
		c0.2-0.3,0.5-0.5,0.8-0.7c-0.3,0.3-0.6,0.6-0.8,1C39.8,41.2,39.8,41.1,39.7,41 M41.6,37.5c-0.4,1-0.1,1.4-1,2.2
		c-0.3,0.1-0.6,0.3-0.7,0.6c0.1-0.3,0.3-0.6,0.5-0.9c-0.3,0.2-0.5,0.4-0.6,0.7c-0.3-0.1-0.5-0.2-0.6-0.5c-0.3-0.6,0-1-0.1-1.7
		c0.4,0.4,0.7,0.9,1,1.4C40.4,38.5,41,37.9,41.6,37.5 M40.1,36.7c0.2-0.8,0.7-1.5,1.3-1.9c-0.3,1,0.1,1.4-0.6,2.3
		c-0.3,0.1-0.5,0.4-0.6,0.7c0-0.4,0.2-0.7,0.3-1c-0.2,0.2-0.4,0.5-0.5,0.7c-0.3,0-0.6-0.1-0.7-0.4c-0.4-0.6-0.2-1-0.4-1.6
		c0.4,0.3,0.8,0.8,1.1,1.2 M39,34.6c0.3,0.2,0.5,0.5,0.7,0.9c-0.2-0.2-0.4-0.4-0.7-0.6C39,34.8,39,34.7,39,34.6 M41.3,31.8
		c-0.2,1,0.2,1.4-0.6,2.2c-0.3,0.1-0.5,0.3-0.6,0.6c0-0.3,0.2-0.6,0.3-0.9c-0.2,0.2-0.4,0.4-0.5,0.7c-0.3,0-0.6-0.2-0.7-0.4
		c-0.5-0.6-0.2-0.9-0.4-1.6c0.5,0.4,0.9,0.8,1.2,1.3C40.2,32.9,40.6,32.2,41.3,31.8 M39.8,31.6c0.1-0.8,0.4-1.5,1-2
		c-0.1,1,0.4,1.3-0.2,2.2c-0.3,0.2-0.5,0.4-0.5,0.7c0-0.3,0-0.7,0.2-1c-0.2,0.2-0.3,0.5-0.4,0.7c-0.3,0-0.6-0.1-0.8-0.3
		c-0.6-0.5-0.4-0.9-0.7-1.5C38.9,30.7,39.4,31.1,39.8,31.6 M37.8,44.4c0-0.1,0.1-0.3,0.1-0.5c0,0.1,0,0.1,0,0.2
		c0.4,1.2,0.7,1.2,0.6,2c0,0,0,0.1-0.1,0.1C38.4,45.6,38.2,45,37.8,44.4 M36.4,50.3c-0.1-0.4-0.2-0.8-0.4-1.2
		c0.1-0.1,0.1-0.2,0.2-0.4C36.3,49.2,36.4,49.7,36.4,50.3 M37.6,50c-0.5,0.1-0.9,0.3-1.2,0.7c0,0,0-0.1,0-0.1
		C36.7,50.2,37.1,50.1,37.6,50 M35.3,48.4c-2.3,0.2-4.7-0.5-6.6-1.9c0.3-0.6,0.4-1.3,0.3-1.9c-0.1-0.5-0.1-0.1-0.2,0.2
		c-0.2,0.5-0.5,1-1,1.2c-0.7-0.8-1.6-1.4-2.6-1.9c-0.6-0.4-1.1-0.8-1.6-1.2c-1,0.5-2.5,1.3-3.2,0.8c-0.6-0.3,0.7-0.7,1.3-1.5
		c0.4-0.6,1.1-0.9,1.8-0.6c1.5,0.5,3,1.1,4.4,1.8c2.7,0.2,4.7,1,7.4,1.6c0.5,0.1,1,0.2,1.4,0.2C36.4,46.2,35.9,47.3,35.3,48.4
		 M23.5,45.4c0.8,0.9,1.5,1.1,2,2.2c-0.1,0.3-0.4,0.4-0.7,0.3c0,0-0.1,0-0.1-0.1c-1.2-1.4-2.3-1.6-1.9-2.2c-0.2,0-0.4,0.2-0.4,0.5
		c0,0,0,0,0,0c0.2,1,1.3,1.3,1.6,2.2c-0.1,0.7-1.4,0.1-2.1-1.6v-0.1c-0.2,0.5-0.4,0.7,0.4,1.7c0.2,0.4,0.3,0.8-0.3,0.7
		c0.1,0.1-0.3,0-0.1,0h0.1c0,0-0.1-0.1-0.1-0.1c0.2-0.5,0-1.1-0.6-1.3c-0.2-0.1-0.4-0.1-0.6,0c0.2-0.6-0.6-1.2-1.5-0.8
		c0.1-0.4-0.8-1.2-2.1-0.7c-0.2-0.4-1.3-0.9-2.4,0.4c-1.9,0.2-5.1,1.9-7,1c-0.1,0.1-1.2-3.1-1.3-3.2c2.2-0.2,7.3-0.6,9.1-1.3
		c1.4-0.9,4.1-1.4,4.7-1c0,0.5-1.2,1.4-0.6,1.9c1,0.9,2.6,0.5,3.7-0.1c1.1,1.1,2.9,1.3,3.6,2.8l-0.2,0.4c-0.4,0.3-0.4,0.3-0.8-0.3
		c-1.1-1.4-2.1-1.1-2.3-2.1C23.3,44.8,23.5,45.2,23.5,45.4 M18.3,48.3c-0.4,0.2,0.2-0.2,0.3-0.3l0.2-0.2c0.3-0.3,0.8-0.7,1.1-0.1
		c0.2,0.4-1.2,1.2-1.4,1.2c-0.1,0.1-0.3,0.1-0.4-0.1c0,0,0,0,0-0.1c-0.1-0.1-0.1-0.3,0.1-0.4C18.3,48.4,18.3,48.3,18.3,48.3
		 M17.2,48.2c-0.2,0.1-0.4,0-0.5-0.1c0-0.3,0.2-0.6,0.4-0.8c0.1-0.1,0.2-0.2,0.3-0.2l0.2-0.2c0.5-0.1,0.4,0,0.5,0.2
		C18,47.5,17.6,48,17.2,48.2 M20.4,48.4c0,0,0.5-0.6,0.8,0.2c0.1,0.3-0.5,0.7-1,0.8C19.9,49.4,19.2,49.4,20.4,48.4 M15.9,47.3
		c-0.2,0.1-0.5-0.3-0.4-0.4l0.2-0.4c0.4-0.1,0.6-0.3,0.7-0.1C16.4,46.8,16.2,47.1,15.9,47.3 M7.3,48.7l-0.2,0.4
		c0.1-0.2,0.1-0.3,0.1-0.5C7.3,48.6,7.3,48.7,7.3,48.7 M6.9,50.2c-0.2-0.2-0.5-0.4-0.7-0.5c0.2,0.1,0.5,0.2,0.7,0.3
		C6.9,50.1,6.9,50.2,6.9,50.2 M5,45.9C5,45.8,5,45.8,5,45.9c-0.1-0.9,0.2-0.9,0.5-2.1c0,0.1,0.1,0.3,0.1,0.4C5.2,44.7,5,45.3,5,45.9
		 M5.2,29.9l-0.5,0.3C4.8,30,5,29.9,5.2,29.7C5.2,29.8,5.2,29.8,5.2,29.9 M5.3,36.7h15.5v4.6c-1-0.2-2-0.2-3,0
		c-2.8,0.5-1.9,1.9-11.8,2.1C5.6,41.1,5.3,38.9,5.3,36.7 M14.9,14.1c0.3-0.2,0.4-0.5,0.5-0.8c0.4-1.2,1.1-1.1,1.9-1.7
		c0.3,0.4-0.7,1.8-1.4,2.2c0.6,0.1,1.1,0.4,1.6,0.7c-0.7,0.1-1,0.5-1.7,0.2c-0.3-0.1-0.5-0.3-0.6-0.5c0.2-0.2,0.4-0.5,0.5-0.7
		C15.6,13.7,15.3,13.9,14.9,14.1 M26.9,13.6c-0.3,0-0.6,0-0.8-0.2c0.4-0.1,0.7-0.3,1.1-0.4c0.6,0,1.1,0.4,1.3,1
		c-0.6-0.2-0.7,0.2-1.5,0.3C26,14.5,25.7,14.1,25,14c-0.2-0.1-0.3-0.2-0.3-0.4c0.3,0.1,0.7,0.1,1,0v0.1
		C26.1,13.8,26.5,13.8,26.9,13.6 M24.3,12.6c0.3,0,0.7-0.1,1-0.2c-0.2,0-0.5,0-0.7,0c0.4-0.4,0.9-0.6,1.4-0.7c0.9,0,0.9,0.5,1.4,0.2
		C27.5,12.5,25,13.6,24.3,12.6 M23.1,12.5c0.5,0.4,0.9,0.8,1.3,1.3c-0.7-0.2-1,0-1.6-0.5c-0.2-0.2-0.4-0.4-0.4-0.7
		c0.3-0.1,0.5-0.3,0.7-0.5c-0.3,0.2-0.6,0.3-0.9,0.3c0.3-0.1,0.5-0.3,0.6-0.6c0.8-0.8,1.2-0.3,2.1-0.5
		C24.5,11.9,23.8,12.3,23.1,12.5 M21.1,12.7c0.5,0.2,1,0.6,1.5,1c-0.5,0.1-1.1,0.1-1.6-0.1c-0.3-0.1-0.5-0.4-0.5-0.6
		c0.3-0.1,0.5-0.4,0.7-0.6c-0.2,0.2-0.5,0.4-0.9,0.4c0.3-0.2,0.4-0.4,0.5-0.7c0.7-0.9,1-0.5,1.9-1C22.4,11.7,21.8,12.3,21.1,12.7
		 M19.8,13.9c-0.7,0-1,0.3-1.6,0c-0.3-0.1-0.5-0.3-0.6-0.6c0.2-0.2,0.4-0.4,0.5-0.6c-0.2,0.2-0.5,0.4-0.8,0.5
		c0.3-0.2,0.4-0.4,0.5-0.7c0.7-1,1.1-0.7,2-1.2c-0.3,0.7-0.8,1.3-1.5,1.7C18.7,13.2,19.2,13.5,19.8,13.9 M30.9,17.2
		c0.1,0,0.2,0,0.3,0C31.1,17.2,31.1,17.2,30.9,17.2C31,17.2,31,17.2,30.9,17.2 M36.7,25.1c0.1,0.1,0.3,0.2,0.4,0.3
		c-0.1,0-0.2-0.1-0.4-0.1C36.7,25.2,36.7,25.1,36.7,25.1 M28.5,42.5c-1.5-0.3-3.6-2-5.8-1.9v-3.9h15.5c-0.1,2.5-0.5,5-1.1,7.5
		C33.9,44.1,31,42.4,28.5,42.5 M38.2,29.7c0.2,0.2,0.5,0.3,0.6,0.5c-0.2-0.1-0.4-0.2-0.6-0.3C38.3,29.8,38.3,29.8,38.2,29.7
		 M40,26.7c-0.1,1,0.4,1.3-0.2,2.2c-0.3,0.1-0.4,0.4-0.5,0.6c0-0.3,0-0.6,0.1-0.9c-0.2,0.2-0.3,0.5-0.4,0.7c-0.3,0-0.6-0.1-0.8-0.3
		c-0.6-0.5-0.4-0.9-0.7-1.5c0.6,0.3,1.1,0.7,1.5,1.1C39.1,27.9,39.5,27.2,40,26.7 M38.5,26.6c-0.1-0.7,0.1-1.4,0.6-2
		c0.1,1,0.7,1.2,0.2,2.2C39.1,27,39,27.3,39,27.6c-0.1-0.3-0.1-0.7,0-1c-0.2,0.2-0.2,0.5-0.3,0.8c-0.3,0.1-0.7,0-0.9-0.2
		c-0.7-0.4-0.6-0.8-1-1.4c0.6,0.3,1.2,0.6,1.7,1 M37.8,21.9c0.1,1,0.7,1.3,0.2,2.2c-0.2,0.1-0.4,0.4-0.4,0.7c-0.1-0.3-0.1-0.7,0-1
		c-0.1,0.2-0.2,0.5-0.3,0.8c-0.3,0-0.6-0.1-0.9-0.3c-0.7-0.4-0.6-0.8-1-1.4c0.6,0.3,1.2,0.6,1.7,1C37.1,23.1,37.3,22.4,37.8,21.9
		 M36.5,19.9c0.3,0.9,0.9,1.2,0.6,2.2c-0.2,0.2-0.3,0.5-0.3,0.7c-0.1-0.3-0.2-0.6-0.2-0.9c-0.1,0.2-0.1,0.5-0.1,0.8
		c-0.3,0.1-0.6,0-0.9-0.1c-0.5-0.3-1-0.8-1.3-1.3c0.7,0.2,1.3,0.4,1.9,0.8C36,21.3,36.1,20.5,36.5,19.9 M35.8,21.4
		c-0.1-0.2-0.3-0.3-0.5-0.4C35.5,21.1,35.6,21.2,35.8,21.4C35.8,21.4,35.8,21.4,35.8,21.4 M34.7,17.2c0.4,0.9,0.7,0.8,0.7,2
		c-0.1,0.3-0.2,0.6,0,0.9c-0.2-0.3-0.3-0.6-0.4-0.9c0,0.3,0,0.6,0.1,0.9c-0.2,0.2-0.5,0.2-0.8,0.1c-0.7-0.2-0.8-0.6-1.3-1
		c0.6,0,1.2,0.1,1.7,0.3C34.5,18.8,34.5,18,34.7,17.2 M33.1,17.7c-0.3-0.7-0.4-1.4-0.2-2.1c0.5,0.9,0.8,0.7,0.9,1.8
		c-0.1,0.3-0.1,0.6,0,0.9c-0.2-0.3-0.4-0.6-0.4-0.9c0,0.3,0,0.6,0.1,0.9c-0.2,0.2-0.5,0.3-0.8,0.2c-0.7,0-0.8-0.5-1.4-0.8
		C31.9,17.6,32.5,17.6,33.1,17.7 M30.6,13.6c0.5,0.8,1.1,0.8,1.2,1.9c-0.1,0.3-0.1,0.6,0,0.9c-0.2-0.3-0.4-0.6-0.5-0.9
		c0,0.3,0.1,0.6,0.2,0.9c-0.2,0.2-0.5,0.3-0.8,0.3c-0.8,0-0.8-0.4-1.5-0.7c0.6-0.1,1.2-0.2,1.8-0.1C30.7,15.2,30.5,14.4,30.6,13.6
		 M30.2,12.9c0,0.1-0.1,0.2-0.1,0.4c-0.1-0.2-0.2-0.3-0.4-0.4C29.9,12.9,30.1,12.9,30.2,12.9 M30,13.7c-0.1,0.3,0,0.7,0.2,0.9
		c-0.1,0-0.1,0-0.2,0c-0.2-0.2-0.4-0.5-0.5-0.7c0,0.3,0.1,0.7,0.3,0.9c-0.1,0.1-0.3,0.2-0.5,0.2c-0.5,0.1-1,0-1.4-0.3
		c0.4-0.3,1-0.5,1.5-0.4c0-0.1,0-0.1-0.1-0.2l0,0l0,0c-0.1-0.3-0.3-0.5-0.5-0.7c-0.2-0.3-0.4-0.8-0.4-1.2C29,13,29.7,12.7,30,13.7
		 M29.4,12.1h-0.8c-0.1-0.1-0.2-0.2-0.3-0.3C28.7,11.9,29,12,29.4,12.1 M16,11.5c0.3-0.1,0.6-0.3,0.8-0.5l-2.1-0.5l2.2-0.5
		c-0.4-0.3-0.9-0.4-1.4-0.5c-0.3-0.3-0.7-0.5-1.1-0.6c0.3,0,0.7,0.1,1,0.2c0.6,0.1,1.1,0,1.7-0.1c-0.7-0.5-1.4-1-2.2-1.5
		c0,0,1.4,0.4,2.6,0.6c0-0.1-0.9-0.8-1.5-1.5c-0.1-0.1-0.2-0.3-0.3-0.4c0.4,0.1,0.7,0.4,1,0.6c0.4,0.2,0.9,0.4,1.4,0.5
		c-0.6-0.9-1.5-2.2-1.5-2.2l2.2,1.5c-0.1-0.4-0.3-0.9-0.5-1.3c-0.1-0.4-0.2-0.8-0.4-1.2c0.4,0.8,1,1.5,1.8,2l-0.5-2.9l1.4,2.5
		c0.1-0.4,0.1-0.9,0-1.3c0.2-0.5,0.2-1,0-1.5c0.1,0.4,0.2,0.7,0.2,1.1c0.2,0.5,0.5,1,0.7,1.5l0.6-2.6c0,0,0.4,2.6,0.4,2.6
		c0.3-0.5,0.2-0.9,0.5-1.3c0.2-0.4,0.4-0.8,0.5-1.3c-0.2,1.1-0.2,0.7-0.3,1.3c-0.1,0.5,0,1,0.1,1.4l1.6-2.3l-0.7,2.7
		c0.2-0.1,0.8-0.9,1.4-1.4c0.2-0.2,0.3-0.4,0.5-0.6c-0.3,0.4-0.5,0.8-0.7,1.2c-0.2,0.4-0.4,0.9-0.5,1.3l2.3-1.6l-1.6,2.3
		c0.4-0.1,0.8-0.3,1.2-0.5c0.5-0.1,1-0.3,1.4-0.6c-0.8,0.5-1.5,1.2-2.1,1.9l2.6-0.5l-2.3,1.4c0.1,0.1,1-0.1,1.7,0
		c0.4,0.1,0.8,0,1.2-0.1c-0.7,0.2-0.9,0.1-1.6,0.4c-0.4,0.2-0.7,0.3-1,0.6l2.6,0.5c0,0-2.6,0.6-3,0.8h-0.5c-0.1,0-0.2,0-0.3,0
		c0.1-0.2,0.1-0.4,0.1-0.6c-0.9,0.2-1.7,0-2.4,0.1c0.1-0.2,0.1-0.3,0-0.5c-1.1,0.5-2,0.2-2.9,1c0-0.2,0-0.5-0.1-0.7
		c-0.9,0.5-1.7,0.2-2.4,0.8c0-0.2,0-0.3,0-0.5c-0.9,0.2-1.7,0.6-2.5,1.2L14.8,12c0,0,0-0.1-0.1-0.1c0,0-0.1,0.1-0.1,0.1
		c-0.2,0-0.3,0-0.5,0C14.8,11.9,15.5,11.7,16,11.5 M13,14.6c0.3-1,0.9-0.9,1.5-1.6c0,0.7-0.3,1.5-0.8,2c0.6,0.1,1.2,0.2,1.8,0.4
		c-0.7,0.2-0.8,0.5-1.6,0.4c-0.3,0-0.6-0.2-0.8-0.4c0.2-0.2,0.3-0.5,0.3-0.8c-0.1,0.3-0.4,0.5-0.6,0.7C13,15.2,13,14.9,13,14.6
		 M14.3,14.7C14.3,14.7,14.3,14.7,14.3,14.7L14.3,14.7L14.3,14.7L14.3,14.7z M11.3,15.9c0.1-1.1,0.7-1.1,1.2-1.9
		c0.1,0.8-0.1,1.5-0.5,2.2c0.6-0.1,1.2,0,1.8,0.1c-0.6,0.3-0.7,0.7-1.5,0.7c-0.3,0-0.6-0.1-0.8-0.3c0.1-0.3,0.2-0.6,0.2-0.9
		c-0.1,0.3-0.3,0.6-0.5,0.9C11.4,16.5,11.4,16.2,11.3,15.9 M10.8,16.9c0,0.1-0.1,0.3-0.1,0.4l0,0C10.7,17.1,10.8,17,10.8,16.9
		 M9.4,17.4c0.1-1.2,0.4-1.1,0.9-1.9c0.2,0.7,0.1,1.5-0.2,2.2c0.6-0.1,1.2-0.1,1.7,0c-0.6,0.4-0.7,0.8-1.4,0.8c-0.3,0-0.5,0-0.8-0.2
		c0.1-0.3,0.2-0.6,0.1-0.9c-0.1,0.3-0.2,0.6-0.4,0.9C9.5,18.1,9.5,17.8,9.4,17.4 M8.6,17.4c0.2,0.7,0.2,1.5-0.1,2.2
		c0.6-0.2,1.1-0.3,1.7-0.3c-0.5,0.4-0.6,0.9-1.3,1c-0.3,0.1-0.5,0-0.8-0.1c0.1-0.3,0.1-0.6,0.1-0.9c-0.1,0.3-0.2,0.7-0.3,1
		C8,20.1,8,19.8,7.8,19.5C7.8,18.3,8.2,18.3,8.6,17.4 M7.5,21.5c0.1-0.1,0.2-0.2,0.4-0.2C7.7,21.3,7.6,21.4,7.5,21.5
		C7.5,21.5,7.5,21.5,7.5,21.5 M6.8,20.1c0.4,0.6,0.5,1.3,0.2,2c0.6-0.3,1.2-0.6,1.9-0.8c-0.3,0.5-0.7,1-1.2,1.3
		c-0.3,0.2-0.6,0.2-0.9,0.1c0-0.3,0-0.5-0.1-0.8c0,0.3-0.1,0.6-0.2,0.9c0-0.3-0.1-0.5-0.3-0.7C5.8,21.2,6.5,21,6.8,20.1 M5.3,24.2
		C4.8,23.2,5.4,23,5.5,22C6,22.5,6.2,23.3,6.1,24c0.5-0.4,1.1-0.7,1.7-1c-0.4,0.6-0.3,1-1,1.5c-0.2,0.2-0.5,0.3-0.9,0.3
		c0-0.3-0.1-0.5-0.2-0.7c0.1,0.3,0.1,0.6,0,0.9C5.7,24.6,5.6,24.3,5.3,24.2 M6.7,25.1c0,0.1-0.1,0.2-0.1,0.2
		c-0.3,0.1-0.5,0.2-0.8,0.3C6.1,25.4,6.4,25.2,6.7,25.1 M4.4,24.7c0.5,0.5,0.7,1.3,0.6,2c0.5-0.4,1.1-0.7,1.7-0.9
		c-0.4,0.6-0.3,1-1,1.4c-0.3,0.2-0.6,0.3-0.9,0.2c0-0.3-0.1-0.5-0.2-0.8c0.1,0.3,0.1,0.6,0,0.9c0-0.3-0.2-0.6-0.4-0.7
		C3.7,25.9,4.2,25.7,4.4,24.7 M3.6,29c-0.6-0.9-0.1-1.2-0.2-2.2c0.6,0.5,0.9,1.1,1,1.9c0.4-0.5,0.9-0.8,1.5-1.1
		c-0.3,0.7-0.1,1-0.7,1.5c-0.2,0.2-0.5,0.3-0.8,0.3c-0.1-0.3-0.2-0.5-0.4-0.7c0.1,0.3,0.2,0.6,0.2,0.9C4.1,29.3,3.9,29.1,3.6,29
		 M2.7,29.6c0.6,0.5,0.9,1.2,1,1.9c0.4-0.4,0.9-0.8,1.5-1.1c-0.3,0.6-0.1,1-0.7,1.5c-0.2,0.2-0.5,0.3-0.8,0.3
		c-0.1-0.3-0.2-0.5-0.4-0.7c0.1,0.3,0.2,0.6,0.2,0.9c-0.1-0.3-0.3-0.5-0.5-0.7C2.3,30.9,2.8,30.5,2.7,29.6 M3.7,34.3
		c-0.1-0.3-0.3-0.5-0.5-0.7c0.2,0.3,0.3,0.6,0.3,0.9c-0.1-0.3-0.4-0.5-0.6-0.6c-0.8-0.8-0.5-1-0.7-2c0.6,0.4,1.1,0.9,1.4,1.6
		c0.3-0.5,0.8-0.9,1.2-1.3c-0.2,0.7,0.1,1-0.4,1.6C4.2,34.1,3.9,34.2,3.7,34.3 M4.5,34.4v0.3c-0.3,0.2-0.5,0.4-0.7,0.6
		C4,35,4.3,34.7,4.5,34.4 M2.1,34.8c0.6,0.4,1.1,1,1.4,1.7c0.3-0.5,0.7-0.9,1.2-1.2c-0.1,0.6,0.1,1-0.4,1.6
		c-0.2,0.2-0.4,0.4-0.7,0.4c-0.1-0.3-0.3-0.5-0.5-0.7c0.2,0.3,0.3,0.6,0.3,0.9c-0.1-0.3-0.3-0.5-0.6-0.7C2.1,36,2.4,35.8,2.1,34.8
		 M3.5,38.2v0.1c-0.2-0.4-0.5-0.7-0.9-1C3.1,37.5,3.4,37.9,3.5,38.2 M2,37.6c0.7,0.3,1.2,0.8,1.5,1.5c0.2-0.5,0.6-1,1-1.4
		c0,0.7,0.3,1.1-0.1,1.7c-0.1,0.2-0.3,0.4-0.6,0.5c-0.2-0.3-0.4-0.5-0.7-0.7c0.2,0.3,0.4,0.6,0.5,0.9c-0.2-0.3-0.4-0.5-0.7-0.6
		C1.6,38.3,3.1,39.9,2,37.6 M3.8,40.8c0,0.1,0,0.1,0,0.2c-0.2-0.4-0.5-0.7-0.9-1C3.2,40.3,3.5,40.5,3.8,40.8 M3.7,41.7
		c0.3-0.6,0.6-1.2,1-1.7c0.1,0.6,0,1.2-0.2,1.8c-0.1,0.3-0.4,0.5-0.6,0.7c-0.1-0.2-0.3-0.4-0.6-0.6c0.2,0.3,0.3,0.5,0.4,0.9
		c-0.1-0.2-0.3-0.4-0.6-0.4c-0.8-0.6-0.4-0.9-0.8-1.8C3,40.7,3.5,41.1,3.7,41.7 M2.5,42.6c0.7,0.1,1.3,0.6,1.7,1.2
		c0.2-0.6,0.4-1.2,0.8-1.8c0,0.7,0.3,1,0.1,1.7c-0.1,0.3-0.3,0.6-0.5,0.8c-0.2-0.2-0.4-0.4-0.7-0.5c0.2,0.2,0.4,0.5,0.6,0.7
		c-0.2-0.2-0.5-0.3-0.7-0.3C2.7,44,3,43.4,2.5,42.6 M5.1,46.5c0.2-0.6,0.4-1.2,0.7-1.8c0,0.7,0.4,0.9,0.1,1.7
		c-0.1,0.3-0.3,0.5-0.5,0.7C5.3,47,5,46.8,4.8,46.7c0.2,0.2,0.4,0.5,0.6,0.7c-0.2-0.2-0.5-0.3-0.8-0.3c-1-0.5-0.7-1-1.2-1.8
		C4.1,45.5,4.8,45.9,5.1,46.5 M4,47.5c0.8,0,1.5,0.3,2,0.9c0.1-0.6,0.2-1.3,0.4-1.9c0.2,0.7,0.5,0.9,0.4,1.6c0,0.3-0.2,0.6-0.4,0.8
		c-0.2-0.2-0.5-0.3-0.7-0.3C6,48.8,6.2,49,6.4,49.3c-0.2-0.2-0.6-0.3-0.9-0.2C4.5,48.8,4.7,48.2,4,47.5 M5.2,49.9
		c0.8,0.1,1.5,0.4,2,1c0.1-0.6,0.2-1.2,0.5-1.8C7.8,49.8,8.2,50,8,50.7c0,0.3-0.2,0.6-0.4,0.7c-0.2-0.2-0.5-0.3-0.8-0.4
		c0.3,0.2,0.5,0.4,0.7,0.6c-0.2-0.2-0.5-0.3-0.8-0.2C5.7,51.2,5.9,50.6,5.2,49.9 M6.1,51.9c0.8-0.1,1.5,0.2,2.2,0.6
		c0-0.6,0-1.2,0.2-1.8c0.3,0.6,0.7,0.8,0.7,1.5c0,0.3-0.1,0.6-0.3,0.8c-0.3-0.1-0.5-0.2-0.8-0.2c0.3,0.1,0.6,0.3,0.8,0.5
		c-0.3-0.2-0.6-0.2-0.9-0.1C6.8,53,7,52.5,6.1,51.9 M9.2,53.9c0,0.1,0.1,0.2,0.1,0.3c-0.3-0.3-0.7-0.4-1.1-0.5
		C8.5,53.7,8.9,53.7,9.2,53.9 M7.4,54.1c0.8,0,1.6,0.3,2.2,0.8c0-0.6,0.1-1.2,0.3-1.7c0.3,0.6,0.7,0.8,0.6,1.5
		c0,0.3-0.1,0.6-0.3,0.7c-0.3-0.2-0.5-0.3-0.8-0.3c0.3,0.1,0.6,0.3,0.8,0.6c-0.3-0.2-0.6-0.2-0.9-0.2C8.1,55.2,8.2,54.7,7.4,54.1
		 M12.3,57.5c-0.2-0.3-0.6-0.4-0.9-0.3c-1.2-0.1-1.5-0.9-2.4-1.4c0.8-0.1,1.6,0.1,2.3,0.5c-0.1-0.6-0.1-1.1-0.1-1.7
		c0.4,0.6,0.8,0.7,0.9,1.4c0,0.4,0.1,0.8,0.2,1.3c-0.2-0.2-0.4-0.3-0.6-0.4C12,57,12.2,57.3,12.3,57.5 M10.9,55.8L10.9,55.8
		L10.9,55.8z M18.6,60.6c-2.6-0.8-4.9-2-5.4-2.9c-0.2-0.6-0.3-1.2-0.4-1.8c0,0,0,0,0-0.1c1.7,1.5,3.8,2.6,6,3.2h-0.2
		C17.8,60,18.2,60.4,18.6,60.6 M21.6,58.5c-7.1-0.1-11.4-6-12.9-8.8c-0.3-0.3,4.1-1.7,5-2l1.2-0.3c0,0.5,1,0.7,0.9,0.5
		c0.2,0.1-0.1,0.4,0.5,0.9c0.5,0.4,0.9,0.2,1,0.1c-0.3,0.4,0.9,1,1.6,0.6c-0.1,0.4,0.5,0.5,0.6,0.5c0.4,0.2,0.9,0.2,1.4,0v4
		c0.1,0.7,0.1,0.9,0.4,1c1.6,0.2,1.3-0.3,1.4-0.8c0-1.7-0.1-4.1-0.1-4.1c0.5,0,0.9-0.2,1.2-0.5c0.4,0.1,0.9-0.1,1.1-0.5
		c0.5,0.1,1-0.1,1.2-0.6c0.5,0.2,1.2-0.3,1.6-1.2c1.1,0.3,4.9,2.4,6.7,3C33.7,51.5,29.2,58.5,21.6,58.5 M34.1,54.4
		c0.2-0.1,0.4-0.1,0.6-0.1c-0.2,0.1-0.5,0.2-0.7,0.3C34,54.5,34,54.5,34.1,54.4 M32.3,56.2L32.3,56.2L32.3,56.2 M30.4,56.2
		c-0.1,0.7-0.2,1.2-0.3,1.6c-0.7,1.2-4,2.3-5.3,2.7c0.4-0.3,0.5-1,0.2-1.4c0,0-0.1-0.1-0.1-0.1h-0.1C26.9,58.5,28.8,57.5,30.4,56.2
		C30.5,56.2,30.5,56.2,30.4,56.2 M32.1,57.4c-0.4-0.1-0.8,0.1-1.1,0.4c0.2-0.3,0.4-0.5,0.6-0.8c-0.2,0.1-0.5,0.2-0.7,0.3
		c0-0.3,0-0.7,0.1-1c0.1-0.7,0.6-0.8,1-1.4c0.1,0.6,0,1.2-0.1,1.8c0.7-0.4,1.6-0.6,2.4-0.4C33.3,56.8,33.3,57.3,32.1,57.4 M34,55.9
		c-0.3-0.1-0.6,0-0.9,0.2c0.3-0.2,0.5-0.4,0.8-0.6c-0.3,0-0.6,0.1-0.9,0.3c-0.2-0.2-0.3-0.5-0.3-0.8c0-0.7,0.4-0.9,0.7-1.5
		c0.2,0.6,0.2,1.2,0.2,1.8c0.6-0.5,1.4-0.8,2.2-0.8C35.1,55.1,35.2,55.6,34,55.9 M35.3,53.8c-0.3-0.1-0.6,0-0.9,0.1
		c0.2-0.2,0.5-0.4,0.8-0.5c-0.3,0-0.6,0.1-0.8,0.2c-0.2-0.2-0.3-0.5-0.3-0.8c0-0.8,0.4-0.9,0.7-1.5c0.2,0.6,0.2,1.2,0.2,1.8
		c0.6-0.5,1.4-0.7,2.2-0.6C36.4,53,36.5,53.6,35.3,53.8 M36.6,52c-0.3-0.1-0.6,0-0.8,0.2c0.2-0.3,0.4-0.5,0.7-0.7
		c-0.3,0.1-0.5,0.2-0.8,0.3c-0.2-0.2-0.4-0.4-0.5-0.7c-0.2-0.8,0.2-1,0.4-1.6c0.3,0.6,0.4,1.2,0.5,1.8c0.5-0.6,1.2-1,2-1
		C37.5,51.1,37.6,51.6,36.6,52 M38,49.5c-0.3-0.1-0.6,0-0.8,0.2c0.2-0.2,0.4-0.5,0.7-0.6c-0.3,0.1-0.5,0.2-0.8,0.3
		c-0.2-0.2-0.4-0.5-0.4-0.8c-0.1-0.8,0.3-1,0.4-1.7c0.2,0.6,0.4,1.2,0.5,1.9c0.5-0.6,1.2-0.9,2-0.9C38.9,48.6,39,49.2,38,49.5
		 M39,47.5c-0.3,0-0.6,0.1-0.7,0.3c0.1-0.3,0.3-0.5,0.5-0.7c-0.3,0.1-0.5,0.2-0.7,0.4c-0.3-0.2-0.4-0.4-0.5-0.7
		c-0.3-0.8,0.1-1,0.1-1.8c0.3,0.6,0.6,1.2,0.8,1.8c0.4-0.6,1-1,1.7-1.2C39.6,46.5,39.9,47.1,39,47.5 M39.1,45.6
		c0.1-0.1,0.3-0.2,0.4-0.2C39.4,45.5,39.2,45.5,39.1,45.6 M39.9,44.8c-0.3,0-0.6,0.1-0.7,0.3c0.1-0.3,0.3-0.5,0.6-0.7
		c-0.3,0.1-0.5,0.2-0.7,0.4c-0.3-0.2-0.5-0.4-0.5-0.7c-0.3-0.8,0.1-1,0.1-1.8c0.3,0.6,0.6,1.2,0.8,1.8c0.3-0.6,1-1.1,1.7-1.2
		C40.5,43.7,40.8,44.3,39.9,44.8"/>
	<path class="st3" d="M16,11.5c0.3-0.1,0.6-0.3,0.9-0.5l-2.2-0.5l2.2-0.5c-0.4-0.3-0.9-0.4-1.4-0.5c-0.3-0.3-0.7-0.5-1.1-0.5
		c0.3,0,0.7,0.1,1,0.2c0.5,0.1,1.1,0,1.6-0.1c-0.7-0.5-1.4-1-2.2-1.5c0,0,1.4,0.4,2.6,0.6c0-0.1-0.9-0.8-1.5-1.5
		c-0.1-0.1-0.2-0.3-0.3-0.4c0.4,0.1,0.7,0.4,1,0.6c0.4,0.2,0.9,0.4,1.4,0.5c-0.6-0.9-1.5-2.2-1.5-2.2l2.3,1.5
		c-0.1-0.4-0.3-0.9-0.5-1.3c-0.1-0.4-0.2-0.8-0.4-1.2c0.4,0.8,1,1.5,1.8,2l-0.5-2.9l1.4,2.5c0.1-0.4,0.1-0.9,0-1.3
		c0.2-0.5,0.2-1,0-1.5c0.1,0.4,0.2,0.7,0.2,1.1c0.2,0.5,0.5,1,0.7,1.5l0.6-2.6c0,0,0.4,2.6,0.4,2.6c0.3-0.5,0.2-0.9,0.5-1.3
		c0.2-0.4,0.4-0.8,0.5-1.3c-0.2,1.1-0.2,0.7-0.3,1.3c0,0.5,0,1,0.1,1.4l1.6-2.3l-0.7,2.7c0.2-0.1,0.8-0.9,1.4-1.4
		c0.2-0.2,0.5-0.6,0.5-0.6c-0.3,0.4-0.5,0.8-0.7,1.2c-0.2,0.4-0.4,0.9-0.5,1.3l2.3-1.6l-1.6,2.2c0.4-0.1,0.8-0.3,1.2-0.5
		c0.5-0.1,1-0.3,1.4-0.6c-0.8,0.5-1.5,1.2-2.1,1.9l2.6-0.5l-2.3,1.4c0.1,0.1,1-0.1,1.7,0c0.4,0.1,0.8,0,1.2-0.1
		c-0.7,0.2-0.9,0.1-1.6,0.4c-0.4,0.2-0.7,0.3-1.1,0.6l2.6,0.5c0,0-2.6,0.6-3,0.8c-0.2,0-0.3,0-0.5,0c-0.1,0-0.2,0-0.3,0
		c0.1-0.2,0.1-0.4,0.1-0.6c-0.9,0.2-1.7,0-2.4,0.1c0.1-0.2,0.1-0.3,0-0.5c-1.1,0.5-2,0.3-2.9,1c0-0.2,0-0.5-0.1-0.7
		c-0.9,0.5-1.8,0.2-2.4,0.8c0-0.2,0-0.3,0-0.5c-0.9,0.2-1.8,0.7-2.5,1.2L14.8,12c0,0,0-0.1-0.1-0.1c0,0-0.1,0.1-0.1,0.1
		c-0.2,0-0.3,0-0.5,0C14.8,11.9,15.5,11.7,16,11.5"/>
	<path class="st2" d="M25.4,8.7h0.3c0,0-0.2-1.2-2.3-1.1h-0.5l-0.2,0.7L24,8.2C24.5,8.1,25,8.3,25.4,8.7"/>
	<path class="st2" d="M23,9.5c0.1-0.1,0.2-0.3,0.3-0.4h0.1c0,0,0,0.1,0,0.1c0,0.2,0.1,0.4,0.3,0.5c0.1,0,0.3,0,0.4,0
		c0.2-0.1,0.3-0.3,0.3-0.5c0,0,0-0.1,0-0.1c0.2,0,0.4,0.2,0.5,0.4h0.5c0,0-0.3-1.1-2.4-0.8c-0.2,0.3-0.4,0.5-0.5,0.8
		C22.7,9.5,22.8,9.5,23,9.5"/>
	<path class="st2" d="M18.3,9.5l0.5,0c0.1-0.2,0.3-0.3,0.5-0.3c0,0,0,0.1,0,0.1c0,0.2,0.1,0.4,0.3,0.5c0.1,0,0.2,0,0.4,0
		c0.2-0.1,0.3-0.3,0.3-0.5c0,0,0,0,0-0.1h0.1c0,0,0.3,0.3,0.3,0.3c0.2,0.1,0.3,0.1,0.5,0c0,0-0.5-0.8-0.5-0.8
		C18.6,8.4,18.3,9.6,18.3,9.5"/>
	<path class="st2" d="M19.6,8.2l1.5,0.1c0,0-0.2-0.6-0.2-0.6h-0.4c-2.3-0.1-2.5,1-2.5,1h0.3C18.5,8.2,19,8.1,19.6,8.2"/>
	<path class="st4" d="M41.2,40.5c-0.3,0.9,0,1.5-0.8,2.1c-0.3,0-0.5,0.2-0.6,0.4c0.1-0.3,0.2-0.6,0.4-0.9c-0.2,0.1-0.4,0.3-0.6,0.6
		c-0.3-0.1-0.5-0.4-0.6-0.6c-0.2-0.6-0.3-1.2-0.2-1.8c0.4,0.5,0.8,1.1,1.1,1.7C40,41.3,40.5,40.8,41.2,40.5"/>
	<path class="st4" d="M41.6,37.5c-0.4,1-0.1,1.4-1,2.2c-0.3,0.1-0.6,0.3-0.7,0.6c0.1-0.3,0.3-0.7,0.5-0.9c-0.2,0.2-0.5,0.4-0.6,0.7
		c-0.3,0-0.5-0.2-0.6-0.5c-0.3-0.6,0-1-0.1-1.7c0.4,0.4,0.7,0.9,1,1.5C40.3,38.5,40.9,37.9,41.6,37.5"/>
	<path class="st4" d="M40,36.7c0.2-0.8,0.7-1.5,1.3-1.9c-0.3,1,0.1,1.4-0.7,2.3c-0.3,0.1-0.5,0.4-0.6,0.7c0-0.4,0.2-0.7,0.3-1
		c-0.2,0.2-0.4,0.4-0.5,0.7c-0.3,0-0.5-0.2-0.7-0.4c-0.5-0.6-0.2-1-0.4-1.6C39.2,35.7,39.6,36.2,40,36.7"/>
	<path class="st4" d="M41.3,31.8c-0.3,1,0.1,1.4-0.6,2.2c-0.3,0.1-0.5,0.3-0.6,0.6c0-0.3,0.2-0.6,0.3-0.9c-0.2,0.2-0.4,0.4-0.5,0.7
		c-0.3,0-0.6-0.2-0.7-0.4c-0.5-0.6-0.2-0.9-0.4-1.6c0.5,0.4,0.9,0.8,1.3,1.3C40.2,32.9,40.6,32.2,41.3,31.8"/>
	<path class="st4" d="M39.8,31.6c0.1-0.8,0.4-1.5,1-2c-0.1,1,0.4,1.3-0.2,2.2c-0.3,0.1-0.5,0.4-0.5,0.7c0-0.3,0-0.7,0.2-1
		c-0.2,0.2-0.3,0.5-0.4,0.7c-0.3,0-0.6-0.1-0.8-0.3c-0.6-0.5-0.4-0.9-0.7-1.5C38.9,30.7,39.4,31.1,39.8,31.6"/>
	<path class="st4" d="M15,14.1c0.2-0.2,0.4-0.5,0.4-0.8c0.4-1.2,1.1-1.1,1.9-1.7c0.3,0.4-0.7,1.8-1.4,2.2c0.6,0.1,1.1,0.4,1.6,0.7
		c-0.7,0.1-1,0.4-1.7,0.2c-0.3-0.1-0.5-0.3-0.6-0.5c0.2-0.2,0.4-0.5,0.5-0.7C15.6,13.7,15.3,13.9,15,14.1"/>
	<path class="st4" d="M26.9,13.7c-0.3,0-0.5-0.1-0.8-0.2c0.4-0.1,0.7-0.3,1-0.5c0.6,0,1.1,0.4,1.3,1c-0.6-0.2-0.7,0.2-1.5,0.3
		c-0.8,0.1-1.2-0.3-1.9-0.4c-0.2-0.1-0.3-0.3-0.3-0.4c0.3,0.1,0.7,0.1,1,0v0.1C26.1,13.7,26.5,13.7,26.9,13.7"/>
	<path class="st4" d="M24.4,12.7c0.3,0,0.7-0.1,1-0.2c-0.2,0-0.5,0-0.7,0c0.4-0.4,0.9-0.6,1.4-0.7c0.9,0,0.9,0.5,1.4,0.3
		C27.5,12.5,25,13.6,24.4,12.7"/>
	<path class="st4" d="M23.1,12.5c0.5,0.4,0.9,0.8,1.3,1.3c-0.6-0.2-1,0-1.6-0.5c-0.2-0.2-0.4-0.4-0.4-0.7c0.3-0.1,0.5-0.3,0.7-0.5
		c-0.3,0.2-0.6,0.3-0.9,0.3c0.3-0.1,0.5-0.3,0.6-0.6c0.8-0.8,1.2-0.3,2.1-0.5C24.5,11.9,23.9,12.3,23.1,12.5"/>
	<path class="st4" d="M21.1,12.7c0.5,0.3,1,0.6,1.5,1c-0.7-0.1-1,0.2-1.6-0.1c-0.2-0.1-0.4-0.4-0.5-0.6c0.2-0.2,0.4-0.4,0.6-0.6
		c-0.3,0.2-0.5,0.4-0.9,0.5c0.2-0.2,0.4-0.4,0.5-0.7c0.7-0.9,1-0.5,1.9-1C22.3,11.7,21.8,12.3,21.1,12.7"/>
	<path class="st4" d="M19.7,13.9c-0.7,0-1,0.3-1.7,0c-0.3-0.1-0.5-0.3-0.6-0.6c0.2-0.2,0.5-0.4,0.6-0.7c-0.2,0.2-0.5,0.4-0.9,0.5
		c0.3-0.2,0.4-0.4,0.5-0.7c0.7-1,1.1-0.7,2-1.2c-0.3,0.7-0.8,1.3-1.5,1.7C18.8,13.3,19.3,13.6,19.7,13.9"/>
	<path class="st4" d="M40.1,26.8c-0.1,1,0.4,1.3-0.2,2.2c-0.3,0.1-0.5,0.4-0.5,0.7c0-0.3,0-0.7,0.2-1c-0.2,0.2-0.3,0.5-0.4,0.8
		c-0.3,0-0.6-0.2-0.8-0.4c-0.6-0.5-0.4-0.9-0.7-1.5c0.6,0.3,1.1,0.7,1.5,1.2C39.1,27.9,39.5,27.2,40.1,26.8"/>
	<path class="st4" d="M38.5,26.7c-0.1-0.7,0.1-1.4,0.6-2c0.1,1,0.7,1.2,0.2,2.2C39.1,27,39,27.3,39,27.6c-0.1-0.3-0.1-0.6,0-0.9
		c-0.1,0.2-0.2,0.5-0.2,0.8c-0.3,0.1-0.7,0-0.9-0.2c-0.7-0.4-0.6-0.8-1-1.4C37.4,26,38,26.3,38.5,26.7"/>
	<path class="st4" d="M37.8,21.9c0.1,1,0.7,1.3,0.2,2.2c-0.2,0.2-0.4,0.4-0.4,0.7c-0.1-0.3-0.1-0.6,0-0.9c-0.1,0.2-0.2,0.5-0.3,0.7
		c-0.3,0-0.6-0.1-0.9-0.3c-0.7-0.5-0.6-0.9-1-1.5c0.6,0.3,1.2,0.6,1.7,1C37.1,23.2,37.3,22.5,37.8,21.9"/>
	<path class="st4" d="M36.5,19.9c0.3,0.9,0.9,1.2,0.6,2.2c-0.2,0.2-0.3,0.5-0.2,0.7c-0.1-0.3-0.2-0.6-0.2-0.9
		c-0.1,0.3-0.1,0.5-0.1,0.8c-0.3,0-0.6,0-0.9-0.2c-0.8-0.4-0.7-0.8-1.3-1.3c0.7,0.2,1.3,0.4,1.9,0.8C36,21.3,36.1,20.5,36.5,19.9"/>
	<path class="st4" d="M34.7,17.2c0.4,0.9,0.7,0.8,0.7,2.1c-0.1,0.3-0.1,0.6,0,0.9c-0.2-0.3-0.3-0.7-0.4-1c0,0.3,0,0.6,0.1,0.9
		c-0.2,0.2-0.5,0.2-0.8,0.1c-0.7-0.2-0.8-0.6-1.3-1c0.6,0,1.2,0.1,1.7,0.3C34.5,18.8,34.5,18,34.7,17.2"/>
	<path class="st4" d="M33.1,17.7c-0.3-0.7-0.4-1.4-0.2-2.1c0.5,0.9,0.8,0.7,0.9,1.9c-0.1,0.3-0.1,0.6,0,0.9
		c-0.2-0.3-0.4-0.6-0.5-0.9c0,0.3,0,0.6,0.2,0.9c-0.2,0.2-0.5,0.3-0.8,0.2c-0.7,0-0.8-0.5-1.4-0.8C31.9,17.6,32.5,17.6,33.1,17.7"/>
	<path class="st4" d="M30.6,13.6c0.6,0.8,1.1,0.8,1.2,1.9c-0.1,0.3-0.1,0.6,0,0.9c-0.2-0.3-0.4-0.5-0.5-0.9c0,0.3,0.1,0.6,0.2,0.9
		c-0.2,0.2-0.5,0.3-0.8,0.3c-0.8,0-0.9-0.4-1.5-0.7c0.6-0.1,1.2-0.1,1.8-0.1C30.6,15.2,30.4,14.4,30.6,13.6"/>
	<path class="st4" d="M30,13.8c-0.1,0.3,0,0.6,0.2,0.9c-0.1,0-0.1,0-0.2,0c-0.2-0.2-0.4-0.5-0.6-0.7c0,0.4,0.1,0.7,0.3,1
		c-0.1,0.1-0.3,0.2-0.5,0.2c-0.5,0.1-1-0.1-1.5-0.4c0.4-0.3,1-0.5,1.5-0.4c0-0.1,0-0.1-0.1-0.2l0,0l0,0c-0.1-0.3-0.3-0.5-0.5-0.7
		c-0.3-0.4-0.5-0.8-0.4-1.3C29,12.9,29.7,12.6,30,13.8"/>
	<path class="st4" d="M12.9,14.6c0.3-1.1,0.8-0.9,1.5-1.6c0,0.7-0.3,1.5-0.8,2c0.6,0,1.2,0.2,1.8,0.4c-0.6,0.2-0.8,0.6-1.6,0.5
		c-0.3,0-0.6-0.2-0.8-0.4c0.2-0.2,0.3-0.5,0.3-0.8c-0.1,0.3-0.4,0.5-0.6,0.7C13,15.2,13,14.9,12.9,14.6"/>
	<path class="st4" d="M11.3,15.9c0.1-1.1,0.7-1.1,1.2-1.9c0.1,0.8-0.1,1.5-0.5,2.2c0.6-0.1,1.2,0,1.8,0.1c-0.6,0.3-0.7,0.7-1.5,0.7
		c-0.3,0-0.6-0.1-0.8-0.3c0.1-0.3,0.2-0.6,0.2-0.9c-0.1,0.3-0.3,0.6-0.5,0.9C11.4,16.5,11.4,16.2,11.3,15.9"/>
	<path class="st4" d="M9.4,17.5c0.1-1.2,0.4-1.1,0.9-1.9c0.2,0.7,0.1,1.5-0.3,2.2c0.6-0.1,1.2-0.1,1.8,0c-0.6,0.4-0.7,0.8-1.4,0.9
		c-0.3,0-0.5-0.1-0.8-0.2c0.1-0.3,0.2-0.6,0.1-0.9c-0.1,0.3-0.2,0.6-0.4,0.9C9.5,18.1,9.5,17.8,9.4,17.5"/>
	<path class="st4" d="M8.6,17.4c0.2,0.7,0.2,1.5-0.1,2.2c0.6-0.2,1.1-0.3,1.7-0.3c-0.5,0.4-0.6,0.9-1.3,1.1c-0.3,0.1-0.6,0-0.8-0.1
		c0.1-0.3,0.1-0.6,0.1-0.9c-0.1,0.3-0.2,0.7-0.3,1C8,20.1,8,19.8,7.9,19.5C7.9,18.3,8.2,18.4,8.6,17.4"/>
	<path class="st4" d="M6.8,20.1c0.4,0.6,0.5,1.3,0.2,2c0.6-0.3,1.2-0.6,1.9-0.8c-0.3,0.5-0.7,1-1.2,1.3c-0.3,0.1-0.6,0.2-0.9,0.2
		c0-0.3,0-0.6-0.1-0.8c0,0.3-0.1,0.7-0.2,1c0.1-0.3,0-0.6-0.3-0.8C5.9,21.2,6.5,21,6.8,20.1"/>
	<path class="st4" d="M5.3,24.2C4.9,23.2,5.4,23,5.5,22c0.5,0.5,0.7,1.2,0.6,2c0.5-0.4,1.1-0.7,1.7-1c-0.4,0.6-0.3,1-1,1.4
		c-0.2,0.2-0.5,0.3-0.9,0.3c0-0.3-0.1-0.5-0.3-0.7c0.1,0.3,0.1,0.6,0,0.9C5.7,24.6,5.6,24.3,5.3,24.2"/>
	<path class="st4" d="M4.4,24.7c0.5,0.6,0.7,1.3,0.6,2c0.5-0.4,1.1-0.7,1.7-0.9c-0.4,0.6-0.3,1-1,1.4c-0.2,0.2-0.5,0.3-0.8,0.2
		c0-0.3-0.1-0.5-0.3-0.8c0.1,0.3,0.1,0.6,0,0.9c0-0.3-0.2-0.6-0.4-0.7C3.7,25.9,4.2,25.7,4.4,24.7"/>
	<path class="st4" d="M3.7,29c-0.6-0.9-0.1-1.2-0.2-2.2c0.6,0.5,0.9,1.1,1,1.9c0.4-0.5,0.9-0.8,1.5-1.1c-0.3,0.6-0.1,1-0.7,1.5
		c-0.2,0.2-0.5,0.3-0.8,0.3c-0.1-0.3-0.2-0.5-0.4-0.7c0.1,0.3,0.2,0.6,0.2,0.9C4.2,29.3,4,29.1,3.7,29"/>
	<path class="st4" d="M2.7,29.6c0.6,0.5,0.9,1.2,1,1.9c0.4-0.4,0.9-0.8,1.5-1.1c-0.3,0.6-0.1,1-0.7,1.5c-0.2,0.2-0.5,0.3-0.8,0.3
		c-0.1-0.3-0.2-0.5-0.4-0.7c0.1,0.3,0.2,0.7,0.2,1c-0.1-0.3-0.3-0.5-0.5-0.7C2.3,30.9,2.8,30.6,2.7,29.6"/>
	<path class="st4" d="M3.7,34.3c-0.1-0.3-0.3-0.5-0.5-0.7c0.2,0.3,0.3,0.6,0.3,0.9c-0.1-0.3-0.3-0.5-0.6-0.6c-0.8-0.8-0.5-1-0.7-2
		c0.6,0.4,1.1,0.9,1.4,1.6c0.3-0.5,0.8-0.9,1.2-1.3c-0.2,0.7,0.1,1-0.4,1.6C4.2,34.1,4,34.2,3.7,34.3"/>
	<path class="st4" d="M2.1,34.8c0.6,0.4,1.1,1,1.4,1.7c0.3-0.5,0.7-0.9,1.2-1.2c-0.1,0.7,0.1,1-0.4,1.6c-0.2,0.2-0.4,0.4-0.7,0.4
		c-0.1-0.3-0.3-0.5-0.6-0.7c0.2,0.3,0.3,0.6,0.3,0.9c-0.1-0.3-0.4-0.5-0.6-0.6C2.1,36,2.4,35.8,2.1,34.8"/>
	<path class="st4" d="M2,37.5c0.7,0.3,1.2,0.8,1.5,1.5c0.3-0.5,0.6-1,1-1.4c0,0.7,0.3,1.1-0.1,1.7c-0.1,0.2-0.3,0.4-0.6,0.5
		c-0.2-0.3-0.4-0.5-0.7-0.6c0.2,0.3,0.4,0.6,0.5,0.9c-0.2-0.3-0.4-0.5-0.7-0.6C1.6,38.3,3.1,39.9,2,37.5"/>
	<path class="st4" d="M3.8,41.8c0.3-0.6,0.6-1.2,1-1.7c0.1,0.6,0,1.2-0.2,1.8c-0.1,0.3-0.4,0.5-0.6,0.7c-0.1-0.2-0.3-0.4-0.6-0.6
		c0.2,0.3,0.3,0.6,0.4,0.9c-0.1-0.2-0.4-0.4-0.6-0.4c-0.8-0.6-0.4-0.9-0.7-1.8C3,40.7,3.5,41.1,3.8,41.8"/>
	<path class="st4" d="M2.5,42.6c0.7,0.1,1.3,0.6,1.7,1.2c0.2-0.6,0.4-1.3,0.8-1.8c0,0.7,0.4,1,0.1,1.7c-0.1,0.3-0.3,0.6-0.5,0.7
		c-0.2-0.2-0.4-0.4-0.7-0.5c0.2,0.2,0.4,0.5,0.5,0.8c-0.2-0.2-0.4-0.3-0.7-0.3C2.7,44,3,43.4,2.5,42.6"/>
	<path class="st4" d="M5.1,46.5c0.2-0.6,0.4-1.2,0.7-1.8c0,0.7,0.4,0.9,0.1,1.7c-0.1,0.3-0.3,0.6-0.5,0.7C5.3,47,5,46.8,4.8,46.7
		C5,47,5.2,47.2,5.4,47.5c-0.2-0.2-0.5-0.3-0.7-0.3c-1-0.5-0.7-1-1.2-1.8C4.1,45.5,4.8,45.9,5.1,46.5"/>
	<path class="st4" d="M4,47.5c0.7,0,1.4,0.3,1.9,0.9c0.1-0.6,0.2-1.3,0.4-1.9c0.2,0.7,0.5,0.9,0.4,1.6c0,0.3-0.2,0.6-0.4,0.8
		c-0.2-0.2-0.5-0.3-0.8-0.3c0.3,0.2,0.5,0.4,0.7,0.6c-0.2-0.2-0.5-0.2-0.8-0.2C4.6,48.8,4.7,48.2,4,47.5"/>
	<path class="st4" d="M5.2,50c0.7,0,1.4,0.4,1.9,0.9c0.1-0.6,0.3-1.2,0.5-1.8C7.8,49.8,8.2,50,8,50.7c0,0.3-0.2,0.6-0.4,0.7
		c-0.2-0.2-0.5-0.3-0.8-0.4c0.3,0.2,0.5,0.4,0.7,0.6c-0.2-0.2-0.5-0.3-0.8-0.2C5.7,51.2,5.9,50.6,5.2,50"/>
	<path class="st4" d="M6.1,51.9c0.8-0.1,1.5,0.2,2.2,0.6c0-0.6,0-1.2,0.2-1.8c0.3,0.6,0.7,0.8,0.7,1.5c0,0.3-0.1,0.6-0.3,0.7
		c-0.3-0.1-0.5-0.2-0.8-0.2c0.3,0.1,0.6,0.3,0.8,0.5c-0.3-0.2-0.6-0.2-0.9-0.1C6.9,53.1,6.9,52.5,6.1,51.9"/>
	<path class="st4" d="M7.4,54.1c0.8,0,1.6,0.3,2.2,0.8c0-0.6,0.1-1.2,0.3-1.7c0.2,0.7,0.7,0.8,0.6,1.5c0,0.3-0.1,0.6-0.3,0.7
		c-0.3-0.2-0.6-0.3-0.9-0.3c0.3,0.1,0.6,0.3,0.8,0.6c-0.3-0.2-0.6-0.2-0.9-0.2C8.1,55.2,8.3,54.6,7.4,54.1"/>
	<path class="st4" d="M12.3,57.5c-0.2-0.2-0.6-0.3-0.9-0.3c-1.2-0.1-1.5-0.9-2.4-1.4c0.8-0.1,1.6,0.1,2.3,0.5
		c-0.1-0.6-0.2-1.1-0.1-1.7c0.4,0.6,0.8,0.7,0.9,1.4c0,0.4,0.1,0.9,0.2,1.3c-0.2-0.2-0.4-0.3-0.6-0.4C12,57.1,12.2,57.3,12.3,57.5"
		/>
	<path class="st4" d="M32.1,57.4c-0.4,0-0.8,0.1-1.1,0.4c0.2-0.3,0.4-0.5,0.6-0.7c-0.2,0.1-0.5,0.2-0.7,0.3c0-0.3,0-0.7,0.1-1
		c0.1-0.7,0.6-0.8,1-1.4c0.1,0.6,0,1.2-0.1,1.8c0.7-0.4,1.6-0.6,2.4-0.4C33.4,56.8,33.4,57.4,32.1,57.4"/>
	<path class="st4" d="M34,55.9c-0.3-0.1-0.6,0-0.9,0.2c0.3-0.2,0.6-0.4,0.9-0.6c-0.3,0-0.6,0.2-0.9,0.3c-0.2-0.2-0.3-0.5-0.3-0.8
		c0-0.7,0.4-0.9,0.7-1.5c0.2,0.6,0.2,1.2,0.2,1.8c0.6-0.5,1.4-0.8,2.2-0.8C35.1,55.1,35.2,55.7,34,55.9"/>
	<path class="st4" d="M35.3,53.8c-0.3-0.1-0.6-0.1-0.9,0.1c0.2-0.2,0.5-0.4,0.8-0.5c-0.3,0-0.6,0.1-0.8,0.2
		c-0.2-0.2-0.3-0.5-0.3-0.8c0-0.7,0.4-0.9,0.7-1.5c0.2,0.6,0.2,1.2,0.2,1.8c0.6-0.5,1.4-0.7,2.2-0.6C36.4,53,36.5,53.6,35.3,53.8"/>
	<path class="st4" d="M36.6,52c-0.3-0.1-0.6,0-0.8,0.2c0.2-0.3,0.4-0.5,0.7-0.7c-0.3,0.1-0.5,0.2-0.8,0.3c-0.2-0.2-0.4-0.4-0.4-0.7
		c-0.2-0.8,0.2-1,0.4-1.6c0.3,0.6,0.4,1.2,0.5,1.8c0.5-0.6,1.2-0.9,2-1C37.5,51.1,37.7,51.6,36.6,52"/>
	<path class="st4" d="M38,49.5c-0.3-0.1-0.6,0-0.8,0.2c0.2-0.2,0.4-0.4,0.7-0.6c-0.3,0.1-0.5,0.2-0.8,0.3c-0.2-0.2-0.4-0.5-0.4-0.8
		c-0.1-0.8,0.2-1,0.4-1.7c0.2,0.6,0.4,1.2,0.4,1.9c0.5-0.6,1.2-0.9,2-0.9C38.9,48.7,39,49.2,38,49.5"/>
	<path class="st4" d="M38.9,47.6c-0.3,0-0.6,0.1-0.8,0.3c0.1-0.3,0.3-0.6,0.5-0.8c-0.3,0.1-0.5,0.3-0.7,0.4
		c-0.3-0.2-0.4-0.4-0.5-0.7c-0.3-0.8,0.1-1,0.1-1.7c0.3,0.6,0.6,1.2,0.7,1.8c0.4-0.6,1-1,1.8-1.2C39.6,46.5,39.8,47.1,38.9,47.6"/>
	<path class="st4" d="M39.9,44.8c-0.3,0-0.6,0.1-0.7,0.3c0.1-0.3,0.3-0.6,0.6-0.8c-0.3,0.1-0.5,0.2-0.7,0.4
		c-0.3-0.2-0.5-0.4-0.5-0.7c-0.3-0.8,0.1-1,0.1-1.8c0.3,0.6,0.6,1.2,0.8,1.8c0.3-0.6,1-1.1,1.7-1.2C40.5,43.7,40.8,44.3,39.9,44.8"
		/>
	<path class="st5" d="M35.3,48.4c-2.3,0.2-4.7-0.5-6.6-1.9c0.3-0.6,0.4-1.3,0.3-1.9c-0.1-0.5-0.1-0.1-0.2,0.2c-0.2,0.5-0.5,1-1,1.2
		c-0.7-0.8-1.6-1.4-2.6-1.9c-0.6-0.4-1.1-0.8-1.6-1.2c-1,0.4-2.5,1.3-3.2,0.8c-0.6-0.3,0.7-0.7,1.3-1.5c0.4-0.6,1.1-0.9,1.8-0.7
		c1.5,0.3,2.2,0.8,4.4,1.8c2.7,0.2,4.7,1,7.4,1.6c0.5,0.1,1,0.2,1.4,0.2C36.4,46.2,35.9,47.3,35.3,48.4"/>
	<path class="st5" d="M23.5,45.4c0.8,0.9,1.5,1.1,2,2.2c-0.1,0.3-0.5,0.4-0.7,0.3c0,0-0.1,0-0.1-0.1c-1.2-1.4-2.3-1.6-1.9-2.2
		c-0.2,0-0.4,0.2-0.4,0.5c0,0,0,0,0,0c0.2,0.9,1.3,1.3,1.6,2.2c-0.1,0.6-1.5,0.1-2.1-1.6v-0.1c-0.2,0.5-0.4,0.7,0.4,1.7
		c0.2,0.4,0.3,0.8-0.3,0.7c0.1,0.1-0.3,0-0.1,0h0.1c0,0-0.1,0-0.1-0.1c0.2-0.5,0-1.1-0.5-1.3c-0.2-0.1-0.4-0.1-0.6,0
		c0.3-0.5-0.6-1.2-1.5-0.8c0.1-0.4-0.8-1.2-2.1-0.6c-0.2-0.5-1.3-0.9-2.4,0.5c-2,0.2-5.1,1.9-7,1c-0.1,0.1-1.2-3.1-1.2-3.2
		c2.2-0.2,7.3-0.6,9.1-1.3c1.4-0.9,4.1-1.4,4.7-1c-0.1,0.5-1.2,1.4-0.6,1.9c1,0.9,2.6,0.5,3.7-0.1c1.1,1.2,2.9,1.3,3.6,2.8l-0.2,0.4
		c-0.4,0.2-0.4,0.2-0.9-0.4c-1.1-1.4-2.1-1.1-2.2-2.1C23.3,44.8,23.5,45.2,23.5,45.4"/>
	<path class="st5" d="M18.3,48.4c-0.4,0.2,0.2-0.2,0.3-0.3l0.2-0.2c0.3-0.3,0.8-0.7,1.1-0.1c0.1,0.3-1.1,1.1-1.4,1.2
		c-0.1,0.1-0.3,0-0.4-0.1c0,0,0,0,0,0c-0.1-0.1,0-0.3,0.1-0.4C18.3,48.4,18.3,48.4,18.3,48.4"/>
	<path class="st5" d="M17.2,48.2c-0.2,0.1-0.4,0-0.6-0.2c0.1-0.3,0.2-0.6,0.5-0.8c0.1-0.1,0.2-0.2,0.3-0.2l0.2-0.2
		c0.5-0.1,0.4,0,0.5,0.2C18,47.6,17.6,48,17.2,48.2"/>
	<path class="st5" d="M20.4,48.5c0.1-0.2,0.4-0.3,0.6-0.1c0.1,0.1,0.2,0.2,0.2,0.4c0.1,0.3-0.5,0.7-1,0.8
		C19.9,49.4,19.3,49.4,20.4,48.5"/>
	<path class="st5" d="M15.8,47.3c-0.2,0.1-0.5-0.3-0.4-0.4l0.2-0.4c0.4-0.1,0.6-0.3,0.7-0.1C16.4,46.8,16.2,47.1,15.8,47.3"/>
	<path class="st6" d="M21.7,14.6c-8.8,0-16.1,9.4-16.4,21.1h32.8C37.8,24,30.6,14.6,21.7,14.6"/>
	<path class="st2" d="M22.7,40.6v-9.3c0,0,3.2,0.1,3.9-0.1c0.7-0.3,1.1-0.8,1.3-1.5c0-1.1-0.2-2.1-0.5-3.1c-0.3-0.2-0.5-0.5-0.6-0.9
		c0,0-0.3-3.5-1-4.5c-0.9-1.4-2.5-2.2-4.1-2.1c-1.7-0.1-3.3,1-3.7,2.7c-0.1,0.6,0.3,1.2,1,1.3c0.1,0,0.2,0,0.3,0
		c-0.3,0.3-0.6,0.5-0.9,0.8c-0.6,0.6-1,1.3-1.4,2.1c-0.6,1.1-0.9,2.4-0.8,3.7c0.6,0.9,1.6,1.5,2.7,1.6c0.7,0.1,1.4,0,2.1-0.1v9.3
		L22.7,40.6z"/>
	<path class="st7" d="M19.2,27.8c-0.9,0-1.3,0.5-2.1,0.6c0.3-1.4,0.9-2.7,1.9-3.8c0.9-0.9,2-1.6,3.2-2.1v-0.2
		c-0.7,0.1-2.7,0.5-3.3-0.4c-0.1-0.9,1.1-1.8,2.7-2c0.9,0,1.8,0.3,2.5,0.8c0.8,0.6,1.4,1.6,1.4,2.6c-0.5,0.2-1,0.5-1.5,0.8
		c0.2,0,0.5,0.1,0.7,0.1c0.3,0,0.5,0,0.8,0v0.6c0.1,0.1,0.1,0.2,0.2,0.2c-2,0.9-3,1.2-3.1,1.1c0.3,0.1,0.5,0.1,0.8,0.1
		c0.8-0.1,1.6-0.2,2.3-0.5c-0.1,0.4,0.2,0.8,0.6,0.9l0,0l0,0c-2,1.1-2.8,1-2.9,0.9l-1.4-0.2c0.6,0.4,1.2,0.7,1.9,0.9
		c0.9-0.1,1.9-0.3,2.7-0.7l0.3,0.9c-1.2,0-2.5,1.7-4.3,1.1C21.7,28.9,20.5,27.8,19.2,27.8"/>
	<path class="st7" d="M20.9,30.3c-0.9,0-2.3,0-2.4-0.1c-0.4,0-1.6-0.7-1.4-0.9c0.5,0,1-0.2,1.5-0.4C19.8,28.4,20.8,30,20.9,30.3"/>
	<path class="st7" d="M27,29.3c-0.1,0.4-0.3,0.7-0.7,0.9c-0.2,0-1.4,0-2.1,0c0.4,0,0.7-0.1,1.1-0.3C27.2,29,27,29.3,27,29.3"/>
	<path class="st1" d="M20.7,63.7c0.1-0.2,0.1-0.5,0-0.7c-0.4,0.6-0.9,1.1-1.5,1.5c-0.8,0.4-1.5,0.6-2.4,0.8c0.2,0.2,0.4,0.4,0.6,0.5
		c0.8-0.1,1.5-0.4,2.2-0.8C20.1,64.6,20.5,64.2,20.7,63.7"/>
	<path class="st6" d="M22.8,63.7c-0.1-0.2-0.1-0.5,0-0.7c0.4,0.6,0.9,1.1,1.5,1.5c0.8,0.4,1.6,0.7,2.4,0.8c0.2-0.2,0.4-0.5,0.6-0.7
		c-0.8-0.1-1.6-0.3-2.4-0.5c-0.8-0.2-1.4-0.7-1.8-1.3c0-0.3,0.1-0.7,0.3-0.9c0.2-0.2,2.1-0.3,2.1-2c-0.1-2-3.3-1.4-3.8-1.3
		c-0.4-0.1-3.7-0.6-3.7,1.4c-0.1,1.7,1.9,1.8,2.1,2c0.2,0.2,0.3,0.6,0.3,0.9c-0.4,0.7-1.1,1.1-1.8,1.3c-0.8,0.2-1.6,0.4-2.4,0.5
		c0.2,0.3,0.4,0.5,0.6,0.7c0.8-0.2,1.6-0.4,2.4-0.8c0.6-0.4,1.1-0.9,1.5-1.5c0.1,0.2,0.1,0.5,0,0.7c-0.3,0.5-0.6,1-1.1,1.3
		c-0.7,0.4-1.5,0.7-2.2,0.8c0.3,0.2,0.6,0.4,1,0.4c2.1-0.1,2.8-2.4,2.8-2.4c0.2,0.1,0.4,0.2,0.6,0.2l0,0c0.2,0,0.4-0.1,0.6-0.2
		c0,0,0.8,2.3,2.9,2.4c0.4,0,0.7-0.1,1-0.4c-0.8-0.1-1.6-0.3-2.3-0.8C23.5,64.6,23.1,64.2,22.8,63.7"/>
	<path class="st1" d="M26.7,65.2c-0.8-0.2-1.6-0.4-2.4-0.8c-0.6-0.4-1.1-0.9-1.5-1.5c-0.1,0.2-0.1,0.5,0,0.7c0.3,0.5,0.6,1,1.1,1.3
		c0.7,0.4,1.4,0.7,2.2,0.8l0,0C26.4,65.6,26.6,65.4,26.7,65.2"/>
	<path class="st1" d="M20.2,59.1c-0.3,0.2-0.5,0.5-0.6,0.9c0,0.3,0,0.7,0.1,1c-0.5-0.2-0.9-0.6-1-1.1C18.9,58.9,20.3,59.1,20.2,59.1
		"/>
	<path class="st1" d="M23.3,59.1c0.3,0.2,0.5,0.5,0.6,0.9c0,0.3,0,0.7-0.1,1c0,0,1.1-0.4,1-1.1C24.7,58.9,23.3,59.1,23.3,59.1"/>
	<path class="st1" d="M21.9,59.5h-0.2c-1.8,0-0.8,1.7-0.8,1.7c0.2-0.1,0.5-0.2,0.8-0.2h0.2c0.3,0,0.5,0.1,0.8,0.2
		C22.7,61.1,23.7,59.5,21.9,59.5"/>
	<path class="st1" d="M21.9,61.7h-0.2c-0.5,0-0.5,0.2-0.5,0.5s0.1,1.2,0.5,1.2h0.1c0.4,0,0.5-1,0.5-1.2S22.3,61.7,21.9,61.7"/>
	<g>
		<g>
			<path class="st8" d="M59.1,12.7h7.4c2.1,0,3.7,0.6,4.7,1.6c0.9,0.9,1.4,2.2,1.4,3.7v0c0,2.6-1.4,4.3-3.5,5l4,5.8h-4.2l-3.5-5.2
				h-2.8v5.2h-3.6V12.7z M66.3,20.6c1.7,0,2.7-0.9,2.7-2.3v0c0-1.5-1.1-2.3-2.8-2.3h-3.6v4.7H66.3z"/>
			<path class="st8" d="M74.6,22.8L74.6,22.8c0-3.6,2.5-6.5,6.2-6.5c4.2,0,6.1,3.2,6.1,6.8c0,0.3,0,0.6,0,0.9h-8.7
				c0.3,1.6,1.5,2.4,3,2.4c1.2,0,2-0.4,3-1.3l2,1.8c-1.2,1.4-2.8,2.3-5.1,2.3C77.4,29.2,74.6,26.6,74.6,22.8z M83.4,21.8
				c-0.2-1.6-1.1-2.6-2.6-2.6c-1.5,0-2.4,1-2.7,2.6H83.4z"/>
			<path class="st8" d="M89.5,31.4l1.2-2.6c1.3,0.7,2.6,1.1,4.2,1.1c2.4,0,3.6-1.2,3.6-3.4v-0.6c-1,1.3-2.2,2-4.1,2
				c-2.9,0-5.5-2.1-5.5-5.8v0c0-3.7,2.7-5.8,5.5-5.8c1.9,0,3.1,0.8,4,1.9v-1.6h3.5v9.6c0,2.2-0.5,3.9-1.6,4.9
				c-1.2,1.2-2.9,1.7-5.4,1.7C93,32.7,91.1,32.2,89.5,31.4z M98.5,22.1L98.5,22.1c0-1.7-1.3-2.9-3-2.9c-1.7,0-3,1.2-3,2.9v0
				c0,1.7,1.3,2.9,3,2.9C97.2,25,98.5,23.8,98.5,22.1z"/>
			<path class="st8" d="M105.2,12h3.7v3.1h-3.7V12z M105.3,16.5h3.5v12.4h-3.5V16.5z"/>
			<path class="st8" d="M111.2,27.3l1.5-2.3c1.3,1,2.8,1.5,3.9,1.5c1,0,1.5-0.4,1.5-0.9v0c0-0.8-1.2-1-2.6-1.4
				c-1.7-0.5-3.7-1.3-3.7-3.7v0c0-2.5,2-3.9,4.5-3.9c1.6,0,3.3,0.5,4.6,1.4l-1.3,2.4c-1.2-0.7-2.5-1.2-3.4-1.2
				c-0.9,0-1.3,0.4-1.3,0.9v0c0,0.7,1.2,1,2.5,1.5c1.7,0.6,3.8,1.4,3.8,3.7v0c0,2.8-2.1,4-4.8,4C114.8,29.2,112.8,28.6,111.2,27.3z"
				/>
			<path class="st8" d="M124.2,25.4v-5.9h-1.5v-3h1.5v-3.2h3.5v3.2h2.9v3h-2.9v5.3c0,0.8,0.3,1.2,1.1,1.2c0.7,0,1.2-0.2,1.7-0.4v2.8
				c-0.7,0.4-1.6,0.7-2.8,0.7C125.6,29.2,124.2,28.3,124.2,25.4z"/>
			<path class="st8" d="M133.2,16.5h3.5V19c0.7-1.7,1.9-2.8,4-2.7V20h-0.2c-2.3,0-3.8,1.4-3.8,4.4v4.6h-3.5V16.5z"/>
			<path class="st8" d="M142,22.8L142,22.8c0-3.6,2.9-6.5,6.8-6.5c3.9,0,6.7,2.9,6.7,6.4v0c0,3.6-2.9,6.5-6.8,6.5
				C144.8,29.2,142,26.4,142,22.8z M151.9,22.8L151.9,22.8c0-1.9-1.3-3.5-3.3-3.5c-2,0-3.2,1.6-3.2,3.4v0c0,1.8,1.3,3.4,3.3,3.4
				C150.7,26.2,151.9,24.6,151.9,22.8z"/>
			<path class="st8" d="M165.1,22v-9.3h3.6v9.2c0,2.6,1.3,4,3.5,4c2.2,0,3.5-1.3,3.5-3.9v-9.3h3.6v9.2c0,4.9-2.8,7.3-7.1,7.3
				C167.7,29.2,165.1,26.8,165.1,22z M173.5,7.8l3,1.3l-3.2,2.3h-2.7L173.5,7.8z"/>
			<path class="st8" d="M182.5,16.5h3.5v1.8c0.8-1,1.9-2,3.6-2c2.7,0,4.2,1.8,4.2,4.6v8.1h-3.5V22c0-1.7-0.8-2.5-2.1-2.5
				c-1.3,0-2.2,0.9-2.2,2.5v6.9h-3.5V16.5z"/>
			<path class="st8" d="M197,12h3.7v3.1H197V12z M197.1,16.5h3.5v12.4h-3.5V16.5z"/>
			<path class="st8" d="M203.4,22.8L203.4,22.8c0-3.6,2.7-6.5,6.5-6.5c2.3,0,3.8,0.8,5,2.1l-2.2,2.3c-0.8-0.8-1.6-1.4-2.8-1.4
				c-1.8,0-3,1.6-3,3.4v0c0,1.9,1.2,3.4,3.2,3.4c1.2,0,2-0.5,2.9-1.3l2.1,2.1c-1.2,1.3-2.6,2.3-5.1,2.3
				C206.1,29.2,203.4,26.4,203.4,22.8z"/>
			<path class="st8" d="M216.3,22.8L216.3,22.8c0-3.6,2.9-6.5,6.8-6.5c3.9,0,6.7,2.9,6.7,6.4v0c0,3.6-2.9,6.5-6.8,6.5
				C219.1,29.2,216.3,26.4,216.3,22.8z M226.3,22.8L226.3,22.8c0-1.9-1.3-3.5-3.3-3.5c-2,0-3.2,1.6-3.2,3.4v0c0,1.8,1.3,3.4,3.3,3.4
				C225,26.2,226.3,24.6,226.3,22.8z"/>
			<path class="st8" d="M238.7,22.8L238.7,22.8c0-4.2,2.7-6.5,5.7-6.5c1.9,0,3,0.9,3.9,1.9V12h3.5v16.9h-3.5v-1.8
				c-0.9,1.2-2,2-3.9,2C241.5,29.2,238.7,26.9,238.7,22.8z M248.3,22.8L248.3,22.8c0-2.1-1.4-3.5-3-3.5c-1.6,0-3,1.3-3,3.4v0
				c0,2.1,1.4,3.4,3,3.4C246.9,26.2,248.3,24.8,248.3,22.8z"/>
			<path class="st8" d="M254.3,22.8L254.3,22.8c0-3.6,2.5-6.5,6.2-6.5c4.2,0,6.1,3.2,6.1,6.8c0,0.3,0,0.6,0,0.9h-8.7
				c0.3,1.6,1.5,2.4,3,2.4c1.2,0,2-0.4,3-1.3l2,1.8c-1.2,1.4-2.8,2.3-5.1,2.3C257.1,29.2,254.3,26.6,254.3,22.8z M263.1,21.8
				c-0.2-1.6-1.1-2.6-2.6-2.6c-1.5,0-2.4,1-2.7,2.6H263.1z"/>
			<path class="st8" d="M282.1,12.6h3.3l7,16.4h-3.7l-1.5-3.6h-6.9l-1.5,3.6h-3.6L282.1,12.6z M285.8,22.1l-2.2-5.3l-2.2,5.3H285.8z
				"/>
			<path class="st8" d="M294.1,24.6v-8.1h3.5v6.9c0,1.7,0.8,2.5,2.1,2.5s2.2-0.9,2.2-2.5v-6.9h3.5v12.4H302v-1.8c-0.8,1-1.9,2-3.6,2
				C295.7,29.2,294.1,27.4,294.1,24.6z"/>
			<path class="st8" d="M308.1,22.8L308.1,22.8c0-4.2,2.7-6.5,5.7-6.5c1.9,0,3,0.9,3.9,1.9V12h3.5v16.9h-3.5v-1.8
				c-0.9,1.2-2,2-3.9,2C310.9,29.2,308.1,26.9,308.1,22.8z M317.7,22.8L317.7,22.8c0-2.1-1.4-3.5-3-3.5c-1.6,0-3,1.3-3,3.4v0
				c0,2.1,1.4,3.4,3,3.4C316.3,26.2,317.7,24.8,317.7,22.8z"/>
			<path class="st8" d="M324.4,12h3.7v3.1h-3.7V12z M324.5,16.5h3.5v12.4h-3.5V16.5z"/>
			<path class="st8" d="M330.8,22.8L330.8,22.8c0-3.6,2.5-6.5,6.2-6.5c4.2,0,6.1,3.2,6.1,6.8c0,0.3,0,0.6,0,0.9h-8.7
				c0.3,1.6,1.5,2.4,3,2.4c1.2,0,2-0.4,3-1.3l2,1.8c-1.2,1.4-2.8,2.3-5.1,2.3C333.5,29.2,330.8,26.6,330.8,22.8z M339.5,21.8
				c-0.2-1.6-1.1-2.6-2.6-2.6c-1.5,0-2.4,1-2.7,2.6H339.5z"/>
			<path class="st8" d="M345.6,16.5h3.5v1.8c0.8-1,1.9-2,3.6-2c2.7,0,4.2,1.8,4.2,4.6v8.1h-3.5V22c0-1.7-0.8-2.5-2.1-2.5
				c-1.3,0-2.2,0.9-2.2,2.5v6.9h-3.5V16.5z"/>
			<path class="st8" d="M359.5,22.8L359.5,22.8c0-3.6,2.7-6.5,6.5-6.5c2.3,0,3.8,0.8,5,2.1l-2.2,2.3c-0.8-0.8-1.6-1.4-2.8-1.4
				c-1.8,0-3,1.6-3,3.4v0c0,1.9,1.2,3.4,3.2,3.4c1.2,0,2-0.5,2.9-1.3L371,27c-1.2,1.3-2.6,2.3-5.1,2.3
				C362.2,29.2,359.5,26.4,359.5,22.8z"/>
			<path class="st8" d="M373.4,12h3.7v3.1h-3.7V12z M373.5,16.5h3.5v12.4h-3.5V16.5z"/>
			<path class="st8" d="M379.6,25.4L379.6,25.4c0-2.8,2.1-4,5-4c1.3,0,2.2,0.2,3,0.5v-0.2c0-1.5-0.9-2.3-2.7-2.3
				c-1.3,0-2.3,0.3-3.4,0.7l-0.9-2.7c1.4-0.6,2.7-1,4.8-1c1.9,0,3.3,0.5,4.2,1.4c0.9,0.9,1.3,2.3,1.3,4v7.2h-3.4v-1.3
				c-0.9,1-2,1.6-3.8,1.6C381.5,29.2,379.6,27.8,379.6,25.4z M387.7,24.6v-0.6c-0.6-0.3-1.4-0.5-2.3-0.5c-1.5,0-2.4,0.6-2.4,1.7v0
				c0,1,0.8,1.5,1.9,1.5C386.6,26.7,387.7,25.8,387.7,24.6z"/>
			<path class="st8" d="M393.1,27.3l1.5-2.3c1.3,1,2.8,1.5,3.9,1.5c1,0,1.5-0.4,1.5-0.9v0c0-0.8-1.2-1-2.6-1.4
				c-1.7-0.5-3.7-1.3-3.7-3.7v0c0-2.5,2-3.9,4.5-3.9c1.6,0,3.3,0.5,4.6,1.4l-1.3,2.4c-1.2-0.7-2.5-1.2-3.4-1.2
				c-0.9,0-1.3,0.4-1.3,0.9v0c0,0.7,1.2,1,2.5,1.5c1.7,0.6,3.8,1.4,3.8,3.7v0c0,2.8-2.1,4-4.8,4C396.7,29.2,394.7,28.6,393.1,27.3z"
				/>
		</g>
	</g>
</g>
</svg>
