<?xml version="1.0" encoding="utf-8"?>
<!-- Generator: Adobe Illustrator 19.2.1, SVG Export Plug-In . SVG Version: 6.00 Build 0)  -->
<svg version="1.1" id="Capa_1" xmlns="http://www.w3.org/2000/svg" xmlns:xlink="http://www.w3.org/1999/xlink" x="0px" y="0px"
	 viewBox="0 0 43.4 40" style="enable-background:new 0 0 43.4 40;" xml:space="preserve">
<style type="text/css">
	.st0{fill:#CCCCCC;}
	.st1{fill:#FFFFFF;}
</style>
<title>logo-agregar</title>
<circle class="st0" cx="21.7" cy="20" r="13"/>
<path class="st1" d="M23.6,27.7c-0.2,0.2-0.5,0.3-0.8,0.3h-2.2c-0.6,0-1.1-0.5-1.1-1.1l0,0v-4.7h-4.7c-0.6,0-1.1-0.5-1.1-1.1l0,0
	v-2.2c0-0.6,0.5-1.1,1.1-1.1l0,0h4.7v-4.7c0-0.6,0.4-1.1,1-1.1c0,0,0,0,0,0h2.2c0.6,0,1.1,0.5,1.1,1.1l0,0v4.7h4.7
	c0.6,0,1.1,0.5,1.1,1.1l0,0v2.2c0,0.6-0.5,1.1-1.1,1.1l0,0h-4.7v4.7C23.9,27.2,23.8,27.5,23.6,27.7z"/>
</svg>
