<svg id="Capa_1" data-name="Capa 1" xmlns="http://www.w3.org/2000/svg" viewBox="0 0 43.42 40.02"><defs><style>.cls-1{fill:#c8c8c8;}.cls-2{fill:#fff;}</style></defs><title>logo-agregar</title><circle class="cls-1" cx="21.71" cy="20.01" r="12"/><path class="cls-2" d="M23.57,27.66a1,1,0,0,1-.77.32H20.62a1.09,1.09,0,0,1-1.09-1.09V22.19H14.82a1.09,1.09,0,0,1-1.09-1.09V18.92a1.09,1.09,0,0,1,1.09-1.09h4.71V13.13A1.09,1.09,0,0,1,20.62,12H22.8a1.09,1.09,0,0,1,1.09,1.09v4.71h4.71a1.09,1.09,0,0,1,1.09,1.09V21.1a1.09,1.09,0,0,1-1.09,1.09H23.89V26.9A1,1,0,0,1,23.57,27.66Z"/></svg>