<?xml version="1.0" encoding="utf-8"?>
<!-- Generator: Adobe Illustrator 19.2.1, SVG Export Plug-In . SVG Version: 6.00 Build 0)  -->
<svg version="1.1" id="Capa_1" xmlns="http://www.w3.org/2000/svg" xmlns:xlink="http://www.w3.org/1999/xlink" x="0px" y="0px"
	 viewBox="0 0 272 283.1" style="enable-background:new 0 0 272 283.1;" xml:space="preserve">
<style type="text/css">
	.st0{fill:#5371B5;}
	.st1{fill:#355E98;}
	.st2{fill:#F9F9F9;}
	.st3{fill:#EBEBEB;}
	.st4{fill:#FFFFFF;}
	.st5{fill:#4071B7;}
	.st6{fill:url(#SVGID_1_);}
</style>
<title>logo-info</title>
<g>
	<g>
		<g>
			<circle class="st0" cx="136" cy="139.1" r="126.1"/>
		</g>
		<g>
			<path class="st1" d="M136,266.8c-70.4,0-127.7-57.3-127.7-127.7C8.3,68.7,65.6,11.4,136,11.4s127.7,57.3,127.7,127.7
				C263.7,209.5,206.4,266.8,136,266.8z M136,14.6c-68.7,0-124.5,55.9-124.5,124.5c0,68.7,55.9,124.5,124.5,124.5
				s124.5-55.9,124.5-124.5C260.5,70.4,204.7,14.6,136,14.6z"/>
		</g>
		<g>
			<g>
				<path class="st2" d="M174.9,27.4c-12.2-4.2-25.3-6.5-38.9-6.5c-65.3,0-118.3,53-118.3,118.3s53,118.3,118.3,118.3
					s118.3-53,118.3-118.3c0-16.4-3.3-32-9.4-46.3c-0.8-2-1.7-4-2.7-5.9c-10-20.3-25.7-37.3-44.9-49"/>
				<path class="st1" d="M136,258.4c-65.8,0-119.3-53.5-119.3-119.3S70.2,19.8,136,19.8c13.4,0,26.6,2.2,39.2,6.6
					c0.5,0.2,0.8,0.8,0.6,1.3c-0.2,0.5-0.8,0.8-1.3,0.6c-12.4-4.3-25.3-6.5-38.5-6.5c-64.6,0-117.2,52.6-117.2,117.2
					S71.4,256.3,136,256.3c64.6,0,117.2-52.6,117.2-117.2c0-15.9-3.1-31.3-9.3-45.8c-0.8-2-1.7-3.9-2.7-5.8
					c-9.9-20.1-25.3-36.9-44.5-48.6c-0.5-0.3-0.7-0.9-0.4-1.4c0.3-0.5,0.9-0.7,1.4-0.4c19.6,11.9,35.2,29,45.3,49.5
					c1,2,1.9,4,2.7,5.9c6.3,14.8,9.5,30.5,9.5,46.7C255.3,204.9,201.8,258.4,136,258.4z"/>
			</g>
		</g>
		<circle class="st3" cx="101.4" cy="138.9" r="7"/>
		<circle class="st3" cx="164.3" cy="87.8" r="7"/>
		<path class="st3" d="M137.3,180.6H193c7.2,0,13,5.7,13,12.8s-5.8,12.8-13,12.8h-55.7h-1.5h-29.3c-7.1,0-12.8-5.7-12.8-12.8
			s5.7-12.8,12.8-12.8h29.3"/>
		<path class="st3" d="M137.2,163.7h36.5c4.7,0,8.5,3.8,8.5,8.4c0,4.6-3.8,8.4-8.5,8.4h-36.5h-1h-10.3c-4.6,0-8.4-3.8-8.4-8.4
			c0-4.6,3.8-8.4,8.4-8.4h10.3"/>
		<g>
			<g>
				<path class="st4" d="M192.1,35.2c-4.1-2.3-8.3-4.3-12.7-6.1"/>
				<path class="st1" d="M192.1,36.2c-0.2,0-0.3,0-0.5-0.1c-4.1-2.2-8.3-4.3-12.6-6c-0.5-0.2-0.8-0.8-0.6-1.4s0.8-0.8,1.4-0.6
					c4.4,1.8,8.7,3.8,12.8,6.1c0.5,0.3,0.7,0.9,0.4,1.4C192.8,36,192.5,36.2,192.1,36.2z"/>
			</g>
		</g>
		<g>
			<g>
				<circle class="st4" cx="136" cy="74.3" r="16.8"/>
			</g>
			<g>
				<path class="st4" d="M122.1,122.1c0-8.2,6.2-14.9,13.9-14.9s13.9,6.7,13.9,14.9l1.7,84.8c0,0,1.3,18.5-15.7,18.5
					c-16.8,0-15.7-18.5-15.7-18.5L122.1,122.1z"/>
			</g>
		</g>
		<g>
			<g>
				<circle class="st0" cx="136" cy="74.3" r="16.8"/>
			</g>
			<g>
				<path class="st0" d="M122.1,122.1c0-8.2,6.2-14.9,13.9-14.9s13.9,6.7,13.9,14.9l1.7,84.8c0,0,1.3,18.5-15.7,18.5
					c-16.8,0-15.7-18.5-15.7-18.5L122.1,122.1z"/>
			</g>
		</g>
		<g>
			<g>
				<path class="st1" d="M136,92.8c-10.2,0-18.5-8.3-18.5-18.5c0-10.2,8.3-18.5,18.5-18.5c10.2,0,18.5,8.3,18.5,18.5
					C154.5,84.5,146.2,92.8,136,92.8z M136,59.2c-8.3,0-15.1,6.8-15.1,15.1s6.8,15.1,15.1,15.1s15.1-6.8,15.1-15.1
					S144.3,59.2,136,59.2z"/>
			</g>
			<g>
				<path class="st1" d="M136,227.2c-5.2,0-9.3-1.6-12.3-4.8c-5.6-5.9-5.1-15.1-5-15.5l1.7-84.7c0-9.1,7-16.5,15.6-16.5
					c8.6,0,15.6,7.4,15.6,16.6l1.7,84.8c0,0.3,0.6,9.5-5,15.4C145.4,225.6,141.2,227.2,136,227.2z M136,109
					c-6.7,0-12.2,5.9-12.2,13.2c0,0,0,0,0,0l-1.7,84.8c0,0.2-0.4,8.2,4.1,13.1c2.3,2.5,5.6,3.7,9.8,3.7c4.2,0,7.5-1.3,9.9-3.8
					c4.5-4.9,4.1-12.9,4.1-13l-1.7-84.9C148.2,114.9,142.8,109,136,109z M122.1,122.1L122.1,122.1L122.1,122.1z"/>
			</g>
		</g>
	</g>
	<g>
		<g>
			<circle class="st2" cx="212.3" cy="236.5" r="20.9"/>
			<path class="st1" d="M212.3,258.4c-12.1,0-21.9-9.8-21.9-21.9s9.8-21.9,21.9-21.9c12.1,0,21.9,9.8,21.9,21.9
				S224.3,258.4,212.3,258.4z M212.3,216.7c-10.9,0-19.8,8.9-19.8,19.8s8.9,19.8,19.8,19.8s19.8-8.9,19.8-19.8
				S223.2,216.7,212.3,216.7z"/>
		</g>
	</g>
	<g>
		<g>
			<line class="st5" x1="131" y1="190.1" x2="148" y2="190.1"/>
			<path class="st1" d="M148,191.1h-17c-0.8,0-1.5-0.7-1.5-1.5s0.7-1.5,1.5-1.5h17c0.8,0,1.5,0.7,1.5,1.5S148.8,191.1,148,191.1z"/>
		</g>
		<g>
			<line class="st5" x1="134" y1="198.1" x2="148" y2="198.1"/>
			<path class="st1" d="M148,199.1h-14c-0.8,0-1.5-0.7-1.5-1.5s0.7-1.5,1.5-1.5h14c0.8,0,1.5,0.7,1.5,1.5S148.8,199.1,148,199.1z"/>
		</g>
		<g>
			<line class="st5" x1="129" y1="198.1" x2="130" y2="198.1"/>
			<path class="st1" d="M130,199.1h-1c-0.8,0-1.5-0.7-1.5-1.5s0.7-1.5,1.5-1.5h1c0.8,0,1.5,0.7,1.5,1.5S130.8,199.1,130,199.1z"/>
		</g>
		<g>
			<line class="st5" x1="129" y1="205.1" x2="148" y2="205.1"/>
			<path class="st1" d="M148,206.1h-19c-0.8,0-1.5-0.7-1.5-1.5s0.7-1.5,1.5-1.5h19c0.8,0,1.5,0.7,1.5,1.5S148.8,206.1,148,206.1z"/>
		</g>
	</g>
	<linearGradient id="SVGID_1_" gradientUnits="userSpaceOnUse" x1="201.4314" y1="236.5312" x2="223.1066" y2="236.5312">
		<stop  offset="0" style="stop-color:#4070B7"/>
		<stop  offset="0.9958" style="stop-color:#4070B7;stop-opacity:0.8"/>
	</linearGradient>
	<path class="st6" d="M212.3,228.4v4.1l5.4-5.4l-5.4-5.4v4.1c-6,0-10.8,4.8-10.8,10.8c0,2.1,0.6,4.1,1.7,5.8l2-2
		c-0.6-1.1-0.9-2.4-0.9-3.8C204.1,232,207.8,228.4,212.3,228.4z M221.4,230.8l-2,2c0.6,1.1,0.9,2.4,0.9,3.8c0,4.5-3.6,8.1-8.1,8.1
		v-4.1l-5.4,5.4l5.4,5.4v-4.1c6,0,10.8-4.8,10.8-10.8C223.1,234.4,222.5,232.4,221.4,230.8z"/>
</g>
</svg>
